solid AutoSave_Spring_Connector
facet normal 0.0 0.0 1.0
  outer loop
    vertex 179.85469016931313 237.84607132603404 3.499999999999999
    vertex 160.8546901693132 319.84607132603395 3.499999999999999
    vertex 160.8546901693132 237.84607132603404 3.499999999999999
  endloop
endfacet
facet normal 0.0 0.0 1.0
  outer loop
    vertex 160.8546901693132 319.84607132603395 3.499999999999999
    vertex 179.85469016931313 237.84607132603404 3.499999999999999
    vertex 179.85469016931313 319.84607132603395 3.499999999999999
  endloop
endfacet
facet normal 0.0 1.0 0.0
  outer loop
    vertex 160.8546901693132 319.84607132603395 3.499999999999999
    vertex 179.85469016931313 319.84607132603395 1.5862311464331924e-15
    vertex 160.8546901693132 319.84607132603395 1.5862311464331924e-15
  endloop
endfacet
facet normal 0.0 1.0 0.0
  outer loop
    vertex 179.85469016931313 319.84607132603395 1.5862311464331924e-15
    vertex 160.8546901693132 319.84607132603395 3.499999999999999
    vertex 179.85469016931313 319.84607132603395 3.499999999999999
  endloop
endfacet
facet normal -1.0 -0.0 -0.0
  outer loop
    vertex 160.8546901693132 319.84607132603395 3.499999999999999
    vertex 160.8546901693132 237.84607132603404 1.4099832412739487e-15
    vertex 160.8546901693132 237.84607132603404 3.499999999999999
  endloop
endfacet
facet normal -1.0 -0.0 -0.0
  outer loop
    vertex 160.8546901693132 237.84607132603404 1.4099832412739487e-15
    vertex 160.8546901693132 319.84607132603395 3.499999999999999
    vertex 160.8546901693132 319.84607132603395 1.5862311464331924e-15
  endloop
endfacet
facet normal -0.0 -1.0 -0.0
  outer loop
    vertex 179.85469016931313 237.84607132603404 3.499999999999999
    vertex 160.8546901693132 237.84607132603404 1.4099832412739487e-15
    vertex 179.85469016931313 237.84607132603404 1.4099832412739487e-15
  endloop
endfacet
facet normal -0.0 -1.0 -0.0
  outer loop
    vertex 160.8546901693132 237.84607132603404 1.4099832412739487e-15
    vertex 179.85469016931313 237.84607132603404 3.499999999999999
    vertex 160.8546901693132 237.84607132603404 3.499999999999999
  endloop
endfacet
facet normal 0.0 1.7624790515924353e-18 -1.0
  outer loop
    vertex 179.85469016931313 319.84607132603395 1.5862311464331924e-15
    vertex 160.8546901693132 237.84607132603404 1.4099832412739487e-15
    vertex 160.8546901693132 319.84607132603395 1.5862311464331924e-15
  endloop
endfacet
facet normal 0.0 1.7624790515924353e-18 -1.0
  outer loop
    vertex 160.8546901693132 237.84607132603404 1.4099832412739487e-15
    vertex 179.85469016931313 319.84607132603395 1.5862311464331924e-15
    vertex 179.85469016931313 237.84607132603404 1.4099832412739487e-15
  endloop
endfacet
facet normal 1.0 0.0 0.0
  outer loop
    vertex 179.85469016931313 319.84607132603395 1.5862311464331924e-15
    vertex 179.85469016931313 237.84607132603404 3.499999999999999
    vertex 179.85469016931313 237.84607132603404 1.4099832412739487e-15
  endloop
endfacet
facet normal 1.0 0.0 0.0
  outer loop
    vertex 179.85469016931313 237.84607132603404 3.499999999999999
    vertex 179.85469016931313 319.84607132603395 1.5862311464331924e-15
    vertex 179.85469016931313 319.84607132603395 3.499999999999999
  endloop
endfacet
endsolid AutoSave_Spring_Connector
