solid AutoSave_Spring_Connector
facet normal 0.0 -1.0 0.0
  outer loop
    vertex 96.94373760677449 90.51502098470901 0.0
    vertex 93.44373760677449 90.51502098470901 1.9999999999999991
    vertex 93.44373760677449 90.51502098470901 -2.7115062332191335e-16
  endloop
endfacet
facet normal 0.0 -1.0 0.0
  outer loop
    vertex 93.44373760677449 90.51502098470901 1.9999999999999991
    vertex 96.94373760677449 90.51502098470901 0.0
    vertex 96.94373760677449 90.51502098470901 1.9999999999999998
  endloop
endfacet
facet normal 1.0 0.0 0.0
  outer loop
    vertex 96.94373760677449 120.51502098470903 0.0
    vertex 96.94373760677449 90.51502098470901 1.9999999999999998
    vertex 96.94373760677449 90.51502098470901 0.0
  endloop
endfacet
facet normal 1.0 0.0 0.0
  outer loop
    vertex 96.94373760677449 90.51502098470901 1.9999999999999998
    vertex 96.94373760677449 120.51502098470903 0.0
    vertex 96.94373760677449 120.51502098470903 1.9999999999999998
  endloop
endfacet
facet normal 0.0 1.0 0.0
  outer loop
    vertex 86.94373760677449 120.51502098470903 1.9999999999999998
    vertex 96.94373760677449 120.51502098470903 0.0
    vertex 86.94373760677449 120.51502098470903 0.0
  endloop
endfacet
facet normal 0.0 1.0 0.0
  outer loop
    vertex 96.94373760677449 120.51502098470903 0.0
    vertex 86.94373760677449 120.51502098470903 1.9999999999999998
    vertex 96.94373760677449 120.51502098470903 1.9999999999999998
  endloop
endfacet
facet normal -1.0 0.0 0.0
  outer loop
    vertex 86.94373760677449 120.51502098470903 1.9999999999999998
    vertex 86.94373760677449 90.51502098470901 0.0
    vertex 86.94373760677449 90.51502098470901 1.9999999999999998
  endloop
endfacet
facet normal -1.0 0.0 0.0
  outer loop
    vertex 86.94373760677449 90.51502098470901 0.0
    vertex 86.94373760677449 120.51502098470903 1.9999999999999998
    vertex 86.94373760677449 120.51502098470903 0.0
  endloop
endfacet
facet normal 0.3826834323650946 0.9238795325112847 3.74344159616201e-17
  outer loop
    vertex 93.44373760677449 99.72279547351881 5.000000000000002
    vertex 94.19373760677448 99.41213530173899 3.5
    vertex 93.44373760677449 99.72279547351881 3.499999999999999
  endloop
endfacet
facet normal 0.3826834323650946 0.9238795325112847 3.74344159616201e-17
  outer loop
    vertex 94.19373760677448 99.41213530173899 3.5
    vertex 93.44373760677449 99.72279547351881 5.000000000000002
    vertex 94.19373760677448 99.41213530173899 5.000000000000003
  endloop
endfacet
facet normal 0.9238795325112872 0.382683432365089 9.037467471405788e-17
  outer loop
    vertex 95.84085192380446 97.76502098470903 3.5
    vertex 96.29040382507529 96.67970668767036 5.000000000000003
    vertex 96.29040382507529 96.67970668767036 3.5
  endloop
endfacet
facet normal 0.9238795325112872 0.382683432365089 9.037467471405788e-17
  outer loop
    vertex 96.29040382507529 96.67970668767036 5.000000000000003
    vertex 95.84085192380446 97.76502098470903 3.5
    vertex 95.84085192380446 97.76502098470903 5.000000000000003
  endloop
endfacet
facet normal -1.0 0.0 0.0
  outer loop
    vertex 93.44373760677449 99.72279547351881 5.000000000000002
    vertex 93.44373760677449 91.30724649589922 3.499999999999999
    vertex 93.44373760677449 91.30724649589922 5.000000000000002
  endloop
endfacet
facet normal -1.0 0.0 0.0
  outer loop
    vertex 93.44373760677449 91.30724649589922 3.499999999999999
    vertex 93.44373760677449 99.72279547351881 5.000000000000002
    vertex 93.44373760677449 92.91694477335571 3.5
  endloop
endfacet
facet normal -1.0 0.0 0.0
  outer loop
    vertex 93.44373760677449 92.91694477335571 3.5
    vertex 93.44373760677449 99.72279547351881 5.000000000000002
    vertex 93.44373760677449 92.91694477335571 1.9999999999999998
  endloop
endfacet
facet normal -1.0 0.0 0.0
  outer loop
    vertex 93.44373760677449 92.91694477335571 1.9999999999999998
    vertex 93.44373760677449 99.72279547351881 5.000000000000002
    vertex 93.44373760677449 98.11309719606233 3.5
  endloop
endfacet
facet normal -1.0 0.0 0.0
  outer loop
    vertex 93.44373760677449 98.11309719606233 3.5
    vertex 93.44373760677449 99.72279547351881 5.000000000000002
    vertex 93.44373760677449 99.72279547351881 3.499999999999999
  endloop
endfacet
facet normal -1.0 0.0 0.0
  outer loop
    vertex 93.44373760677449 98.11309719606233 1.9999999999999998
    vertex 93.44373760677449 92.91694477335571 1.9999999999999998
    vertex 93.44373760677449 98.11309719606233 3.5
  endloop
endfacet
facet normal 0.793353340291239 -0.6087614290087159 7.760649255562547e-17
  outer loop
    vertex 95.84085192380446 93.26502098470903 3.5
    vertex 95.12571812211397 92.33304046936955 5.000000000000003
    vertex 95.12571812211397 92.33304046936955 3.5
  endloop
endfacet
facet normal 0.793353340291239 -0.6087614290087159 7.760649255562547e-17
  outer loop
    vertex 95.12571812211397 92.33304046936955 5.000000000000003
    vertex 95.84085192380446 93.26502098470903 3.5
    vertex 95.84085192380446 93.26502098470903 5.000000000000003
  endloop
endfacet
facet normal 0.6087614290087219 0.7933533402912343 5.954955618031962e-17
  outer loop
    vertex 94.19373760677448 99.41213530173899 5.000000000000003
    vertex 95.12571812211395 98.69700150004847 3.5
    vertex 94.19373760677448 99.41213530173899 3.5
  endloop
endfacet
facet normal 0.6087614290087219 0.7933533402912343 5.954955618031962e-17
  outer loop
    vertex 95.12571812211395 98.69700150004847 3.5
    vertex 94.19373760677448 99.41213530173899 5.000000000000003
    vertex 95.12571812211395 98.69700150004847 5.000000000000003
  endloop
endfacet
facet normal 0.7933533402912308 0.6087614290087265 7.760649255562472e-17
  outer loop
    vertex 95.12571812211395 98.69700150004847 3.5
    vertex 95.84085192380446 97.76502098470903 5.000000000000003
    vertex 95.84085192380446 97.76502098470903 3.5
  endloop
endfacet
facet normal 0.7933533402912308 0.6087614290087265 7.760649255562472e-17
  outer loop
    vertex 95.84085192380446 97.76502098470903 5.000000000000003
    vertex 95.12571812211395 98.69700150004847 3.5
    vertex 95.12571812211395 98.69700150004847 5.000000000000003
  endloop
endfacet
facet normal 0.9914448613738103 -0.13052619222005374 9.698397214193897e-17
  outer loop
    vertex 96.44373760677449 95.51502098470901 3.5
    vertex 96.29040382507529 94.35033528174768 5.000000000000003
    vertex 96.29040382507529 94.35033528174768 3.5
  endloop
endfacet
facet normal 0.9914448613738103 -0.13052619222005374 9.698397214193897e-17
  outer loop
    vertex 96.29040382507529 94.35033528174768 5.000000000000003
    vertex 96.44373760677449 95.51502098470901 3.5
    vertex 96.44373760677449 95.51502098470901 5.000000000000003
  endloop
endfacet
facet normal -0.7933533402912325 0.6087614290087243 0.0
  outer loop
    vertex 89.82241726321485 97.63634132826866 3.5
    vertex 89.34566139542117 97.01502098470901 1.9999999999999998
    vertex 89.34566139542117 97.01502098470901 3.5
  endloop
endfacet
facet normal -0.7933533402912325 0.6087614290087243 0.0
  outer loop
    vertex 89.34566139542117 97.01502098470901 1.9999999999999998
    vertex 89.82241726321485 97.63634132826866 3.5
    vertex 89.82241726321485 97.63634132826866 1.9999999999999998
  endloop
endfacet
facet normal -9.782084301445843e-17 -6.448946086748328e-32 1.0
  outer loop
    vertex 94.19373760677449 91.61790666767904 3.5
    vertex 93.44373760677449 92.91694477335571 3.5
    vertex 93.44373760677449 91.30724649589922 3.499999999999999
  endloop
endfacet
facet normal -9.782084301445843e-17 -6.448946086748328e-32 1.0
  outer loop
    vertex 93.44373760677449 92.91694477335571 3.5
    vertex 94.19373760677449 91.61790666767904 3.5
    vertex 94.06505795033412 93.39370064114938 3.5
  endloop
endfacet
facet normal -9.782084301445843e-17 -6.448946086748328e-32 1.0
  outer loop
    vertex 94.06505795033412 93.39370064114938 3.5
    vertex 94.19373760677449 91.61790666767904 3.5
    vertex 94.54181381812779 94.01502098470903 3.5
  endloop
endfacet
facet normal -9.782084301445843e-17 -6.448946086748328e-32 1.0
  outer loop
    vertex 94.54181381812779 94.01502098470903 3.5
    vertex 94.19373760677449 91.61790666767904 3.5
    vertex 95.12571812211397 92.33304046936955 3.5
  endloop
endfacet
facet normal -9.782084301445843e-17 -6.448946086748328e-32 1.0
  outer loop
    vertex 94.54181381812779 94.01502098470903 3.5
    vertex 95.12571812211397 92.33304046936955 3.5
    vertex 94.84151508564169 94.73856384940146 3.5
  endloop
endfacet
facet normal -9.782084301445843e-17 -6.448946086748328e-32 1.0
  outer loop
    vertex 94.84151508564169 94.73856384940146 3.5
    vertex 95.12571812211397 92.33304046936955 3.5
    vertex 94.94373760677448 95.51502098470901 3.5
  endloop
endfacet
facet normal -9.782084301445843e-17 -6.448946086748328e-32 1.0
  outer loop
    vertex 94.94373760677448 95.51502098470901 3.5
    vertex 95.12571812211397 92.33304046936955 3.5
    vertex 95.12571812211395 98.69700150004847 3.5
  endloop
endfacet
facet normal -9.782084301445843e-17 -6.448946086748328e-32 1.0
  outer loop
    vertex 95.12571812211395 98.69700150004847 3.5
    vertex 95.12571812211397 92.33304046936955 3.5
    vertex 95.84085192380446 97.76502098470903 3.5
  endloop
endfacet
facet normal -9.782084301445843e-17 -6.448946086748328e-32 1.0
  outer loop
    vertex 95.84085192380446 97.76502098470903 3.5
    vertex 95.12571812211397 92.33304046936955 3.5
    vertex 95.84085192380446 93.26502098470903 3.5
  endloop
endfacet
facet normal -9.782084301445843e-17 -6.448946086748328e-32 1.0
  outer loop
    vertex 95.84085192380446 97.76502098470903 3.5
    vertex 95.84085192380446 93.26502098470903 3.5
    vertex 96.29040382507529 94.35033528174768 3.5
  endloop
endfacet
facet normal -9.782084301445843e-17 -6.448946086748328e-32 1.0
  outer loop
    vertex 95.84085192380446 97.76502098470903 3.5
    vertex 96.29040382507529 94.35033528174768 3.5
    vertex 96.29040382507529 96.67970668767036 3.5
  endloop
endfacet
facet normal -9.782084301445843e-17 -6.448946086748328e-32 1.0
  outer loop
    vertex 96.29040382507529 96.67970668767036 3.5
    vertex 96.29040382507529 94.35033528174768 3.5
    vertex 96.44373760677449 95.51502098470901 3.5
  endloop
endfacet
facet normal -9.782084301445843e-17 -6.448946086748328e-32 1.0
  outer loop
    vertex 94.06505795033412 97.63634132826866 3.5
    vertex 93.44373760677449 99.72279547351881 3.499999999999999
    vertex 93.44373760677449 98.11309719606233 3.5
  endloop
endfacet
facet normal -9.782084301445843e-17 -6.448946086748328e-32 1.0
  outer loop
    vertex 93.44373760677449 99.72279547351881 3.499999999999999
    vertex 94.06505795033412 97.63634132826866 3.5
    vertex 94.19373760677448 99.41213530173899 3.5
  endloop
endfacet
facet normal -9.782084301445843e-17 -6.448946086748328e-32 1.0
  outer loop
    vertex 94.19373760677448 99.41213530173899 3.5
    vertex 94.06505795033412 97.63634132826866 3.5
    vertex 94.54181381812779 97.01502098470901 3.5
  endloop
endfacet
facet normal -9.782084301445843e-17 -6.448946086748328e-32 1.0
  outer loop
    vertex 94.19373760677448 99.41213530173899 3.5
    vertex 94.54181381812779 97.01502098470901 3.5
    vertex 95.12571812211395 98.69700150004847 3.5
  endloop
endfacet
facet normal -9.782084301445843e-17 -6.448946086748328e-32 1.0
  outer loop
    vertex 95.12571812211395 98.69700150004847 3.5
    vertex 94.54181381812779 97.01502098470901 3.5
    vertex 94.84151508564167 96.29147812001658 3.5
  endloop
endfacet
facet normal -9.782084301445843e-17 -6.448946086748328e-32 1.0
  outer loop
    vertex 95.12571812211395 98.69700150004847 3.5
    vertex 94.84151508564167 96.29147812001658 3.5
    vertex 94.94373760677448 95.51502098470901 3.5
  endloop
endfacet
facet normal 0.3826834323650897 -0.9238795325112868 3.7434415961619495e-17
  outer loop
    vertex 94.19373760677449 91.61790666767904 3.5
    vertex 93.44373760677449 91.30724649589922 5.000000000000002
    vertex 93.44373760677449 91.30724649589922 3.499999999999999
  endloop
endfacet
facet normal 0.3826834323650897 -0.9238795325112868 3.7434415961619495e-17
  outer loop
    vertex 93.44373760677449 91.30724649589922 5.000000000000002
    vertex 94.19373760677449 91.61790666767904 3.5
    vertex 94.19373760677449 91.61790666767904 5.000000000000003
  endloop
endfacet
facet normal 0.9238795325112854 -0.3826834323650931 -0.0
  outer loop
    vertex 94.84151508564169 94.73856384940146 1.9999999999999998
    vertex 94.54181381812779 94.01502098470903 3.5
    vertex 94.54181381812779 94.01502098470903 1.9999999999999998
  endloop
endfacet
facet normal 0.9238795325112854 -0.3826834323650931 -0.0
  outer loop
    vertex 94.54181381812779 94.01502098470903 3.5
    vertex 94.84151508564169 94.73856384940146 1.9999999999999998
    vertex 94.84151508564169 94.73856384940146 3.5
  endloop
endfacet
facet normal 0.7933533402912325 -0.6087614290087243 -0.0
  outer loop
    vertex 94.54181381812779 94.01502098470903 1.9999999999999998
    vertex 94.06505795033412 93.39370064114938 3.5
    vertex 94.06505795033412 93.39370064114938 1.9999999999999998
  endloop
endfacet
facet normal 0.7933533402912325 -0.6087614290087243 -0.0
  outer loop
    vertex 94.06505795033412 93.39370064114938 3.5
    vertex 94.54181381812779 94.01502098470903 1.9999999999999998
    vertex 94.54181381812779 94.01502098470903 3.5
  endloop
endfacet
facet normal -0.9238795325112856 0.38268343236509234 3.62542699461995e-17
  outer loop
    vertex 88.04662328974452 97.76502098470901 5.000000000000001
    vertex 87.59707138847368 96.67970668767036 3.5
    vertex 87.59707138847368 96.67970668767036 5.000000000000001
  endloop
endfacet
facet normal -0.9238795325112856 0.38268343236509234 3.62542699461995e-17
  outer loop
    vertex 87.59707138847368 96.67970668767036 3.5
    vertex 88.04662328974452 97.76502098470901 5.000000000000001
    vertex 88.04662328974452 97.76502098470901 3.5
  endloop
endfacet
facet normal -0.6087614290087219 0.7933533402912343 1.125534853025405e-17
  outer loop
    vertex 88.76175709143502 98.69700150004847 5.000000000000001
    vertex 89.69373760677448 99.41213530173899 3.5
    vertex 88.76175709143502 98.69700150004847 3.5
  endloop
endfacet
facet normal -0.6087614290087219 0.7933533402912343 1.125534853025405e-17
  outer loop
    vertex 89.69373760677448 99.41213530173899 3.5
    vertex 88.76175709143502 98.69700150004847 5.000000000000001
    vertex 89.69373760677448 99.41213530173899 5.000000000000001
  endloop
endfacet
facet normal 0.6087614290087243 0.7933533402912325 -0.0
  outer loop
    vertex 93.44373760677449 98.11309719606233 3.5
    vertex 94.06505795033412 97.63634132826866 1.9999999999999998
    vertex 93.44373760677449 98.11309719606233 1.9999999999999998
  endloop
endfacet
facet normal 0.6087614290087243 0.7933533402912325 -0.0
  outer loop
    vertex 94.06505795033412 97.63634132826866 1.9999999999999998
    vertex 93.44373760677449 98.11309719606233 3.5
    vertex 94.06505795033412 97.63634132826866 3.5
  endloop
endfacet
facet normal -0.7933533402912325 -0.6087614290087243 0.0
  outer loop
    vertex 89.34566139542117 94.01502098470903 3.5
    vertex 89.82241726321485 93.39370064114938 1.9999999999999998
    vertex 89.82241726321485 93.39370064114938 3.5
  endloop
endfacet
facet normal -0.7933533402912325 -0.6087614290087243 0.0
  outer loop
    vertex 89.82241726321485 93.39370064114938 1.9999999999999998
    vertex 89.34566139542117 94.01502098470903 3.5
    vertex 89.34566139542117 94.01502098470903 1.9999999999999998
  endloop
endfacet
facet normal -0.9914448613738096 -0.13052619222005782 0.0
  outer loop
    vertex 88.94373760677449 95.51502098470901 3.5
    vertex 89.04596012790729 94.73856384940144 1.9999999999999998
    vertex 89.04596012790729 94.73856384940144 3.5
  endloop
endfacet
facet normal -0.9914448613738096 -0.13052619222005782 0.0
  outer loop
    vertex 89.04596012790729 94.73856384940144 1.9999999999999998
    vertex 88.94373760677449 95.51502098470901 3.5
    vertex 88.94373760677449 95.51502098470901 1.9999999999999998
  endloop
endfacet
facet normal -0.3826834323650897 0.9238795325112868 -2.8491245160075656e-18
  outer loop
    vertex 89.69373760677448 99.41213530173899 3.5
    vertex 90.44373760677449 99.72279547351881 5.000000000000001
    vertex 90.44373760677449 99.72279547351881 3.499999999999999
  endloop
endfacet
facet normal -0.3826834323650897 0.9238795325112868 -2.8491245160075656e-18
  outer loop
    vertex 90.44373760677449 99.72279547351881 5.000000000000001
    vertex 89.69373760677448 99.41213530173899 3.5
    vertex 89.69373760677448 99.41213530173899 5.000000000000001
  endloop
endfacet
facet normal -0.9238795325112854 0.3826834323650931 0.0
  outer loop
    vertex 89.34566139542117 97.01502098470901 3.5
    vertex 89.04596012790728 96.29147812001658 1.9999999999999998
    vertex 89.04596012790728 96.29147812001658 3.5
  endloop
endfacet
facet normal -0.9238795325112854 0.3826834323650931 0.0
  outer loop
    vertex 89.04596012790728 96.29147812001658 1.9999999999999998
    vertex 89.34566139542117 97.01502098470901 3.5
    vertex 89.34566139542117 97.01502098470901 1.9999999999999998
  endloop
endfacet
facet normal -0.6087614290087243 0.7933533402912323 -0.0
  outer loop
    vertex 89.82241726321485 97.63634132826866 3.5
    vertex 90.44373760677449 98.11309719606233 1.9999999999999998
    vertex 89.82241726321485 97.63634132826866 1.9999999999999998
  endloop
endfacet
facet normal -0.6087614290087243 0.7933533402912323 -0.0
  outer loop
    vertex 90.44373760677449 98.11309719606233 1.9999999999999998
    vertex 89.82241726321485 97.63634132826866 3.5
    vertex 90.44373760677449 98.11309719606233 3.5
  endloop
endfacet
facet normal -0.6087614290087242 -0.7933533402912325 0.0
  outer loop
    vertex 90.44373760677449 92.91694477335571 3.5
    vertex 89.82241726321485 93.39370064114938 1.9999999999999998
    vertex 90.44373760677449 92.91694477335571 1.9999999999999998
  endloop
endfacet
facet normal -0.6087614290087242 -0.7933533402912325 0.0
  outer loop
    vertex 89.82241726321485 93.39370064114938 1.9999999999999998
    vertex 90.44373760677449 92.91694477335571 3.5
    vertex 89.82241726321485 93.39370064114938 3.5
  endloop
endfacet
facet normal -0.9238795325112884 -0.38268343236508595 0.0
  outer loop
    vertex 89.04596012790729 94.73856384940144 3.5
    vertex 89.34566139542117 94.01502098470903 1.9999999999999998
    vertex 89.34566139542117 94.01502098470903 3.5
  endloop
endfacet
facet normal -0.9238795325112884 -0.38268343236508595 0.0
  outer loop
    vertex 89.34566139542117 94.01502098470903 1.9999999999999998
    vertex 89.04596012790729 94.73856384940144 3.5
    vertex 89.04596012790729 94.73856384940144 1.9999999999999998
  endloop
endfacet
facet normal -0.9914448613738114 0.13052619222004552 0.0
  outer loop
    vertex 89.04596012790728 96.29147812001658 3.5
    vertex 88.94373760677449 95.51502098470901 1.9999999999999998
    vertex 88.94373760677449 95.51502098470901 3.5
  endloop
endfacet
facet normal -0.9914448613738114 0.13052619222004552 0.0
  outer loop
    vertex 88.94373760677449 95.51502098470901 1.9999999999999998
    vertex 89.04596012790728 96.29147812001658 3.5
    vertex 89.04596012790728 96.29147812001658 1.9999999999999998
  endloop
endfacet
facet normal 0.6087614290087219 -0.7933533402912343 5.954955618031952e-17
  outer loop
    vertex 95.12571812211397 92.33304046936955 5.000000000000003
    vertex 94.19373760677449 91.61790666767904 3.5
    vertex 95.12571812211397 92.33304046936955 3.5
  endloop
endfacet
facet normal 0.6087614290087219 -0.7933533402912343 5.954955618031952e-17
  outer loop
    vertex 94.19373760677449 91.61790666767904 3.5
    vertex 95.12571812211397 92.33304046936955 5.000000000000003
    vertex 94.19373760677449 91.61790666767904 5.000000000000003
  endloop
endfacet
facet normal 4.89104215072293e-17 2.334323008346752e-17 1.0
  outer loop
    vertex 88.76175709143503 92.33304046936955 3.5
    vertex 89.04596012790729 94.73856384940144 3.5
    vertex 88.94373760677449 95.51502098470901 3.5
  endloop
endfacet
facet normal 4.89104215072293e-17 2.334323008346752e-17 1.0
  outer loop
    vertex 89.04596012790729 94.73856384940144 3.5
    vertex 88.76175709143503 92.33304046936955 3.5
    vertex 89.69373760677449 91.61790666767904 3.5
  endloop
endfacet
facet normal 4.89104215072293e-17 2.334323008346752e-17 1.0
  outer loop
    vertex 89.04596012790729 94.73856384940144 3.5
    vertex 89.69373760677449 91.61790666767904 3.5
    vertex 89.34566139542117 94.01502098470903 3.5
  endloop
endfacet
facet normal 4.89104215072293e-17 2.334323008346752e-17 1.0
  outer loop
    vertex 89.34566139542117 94.01502098470903 3.5
    vertex 89.69373760677449 91.61790666767904 3.5
    vertex 89.82241726321485 93.39370064114938 3.5
  endloop
endfacet
facet normal 4.89104215072293e-17 2.334323008346752e-17 1.0
  outer loop
    vertex 89.82241726321485 93.39370064114938 3.5
    vertex 89.69373760677449 91.61790666767904 3.5
    vertex 90.44373760677449 91.30724649589922 3.5
  endloop
endfacet
facet normal 4.89104215072293e-17 2.334323008346752e-17 1.0
  outer loop
    vertex 89.82241726321485 93.39370064114938 3.5
    vertex 90.44373760677449 91.30724649589922 3.5
    vertex 90.44373760677449 92.91694477335571 3.5
  endloop
endfacet
facet normal 4.89104215072293e-17 2.334323008346752e-17 1.0
  outer loop
    vertex 87.59707138847368 94.35033528174768 3.5
    vertex 87.59707138847368 96.67970668767036 3.5
    vertex 87.44373760677449 95.51502098470901 3.5
  endloop
endfacet
facet normal 4.89104215072293e-17 2.334323008346752e-17 1.0
  outer loop
    vertex 87.59707138847368 96.67970668767036 3.5
    vertex 87.59707138847368 94.35033528174768 3.5
    vertex 88.04662328974452 93.26502098470901 3.5
  endloop
endfacet
facet normal 4.89104215072293e-17 2.334323008346752e-17 1.0
  outer loop
    vertex 87.59707138847368 96.67970668767036 3.5
    vertex 88.04662328974452 93.26502098470901 3.5
    vertex 88.04662328974452 97.76502098470901 3.5
  endloop
endfacet
facet normal 4.89104215072293e-17 2.334323008346752e-17 1.0
  outer loop
    vertex 88.04662328974452 97.76502098470901 3.5
    vertex 88.04662328974452 93.26502098470901 3.5
    vertex 88.76175709143503 92.33304046936955 3.5
  endloop
endfacet
facet normal 4.89104215072293e-17 2.334323008346752e-17 1.0
  outer loop
    vertex 88.04662328974452 97.76502098470901 3.5
    vertex 88.76175709143503 92.33304046936955 3.5
    vertex 88.76175709143502 98.69700150004847 3.5
  endloop
endfacet
facet normal 4.89104215072293e-17 2.334323008346752e-17 1.0
  outer loop
    vertex 88.76175709143502 98.69700150004847 3.5
    vertex 88.76175709143503 92.33304046936955 3.5
    vertex 88.94373760677449 95.51502098470901 3.5
  endloop
endfacet
facet normal 4.89104215072293e-17 2.334323008346752e-17 1.0
  outer loop
    vertex 88.76175709143502 98.69700150004847 3.5
    vertex 88.94373760677449 95.51502098470901 3.5
    vertex 89.04596012790728 96.29147812001658 3.5
  endloop
endfacet
facet normal 4.89104215072293e-17 2.334323008346752e-17 1.0
  outer loop
    vertex 88.76175709143502 98.69700150004847 3.5
    vertex 89.04596012790728 96.29147812001658 3.5
    vertex 89.69373760677448 99.41213530173899 3.5
  endloop
endfacet
facet normal 4.89104215072293e-17 2.334323008346752e-17 1.0
  outer loop
    vertex 89.69373760677448 99.41213530173899 3.5
    vertex 89.04596012790728 96.29147812001658 3.5
    vertex 89.34566139542117 97.01502098470901 3.5
  endloop
endfacet
facet normal 4.89104215072293e-17 2.334323008346752e-17 1.0
  outer loop
    vertex 89.69373760677448 99.41213530173899 3.5
    vertex 89.34566139542117 97.01502098470901 3.5
    vertex 89.82241726321485 97.63634132826866 3.5
  endloop
endfacet
facet normal 4.89104215072293e-17 2.334323008346752e-17 1.0
  outer loop
    vertex 89.69373760677448 99.41213530173899 3.5
    vertex 89.82241726321485 97.63634132826866 3.5
    vertex 90.44373760677449 99.72279547351881 3.499999999999999
  endloop
endfacet
facet normal 4.89104215072293e-17 2.334323008346752e-17 1.0
  outer loop
    vertex 90.44373760677449 99.72279547351881 3.499999999999999
    vertex 89.82241726321485 97.63634132826866 3.5
    vertex 90.44373760677449 98.11309719606233 3.5
  endloop
endfacet
facet normal 0.9914448613738114 -0.13052619222004552 -0.0
  outer loop
    vertex 94.94373760677448 95.51502098470901 1.9999999999999998
    vertex 94.84151508564169 94.73856384940146 3.5
    vertex 94.84151508564169 94.73856384940146 1.9999999999999998
  endloop
endfacet
facet normal 0.9914448613738114 -0.13052619222004552 -0.0
  outer loop
    vertex 94.84151508564169 94.73856384940146 3.5
    vertex 94.94373760677448 95.51502098470901 1.9999999999999998
    vertex 94.94373760677448 95.51502098470901 3.5
  endloop
endfacet
facet normal 0.9238795325112905 0.3826834323650808 -0.0
  outer loop
    vertex 94.54181381812779 97.01502098470901 1.9999999999999998
    vertex 94.84151508564167 96.29147812001658 3.5
    vertex 94.84151508564167 96.29147812001658 1.9999999999999998
  endloop
endfacet
facet normal 0.9238795325112905 0.3826834323650808 -0.0
  outer loop
    vertex 94.84151508564167 96.29147812001658 3.5
    vertex 94.54181381812779 97.01502098470901 1.9999999999999998
    vertex 94.54181381812779 97.01502098470901 3.5
  endloop
endfacet
facet normal 0.7933533402912325 0.6087614290087243 -0.0
  outer loop
    vertex 94.06505795033412 97.63634132826866 1.9999999999999998
    vertex 94.54181381812779 97.01502098470901 3.5
    vertex 94.54181381812779 97.01502098470901 1.9999999999999998
  endloop
endfacet
facet normal 0.7933533402912325 0.6087614290087243 -0.0
  outer loop
    vertex 94.54181381812779 97.01502098470901 3.5
    vertex 94.06505795033412 97.63634132826866 1.9999999999999998
    vertex 94.06505795033412 97.63634132826866 3.5
  endloop
endfacet
facet normal 1.0 -0.0 -0.0
  outer loop
    vertex 90.44373760677449 98.11309719606233 1.9999999999999998
    vertex 90.44373760677449 92.91694477335571 3.5
    vertex 90.44373760677449 92.91694477335571 1.9999999999999998
  endloop
endfacet
facet normal 1.0 -0.0 -0.0
  outer loop
    vertex 90.44373760677449 92.91694477335571 3.5
    vertex 90.44373760677449 91.30724649589922 5.000000000000001
    vertex 90.44373760677449 91.30724649589922 3.5
  endloop
endfacet
facet normal 1.0 -0.0 -0.0
  outer loop
    vertex 90.44373760677449 91.30724649589922 5.000000000000001
    vertex 90.44373760677449 92.91694477335571 3.5
    vertex 90.44373760677449 99.72279547351881 5.000000000000001
  endloop
endfacet
facet normal 1.0 -0.0 -0.0
  outer loop
    vertex 90.44373760677449 99.72279547351881 5.000000000000001
    vertex 90.44373760677449 92.91694477335571 3.5
    vertex 90.44373760677449 98.11309719606233 3.5
  endloop
endfacet
facet normal 1.0 -0.0 -0.0
  outer loop
    vertex 90.44373760677449 98.11309719606233 3.5
    vertex 90.44373760677449 92.91694477335571 3.5
    vertex 90.44373760677449 98.11309719606233 1.9999999999999998
  endloop
endfacet
facet normal 1.0 -0.0 -0.0
  outer loop
    vertex 90.44373760677449 99.72279547351881 5.000000000000001
    vertex 90.44373760677449 98.11309719606233 3.5
    vertex 90.44373760677449 99.72279547351881 3.499999999999999
  endloop
endfacet
facet normal -0.9914448613738103 -0.13052619222005374 5.1538889007881204e-17
  outer loop
    vertex 87.44373760677449 95.51502098470901 5.000000000000001
    vertex 87.59707138847368 94.35033528174768 3.5
    vertex 87.59707138847368 94.35033528174768 5.000000000000001
  endloop
endfacet
facet normal -0.9914448613738103 -0.13052619222005374 5.1538889007881204e-17
  outer loop
    vertex 87.59707138847368 94.35033528174768 3.5
    vertex 87.44373760677449 95.51502098470901 5.000000000000001
    vertex 87.44373760677449 95.51502098470901 3.5
  endloop
endfacet
facet normal -0.793353340291239 0.6087614290087159 2.459278817452189e-17
  outer loop
    vertex 88.76175709143502 98.69700150004847 5.000000000000001
    vertex 88.04662328974452 97.76502098470901 3.5
    vertex 88.04662328974452 97.76502098470901 5.000000000000001
  endloop
endfacet
facet normal -0.793353340291239 0.6087614290087159 2.459278817452189e-17
  outer loop
    vertex 88.04662328974452 97.76502098470901 3.5
    vertex 88.76175709143502 98.69700150004847 5.000000000000001
    vertex 88.76175709143502 98.69700150004847 3.5
  endloop
endfacet
facet normal -0.7933533402912343 -0.6087614290087219 5.3013704381103666e-17
  outer loop
    vertex 88.04662328974452 93.26502098470901 5.000000000000001
    vertex 88.76175709143503 92.33304046936955 3.5
    vertex 88.76175709143503 92.33304046936955 5.000000000000001
  endloop
endfacet
facet normal -0.7933533402912343 -0.6087614290087219 5.3013704381103666e-17
  outer loop
    vertex 88.76175709143503 92.33304046936955 3.5
    vertex 88.04662328974452 93.26502098470901 5.000000000000001
    vertex 88.04662328974452 93.26502098470901 3.5
  endloop
endfacet
facet normal -0.9914448613738103 0.13052619222005374 4.544508313405797e-17
  outer loop
    vertex 87.59707138847368 96.67970668767036 5.000000000000001
    vertex 87.44373760677449 95.51502098470901 3.5
    vertex 87.44373760677449 95.51502098470901 5.000000000000001
  endloop
endfacet
facet normal -0.9914448613738103 0.13052619222005374 4.544508313405797e-17
  outer loop
    vertex 87.44373760677449 95.51502098470901 3.5
    vertex 87.59707138847368 96.67970668767036 5.000000000000001
    vertex 87.59707138847368 96.67970668767036 3.5
  endloop
endfacet
facet normal -0.9238795325112872 -0.382683432365089 5.4120404767858364e-17
  outer loop
    vertex 87.59707138847368 94.35033528174768 5.000000000000001
    vertex 88.04662328974452 93.26502098470901 3.5
    vertex 88.04662328974452 93.26502098470901 5.000000000000001
  endloop
endfacet
facet normal -0.9238795325112872 -0.382683432365089 5.4120404767858364e-17
  outer loop
    vertex 88.04662328974452 93.26502098470901 3.5
    vertex 87.59707138847368 94.35033528174768 5.000000000000001
    vertex 87.59707138847368 94.35033528174768 3.5
  endloop
endfacet
facet normal -0.6087614290087159 -0.793353340291239 4.8294207650065434e-17
  outer loop
    vertex 89.69373760677449 91.61790666767904 5.000000000000001
    vertex 88.76175709143503 92.33304046936955 3.5
    vertex 89.69373760677449 91.61790666767904 3.5
  endloop
endfacet
facet normal -0.6087614290087159 -0.793353340291239 4.8294207650065434e-17
  outer loop
    vertex 88.76175709143503 92.33304046936955 3.5
    vertex 89.69373760677449 91.61790666767904 5.000000000000001
    vertex 88.76175709143503 92.33304046936955 5.000000000000001
  endloop
endfacet
facet normal 0.9914448613738094 0.1305261922200597 -0.0
  outer loop
    vertex 94.84151508564167 96.29147812001658 1.9999999999999998
    vertex 94.94373760677448 95.51502098470901 3.5
    vertex 94.94373760677448 95.51502098470901 1.9999999999999998
  endloop
endfacet
facet normal 0.9914448613738094 0.1305261922200597 -0.0
  outer loop
    vertex 94.94373760677448 95.51502098470901 3.5
    vertex 94.84151508564167 96.29147812001658 1.9999999999999998
    vertex 94.84151508564167 96.29147812001658 3.5
  endloop
endfacet
facet normal 0.9914448613738103 0.13052619222005374 9.6983972141939e-17
  outer loop
    vertex 96.29040382507529 96.67970668767036 3.5
    vertex 96.44373760677449 95.51502098470901 5.000000000000003
    vertex 96.44373760677449 95.51502098470901 3.5
  endloop
endfacet
facet normal 0.9914448613738103 0.13052619222005374 9.6983972141939e-17
  outer loop
    vertex 96.44373760677449 95.51502098470901 5.000000000000003
    vertex 96.29040382507529 96.67970668767036 3.5
    vertex 96.29040382507529 96.67970668767036 5.000000000000003
  endloop
endfacet
facet normal -0.3826834323650946 -0.9238795325112847 4.0283540477627386e-17
  outer loop
    vertex 90.44373760677449 91.30724649589922 5.000000000000001
    vertex 89.69373760677449 91.61790666767904 3.5
    vertex 90.44373760677449 91.30724649589922 3.5
  endloop
endfacet
facet normal -0.3826834323650946 -0.9238795325112847 4.0283540477627386e-17
  outer loop
    vertex 89.69373760677449 91.61790666767904 3.5
    vertex 90.44373760677449 91.30724649589922 5.000000000000001
    vertex 89.69373760677449 91.61790666767904 5.000000000000001
  endloop
endfacet
facet normal -1.1324323405309397e-16 -8.024883342729826e-32 1.0
  outer loop
    vertex 94.19373760677449 91.61790666767904 5.000000000000003
    vertex 93.44373760677449 99.72279547351881 5.000000000000002
    vertex 93.44373760677449 91.30724649589922 5.000000000000002
  endloop
endfacet
facet normal -1.1324323405309397e-16 -8.024883342729826e-32 1.0
  outer loop
    vertex 93.44373760677449 99.72279547351881 5.000000000000002
    vertex 94.19373760677449 91.61790666767904 5.000000000000003
    vertex 94.19373760677448 99.41213530173899 5.000000000000003
  endloop
endfacet
facet normal -1.1324323405309397e-16 -8.024883342729826e-32 1.0
  outer loop
    vertex 94.19373760677448 99.41213530173899 5.000000000000003
    vertex 94.19373760677449 91.61790666767904 5.000000000000003
    vertex 95.12571812211395 98.69700150004847 5.000000000000003
  endloop
endfacet
facet normal -1.1324323405309397e-16 -8.024883342729826e-32 1.0
  outer loop
    vertex 95.12571812211395 98.69700150004847 5.000000000000003
    vertex 94.19373760677449 91.61790666767904 5.000000000000003
    vertex 95.12571812211397 92.33304046936955 5.000000000000003
  endloop
endfacet
facet normal -1.1324323405309397e-16 -8.024883342729826e-32 1.0
  outer loop
    vertex 95.12571812211395 98.69700150004847 5.000000000000003
    vertex 95.12571812211397 92.33304046936955 5.000000000000003
    vertex 95.84085192380446 97.76502098470903 5.000000000000003
  endloop
endfacet
facet normal -1.1324323405309397e-16 -8.024883342729826e-32 1.0
  outer loop
    vertex 95.84085192380446 97.76502098470903 5.000000000000003
    vertex 95.12571812211397 92.33304046936955 5.000000000000003
    vertex 95.84085192380446 93.26502098470903 5.000000000000003
  endloop
endfacet
facet normal -1.1324323405309397e-16 -8.024883342729826e-32 1.0
  outer loop
    vertex 95.84085192380446 97.76502098470903 5.000000000000003
    vertex 95.84085192380446 93.26502098470903 5.000000000000003
    vertex 96.29040382507529 94.35033528174768 5.000000000000003
  endloop
endfacet
facet normal -1.1324323405309397e-16 -8.024883342729826e-32 1.0
  outer loop
    vertex 95.84085192380446 97.76502098470903 5.000000000000003
    vertex 96.29040382507529 94.35033528174768 5.000000000000003
    vertex 96.29040382507529 96.67970668767036 5.000000000000003
  endloop
endfacet
facet normal -1.1324323405309397e-16 -8.024883342729826e-32 1.0
  outer loop
    vertex 96.29040382507529 96.67970668767036 5.000000000000003
    vertex 96.29040382507529 94.35033528174768 5.000000000000003
    vertex 96.44373760677449 95.51502098470901 5.000000000000003
  endloop
endfacet
facet normal 0.6087614290087243 -0.7933533402912325 0.0
  outer loop
    vertex 94.06505795033412 93.39370064114938 3.5
    vertex 93.44373760677449 92.91694477335571 1.9999999999999998
    vertex 94.06505795033412 93.39370064114938 1.9999999999999998
  endloop
endfacet
facet normal 0.6087614290087243 -0.7933533402912325 0.0
  outer loop
    vertex 93.44373760677449 92.91694477335571 1.9999999999999998
    vertex 94.06505795033412 93.39370064114938 3.5
    vertex 93.44373760677449 92.91694477335571 3.5
  endloop
endfacet
facet normal 0.9238795325112856 -0.38268343236509234 9.037467471405769e-17
  outer loop
    vertex 96.29040382507529 94.35033528174768 3.5
    vertex 95.84085192380446 93.26502098470903 5.000000000000003
    vertex 95.84085192380446 93.26502098470903 3.5
  endloop
endfacet
facet normal 0.9238795325112856 -0.38268343236509234 9.037467471405769e-17
  outer loop
    vertex 95.84085192380446 93.26502098470903 5.000000000000003
    vertex 96.29040382507529 94.35033528174768 3.5
    vertex 96.29040382507529 94.35033528174768 5.000000000000003
  endloop
endfacet
facet normal 1.1324323405309397e-16 8.831628749310906e-32 1.0
  outer loop
    vertex 87.59707138847368 94.35033528174768 5.000000000000001
    vertex 87.59707138847368 96.67970668767036 5.000000000000001
    vertex 87.44373760677449 95.51502098470901 5.000000000000001
  endloop
endfacet
facet normal 1.1324323405309397e-16 8.831628749310906e-32 1.0
  outer loop
    vertex 87.59707138847368 96.67970668767036 5.000000000000001
    vertex 87.59707138847368 94.35033528174768 5.000000000000001
    vertex 88.04662328974452 93.26502098470901 5.000000000000001
  endloop
endfacet
facet normal 1.1324323405309397e-16 8.831628749310906e-32 1.0
  outer loop
    vertex 87.59707138847368 96.67970668767036 5.000000000000001
    vertex 88.04662328974452 93.26502098470901 5.000000000000001
    vertex 88.04662328974452 97.76502098470901 5.000000000000001
  endloop
endfacet
facet normal 1.1324323405309397e-16 8.831628749310906e-32 1.0
  outer loop
    vertex 88.04662328974452 97.76502098470901 5.000000000000001
    vertex 88.04662328974452 93.26502098470901 5.000000000000001
    vertex 88.76175709143503 92.33304046936955 5.000000000000001
  endloop
endfacet
facet normal 1.1324323405309397e-16 8.831628749310906e-32 1.0
  outer loop
    vertex 88.04662328974452 97.76502098470901 5.000000000000001
    vertex 88.76175709143503 92.33304046936955 5.000000000000001
    vertex 88.76175709143502 98.69700150004847 5.000000000000001
  endloop
endfacet
facet normal 1.1324323405309397e-16 8.831628749310906e-32 1.0
  outer loop
    vertex 88.76175709143502 98.69700150004847 5.000000000000001
    vertex 88.76175709143503 92.33304046936955 5.000000000000001
    vertex 89.69373760677448 99.41213530173899 5.000000000000001
  endloop
endfacet
facet normal 1.1324323405309397e-16 8.831628749310906e-32 1.0
  outer loop
    vertex 89.69373760677448 99.41213530173899 5.000000000000001
    vertex 88.76175709143503 92.33304046936955 5.000000000000001
    vertex 89.69373760677449 91.61790666767904 5.000000000000001
  endloop
endfacet
facet normal 1.1324323405309397e-16 8.831628749310906e-32 1.0
  outer loop
    vertex 89.69373760677448 99.41213530173899 5.000000000000001
    vertex 89.69373760677449 91.61790666767904 5.000000000000001
    vertex 90.44373760677449 99.72279547351881 5.000000000000001
  endloop
endfacet
facet normal 1.1324323405309397e-16 8.831628749310906e-32 1.0
  outer loop
    vertex 90.44373760677449 99.72279547351881 5.000000000000001
    vertex 89.69373760677449 91.61790666767904 5.000000000000001
    vertex 90.44373760677449 91.30724649589922 5.000000000000001
  endloop
endfacet
facet normal 5.747166997212127e-18 2.0470193718379696e-18 1.0
  outer loop
    vertex 86.94373760677449 90.51502098470901 1.9999999999999998
    vertex 88.94373760677449 95.51502098470901 1.9999999999999998
    vertex 86.94373760677449 120.51502098470903 1.9999999999999998
  endloop
endfacet
facet normal 5.747166997212127e-18 2.0470193718379696e-18 1.0
  outer loop
    vertex 88.94373760677449 95.51502098470901 1.9999999999999998
    vertex 86.94373760677449 90.51502098470901 1.9999999999999998
    vertex 89.04596012790729 94.73856384940144 1.9999999999999998
  endloop
endfacet
facet normal 5.747166997212127e-18 2.0470193718379696e-18 1.0
  outer loop
    vertex 89.04596012790729 94.73856384940144 1.9999999999999998
    vertex 86.94373760677449 90.51502098470901 1.9999999999999998
    vertex 90.44373760677449 90.51502098470901 1.9999999999999996
  endloop
endfacet
facet normal 5.747166997212127e-18 2.0470193718379696e-18 1.0
  outer loop
    vertex 89.04596012790729 94.73856384940144 1.9999999999999998
    vertex 90.44373760677449 90.51502098470901 1.9999999999999996
    vertex 89.34566139542117 94.01502098470903 1.9999999999999998
  endloop
endfacet
facet normal 5.747166997212127e-18 2.0470193718379696e-18 1.0
  outer loop
    vertex 89.34566139542117 94.01502098470903 1.9999999999999998
    vertex 90.44373760677449 90.51502098470901 1.9999999999999996
    vertex 89.82241726321485 93.39370064114938 1.9999999999999998
  endloop
endfacet
facet normal 5.747166997212127e-18 2.0470193718379696e-18 1.0
  outer loop
    vertex 89.82241726321485 93.39370064114938 1.9999999999999998
    vertex 90.44373760677449 90.51502098470901 1.9999999999999996
    vertex 90.44373760677449 92.91694477335571 1.9999999999999998
  endloop
endfacet
facet normal 5.747166997212127e-18 2.0470193718379696e-18 1.0
  outer loop
    vertex 94.06505795033412 97.63634132826866 1.9999999999999998
    vertex 93.44373760677449 115.51502098470901 1.9999999999999991
    vertex 93.44373760677449 98.11309719606233 1.9999999999999998
  endloop
endfacet
facet normal 5.747166997212127e-18 2.0470193718379696e-18 1.0
  outer loop
    vertex 96.94373760677449 90.51502098470901 1.9999999999999998
    vertex 93.44373760677449 92.91694477335571 1.9999999999999998
    vertex 93.44373760677449 90.51502098470901 1.9999999999999991
  endloop
endfacet
facet normal 5.747166997212127e-18 2.0470193718379696e-18 1.0
  outer loop
    vertex 93.44373760677449 92.91694477335571 1.9999999999999998
    vertex 96.94373760677449 90.51502098470901 1.9999999999999998
    vertex 94.06505795033412 93.39370064114938 1.9999999999999998
  endloop
endfacet
facet normal 5.747166997212127e-18 2.0470193718379696e-18 1.0
  outer loop
    vertex 94.06505795033412 93.39370064114938 1.9999999999999998
    vertex 96.94373760677449 90.51502098470901 1.9999999999999998
    vertex 94.54181381812779 94.01502098470903 1.9999999999999998
  endloop
endfacet
facet normal 5.747166997212127e-18 2.0470193718379696e-18 1.0
  outer loop
    vertex 94.54181381812779 94.01502098470903 1.9999999999999998
    vertex 96.94373760677449 90.51502098470901 1.9999999999999998
    vertex 94.84151508564169 94.73856384940146 1.9999999999999998
  endloop
endfacet
facet normal 5.747166997212127e-18 2.0470193718379696e-18 1.0
  outer loop
    vertex 94.84151508564169 94.73856384940146 1.9999999999999998
    vertex 96.94373760677449 90.51502098470901 1.9999999999999998
    vertex 94.94373760677448 95.51502098470901 1.9999999999999998
  endloop
endfacet
facet normal 5.747166997212127e-18 2.0470193718379696e-18 1.0
  outer loop
    vertex 86.94373760677449 120.51502098470903 1.9999999999999998
    vertex 90.44373760677449 115.51502098470901 1.9999999999999991
    vertex 96.94373760677449 120.51502098470903 1.9999999999999998
  endloop
endfacet
facet normal 5.747166997212127e-18 2.0470193718379696e-18 1.0
  outer loop
    vertex 90.44373760677449 115.51502098470901 1.9999999999999991
    vertex 86.94373760677449 120.51502098470903 1.9999999999999998
    vertex 88.94373760677449 95.51502098470901 1.9999999999999998
  endloop
endfacet
facet normal 5.747166997212127e-18 2.0470193718379696e-18 1.0
  outer loop
    vertex 90.44373760677449 115.51502098470901 1.9999999999999991
    vertex 88.94373760677449 95.51502098470901 1.9999999999999998
    vertex 89.04596012790728 96.29147812001658 1.9999999999999998
  endloop
endfacet
facet normal 5.747166997212127e-18 2.0470193718379696e-18 1.0
  outer loop
    vertex 90.44373760677449 115.51502098470901 1.9999999999999991
    vertex 89.04596012790728 96.29147812001658 1.9999999999999998
    vertex 89.34566139542117 97.01502098470901 1.9999999999999998
  endloop
endfacet
facet normal 5.747166997212127e-18 2.0470193718379696e-18 1.0
  outer loop
    vertex 90.44373760677449 115.51502098470901 1.9999999999999991
    vertex 89.34566139542117 97.01502098470901 1.9999999999999998
    vertex 89.82241726321485 97.63634132826866 1.9999999999999998
  endloop
endfacet
facet normal 5.747166997212127e-18 2.0470193718379696e-18 1.0
  outer loop
    vertex 90.44373760677449 115.51502098470901 1.9999999999999991
    vertex 89.82241726321485 97.63634132826866 1.9999999999999998
    vertex 90.44373760677449 98.11309719606233 1.9999999999999998
  endloop
endfacet
facet normal 5.747166997212127e-18 2.0470193718379696e-18 1.0
  outer loop
    vertex 96.94373760677449 120.51502098470903 1.9999999999999998
    vertex 90.44373760677449 115.51502098470901 1.9999999999999991
    vertex 93.44373760677449 115.51502098470901 1.9999999999999991
  endloop
endfacet
facet normal 5.747166997212127e-18 2.0470193718379696e-18 1.0
  outer loop
    vertex 96.94373760677449 120.51502098470903 1.9999999999999998
    vertex 93.44373760677449 115.51502098470901 1.9999999999999991
    vertex 94.06505795033412 97.63634132826866 1.9999999999999998
  endloop
endfacet
facet normal 5.747166997212127e-18 2.0470193718379696e-18 1.0
  outer loop
    vertex 96.94373760677449 120.51502098470903 1.9999999999999998
    vertex 94.06505795033412 97.63634132826866 1.9999999999999998
    vertex 94.54181381812779 97.01502098470901 1.9999999999999998
  endloop
endfacet
facet normal 5.747166997212127e-18 2.0470193718379696e-18 1.0
  outer loop
    vertex 96.94373760677449 120.51502098470903 1.9999999999999998
    vertex 94.54181381812779 97.01502098470901 1.9999999999999998
    vertex 94.84151508564167 96.29147812001658 1.9999999999999998
  endloop
endfacet
facet normal 5.747166997212127e-18 2.0470193718379696e-18 1.0
  outer loop
    vertex 96.94373760677449 120.51502098470903 1.9999999999999998
    vertex 94.84151508564167 96.29147812001658 1.9999999999999998
    vertex 94.94373760677448 95.51502098470901 1.9999999999999998
  endloop
endfacet
facet normal 5.747166997212127e-18 2.0470193718379696e-18 1.0
  outer loop
    vertex 96.94373760677449 120.51502098470903 1.9999999999999998
    vertex 94.94373760677448 95.51502098470901 1.9999999999999998
    vertex 96.94373760677449 90.51502098470901 1.9999999999999998
  endloop
endfacet
facet normal 0.0 -1.0 0.0
  outer loop
    vertex 90.44373760677449 90.51502098470901 1.9999999999999996
    vertex 86.94373760677449 90.51502098470901 0.0
    vertex 90.44373760677449 90.51502098470901 -3.524958103184872e-16
  endloop
endfacet
facet normal 0.0 -1.0 0.0
  outer loop
    vertex 86.94373760677449 90.51502098470901 0.0
    vertex 90.44373760677449 90.51502098470901 1.9999999999999996
    vertex 86.94373760677449 90.51502098470901 1.9999999999999998
  endloop
endfacet
facet normal 2.238858357703862e-18 3.779675355396369e-18 -1.0
  outer loop
    vertex 86.94373760677449 120.51502098470903 0.0
    vertex 90.44373760677449 115.51502098470901 -3.524958103184872e-16
    vertex 86.94373760677449 90.51502098470901 0.0
  endloop
endfacet
facet normal 2.238858357703862e-18 3.779675355396369e-18 -1.0
  outer loop
    vertex 90.44373760677449 115.51502098470901 -3.524958103184872e-16
    vertex 86.94373760677449 120.51502098470903 0.0
    vertex 96.94373760677449 120.51502098470903 0.0
  endloop
endfacet
facet normal 2.238858357703862e-18 3.779675355396369e-18 -1.0
  outer loop
    vertex 90.44373760677449 115.51502098470901 -3.524958103184872e-16
    vertex 96.94373760677449 120.51502098470903 0.0
    vertex 93.44373760677449 115.51502098470901 -2.7115062332191325e-16
  endloop
endfacet
facet normal 2.238858357703862e-18 3.779675355396369e-18 -1.0
  outer loop
    vertex 93.44373760677449 115.51502098470901 -2.7115062332191325e-16
    vertex 96.94373760677449 120.51502098470903 0.0
    vertex 93.44373760677449 90.51502098470901 -2.7115062332191335e-16
  endloop
endfacet
facet normal 2.238858357703862e-18 3.779675355396369e-18 -1.0
  outer loop
    vertex 93.44373760677449 90.51502098470901 -2.7115062332191335e-16
    vertex 96.94373760677449 120.51502098470903 0.0
    vertex 96.94373760677449 90.51502098470901 0.0
  endloop
endfacet
facet normal 2.238858357703862e-18 3.779675355396369e-18 -1.0
  outer loop
    vertex 90.44373760677449 90.51502098470901 -3.524958103184872e-16
    vertex 86.94373760677449 90.51502098470901 0.0
    vertex 90.44373760677449 115.51502098470901 -3.524958103184872e-16
  endloop
endfacet
facet normal -1.0 0.0 0.0
  outer loop
    vertex 93.44373760677449 92.91694477335571 1.9999999999999998
    vertex 93.44373760677449 90.51502098470901 -2.7115062332191335e-16
    vertex 93.44373760677449 90.51502098470901 1.9999999999999991
  endloop
endfacet
facet normal -1.0 0.0 0.0
  outer loop
    vertex 93.44373760677449 90.51502098470901 -2.7115062332191335e-16
    vertex 93.44373760677449 92.91694477335571 1.9999999999999998
    vertex 93.44373760677449 115.51502098470901 -2.7115062332191325e-16
  endloop
endfacet
facet normal -1.0 0.0 0.0
  outer loop
    vertex 93.44373760677449 115.51502098470901 -2.7115062332191325e-16
    vertex 93.44373760677449 92.91694477335571 1.9999999999999998
    vertex 93.44373760677449 98.11309719606233 1.9999999999999998
  endloop
endfacet
facet normal -1.0 0.0 0.0
  outer loop
    vertex 93.44373760677449 115.51502098470901 -2.7115062332191325e-16
    vertex 93.44373760677449 98.11309719606233 1.9999999999999998
    vertex 93.44373760677449 115.51502098470901 1.9999999999999991
  endloop
endfacet
facet normal 0.0 -1.0 0.0
  outer loop
    vertex 93.44373760677449 115.51502098470901 -2.7115062332191325e-16
    vertex 90.44373760677449 115.51502098470901 1.9999999999999991
    vertex 90.44373760677449 115.51502098470901 -3.524958103184872e-16
  endloop
endfacet
facet normal 0.0 -1.0 0.0
  outer loop
    vertex 90.44373760677449 115.51502098470901 1.9999999999999991
    vertex 93.44373760677449 115.51502098470901 -2.7115062332191325e-16
    vertex 93.44373760677449 115.51502098470901 1.9999999999999991
  endloop
endfacet
facet normal 1.0 -0.0 -0.0
  outer loop
    vertex 90.44373760677449 115.51502098470901 -3.524958103184872e-16
    vertex 90.44373760677449 90.51502098470901 1.9999999999999996
    vertex 90.44373760677449 90.51502098470901 -3.524958103184872e-16
  endloop
endfacet
facet normal 1.0 -0.0 -0.0
  outer loop
    vertex 90.44373760677449 90.51502098470901 1.9999999999999996
    vertex 90.44373760677449 115.51502098470901 -3.524958103184872e-16
    vertex 90.44373760677449 92.91694477335571 1.9999999999999998
  endloop
endfacet
facet normal 1.0 -0.0 -0.0
  outer loop
    vertex 90.44373760677449 92.91694477335571 1.9999999999999998
    vertex 90.44373760677449 115.51502098470901 -3.524958103184872e-16
    vertex 90.44373760677449 98.11309719606233 1.9999999999999998
  endloop
endfacet
facet normal 1.0 -0.0 -0.0
  outer loop
    vertex 90.44373760677449 98.11309719606233 1.9999999999999998
    vertex 90.44373760677449 115.51502098470901 -3.524958103184872e-16
    vertex 90.44373760677449 115.51502098470901 1.9999999999999991
  endloop
endfacet
endsolid AutoSave_Spring_Connector
