solid Spring_Connector
facet normal -0.38268343236508945 -0.0 -0.9238795325112868
  outer loop
    vertex 10.5 3.9999999999999996 12.696152422706632
    vertex 9.052914270615124 -9.5 13.29555495773441
    vertex 9.052914270615124 3.9999999999999996 13.29555495773441
  endloop
endfacet
facet normal -0.38268343236508945 -0.0 -0.9238795325112868
  outer loop
    vertex 9.052914270615124 -9.5 13.29555495773441
    vertex 10.5 3.9999999999999996 12.696152422706632
    vertex 10.5 -9.5 12.696152422706632
  endloop
endfacet
facet normal -0.9238795325112867 -0.0 -0.3826834323650898
  outer loop
    vertex 12.696152422706632 3.9999999999999996 10.5
    vertex 13.29555495773441 -9.5 9.052914270615126
    vertex 12.696152422706632 -9.5 10.5
  endloop
endfacet
facet normal -0.9238795325112867 -0.0 -0.3826834323650898
  outer loop
    vertex 13.29555495773441 -9.5 9.052914270615126
    vertex 12.696152422706632 3.9999999999999996 10.5
    vertex 13.29555495773441 3.9999999999999996 9.052914270615126
  endloop
endfacet
facet normal 0.6087614290087204 -0.0 -0.7933533402912354
  outer loop
    vertex 4.499999999999997 3.9999999999999996 12.69615242270663
    vertex 3.257359312880714 -9.5 11.742640687119286
    vertex 3.257359312880714 3.9999999999999996 11.742640687119286
  endloop
endfacet
facet normal 0.6087614290087204 -0.0 -0.7933533402912354
  outer loop
    vertex 3.257359312880714 -9.5 11.742640687119286
    vertex 4.499999999999997 3.9999999999999996 12.69615242270663
    vertex 4.499999999999997 -9.5 12.69615242270663
  endloop
endfacet
facet normal -1.0 -4.0594014445066064e-20 2.4237028510852223e-19
  outer loop
    vertex 7.72785958755354e-18 -10.999999999999996 15.0
    vertex 0.0 3.9999999999999996 0.0
    vertex 0.0 -11.0 0.0
  endloop
endfacet
facet normal -1.0 -4.0594014445066064e-20 2.4237028510852223e-19
  outer loop
    vertex 0.0 3.9999999999999996 0.0
    vertex 7.72785958755354e-18 -10.999999999999996 15.0
    vertex 0.0 3.9999999999999996 15.0
  endloop
endfacet
facet normal 1.0 -0.0 -0.0
  outer loop
    vertex 15.0 3.9999999999999996 0.0
    vertex 15.0 -10.999999999999996 15.0
    vertex 15.0 -11.0 0.0
  endloop
endfacet
facet normal 1.0 -0.0 -0.0
  outer loop
    vertex 15.0 -10.999999999999996 15.0
    vertex 15.0 3.9999999999999996 0.0
    vertex 15.0 3.9999999999999996 15.0
  endloop
endfacet
facet normal -0.0 1.0 -0.0
  outer loop
    vertex 5.947085729384878 0.0 1.7044450422655906
    vertex 9.052914270615126 0.0 1.7044450422655912
    vertex 7.500000000000002 0.0 1.5000000000000007
  endloop
endfacet
facet normal -0.0 1.0 -0.0
  outer loop
    vertex 9.052914270615126 0.0 1.7044450422655912
    vertex 5.947085729384878 0.0 1.7044450422655906
    vertex 4.500000000000002 0.0 2.303847577293368
  endloop
endfacet
facet normal -0.0 1.0 -0.0
  outer loop
    vertex 9.052914270615126 0.0 1.7044450422655912
    vertex 4.500000000000002 0.0 2.303847577293368
    vertex 10.500000000000004 0.0 2.3038475772933698
  endloop
endfacet
facet normal -0.0 1.0 -0.0
  outer loop
    vertex 10.500000000000004 0.0 2.3038475772933698
    vertex 4.500000000000002 0.0 2.303847577293368
    vertex 3.2573593128807175 0.0 3.257359312880713
  endloop
endfacet
facet normal -0.0 1.0 -0.0
  outer loop
    vertex 10.500000000000004 0.0 2.3038475772933698
    vertex 3.2573593128807175 0.0 3.257359312880713
    vertex 11.742640687119286 0.0 3.257359312880716
  endloop
endfacet
facet normal -0.0 1.0 -0.0
  outer loop
    vertex 11.742640687119286 0.0 3.257359312880716
    vertex 3.2573593128807175 0.0 3.257359312880713
    vertex 2.3038475772933698 0.0 4.499999999999997
  endloop
endfacet
facet normal -0.0 1.0 -0.0
  outer loop
    vertex 11.742640687119286 0.0 3.257359312880716
    vertex 2.3038475772933698 0.0 4.499999999999997
    vertex 12.696152422706632 0.0 4.500000000000002
  endloop
endfacet
facet normal -0.0 1.0 -0.0
  outer loop
    vertex 12.696152422706632 0.0 4.500000000000002
    vertex 2.3038475772933698 0.0 4.499999999999997
    vertex 1.7044450422655912 0.0 5.947085729384871
  endloop
endfacet
facet normal -0.0 1.0 -0.0
  outer loop
    vertex 12.696152422706632 0.0 4.500000000000002
    vertex 1.7044450422655912 0.0 5.947085729384871
    vertex 13.29555495773441 0.0 5.9470857293848765
  endloop
endfacet
facet normal -0.0 1.0 -0.0
  outer loop
    vertex 13.29555495773441 0.0 5.9470857293848765
    vertex 1.7044450422655912 0.0 5.947085729384871
    vertex 1.6316524975873963 0.0 6.500000000000001
  endloop
endfacet
facet normal -0.0 1.0 -0.0
  outer loop
    vertex 13.29555495773441 0.0 5.9470857293848765
    vertex 1.6316524975873963 0.0 6.500000000000001
    vertex 13.368347502412604 0.0 6.500000000000001
  endloop
endfacet
facet normal -0.1305261922200518 -0.0 -0.9914448613738104
  outer loop
    vertex 9.052914270615124 3.9999999999999996 13.29555495773441
    vertex 7.5 -9.5 13.5
    vertex 7.5 3.9999999999999996 13.5
  endloop
endfacet
facet normal -0.1305261922200518 -0.0 -0.9914448613738104
  outer loop
    vertex 7.5 -9.5 13.5
    vertex 9.052914270615124 3.9999999999999996 13.29555495773441
    vertex 9.052914270615124 -9.5 13.29555495773441
  endloop
endfacet
facet normal -0.6087614290087213 -0.0 -0.7933533402912346
  outer loop
    vertex 11.742640687119286 3.9999999999999996 11.742640687119286
    vertex 10.5 -9.5 12.696152422706632
    vertex 10.5 3.9999999999999996 12.696152422706632
  endloop
endfacet
facet normal -0.6087614290087213 -0.0 -0.7933533402912346
  outer loop
    vertex 10.5 -9.5 12.696152422706632
    vertex 11.742640687119286 3.9999999999999996 11.742640687119286
    vertex 11.742640687119286 -9.5 11.742640687119286
  endloop
endfacet
facet normal -0.7933533402912346 -0.0 -0.6087614290087213
  outer loop
    vertex 11.742640687119286 3.9999999999999996 11.742640687119286
    vertex 12.696152422706632 -9.5 10.5
    vertex 11.742640687119286 -9.5 11.742640687119286
  endloop
endfacet
facet normal -0.7933533402912346 -0.0 -0.6087614290087213
  outer loop
    vertex 12.696152422706632 -9.5 10.5
    vertex 11.742640687119286 3.9999999999999996 11.742640687119286
    vertex 12.696152422706632 3.9999999999999996 10.5
  endloop
endfacet
facet normal -0.9914448613738105 -1.935001168719675e-19 -0.13052619222005166
  outer loop
    vertex 13.29555495773441 3.9999999999999996 9.052914270615126
    vertex 13.337502788183803 -9.5 8.734288864959252
    vertex 13.29555495773441 -9.5 9.052914270615126
  endloop
endfacet
facet normal -0.9914448613738105 -1.935001168719675e-19 -0.13052619222005166
  outer loop
    vertex 13.337502788183803 -9.5 8.734288864959252
    vertex 13.29555495773441 3.9999999999999996 9.052914270615126
    vertex 13.5 -9.5 7.5
  endloop
endfacet
facet normal -0.9914448613738105 -1.935001168719675e-19 -0.13052619222005166
  outer loop
    vertex 13.5 -9.5 7.5
    vertex 13.29555495773441 3.9999999999999996 9.052914270615126
    vertex 13.5 3.9999999999999996 7.5
  endloop
endfacet
facet normal 0.7933533402912358 -0.0 -0.6087614290087201
  outer loop
    vertex 2.303847577293366 3.9999999999999996 10.499999999999996
    vertex 3.257359312880714 -9.5 11.742640687119286
    vertex 2.303847577293366 -9.5 10.499999999999996
  endloop
endfacet
facet normal 0.7933533402912358 -0.0 -0.6087614290087201
  outer loop
    vertex 3.257359312880714 -9.5 11.742640687119286
    vertex 2.303847577293366 3.9999999999999996 10.499999999999996
    vertex 3.257359312880714 3.9999999999999996 11.742640687119286
  endloop
endfacet
facet normal 0.9914448613738105 1.1610007012318088e-18 -0.1305261922200515
  outer loop
    vertex 1.5 3.9999999999999996 7.499999999999999
    vertex 1.6624972118161976 -9.5 8.73428886495925
    vertex 1.5 -9.5 7.499999999999999
  endloop
endfacet
facet normal 0.9914448613738105 1.1610007012318088e-18 -0.1305261922200515
  outer loop
    vertex 1.6624972118161976 -9.5 8.73428886495925
    vertex 1.5 3.9999999999999996 7.499999999999999
    vertex 1.70444504226559 -9.5 9.05291427061512
  endloop
endfacet
facet normal 0.9914448613738105 1.1610007012318088e-18 -0.1305261922200515
  outer loop
    vertex 1.70444504226559 -9.5 9.05291427061512
    vertex 1.5 3.9999999999999996 7.499999999999999
    vertex 1.70444504226559 3.9999999999999996 9.05291427061512
  endloop
endfacet
facet normal 0.3826834323650901 -0.0 -0.9238795325112867
  outer loop
    vertex 5.947085729384871 3.9999999999999996 13.295554957734407
    vertex 4.499999999999997 -9.5 12.69615242270663
    vertex 4.499999999999997 3.9999999999999996 12.69615242270663
  endloop
endfacet
facet normal 0.3826834323650901 -0.0 -0.9238795325112867
  outer loop
    vertex 4.499999999999997 -9.5 12.69615242270663
    vertex 5.947085729384871 3.9999999999999996 13.295554957734407
    vertex 5.947085729384871 -9.5 13.295554957734407
  endloop
endfacet
facet normal 0.9238795325112872 -0.0 -0.38268343236508906
  outer loop
    vertex 1.70444504226559 3.9999999999999996 9.05291427061512
    vertex 2.303847577293366 -9.5 10.499999999999996
    vertex 1.70444504226559 -9.5 9.05291427061512
  endloop
endfacet
facet normal 0.9238795325112872 -0.0 -0.38268343236508906
  outer loop
    vertex 2.303847577293366 -9.5 10.499999999999996
    vertex 1.70444504226559 3.9999999999999996 9.05291427061512
    vertex 2.303847577293366 3.9999999999999996 10.499999999999996
  endloop
endfacet
facet normal -0.0 -0.0 1.0
  outer loop
    vertex 7.72785958755354e-18 -10.999999999999996 15.0
    vertex 15.0 3.9999999999999996 15.0
    vertex 0.0 3.9999999999999996 15.0
  endloop
endfacet
facet normal -0.0 -0.0 1.0
  outer loop
    vertex 15.0 3.9999999999999996 15.0
    vertex 7.72785958755354e-18 -10.999999999999996 15.0
    vertex 15.0 -10.999999999999996 15.0
  endloop
endfacet
facet normal 0.0 0.0 -1.0
  outer loop
    vertex 15.0 3.9999999999999996 0.0
    vertex 0.0 -11.0 0.0
    vertex 0.0 3.9999999999999996 0.0
  endloop
endfacet
facet normal 0.0 0.0 -1.0
  outer loop
    vertex 0.0 -11.0 0.0
    vertex 15.0 3.9999999999999996 0.0
    vertex 15.0 -11.0 0.0
  endloop
endfacet
facet normal 0.13052619222005307 -0.0 -0.9914448613738102
  outer loop
    vertex 7.5 3.9999999999999996 13.5
    vertex 5.947085729384871 -9.5 13.295554957734407
    vertex 5.947085729384871 3.9999999999999996 13.295554957734407
  endloop
endfacet
facet normal 0.13052619222005307 -0.0 -0.9914448613738102
  outer loop
    vertex 5.947085729384871 -9.5 13.295554957734407
    vertex 7.5 3.9999999999999996 13.5
    vertex 7.5 -9.5 13.5
  endloop
endfacet
facet normal 1.4117822267628198e-17 -1.0 1.7057335499778174e-16
  outer loop
    vertex 15.0 -11.0 0.0
    vertex 9.5 -11.0 6.500000000000001
    vertex 0.0 -11.0 0.0
  endloop
endfacet
facet normal 1.4117822267628198e-17 -1.0 1.7057335499778174e-16
  outer loop
    vertex 9.5 -11.0 6.500000000000001
    vertex 15.0 -11.0 0.0
    vertex 15.0 -10.999999999999996 15.0
  endloop
endfacet
facet normal 1.4117822267628198e-17 -1.0 1.7057335499778174e-16
  outer loop
    vertex 9.5 -11.0 6.500000000000001
    vertex 15.0 -10.999999999999996 15.0
    vertex 9.5 -11.0 8.734288864959254
  endloop
endfacet
facet normal 1.4117822267628198e-17 -1.0 1.7057335499778174e-16
  outer loop
    vertex 0.0 -11.0 0.0
    vertex 5.500000000000001 -11.0 6.500000000000001
    vertex 7.72785958755354e-18 -10.999999999999996 15.0
  endloop
endfacet
facet normal 1.4117822267628198e-17 -1.0 1.7057335499778174e-16
  outer loop
    vertex 5.500000000000001 -11.0 6.500000000000001
    vertex 0.0 -11.0 0.0
    vertex 9.5 -11.0 6.500000000000001
  endloop
endfacet
facet normal 1.4117822267628198e-17 -1.0 1.7057335499778174e-16
  outer loop
    vertex 7.72785958755354e-18 -10.999999999999996 15.0
    vertex 5.500000000000001 -11.0 6.500000000000001
    vertex 5.500000000000001 -11.0 8.73428886495925
  endloop
endfacet
facet normal 1.4117822267628198e-17 -1.0 1.7057335499778174e-16
  outer loop
    vertex 7.72785958755354e-18 -10.999999999999996 15.0
    vertex 5.500000000000001 -11.0 8.73428886495925
    vertex 9.5 -11.0 8.734288864959254
  endloop
endfacet
facet normal 1.4117822267628198e-17 -1.0 1.7057335499778174e-16
  outer loop
    vertex 7.72785958755354e-18 -10.999999999999996 15.0
    vertex 9.5 -11.0 8.734288864959254
    vertex 15.0 -10.999999999999996 15.0
  endloop
endfacet
facet normal 0.9914448613738105 -0.0 0.13052619222005227
  outer loop
    vertex 1.6316524975873963 0.0 6.500000000000001
    vertex 1.5 -9.5 7.499999999999999
    vertex 1.6316524975873963 -9.5 6.500000000000001
  endloop
endfacet
facet normal 0.9914448613738105 -0.0 0.13052619222005227
  outer loop
    vertex 1.5 -9.5 7.499999999999999
    vertex 1.6316524975873963 0.0 6.500000000000001
    vertex 1.5 3.9999999999999996 7.499999999999999
  endloop
endfacet
facet normal 0.9914448613738105 -0.0 0.13052619222005227
  outer loop
    vertex 1.5 3.9999999999999996 7.499999999999999
    vertex 1.6316524975873963 0.0 6.500000000000001
    vertex 1.6316524975873963 3.9999999999999996 6.500000000000001
  endloop
endfacet
facet normal -0.9914448613738105 0.0 0.1305261922200524
  outer loop
    vertex 13.5 3.9999999999999996 7.5
    vertex 13.368347502412604 -9.5 6.500000000000001
    vertex 13.5 -9.5 7.5
  endloop
endfacet
facet normal -0.9914448613738105 0.0 0.1305261922200524
  outer loop
    vertex 13.368347502412604 -9.5 6.500000000000001
    vertex 13.5 3.9999999999999996 7.5
    vertex 13.368347502412604 0.0 6.500000000000001
  endloop
endfacet
facet normal -0.9914448613738105 0.0 0.1305261922200524
  outer loop
    vertex 13.368347502412604 0.0 6.500000000000001
    vertex 13.5 3.9999999999999996 7.5
    vertex 13.368347502412604 3.9999999999999996 6.500000000000001
  endloop
endfacet
facet normal -0.9238795325112875 -0.3826834323650881 -5.0567606438051964e-15
  outer loop
    vertex 4.119259607988254 -5.905866657858806 7.276873165184338
    vertex 4.468911086754466 -6.749999999999999 6.500000000000001
    vertex 4.468911086754461 -6.750000000000002 7.425716648719439
  endloop
endfacet
facet normal -0.9238795325112875 -0.3826834323650881 -5.0567606438051964e-15
  outer loop
    vertex 4.468911086754466 -6.749999999999999 6.500000000000001
    vertex 4.119259607988254 -5.905866657858806 7.276873165184338
    vertex 4.119259607988263 -5.905866657858823 6.500000000000001
  endloop
endfacet
facet normal -0.130526192220054 -0.9914448613738103 4.516072434807381e-16
  outer loop
    vertex 7.499999999999989 -8.499999999999998 7.734288864959253
    vertex 6.594133342141178 -8.380740392011738 6.500000000000001
    vertex 7.5 -8.499999999999998 6.500000000000001
  endloop
endfacet
facet normal -0.130526192220054 -0.9914448613738103 4.516072434807381e-16
  outer loop
    vertex 6.594133342141178 -8.380740392011738 6.500000000000001
    vertex 7.499999999999989 -8.499999999999998 7.734288864959253
    vertex 6.594133342141176 -8.380740392011734 7.713260178362215
  endloop
endfacet
facet normal -0.3826834323650902 -0.9238795325112867 1.5825646713014534e-15
  outer loop
    vertex 6.594133342141176 -8.380740392011734 7.713260178362215
    vertex 5.750000000000002 -8.031088913245533 6.500000000000001
    vertex 6.594133342141178 -8.380740392011738 6.500000000000001
  endloop
endfacet
facet normal -0.3826834323650902 -0.9238795325112867 1.5825646713014534e-15
  outer loop
    vertex 5.750000000000002 -8.031088913245533 6.500000000000001
    vertex 6.594133342141176 -8.380740392011734 7.713260178362215
    vertex 5.749999999999992 -8.031088913245528 7.651607188811116
  endloop
endfacet
facet normal 0.1305261922200526 -0.9914448613738103 2.1130552942197922e-15
  outer loop
    vertex 8.40586665785882 -8.380740392011734 7.713260178362215
    vertex 7.5 -8.499999999999998 6.500000000000001
    vertex 8.405866657858827 -8.380740392011738 6.500000000000001
  endloop
endfacet
facet normal 0.1305261922200526 -0.9914448613738103 2.1130552942197922e-15
  outer loop
    vertex 7.5 -8.499999999999998 6.500000000000001
    vertex 8.40586665785882 -8.380740392011734 7.713260178362215
    vertex 7.499999999999989 -8.499999999999998 7.734288864959253
  endloop
endfacet
facet normal 0.3826834323650894 -0.9238795325112871 3.4127241379517085e-15
  outer loop
    vertex 9.249999999999995 -8.031088913245533 7.651607188811122
    vertex 8.405866657858827 -8.380740392011738 6.500000000000001
    vertex 9.250000000000002 -8.031088913245533 6.500000000000001
  endloop
endfacet
facet normal 0.3826834323650894 -0.9238795325112871 3.4127241379517085e-15
  outer loop
    vertex 8.405866657858827 -8.380740392011738 6.500000000000001
    vertex 9.249999999999995 -8.031088913245533 7.651607188811122
    vertex 8.40586665785882 -8.380740392011734 7.713260178362215
  endloop
endfacet
facet normal -2.7221681609283474e-16 0.17457177585883732 0.9846444510956694
  outer loop
    vertex 4.119259607988254 -5.905866657858806 7.276873165184338
    vertex 4.119259607988259 -4.09413334214117 6.95741569977491
    vertex 3.9999999999999956 -4.999999999999994 7.117144432479624
  endloop
endfacet
facet normal -2.7221681609283474e-16 0.17457177585883732 0.9846444510956694
  outer loop
    vertex 4.119259607988259 -4.09413334214117 6.95741569977491
    vertex 4.119259607988254 -5.905866657858806 7.276873165184338
    vertex 4.468911086754461 -6.750000000000002 7.425716648719439
  endloop
endfacet
facet normal -2.7221681609283474e-16 0.17457177585883732 0.9846444510956694
  outer loop
    vertex 4.119259607988259 -4.09413334214117 6.95741569977491
    vertex 4.468911086754461 -6.750000000000002 7.425716648719439
    vertex 4.468911086754461 -3.249999999999997 6.808572216239804
  endloop
endfacet
facet normal -2.7221681609283474e-16 0.17457177585883732 0.9846444510956694
  outer loop
    vertex 4.468911086754461 -3.249999999999997 6.808572216239804
    vertex 4.468911086754461 -6.750000000000002 7.425716648719439
    vertex 5.025126265847073 -7.474873734152905 7.553531445657501
  endloop
endfacet
facet normal -2.7221681609283474e-16 0.17457177585883732 0.9846444510956694
  outer loop
    vertex 4.468911086754461 -3.249999999999997 6.808572216239804
    vertex 5.025126265847073 -7.474873734152905 7.553531445657501
    vertex 5.025126265847078 -2.5251262658470823 6.680757419301765
  endloop
endfacet
facet normal -2.7221681609283474e-16 0.17457177585883732 0.9846444510956694
  outer loop
    vertex 5.025126265847078 -2.5251262658470823 6.680757419301765
    vertex 5.025126265847073 -7.474873734152905 7.553531445657501
    vertex 5.749999999999992 -8.031088913245528 7.651607188811116
  endloop
endfacet
facet normal -2.7221681609283474e-16 0.17457177585883732 0.9846444510956694
  outer loop
    vertex 5.025126265847078 -2.5251262658470823 6.680757419301765
    vertex 5.749999999999992 -8.031088913245528 7.651607188811116
    vertex 5.749999999999992 -1.968911086754465 6.582681676148143
  endloop
endfacet
facet normal -2.7221681609283474e-16 0.17457177585883732 0.9846444510956694
  outer loop
    vertex 5.749999999999992 -1.968911086754465 6.582681676148143
    vertex 5.749999999999992 -8.031088913245528 7.651607188811116
    vertex 6.594133342141176 -8.380740392011734 7.713260178362215
  endloop
endfacet
facet normal -2.7221681609283474e-16 0.17457177585883732 0.9846444510956694
  outer loop
    vertex 5.749999999999992 -1.968911086754465 6.582681676148143
    vertex 6.594133342141176 -8.380740392011734 7.713260178362215
    vertex 6.594133342141178 -1.6192596079882626 6.500000000000001
  endloop
endfacet
facet normal -2.7221681609283474e-16 0.17457177585883732 0.9846444510956694
  outer loop
    vertex 6.594133342141178 -1.6192596079882626 6.500000000000001
    vertex 6.594133342141176 -8.380740392011734 7.713260178362215
    vertex 7.499999999999989 -8.499999999999998 7.734288864959253
  endloop
endfacet
facet normal -2.7221681609283474e-16 0.17457177585883732 0.9846444510956694
  outer loop
    vertex 6.594133342141178 -1.6192596079882626 6.500000000000001
    vertex 7.499999999999989 -8.499999999999998 7.734288864959253
    vertex 7.5 -1.5000000000000016 6.500000000000001
  endloop
endfacet
facet normal -2.7221681609283474e-16 0.17457177585883732 0.9846444510956694
  outer loop
    vertex 7.5 -1.5000000000000016 6.500000000000001
    vertex 7.499999999999989 -8.499999999999998 7.734288864959253
    vertex 8.40586665785882 -8.380740392011734 7.713260178362215
  endloop
endfacet
facet normal -2.7221681609283474e-16 0.17457177585883732 0.9846444510956694
  outer loop
    vertex 7.5 -1.5000000000000016 6.500000000000001
    vertex 8.40586665785882 -8.380740392011734 7.713260178362215
    vertex 8.405866657858821 -1.619259607988262 6.500000000000001
  endloop
endfacet
facet normal -2.7221681609283474e-16 0.17457177585883732 0.9846444510956694
  outer loop
    vertex 8.405866657858821 -1.619259607988262 6.500000000000001
    vertex 8.40586665785882 -8.380740392011734 7.713260178362215
    vertex 9.249999999999995 -8.031088913245533 7.651607188811122
  endloop
endfacet
facet normal -2.7221681609283474e-16 0.17457177585883732 0.9846444510956694
  outer loop
    vertex 8.405866657858821 -1.619259607988262 6.500000000000001
    vertex 9.249999999999995 -8.031088913245533 7.651607188811122
    vertex 9.24999999999999 -1.968911086754465 6.5826816761481375
  endloop
endfacet
facet normal -2.7221681609283474e-16 0.17457177585883732 0.9846444510956694
  outer loop
    vertex 9.24999999999999 -1.968911086754465 6.5826816761481375
    vertex 9.249999999999995 -8.031088913245533 7.651607188811122
    vertex 9.974873734152906 -2.525126265847077 6.680757419301765
  endloop
endfacet
facet normal -2.7221681609283474e-16 0.17457177585883732 0.9846444510956694
  outer loop
    vertex 9.974873734152906 -2.525126265847077 6.680757419301765
    vertex 9.249999999999995 -8.031088913245533 7.651607188811122
    vertex 9.974873734152911 -7.474873734152911 7.553531445657501
  endloop
endfacet
facet normal -2.7221681609283474e-16 0.17457177585883732 0.9846444510956694
  outer loop
    vertex 9.974873734152906 -2.525126265847077 6.680757419301765
    vertex 9.974873734152911 -7.474873734152911 7.553531445657501
    vertex 10.531088913245524 -3.249999999999997 6.80857221623981
  endloop
endfacet
facet normal -2.7221681609283474e-16 0.17457177585883732 0.9846444510956694
  outer loop
    vertex 10.531088913245524 -3.249999999999997 6.80857221623981
    vertex 9.974873734152911 -7.474873734152911 7.553531445657501
    vertex 10.53108891324553 -6.74999999999999 7.425716648719439
  endloop
endfacet
facet normal -2.7221681609283474e-16 0.17457177585883732 0.9846444510956694
  outer loop
    vertex 10.531088913245524 -3.249999999999997 6.80857221623981
    vertex 10.53108891324553 -6.74999999999999 7.425716648719439
    vertex 10.88074039201173 -4.094133342141164 6.9574156997749155
  endloop
endfacet
facet normal -2.7221681609283474e-16 0.17457177585883732 0.9846444510956694
  outer loop
    vertex 10.88074039201173 -4.094133342141164 6.9574156997749155
    vertex 10.53108891324553 -6.74999999999999 7.425716648719439
    vertex 10.88074039201173 -5.905866657858812 7.276873165184338
  endloop
endfacet
facet normal -2.7221681609283474e-16 0.17457177585883732 0.9846444510956694
  outer loop
    vertex 10.88074039201173 -4.094133342141164 6.9574156997749155
    vertex 10.88074039201173 -5.905866657858812 7.276873165184338
    vertex 10.999999999999995 -4.999999999999994 7.117144432479624
  endloop
endfacet
facet normal 0.9238795325112881 -0.3826834323650872 1.1375266206471111e-14
  outer loop
    vertex 10.880740392011738 -5.90586665785882 6.500000000000001
    vertex 10.53108891324553 -6.74999999999999 7.425716648719439
    vertex 10.531088913245537 -6.7499999999999964 6.500000000000001
  endloop
endfacet
facet normal 0.9238795325112881 -0.3826834323650872 1.1375266206471111e-14
  outer loop
    vertex 10.53108891324553 -6.74999999999999 7.425716648719439
    vertex 10.880740392011738 -5.90586665785882 6.500000000000001
    vertex 10.88074039201173 -5.905866657858812 7.276873165184338
  endloop
endfacet
facet normal -0.7933533402912346 -0.6087614290087217 -4.613643676727726e-15
  outer loop
    vertex 5.025126265847073 -7.474873734152905 7.553531445657501
    vertex 4.468911086754466 -6.749999999999999 6.500000000000001
    vertex 5.025126265847085 -7.474873734152916 6.500000000000001
  endloop
endfacet
facet normal -0.7933533402912346 -0.6087614290087217 -4.613643676727726e-15
  outer loop
    vertex 4.468911086754466 -6.749999999999999 6.500000000000001
    vertex 5.025126265847073 -7.474873734152905 7.553531445657501
    vertex 4.468911086754461 -6.750000000000002 7.425716648719439
  endloop
endfacet
facet normal 0.7933533402912368 -0.6087614290087185 7.442724904711839e-15
  outer loop
    vertex 10.531088913245537 -6.7499999999999964 6.500000000000001
    vertex 9.974873734152911 -7.474873734152911 7.553531445657501
    vertex 9.974873734152915 -7.474873734152915 6.500000000000001
  endloop
endfacet
facet normal 0.7933533402912368 -0.6087614290087185 7.442724904711839e-15
  outer loop
    vertex 9.974873734152911 -7.474873734152911 7.553531445657501
    vertex 10.531088913245537 -6.7499999999999964 6.500000000000001
    vertex 10.53108891324553 -6.74999999999999 7.425716648719439
  endloop
endfacet
facet normal 0.6087614290087225 -0.7933533402912339 4.59559922321967e-15
  outer loop
    vertex 9.974873734152911 -7.474873734152911 7.553531445657501
    vertex 9.250000000000002 -8.031088913245533 6.500000000000001
    vertex 9.974873734152915 -7.474873734152915 6.500000000000001
  endloop
endfacet
facet normal 0.6087614290087225 -0.7933533402912339 4.59559922321967e-15
  outer loop
    vertex 9.250000000000002 -8.031088913245533 6.500000000000001
    vertex 9.974873734152911 -7.474873734152911 7.553531445657501
    vertex 9.249999999999995 -8.031088913245533 7.651607188811122
  endloop
endfacet
facet normal -0.6087614290087204 -0.7933533402912355 1.3657055641068833e-17
  outer loop
    vertex 5.749999999999992 -8.031088913245528 7.651607188811116
    vertex 5.025126265847085 -7.474873734152916 6.500000000000001
    vertex 5.750000000000002 -8.031088913245533 6.500000000000001
  endloop
endfacet
facet normal -0.6087614290087204 -0.7933533402912355 1.3657055641068833e-17
  outer loop
    vertex 5.025126265847085 -7.474873734152916 6.500000000000001
    vertex 5.749999999999992 -8.031088913245528 7.651607188811116
    vertex 5.025126265847073 -7.474873734152905 7.553531445657501
  endloop
endfacet
facet normal -0.9238795325112877 0.3826834323650879 -1.6750835151512395e-14
  outer loop
    vertex 4.119259607988259 -4.09413334214117 6.95741569977491
    vertex 4.468911086754466 -3.250000000000001 6.500000000000001
    vertex 4.119259607988263 -4.094133342141178 6.500000000000001
  endloop
endfacet
facet normal -0.9238795325112877 0.3826834323650879 -1.6750835151512395e-14
  outer loop
    vertex 4.468911086754466 -3.250000000000001 6.500000000000001
    vertex 4.119259607988259 -4.09413334214117 6.95741569977491
    vertex 4.468911086754461 -3.249999999999997 6.808572216239804
  endloop
endfacet
facet normal 0.9238795325112849 0.3826834323650943 1.1448750075543214e-14
  outer loop
    vertex 10.531088913245533 -3.2499999999999996 6.500000000000001
    vertex 10.88074039201173 -4.094133342141164 6.9574156997749155
    vertex 10.880740392011736 -4.094133342141175 6.500000000000001
  endloop
endfacet
facet normal 0.9238795325112849 0.3826834323650943 1.1448750075543214e-14
  outer loop
    vertex 10.88074039201173 -4.094133342141164 6.9574156997749155
    vertex 10.531088913245533 -3.2499999999999996 6.500000000000001
    vertex 10.531088913245524 -3.249999999999997 6.80857221623981
  endloop
endfacet
facet normal 0.99144486137381 0.13052619222005427 9.36160600835122e-15
  outer loop
    vertex 10.880740392011736 -4.094133342141175 6.500000000000001
    vertex 10.999999999999995 -4.999999999999994 7.117144432479624
    vertex 11.0 -4.999999999999999 6.500000000000001
  endloop
endfacet
facet normal 0.99144486137381 0.13052619222005427 9.36160600835122e-15
  outer loop
    vertex 10.999999999999995 -4.999999999999994 7.117144432479624
    vertex 10.880740392011736 -4.094133342141175 6.500000000000001
    vertex 10.88074039201173 -4.094133342141164 6.9574156997749155
  endloop
endfacet
facet normal 0.38268343236508967 0.9238795325112868 4.1530486751443947e-14
  outer loop
    vertex 9.24999999999999 -1.968911086754465 6.5826816761481375
    vertex 9.249999999999998 -1.9689110867544655 6.500000000000001
    vertex 8.405866657858821 -1.619259607988262 6.500000000000001
  endloop
endfacet
facet normal -0.13052619222005168 0.0 0.9914448613738105
  outer loop
    vertex 9.052914270615126 0.0 1.7044450422655912
    vertex 7.500000000000002 3.9999999999999996 1.5000000000000007
    vertex 7.500000000000002 0.0 1.5000000000000007
  endloop
endfacet
facet normal -0.13052619222005168 0.0 0.9914448613738105
  outer loop
    vertex 7.500000000000002 3.9999999999999996 1.5000000000000007
    vertex 9.052914270615126 0.0 1.7044450422655912
    vertex 9.052914270615126 3.9999999999999996 1.7044450422655912
  endloop
endfacet
facet normal 0.6087614290087173 0.7933533402912377 1.1368137135491852e-14
  outer loop
    vertex 9.24999999999999 -1.968911086754465 6.5826816761481375
    vertex 9.974873734152915 -2.5251262658470837 6.500000000000001
    vertex 9.249999999999998 -1.9689110867544655 6.500000000000001
  endloop
endfacet
facet normal 0.6087614290087173 0.7933533402912377 1.1368137135491852e-14
  outer loop
    vertex 9.974873734152915 -2.5251262658470837 6.500000000000001
    vertex 9.24999999999999 -1.968911086754465 6.5826816761481375
    vertex 9.974873734152906 -2.525126265847077 6.680757419301765
  endloop
endfacet
facet normal 0.9914448613738103 -0.13052619222005268 1.1463619688386777e-14
  outer loop
    vertex 11.0 -4.999999999999999 6.500000000000001
    vertex 10.88074039201173 -5.905866657858812 7.276873165184338
    vertex 10.880740392011738 -5.90586665785882 6.500000000000001
  endloop
endfacet
facet normal 0.9914448613738103 -0.13052619222005268 1.1463619688386777e-14
  outer loop
    vertex 10.88074039201173 -5.905866657858812 7.276873165184338
    vertex 11.0 -4.999999999999999 6.500000000000001
    vertex 10.999999999999995 -4.999999999999994 7.117144432479624
  endloop
endfacet
facet normal -0.3826834323650899 0.0 0.9238795325112868
  outer loop
    vertex 10.500000000000004 0.0 2.3038475772933698
    vertex 9.052914270615126 3.9999999999999996 1.7044450422655912
    vertex 9.052914270615126 0.0 1.7044450422655912
  endloop
endfacet
facet normal -0.3826834323650899 0.0 0.9238795325112868
  outer loop
    vertex 9.052914270615126 3.9999999999999996 1.7044450422655912
    vertex 10.500000000000004 0.0 2.3038475772933698
    vertex 10.500000000000004 3.9999999999999996 2.3038475772933698
  endloop
endfacet
facet normal -0.7933533402912365 0.6087614290087192 -2.6990345180590988e-14
  outer loop
    vertex 4.468911086754461 -3.249999999999997 6.808572216239804
    vertex 5.025126265847085 -2.525126265847085 6.500000000000001
    vertex 4.468911086754466 -3.250000000000001 6.500000000000001
  endloop
endfacet
facet normal -0.7933533402912365 0.6087614290087192 -2.6990345180590988e-14
  outer loop
    vertex 5.025126265847085 -2.525126265847085 6.500000000000001
    vertex 4.468911086754461 -3.249999999999997 6.808572216239804
    vertex 5.025126265847078 -2.5251262658470823 6.680757419301765
  endloop
endfacet
facet normal 0.38268343236508945 0.0 0.9238795325112868
  outer loop
    vertex 5.947085729384878 0.0 1.7044450422655906
    vertex 4.500000000000002 3.9999999999999996 2.303847577293368
    vertex 4.500000000000002 0.0 2.303847577293368
  endloop
endfacet
facet normal 0.38268343236508945 0.0 0.9238795325112868
  outer loop
    vertex 4.500000000000002 3.9999999999999996 2.303847577293368
    vertex 5.947085729384878 0.0 1.7044450422655906
    vertex 5.947085729384878 3.9999999999999996 1.7044450422655906
  endloop
endfacet
facet normal -0.9914448613738105 0.13052619222005232 -1.0985788255583436e-14
  outer loop
    vertex 3.9999999999999956 -4.999999999999994 7.117144432479624
    vertex 4.119259607988263 -4.094133342141178 6.500000000000001
    vertex 4.000000000000002 -5.0 6.500000000000001
  endloop
endfacet
facet normal -0.9914448613738105 0.13052619222005232 -1.0985788255583436e-14
  outer loop
    vertex 4.119259607988263 -4.094133342141178 6.500000000000001
    vertex 3.9999999999999956 -4.999999999999994 7.117144432479624
    vertex 4.119259607988259 -4.09413334214117 6.95741569977491
  endloop
endfacet
facet normal 0.13052619222005138 0.0 0.9914448613738106
  outer loop
    vertex 7.500000000000002 0.0 1.5000000000000007
    vertex 5.947085729384878 3.9999999999999996 1.7044450422655906
    vertex 5.947085729384878 0.0 1.7044450422655906
  endloop
endfacet
facet normal 0.13052619222005138 0.0 0.9914448613738106
  outer loop
    vertex 5.947085729384878 3.9999999999999996 1.7044450422655906
    vertex 7.500000000000002 0.0 1.5000000000000007
    vertex 7.500000000000002 3.9999999999999996 1.5000000000000007
  endloop
endfacet
facet normal -0.38268343236508967 0.9238795325112868 -5.132541287206043e-14
  outer loop
    vertex 5.749999999999992 -1.968911086754465 6.582681676148143
    vertex 6.594133342141178 -1.6192596079882626 6.500000000000001
    vertex 5.75 -1.9689110867544664 6.500000000000001
  endloop
endfacet
facet normal 0.0 1.0 0.0
  outer loop
    vertex 0.0 3.9999999999999996 0.0
    vertex 5.947085729384878 3.9999999999999996 1.7044450422655906
    vertex 15.0 3.9999999999999996 0.0
  endloop
endfacet
facet normal 0.0 1.0 0.0
  outer loop
    vertex 5.947085729384878 3.9999999999999996 1.7044450422655906
    vertex 0.0 3.9999999999999996 0.0
    vertex 4.500000000000002 3.9999999999999996 2.303847577293368
  endloop
endfacet
facet normal 0.0 1.0 0.0
  outer loop
    vertex 4.500000000000002 3.9999999999999996 2.303847577293368
    vertex 0.0 3.9999999999999996 0.0
    vertex 3.2573593128807175 3.9999999999999996 3.257359312880713
  endloop
endfacet
facet normal 0.0 1.0 0.0
  outer loop
    vertex 3.2573593128807175 3.9999999999999996 3.257359312880713
    vertex 0.0 3.9999999999999996 0.0
    vertex 2.3038475772933698 3.9999999999999996 4.499999999999997
  endloop
endfacet
facet normal 0.0 1.0 0.0
  outer loop
    vertex 2.3038475772933698 3.9999999999999996 4.499999999999997
    vertex 0.0 3.9999999999999996 0.0
    vertex 1.7044450422655912 3.9999999999999996 5.947085729384871
  endloop
endfacet
facet normal 0.0 1.0 0.0
  outer loop
    vertex 1.7044450422655912 3.9999999999999996 5.947085729384871
    vertex 0.0 3.9999999999999996 0.0
    vertex 0.0 3.9999999999999996 15.0
  endloop
endfacet
facet normal 0.0 1.0 0.0
  outer loop
    vertex 15.0 3.9999999999999996 0.0
    vertex 5.947085729384878 3.9999999999999996 1.7044450422655906
    vertex 7.500000000000002 3.9999999999999996 1.5000000000000007
  endloop
endfacet
facet normal 0.0 1.0 0.0
  outer loop
    vertex 1.7044450422655912 3.9999999999999996 5.947085729384871
    vertex 0.0 3.9999999999999996 15.0
    vertex 1.6316524975873963 3.9999999999999996 6.500000000000001
  endloop
endfacet
facet normal 0.0 1.0 0.0
  outer loop
    vertex 1.6316524975873963 3.9999999999999996 6.500000000000001
    vertex 0.0 3.9999999999999996 15.0
    vertex 1.5 3.9999999999999996 7.499999999999999
  endloop
endfacet
facet normal 0.0 1.0 0.0
  outer loop
    vertex 1.5 3.9999999999999996 7.499999999999999
    vertex 0.0 3.9999999999999996 15.0
    vertex 1.70444504226559 3.9999999999999996 9.05291427061512
  endloop
endfacet
facet normal 0.0 1.0 0.0
  outer loop
    vertex 1.70444504226559 3.9999999999999996 9.05291427061512
    vertex 0.0 3.9999999999999996 15.0
    vertex 2.303847577293366 3.9999999999999996 10.499999999999996
  endloop
endfacet
facet normal 0.0 1.0 0.0
  outer loop
    vertex 2.303847577293366 3.9999999999999996 10.499999999999996
    vertex 0.0 3.9999999999999996 15.0
    vertex 3.257359312880714 3.9999999999999996 11.742640687119286
  endloop
endfacet
facet normal 0.0 1.0 0.0
  outer loop
    vertex 3.257359312880714 3.9999999999999996 11.742640687119286
    vertex 0.0 3.9999999999999996 15.0
    vertex 4.499999999999997 3.9999999999999996 12.69615242270663
  endloop
endfacet
facet normal 0.0 1.0 0.0
  outer loop
    vertex 4.499999999999997 3.9999999999999996 12.69615242270663
    vertex 0.0 3.9999999999999996 15.0
    vertex 5.947085729384871 3.9999999999999996 13.295554957734407
  endloop
endfacet
facet normal 0.0 1.0 0.0
  outer loop
    vertex 5.947085729384871 3.9999999999999996 13.295554957734407
    vertex 0.0 3.9999999999999996 15.0
    vertex 7.5 3.9999999999999996 13.5
  endloop
endfacet
facet normal 0.0 1.0 0.0
  outer loop
    vertex 15.0 3.9999999999999996 0.0
    vertex 13.29555495773441 3.9999999999999996 5.9470857293848765
    vertex 15.0 3.9999999999999996 15.0
  endloop
endfacet
facet normal 0.0 1.0 0.0
  outer loop
    vertex 13.29555495773441 3.9999999999999996 5.9470857293848765
    vertex 15.0 3.9999999999999996 0.0
    vertex 12.696152422706632 3.9999999999999996 4.500000000000002
  endloop
endfacet
facet normal 0.0 1.0 0.0
  outer loop
    vertex 12.696152422706632 3.9999999999999996 4.500000000000002
    vertex 15.0 3.9999999999999996 0.0
    vertex 11.742640687119286 3.9999999999999996 3.257359312880716
  endloop
endfacet
facet normal 0.0 1.0 0.0
  outer loop
    vertex 11.742640687119286 3.9999999999999996 3.257359312880716
    vertex 15.0 3.9999999999999996 0.0
    vertex 10.500000000000004 3.9999999999999996 2.3038475772933698
  endloop
endfacet
facet normal 0.0 1.0 0.0
  outer loop
    vertex 10.500000000000004 3.9999999999999996 2.3038475772933698
    vertex 15.0 3.9999999999999996 0.0
    vertex 9.052914270615126 3.9999999999999996 1.7044450422655912
  endloop
endfacet
facet normal 0.0 1.0 0.0
  outer loop
    vertex 9.052914270615126 3.9999999999999996 1.7044450422655912
    vertex 15.0 3.9999999999999996 0.0
    vertex 7.500000000000002 3.9999999999999996 1.5000000000000007
  endloop
endfacet
facet normal 0.0 1.0 0.0
  outer loop
    vertex 15.0 3.9999999999999996 15.0
    vertex 13.29555495773441 3.9999999999999996 5.9470857293848765
    vertex 13.368347502412604 3.9999999999999996 6.500000000000001
  endloop
endfacet
facet normal 0.0 1.0 0.0
  outer loop
    vertex 15.0 3.9999999999999996 15.0
    vertex 13.368347502412604 3.9999999999999996 6.500000000000001
    vertex 13.5 3.9999999999999996 7.5
  endloop
endfacet
facet normal 0.0 1.0 0.0
  outer loop
    vertex 15.0 3.9999999999999996 15.0
    vertex 13.5 3.9999999999999996 7.5
    vertex 13.29555495773441 3.9999999999999996 9.052914270615126
  endloop
endfacet
facet normal 0.0 1.0 0.0
  outer loop
    vertex 15.0 3.9999999999999996 15.0
    vertex 13.29555495773441 3.9999999999999996 9.052914270615126
    vertex 12.696152422706632 3.9999999999999996 10.5
  endloop
endfacet
facet normal 0.0 1.0 0.0
  outer loop
    vertex 15.0 3.9999999999999996 15.0
    vertex 12.696152422706632 3.9999999999999996 10.5
    vertex 11.742640687119286 3.9999999999999996 11.742640687119286
  endloop
endfacet
facet normal 0.0 1.0 0.0
  outer loop
    vertex 15.0 3.9999999999999996 15.0
    vertex 11.742640687119286 3.9999999999999996 11.742640687119286
    vertex 10.5 3.9999999999999996 12.696152422706632
  endloop
endfacet
facet normal 0.0 1.0 0.0
  outer loop
    vertex 15.0 3.9999999999999996 15.0
    vertex 10.5 3.9999999999999996 12.696152422706632
    vertex 9.052914270615124 3.9999999999999996 13.29555495773441
  endloop
endfacet
facet normal 0.0 1.0 0.0
  outer loop
    vertex 15.0 3.9999999999999996 15.0
    vertex 9.052914270615124 3.9999999999999996 13.29555495773441
    vertex 7.5 3.9999999999999996 13.5
  endloop
endfacet
facet normal 0.0 1.0 0.0
  outer loop
    vertex 15.0 3.9999999999999996 15.0
    vertex 7.5 3.9999999999999996 13.5
    vertex 0.0 3.9999999999999996 15.0
  endloop
endfacet
facet normal 0.7933533402912355 0.6087614290087202 1.847050128021099e-14
  outer loop
    vertex 9.974873734152915 -2.5251262658470837 6.500000000000001
    vertex 10.531088913245524 -3.249999999999997 6.80857221623981
    vertex 10.531088913245533 -3.2499999999999996 6.500000000000001
  endloop
endfacet
facet normal 0.7933533402912355 0.6087614290087202 1.847050128021099e-14
  outer loop
    vertex 10.531088913245524 -3.249999999999997 6.80857221623981
    vertex 9.974873734152915 -2.5251262658470837 6.500000000000001
    vertex 9.974873734152906 -2.525126265847077 6.680757419301765
  endloop
endfacet
facet normal -0.9914448613738106 0.0 0.1305261922200507
  outer loop
    vertex 13.368347502412604 3.9999999999999996 6.500000000000001
    vertex 13.29555495773441 0.0 5.9470857293848765
    vertex 13.368347502412604 0.0 6.500000000000001
  endloop
endfacet
facet normal -0.9914448613738106 0.0 0.1305261922200507
  outer loop
    vertex 13.29555495773441 0.0 5.9470857293848765
    vertex 13.368347502412604 3.9999999999999996 6.500000000000001
    vertex 13.29555495773441 3.9999999999999996 5.9470857293848765
  endloop
endfacet
facet normal -0.6087614290087225 0.7933533402912339 -4.063056420647976e-14
  outer loop
    vertex 5.025126265847078 -2.5251262658470823 6.680757419301765
    vertex 5.75 -1.9689110867544664 6.500000000000001
    vertex 5.025126265847085 -2.525126265847085 6.500000000000001
  endloop
endfacet
facet normal -0.6087614290087225 0.7933533402912339 -4.063056420647976e-14
  outer loop
    vertex 5.75 -1.9689110867544664 6.500000000000001
    vertex 5.025126265847078 -2.5251262658470823 6.680757419301765
    vertex 5.749999999999992 -1.968911086754465 6.582681676148143
  endloop
endfacet
facet normal -0.9914448613738105 -0.13052619222005166 -8.867317735959482e-15
  outer loop
    vertex 4.119259607988254 -5.905866657858806 7.276873165184338
    vertex 4.000000000000002 -5.0 6.500000000000001
    vertex 4.119259607988263 -5.905866657858823 6.500000000000001
  endloop
endfacet
facet normal -0.9914448613738105 -0.13052619222005166 -8.867317735959482e-15
  outer loop
    vertex 4.000000000000002 -5.0 6.500000000000001
    vertex 4.119259607988254 -5.905866657858806 7.276873165184338
    vertex 3.9999999999999956 -4.999999999999994 7.117144432479624
  endloop
endfacet
facet normal 5.287437154777309e-16 -4.699944137579828e-16 -1.0
  outer loop
    vertex 9.5 -9.5 8.734288864959252
    vertex 5.500000000000001 -11.0 8.73428886495925
    vertex 5.500000000000001 -9.5 8.73428886495925
  endloop
endfacet
facet normal 5.287437154777309e-16 -4.699944137579828e-16 -1.0
  outer loop
    vertex 5.500000000000001 -11.0 8.73428886495925
    vertex 9.5 -9.5 8.734288864959252
    vertex 9.5 -11.0 8.734288864959254
  endloop
endfacet
facet normal 0.9914448613738105 0.0 0.13052619222005143
  outer loop
    vertex 1.7044450422655912 3.9999999999999996 5.947085729384871
    vertex 1.6316524975873963 0.0 6.500000000000001
    vertex 1.7044450422655912 0.0 5.947085729384871
  endloop
endfacet
facet normal 0.9914448613738105 0.0 0.13052619222005143
  outer loop
    vertex 1.6316524975873963 0.0 6.500000000000001
    vertex 1.7044450422655912 3.9999999999999996 5.947085729384871
    vertex 1.6316524975873963 3.9999999999999996 6.500000000000001
  endloop
endfacet
facet normal -0.7933533402912355 0.0 0.6087614290087204
  outer loop
    vertex 12.696152422706632 3.9999999999999996 4.500000000000002
    vertex 11.742640687119286 0.0 3.257359312880716
    vertex 12.696152422706632 0.0 4.500000000000002
  endloop
endfacet
facet normal -0.7933533402912355 0.0 0.6087614290087204
  outer loop
    vertex 11.742640687119286 0.0 3.257359312880716
    vertex 12.696152422706632 3.9999999999999996 4.500000000000002
    vertex 11.742640687119286 3.9999999999999996 3.257359312880716
  endloop
endfacet
facet normal 1.8341244265407262e-17 -1.8431153480705212e-17 1.0
  outer loop
    vertex 9.5 -11.0 6.500000000000001
    vertex 5.500000000000001 -9.5 6.500000000000001
    vertex 5.500000000000001 -11.0 6.500000000000001
  endloop
endfacet
facet normal 1.8341244265407262e-17 -1.8431153480705212e-17 1.0
  outer loop
    vertex 5.500000000000001 -9.5 6.500000000000001
    vertex 9.5 -11.0 6.500000000000001
    vertex 5.750000000000002 -8.031088913245533 6.500000000000001
  endloop
endfacet
facet normal 1.8341244265407262e-17 -1.8431153480705212e-17 1.0
  outer loop
    vertex 5.750000000000002 -8.031088913245533 6.500000000000001
    vertex 9.5 -11.0 6.500000000000001
    vertex 6.594133342141178 -8.380740392011738 6.500000000000001
  endloop
endfacet
facet normal 1.8341244265407262e-17 -1.8431153480705212e-17 1.0
  outer loop
    vertex 6.594133342141178 -8.380740392011738 6.500000000000001
    vertex 9.5 -11.0 6.500000000000001
    vertex 7.5 -8.499999999999998 6.500000000000001
  endloop
endfacet
facet normal 1.8341244265407262e-17 -1.8431153480705212e-17 1.0
  outer loop
    vertex 7.5 -8.499999999999998 6.500000000000001
    vertex 9.5 -11.0 6.500000000000001
    vertex 8.405866657858827 -8.380740392011738 6.500000000000001
  endloop
endfacet
facet normal 1.8341244265407262e-17 -1.8431153480705212e-17 1.0
  outer loop
    vertex 8.405866657858827 -8.380740392011738 6.500000000000001
    vertex 9.5 -11.0 6.500000000000001
    vertex 9.250000000000002 -8.031088913245533 6.500000000000001
  endloop
endfacet
facet normal 1.8341244265407262e-17 -1.8431153480705212e-17 1.0
  outer loop
    vertex 9.250000000000002 -8.031088913245533 6.500000000000001
    vertex 9.5 -11.0 6.500000000000001
    vertex 9.5 -9.5 6.499999999999999
  endloop
endfacet
facet normal 1.8341244265407262e-17 -1.8431153480705212e-17 1.0
  outer loop
    vertex 9.250000000000002 -8.031088913245533 6.500000000000001
    vertex 9.5 -9.5 6.499999999999999
    vertex 9.974873734152915 -7.474873734152915 6.500000000000001
  endloop
endfacet
facet normal 1.8341244265407262e-17 -1.8431153480705212e-17 1.0
  outer loop
    vertex 9.974873734152915 -7.474873734152915 6.500000000000001
    vertex 9.5 -9.5 6.499999999999999
    vertex 13.368347502412604 -9.5 6.500000000000001
  endloop
endfacet
facet normal 1.8341244265407262e-17 -1.8431153480705212e-17 1.0
  outer loop
    vertex 9.974873734152915 -7.474873734152915 6.500000000000001
    vertex 13.368347502412604 -9.5 6.500000000000001
    vertex 10.531088913245537 -6.7499999999999964 6.500000000000001
  endloop
endfacet
facet normal 1.8341244265407262e-17 -1.8431153480705212e-17 1.0
  outer loop
    vertex 10.531088913245537 -6.7499999999999964 6.500000000000001
    vertex 13.368347502412604 -9.5 6.500000000000001
    vertex 10.880740392011738 -5.90586665785882 6.500000000000001
  endloop
endfacet
facet normal 1.8341244265407262e-17 -1.8431153480705212e-17 1.0
  outer loop
    vertex 10.880740392011738 -5.90586665785882 6.500000000000001
    vertex 13.368347502412604 -9.5 6.500000000000001
    vertex 11.0 -4.999999999999999 6.500000000000001
  endloop
endfacet
facet normal 1.8341244265407262e-17 -1.8431153480705212e-17 1.0
  outer loop
    vertex 1.6316524975873963 0.0 6.500000000000001
    vertex 6.594133342141178 -1.6192596079882626 6.500000000000001
    vertex 13.368347502412604 0.0 6.500000000000001
  endloop
endfacet
facet normal 1.8341244265407262e-17 -1.8431153480705212e-17 1.0
  outer loop
    vertex 6.594133342141178 -1.6192596079882626 6.500000000000001
    vertex 1.6316524975873963 0.0 6.500000000000001
    vertex 5.75 -1.9689110867544664 6.500000000000001
  endloop
endfacet
facet normal 1.8341244265407262e-17 -1.8431153480705212e-17 1.0
  outer loop
    vertex 5.75 -1.9689110867544664 6.500000000000001
    vertex 1.6316524975873963 0.0 6.500000000000001
    vertex 5.025126265847085 -2.525126265847085 6.500000000000001
  endloop
endfacet
facet normal 1.8341244265407262e-17 -1.8431153480705212e-17 1.0
  outer loop
    vertex 5.025126265847085 -2.525126265847085 6.500000000000001
    vertex 1.6316524975873963 0.0 6.500000000000001
    vertex 4.468911086754466 -3.250000000000001 6.500000000000001
  endloop
endfacet
facet normal 1.8341244265407262e-17 -1.8431153480705212e-17 1.0
  outer loop
    vertex 4.468911086754466 -3.250000000000001 6.500000000000001
    vertex 1.6316524975873963 0.0 6.500000000000001
    vertex 4.119259607988263 -4.094133342141178 6.500000000000001
  endloop
endfacet
facet normal 1.8341244265407262e-17 -1.8431153480705212e-17 1.0
  outer loop
    vertex 4.119259607988263 -4.094133342141178 6.500000000000001
    vertex 1.6316524975873963 0.0 6.500000000000001
    vertex 4.000000000000002 -5.0 6.500000000000001
  endloop
endfacet
facet normal 1.8341244265407262e-17 -1.8431153480705212e-17 1.0
  outer loop
    vertex 13.368347502412604 0.0 6.500000000000001
    vertex 6.594133342141178 -1.6192596079882626 6.500000000000001
    vertex 7.5 -1.5000000000000016 6.500000000000001
  endloop
endfacet
facet normal 1.8341244265407262e-17 -1.8431153480705212e-17 1.0
  outer loop
    vertex 13.368347502412604 0.0 6.500000000000001
    vertex 7.5 -1.5000000000000016 6.500000000000001
    vertex 8.405866657858821 -1.619259607988262 6.500000000000001
  endloop
endfacet
facet normal 1.8341244265407262e-17 -1.8431153480705212e-17 1.0
  outer loop
    vertex 13.368347502412604 0.0 6.500000000000001
    vertex 8.405866657858821 -1.619259607988262 6.500000000000001
    vertex 9.249999999999998 -1.9689110867544655 6.500000000000001
  endloop
endfacet
facet normal 1.8341244265407262e-17 -1.8431153480705212e-17 1.0
  outer loop
    vertex 13.368347502412604 0.0 6.500000000000001
    vertex 9.249999999999998 -1.9689110867544655 6.500000000000001
    vertex 9.974873734152915 -2.5251262658470837 6.500000000000001
  endloop
endfacet
facet normal 1.8341244265407262e-17 -1.8431153480705212e-17 1.0
  outer loop
    vertex 13.368347502412604 0.0 6.500000000000001
    vertex 9.974873734152915 -2.5251262658470837 6.500000000000001
    vertex 10.531088913245533 -3.2499999999999996 6.500000000000001
  endloop
endfacet
facet normal 1.8341244265407262e-17 -1.8431153480705212e-17 1.0
  outer loop
    vertex 13.368347502412604 0.0 6.500000000000001
    vertex 10.531088913245533 -3.2499999999999996 6.500000000000001
    vertex 10.880740392011736 -4.094133342141175 6.500000000000001
  endloop
endfacet
facet normal 1.8341244265407262e-17 -1.8431153480705212e-17 1.0
  outer loop
    vertex 13.368347502412604 0.0 6.500000000000001
    vertex 10.880740392011736 -4.094133342141175 6.500000000000001
    vertex 11.0 -4.999999999999999 6.500000000000001
  endloop
endfacet
facet normal 1.8341244265407262e-17 -1.8431153480705212e-17 1.0
  outer loop
    vertex 13.368347502412604 0.0 6.500000000000001
    vertex 11.0 -4.999999999999999 6.500000000000001
    vertex 13.368347502412604 -9.5 6.500000000000001
  endloop
endfacet
facet normal 1.8341244265407262e-17 -1.8431153480705212e-17 1.0
  outer loop
    vertex 5.500000000000001 -9.5 6.500000000000001
    vertex 1.6316524975873963 0.0 6.500000000000001
    vertex 1.6316524975873963 -9.5 6.500000000000001
  endloop
endfacet
facet normal 1.8341244265407262e-17 -1.8431153480705212e-17 1.0
  outer loop
    vertex 1.6316524975873963 0.0 6.500000000000001
    vertex 5.500000000000001 -9.5 6.500000000000001
    vertex 4.119259607988263 -5.905866657858823 6.500000000000001
  endloop
endfacet
facet normal 1.8341244265407262e-17 -1.8431153480705212e-17 1.0
  outer loop
    vertex 1.6316524975873963 0.0 6.500000000000001
    vertex 4.119259607988263 -5.905866657858823 6.500000000000001
    vertex 4.000000000000002 -5.0 6.500000000000001
  endloop
endfacet
facet normal 1.8341244265407262e-17 -1.8431153480705212e-17 1.0
  outer loop
    vertex 4.119259607988263 -5.905866657858823 6.500000000000001
    vertex 5.500000000000001 -9.5 6.500000000000001
    vertex 4.468911086754466 -6.749999999999999 6.500000000000001
  endloop
endfacet
facet normal 1.8341244265407262e-17 -1.8431153480705212e-17 1.0
  outer loop
    vertex 4.468911086754466 -6.749999999999999 6.500000000000001
    vertex 5.500000000000001 -9.5 6.500000000000001
    vertex 5.025126265847085 -7.474873734152916 6.500000000000001
  endloop
endfacet
facet normal 1.8341244265407262e-17 -1.8431153480705212e-17 1.0
  outer loop
    vertex 5.025126265847085 -7.474873734152916 6.500000000000001
    vertex 5.500000000000001 -9.5 6.500000000000001
    vertex 5.750000000000002 -8.031088913245533 6.500000000000001
  endloop
endfacet
facet normal -0.0 1.0 -0.0
  outer loop
    vertex 1.5 -9.5 7.499999999999999
    vertex 5.500000000000001 -9.5 6.500000000000001
    vertex 1.6316524975873963 -9.5 6.500000000000001
  endloop
endfacet
facet normal -0.0 1.0 -0.0
  outer loop
    vertex 5.500000000000001 -9.5 6.500000000000001
    vertex 1.5 -9.5 7.499999999999999
    vertex 5.500000000000001 -9.5 8.73428886495925
  endloop
endfacet
facet normal -0.0 1.0 -0.0
  outer loop
    vertex 5.500000000000001 -9.5 8.73428886495925
    vertex 1.5 -9.5 7.499999999999999
    vertex 1.6624972118161976 -9.5 8.73428886495925
  endloop
endfacet
facet normal -0.0 1.0 -0.0
  outer loop
    vertex 5.500000000000001 -9.5 8.73428886495925
    vertex 1.6624972118161976 -9.5 8.73428886495925
    vertex 1.70444504226559 -9.5 9.05291427061512
  endloop
endfacet
facet normal -0.0 1.0 -0.0
  outer loop
    vertex 5.500000000000001 -9.5 8.73428886495925
    vertex 1.70444504226559 -9.5 9.05291427061512
    vertex 9.5 -9.5 8.734288864959252
  endloop
endfacet
facet normal -0.0 1.0 -0.0
  outer loop
    vertex 9.5 -9.5 8.734288864959252
    vertex 1.70444504226559 -9.5 9.05291427061512
    vertex 13.337502788183803 -9.5 8.734288864959252
  endloop
endfacet
facet normal -0.0 1.0 -0.0
  outer loop
    vertex 13.337502788183803 -9.5 8.734288864959252
    vertex 1.70444504226559 -9.5 9.05291427061512
    vertex 13.29555495773441 -9.5 9.052914270615126
  endloop
endfacet
facet normal -0.0 1.0 -0.0
  outer loop
    vertex 13.29555495773441 -9.5 9.052914270615126
    vertex 1.70444504226559 -9.5 9.05291427061512
    vertex 2.303847577293366 -9.5 10.499999999999996
  endloop
endfacet
facet normal -0.0 1.0 -0.0
  outer loop
    vertex 13.29555495773441 -9.5 9.052914270615126
    vertex 2.303847577293366 -9.5 10.499999999999996
    vertex 12.696152422706632 -9.5 10.5
  endloop
endfacet
facet normal -0.0 1.0 -0.0
  outer loop
    vertex 12.696152422706632 -9.5 10.5
    vertex 2.303847577293366 -9.5 10.499999999999996
    vertex 3.257359312880714 -9.5 11.742640687119286
  endloop
endfacet
facet normal -0.0 1.0 -0.0
  outer loop
    vertex 12.696152422706632 -9.5 10.5
    vertex 3.257359312880714 -9.5 11.742640687119286
    vertex 11.742640687119286 -9.5 11.742640687119286
  endloop
endfacet
facet normal -0.0 1.0 -0.0
  outer loop
    vertex 11.742640687119286 -9.5 11.742640687119286
    vertex 3.257359312880714 -9.5 11.742640687119286
    vertex 4.499999999999997 -9.5 12.69615242270663
  endloop
endfacet
facet normal -0.0 1.0 -0.0
  outer loop
    vertex 11.742640687119286 -9.5 11.742640687119286
    vertex 4.499999999999997 -9.5 12.69615242270663
    vertex 10.5 -9.5 12.696152422706632
  endloop
endfacet
facet normal -0.0 1.0 -0.0
  outer loop
    vertex 10.5 -9.5 12.696152422706632
    vertex 4.499999999999997 -9.5 12.69615242270663
    vertex 5.947085729384871 -9.5 13.295554957734407
  endloop
endfacet
facet normal -0.0 1.0 -0.0
  outer loop
    vertex 10.5 -9.5 12.696152422706632
    vertex 5.947085729384871 -9.5 13.295554957734407
    vertex 9.052914270615124 -9.5 13.29555495773441
  endloop
endfacet
facet normal -0.0 1.0 -0.0
  outer loop
    vertex 9.052914270615124 -9.5 13.29555495773441
    vertex 5.947085729384871 -9.5 13.295554957734407
    vertex 7.5 -9.5 13.5
  endloop
endfacet
facet normal -0.0 1.0 -0.0
  outer loop
    vertex 9.5 -9.5 8.734288864959252
    vertex 13.368347502412604 -9.5 6.500000000000001
    vertex 9.5 -9.5 6.499999999999999
  endloop
endfacet
facet normal -0.0 1.0 -0.0
  outer loop
    vertex 13.368347502412604 -9.5 6.500000000000001
    vertex 9.5 -9.5 8.734288864959252
    vertex 13.5 -9.5 7.5
  endloop
endfacet
facet normal -0.0 1.0 -0.0
  outer loop
    vertex 13.5 -9.5 7.5
    vertex 9.5 -9.5 8.734288864959252
    vertex 13.337502788183803 -9.5 8.734288864959252
  endloop
endfacet
facet normal -0.6087614290087212 0.0 0.7933533402912347
  outer loop
    vertex 11.742640687119286 0.0 3.257359312880716
    vertex 10.500000000000004 3.9999999999999996 2.3038475772933698
    vertex 10.500000000000004 0.0 2.3038475772933698
  endloop
endfacet
facet normal -0.6087614290087212 0.0 0.7933533402912347
  outer loop
    vertex 10.500000000000004 3.9999999999999996 2.3038475772933698
    vertex 11.742640687119286 0.0 3.257359312880716
    vertex 11.742640687119286 3.9999999999999996 3.257359312880716
  endloop
endfacet
facet normal 1.0 -0.0 -0.0
  outer loop
    vertex 5.500000000000001 -9.5 6.500000000000001
    vertex 5.500000000000001 -11.0 8.73428886495925
    vertex 5.500000000000001 -11.0 6.500000000000001
  endloop
endfacet
facet normal 1.0 -0.0 -0.0
  outer loop
    vertex 5.500000000000001 -11.0 8.73428886495925
    vertex 5.500000000000001 -9.5 6.500000000000001
    vertex 5.500000000000001 -9.5 8.73428886495925
  endloop
endfacet
facet normal -1.0 0.0 0.0
  outer loop
    vertex 9.5 -9.5 8.734288864959252
    vertex 9.5 -11.0 6.500000000000001
    vertex 9.5 -11.0 8.734288864959254
  endloop
endfacet
facet normal -1.0 0.0 0.0
  outer loop
    vertex 9.5 -11.0 6.500000000000001
    vertex 9.5 -9.5 8.734288864959252
    vertex 9.5 -9.5 6.499999999999999
  endloop
endfacet
facet normal 0.7933533402912346 0.0 0.6087614290087213
  outer loop
    vertex 3.2573593128807175 3.9999999999999996 3.257359312880713
    vertex 2.3038475772933698 0.0 4.499999999999997
    vertex 3.2573593128807175 0.0 3.257359312880713
  endloop
endfacet
facet normal 0.7933533402912346 0.0 0.6087614290087213
  outer loop
    vertex 2.3038475772933698 0.0 4.499999999999997
    vertex 3.2573593128807175 3.9999999999999996 3.257359312880713
    vertex 2.3038475772933698 3.9999999999999996 4.499999999999997
  endloop
endfacet
facet normal 0.9238795325112867 0.0 0.3826834323650904
  outer loop
    vertex 2.3038475772933698 3.9999999999999996 4.499999999999997
    vertex 1.7044450422655912 0.0 5.947085729384871
    vertex 2.3038475772933698 0.0 4.499999999999997
  endloop
endfacet
facet normal 0.9238795325112867 0.0 0.3826834323650904
  outer loop
    vertex 1.7044450422655912 0.0 5.947085729384871
    vertex 2.3038475772933698 3.9999999999999996 4.499999999999997
    vertex 1.7044450422655912 3.9999999999999996 5.947085729384871
  endloop
endfacet
facet normal -0.9238795325112867 0.0 0.3826834323650898
  outer loop
    vertex 13.29555495773441 3.9999999999999996 5.9470857293848765
    vertex 12.696152422706632 0.0 4.500000000000002
    vertex 13.29555495773441 0.0 5.9470857293848765
  endloop
endfacet
facet normal -0.9238795325112867 0.0 0.3826834323650898
  outer loop
    vertex 12.696152422706632 0.0 4.500000000000002
    vertex 13.29555495773441 3.9999999999999996 5.9470857293848765
    vertex 12.696152422706632 3.9999999999999996 4.500000000000002
  endloop
endfacet
facet normal 0.6087614290087202 0.0 0.7933533402912355
  outer loop
    vertex 4.500000000000002 0.0 2.303847577293368
    vertex 3.2573593128807175 3.9999999999999996 3.257359312880713
    vertex 3.2573593128807175 0.0 3.257359312880713
  endloop
endfacet
facet normal 0.6087614290087202 0.0 0.7933533402912355
  outer loop
    vertex 3.2573593128807175 3.9999999999999996 3.257359312880713
    vertex 4.500000000000002 0.0 2.303847577293368
    vertex 4.500000000000002 3.9999999999999996 2.303847577293368
  endloop
endfacet
endsolid Spring_Connector
