solid AutoSave_Spring_Connector
facet normal -0.8314696123025386 -0.5555702330196122 1.9836497235447546e-15
  outer loop
    vertex 87.44373760677449 93.21849313799073 1.9999999999999998
    vertex 87.66700091575517 92.8843559831785 0.6664894838653996
    vertex 87.66700091575517 92.8843559831785 1.9999999999999998
  endloop
endfacet
facet normal -0.8314696123025386 -0.5555702330196122 1.9836497235447546e-15
  outer loop
    vertex 87.66700091575517 92.8843559831785 0.6664894838653996
    vertex 87.44373760677449 93.21849313799073 1.9999999999999998
    vertex 87.59707138847368 92.98901291668842 0.8353142970386559
  endloop
endfacet
facet normal -0.7933533402912325 0.6087614290087242 -2.1290940123097128e-17
  outer loop
    vertex 89.82241726321485 97.63634132826866 2.5
    vertex 89.34566139542117 97.01502098470901 1.9999999999999998
    vertex 89.34566139542117 97.01502098470901 2.5
  endloop
endfacet
facet normal -0.7933533402912325 0.6087614290087242 -2.1290940123097128e-17
  outer loop
    vertex 89.34566139542117 97.01502098470901 1.9999999999999998
    vertex 89.82241726321485 97.63634132826866 2.5
    vertex 89.82241726321485 97.63634132826866 1.9999999999999998
  endloop
endfacet
facet normal 0.9238795325112854 -0.3826834323650931 -1.4693769893288883e-29
  outer loop
    vertex 94.84151508564169 94.73856384940146 1.9999999999999998
    vertex 94.54181381812779 94.01502098470903 2.5
    vertex 94.54181381812779 94.01502098470903 1.9999999999999998
  endloop
endfacet
facet normal 0.9238795325112854 -0.3826834323650931 -1.4693769893288883e-29
  outer loop
    vertex 94.54181381812779 94.01502098470903 2.5
    vertex 94.84151508564169 94.73856384940146 1.9999999999999998
    vertex 94.84151508564169 94.73856384940146 2.5
  endloop
endfacet
facet normal 0.7933533402912325 -0.6087614290087242 -2.1290940123097128e-17
  outer loop
    vertex 94.54181381812779 94.01502098470903 1.9999999999999998
    vertex 94.06505795033412 93.39370064114938 2.5
    vertex 94.06505795033412 93.39370064114938 1.9999999999999998
  endloop
endfacet
facet normal 0.7933533402912325 -0.6087614290087242 -2.1290940123097128e-17
  outer loop
    vertex 94.06505795033412 93.39370064114938 2.5
    vertex 94.54181381812779 94.01502098470903 1.9999999999999998
    vertex 94.54181381812779 94.01502098470903 2.5
  endloop
endfacet
facet normal 0.6087614290087243 0.7933533402912325 2.129094012312237e-17
  outer loop
    vertex 93.44373760677449 98.11309719606233 2.5
    vertex 94.06505795033412 97.63634132826866 1.9999999999999998
    vertex 93.44373760677449 98.11309719606233 1.9999999999999998
  endloop
endfacet
facet normal 0.6087614290087243 0.7933533402912325 2.129094012312237e-17
  outer loop
    vertex 94.06505795033412 97.63634132826866 1.9999999999999998
    vertex 93.44373760677449 98.11309719606233 2.5
    vertex 94.06505795033412 97.63634132826866 2.5
  endloop
endfacet
facet normal -0.7933533402912325 -0.6087614290087242 -2.1290940123097128e-17
  outer loop
    vertex 89.34566139542117 94.01502098470903 2.5
    vertex 89.82241726321485 93.39370064114938 1.9999999999999998
    vertex 89.82241726321485 93.39370064114938 2.5
  endloop
endfacet
facet normal -0.7933533402912325 -0.6087614290087242 -2.1290940123097128e-17
  outer loop
    vertex 89.82241726321485 93.39370064114938 1.9999999999999998
    vertex 89.34566139542117 94.01502098470903 2.5
    vertex 89.34566139542117 94.01502098470903 1.9999999999999998
  endloop
endfacet
facet normal -0.9914448613738096 -0.13052619222005782 -1.7844301024427984e-29
  outer loop
    vertex 88.94373760677449 95.51502098470901 2.5
    vertex 89.04596012790729 94.73856384940144 1.9999999999999998
    vertex 89.04596012790729 94.73856384940144 2.5
  endloop
endfacet
facet normal -0.9914448613738096 -0.13052619222005782 -1.7844301024427984e-29
  outer loop
    vertex 89.04596012790729 94.73856384940144 1.9999999999999998
    vertex 88.94373760677449 95.51502098470901 2.5
    vertex 88.94373760677449 95.51502098470901 1.9999999999999998
  endloop
endfacet
facet normal -0.9238795325112854 0.3826834323650931 1.4693769893288883e-29
  outer loop
    vertex 89.34566139542117 97.01502098470901 2.5
    vertex 89.04596012790728 96.29147812001658 1.9999999999999998
    vertex 89.04596012790728 96.29147812001658 2.5
  endloop
endfacet
facet normal -0.9238795325112854 0.3826834323650931 1.4693769893288883e-29
  outer loop
    vertex 89.04596012790728 96.29147812001658 1.9999999999999998
    vertex 89.34566139542117 97.01502098470901 2.5
    vertex 89.34566139542117 97.01502098470901 1.9999999999999998
  endloop
endfacet
facet normal -0.6087614290087242 0.7933533402912325 2.1290940123097128e-17
  outer loop
    vertex 89.82241726321485 97.63634132826866 2.5
    vertex 90.44373760677449 98.11309719606233 1.9999999999999998
    vertex 89.82241726321485 97.63634132826866 1.9999999999999998
  endloop
endfacet
facet normal -0.6087614290087242 0.7933533402912325 2.1290940123097128e-17
  outer loop
    vertex 90.44373760677449 98.11309719606233 1.9999999999999998
    vertex 89.82241726321485 97.63634132826866 2.5
    vertex 90.44373760677449 98.11309719606233 2.5
  endloop
endfacet
facet normal -0.6087614290087242 -0.7933533402912325 2.1290940123097128e-17
  outer loop
    vertex 90.44373760677449 92.91694477335571 2.5
    vertex 89.82241726321485 93.39370064114938 1.9999999999999998
    vertex 90.44373760677449 92.91694477335571 1.9999999999999998
  endloop
endfacet
facet normal -0.6087614290087242 -0.7933533402912325 2.1290940123097128e-17
  outer loop
    vertex 89.82241726321485 93.39370064114938 1.9999999999999998
    vertex 90.44373760677449 92.91694477335571 2.5
    vertex 89.82241726321485 93.39370064114938 2.5
  endloop
endfacet
facet normal -0.9238795325112884 -0.38268343236508595 -2.676808896334991e-17
  outer loop
    vertex 89.04596012790729 94.73856384940144 2.5
    vertex 89.34566139542117 94.01502098470903 1.9999999999999998
    vertex 89.34566139542117 94.01502098470903 2.5
  endloop
endfacet
facet normal -0.9238795325112884 -0.38268343236508595 -2.676808896334991e-17
  outer loop
    vertex 89.34566139542117 94.01502098470903 1.9999999999999998
    vertex 89.04596012790729 94.73856384940144 2.5
    vertex 89.04596012790729 94.73856384940144 1.9999999999999998
  endloop
endfacet
facet normal -0.9914448613738114 0.13052619222004555 0.0
  outer loop
    vertex 89.04596012790728 96.29147812001658 2.5
    vertex 88.94373760677449 95.51502098470901 1.9999999999999998
    vertex 88.94373760677449 95.51502098470901 2.5
  endloop
endfacet
facet normal -0.9914448613738114 0.13052619222004555 0.0
  outer loop
    vertex 88.94373760677449 95.51502098470901 1.9999999999999998
    vertex 89.04596012790728 96.29147812001658 2.5
    vertex 89.04596012790728 96.29147812001658 1.9999999999999998
  endloop
endfacet
facet normal 0.9914448613738114 -0.13052619222004555 -0.0
  outer loop
    vertex 94.94373760677448 95.51502098470901 1.9999999999999998
    vertex 94.84151508564169 94.73856384940146 2.5
    vertex 94.84151508564169 94.73856384940146 1.9999999999999998
  endloop
endfacet
facet normal 0.9914448613738114 -0.13052619222004555 -0.0
  outer loop
    vertex 94.84151508564169 94.73856384940146 2.5
    vertex 94.94373760677448 95.51502098470901 1.9999999999999998
    vertex 94.94373760677448 95.51502098470901 2.5
  endloop
endfacet
facet normal 0.9238795325112905 0.38268343236508084 -0.0
  outer loop
    vertex 94.54181381812779 97.01502098470901 1.9999999999999998
    vertex 94.84151508564167 96.29147812001658 2.5
    vertex 94.84151508564167 96.29147812001658 1.9999999999999998
  endloop
endfacet
facet normal 0.9238795325112905 0.38268343236508084 -0.0
  outer loop
    vertex 94.84151508564167 96.29147812001658 2.5
    vertex 94.54181381812779 97.01502098470901 1.9999999999999998
    vertex 94.54181381812779 97.01502098470901 2.5
  endloop
endfacet
facet normal 0.7933533402912325 0.6087614290087242 2.1290940123097128e-17
  outer loop
    vertex 94.06505795033412 97.63634132826866 1.9999999999999998
    vertex 94.54181381812779 97.01502098470901 2.5
    vertex 94.54181381812779 97.01502098470901 1.9999999999999998
  endloop
endfacet
facet normal 0.7933533402912325 0.6087614290087242 2.1290940123097128e-17
  outer loop
    vertex 94.54181381812779 97.01502098470901 2.5
    vertex 94.06505795033412 97.63634132826866 1.9999999999999998
    vertex 94.06505795033412 97.63634132826866 2.5
  endloop
endfacet
facet normal 0.9914448613738094 0.1305261922200597 -1.5768357391046e-29
  outer loop
    vertex 94.84151508564167 96.29147812001658 1.9999999999999998
    vertex 94.94373760677448 95.51502098470901 2.5
    vertex 94.94373760677448 95.51502098470901 1.9999999999999998
  endloop
endfacet
facet normal 0.9914448613738094 0.1305261922200597 -1.5768357391046e-29
  outer loop
    vertex 94.94373760677448 95.51502098470901 2.5
    vertex 94.84151508564167 96.29147812001658 1.9999999999999998
    vertex 94.84151508564167 96.29147812001658 2.5
  endloop
endfacet
facet normal -0.0 -0.0 1.0
  outer loop
    vertex 94.19373760677449 91.61790666767904 4.000000000000003
    vertex 93.44373760677449 99.72279547351881 4.000000000000003
    vertex 93.44373760677449 91.30724649589922 4.000000000000003
  endloop
endfacet
facet normal -0.0 -0.0 1.0
  outer loop
    vertex 93.44373760677449 99.72279547351881 4.000000000000003
    vertex 94.19373760677449 91.61790666767904 4.000000000000003
    vertex 94.19373760677448 99.41213530173899 4.000000000000003
  endloop
endfacet
facet normal -0.0 -0.0 1.0
  outer loop
    vertex 94.19373760677448 99.41213530173899 4.000000000000003
    vertex 94.19373760677449 91.61790666767904 4.000000000000003
    vertex 95.12571812211395 98.69700150004847 4.000000000000003
  endloop
endfacet
facet normal -0.0 -0.0 1.0
  outer loop
    vertex 95.12571812211395 98.69700150004847 4.000000000000003
    vertex 94.19373760677449 91.61790666767904 4.000000000000003
    vertex 95.12571812211397 92.33304046936955 4.000000000000003
  endloop
endfacet
facet normal -0.0 -0.0 1.0
  outer loop
    vertex 95.12571812211395 98.69700150004847 4.000000000000003
    vertex 95.12571812211397 92.33304046936955 4.000000000000003
    vertex 95.84085192380446 97.76502098470903 4.000000000000003
  endloop
endfacet
facet normal -0.0 -0.0 1.0
  outer loop
    vertex 95.84085192380446 97.76502098470903 4.000000000000003
    vertex 95.12571812211397 92.33304046936955 4.000000000000003
    vertex 95.84085192380446 93.26502098470903 4.000000000000003
  endloop
endfacet
facet normal -0.0 -0.0 1.0
  outer loop
    vertex 95.84085192380446 97.76502098470903 4.000000000000003
    vertex 95.84085192380446 93.26502098470903 4.000000000000003
    vertex 96.29040382507529 94.35033528174768 4.000000000000003
  endloop
endfacet
facet normal -0.0 -0.0 1.0
  outer loop
    vertex 95.84085192380446 97.76502098470903 4.000000000000003
    vertex 96.29040382507529 94.35033528174768 4.000000000000003
    vertex 96.29040382507529 96.67970668767036 4.000000000000003
  endloop
endfacet
facet normal -0.0 -0.0 1.0
  outer loop
    vertex 96.29040382507529 96.67970668767036 4.000000000000003
    vertex 96.29040382507529 94.35033528174768 4.000000000000003
    vertex 96.44373760677449 95.51502098470901 4.000000000000003
  endloop
endfacet
facet normal 0.6087614290087241 -0.7933533402912325 2.129094012307189e-17
  outer loop
    vertex 94.06505795033412 93.39370064114938 2.5
    vertex 93.44373760677449 92.91694477335571 1.9999999999999998
    vertex 94.06505795033412 93.39370064114938 1.9999999999999998
  endloop
endfacet
facet normal 0.6087614290087241 -0.7933533402912325 2.129094012307189e-17
  outer loop
    vertex 93.44373760677449 92.91694477335571 1.9999999999999998
    vertex 94.06505795033412 93.39370064114938 2.5
    vertex 93.44373760677449 92.91694477335571 2.5
  endloop
endfacet
facet normal -0.0 -0.0 1.0
  outer loop
    vertex 87.59707138847368 94.35033528174768 4.000000000000001
    vertex 87.59707138847368 96.67970668767036 4.000000000000001
    vertex 87.44373760677449 95.51502098470901 4.000000000000001
  endloop
endfacet
facet normal -0.0 -0.0 1.0
  outer loop
    vertex 87.59707138847368 96.67970668767036 4.000000000000001
    vertex 87.59707138847368 94.35033528174768 4.000000000000001
    vertex 88.04662328974452 93.26502098470901 4.000000000000001
  endloop
endfacet
facet normal -0.0 -0.0 1.0
  outer loop
    vertex 87.59707138847368 96.67970668767036 4.000000000000001
    vertex 88.04662328974452 93.26502098470901 4.000000000000001
    vertex 88.04662328974452 97.76502098470901 4.000000000000001
  endloop
endfacet
facet normal -0.0 -0.0 1.0
  outer loop
    vertex 88.04662328974452 97.76502098470901 4.000000000000001
    vertex 88.04662328974452 93.26502098470901 4.000000000000001
    vertex 88.76175709143503 92.33304046936955 4.000000000000001
  endloop
endfacet
facet normal -0.0 -0.0 1.0
  outer loop
    vertex 88.04662328974452 97.76502098470901 4.000000000000001
    vertex 88.76175709143503 92.33304046936955 4.000000000000001
    vertex 88.76175709143502 98.69700150004847 4.000000000000001
  endloop
endfacet
facet normal -0.0 -0.0 1.0
  outer loop
    vertex 88.76175709143502 98.69700150004847 4.000000000000001
    vertex 88.76175709143503 92.33304046936955 4.000000000000001
    vertex 89.69373760677448 99.41213530173899 4.000000000000001
  endloop
endfacet
facet normal -0.0 -0.0 1.0
  outer loop
    vertex 89.69373760677448 99.41213530173899 4.000000000000001
    vertex 88.76175709143503 92.33304046936955 4.000000000000001
    vertex 89.69373760677449 91.61790666767904 4.000000000000001
  endloop
endfacet
facet normal -0.0 -0.0 1.0
  outer loop
    vertex 89.69373760677448 99.41213530173899 4.000000000000001
    vertex 89.69373760677449 91.61790666767904 4.000000000000001
    vertex 90.44373760677449 99.72279547351881 4.000000000000001
  endloop
endfacet
facet normal -0.0 -0.0 1.0
  outer loop
    vertex 90.44373760677449 99.72279547351881 4.000000000000001
    vertex 89.69373760677449 91.61790666767904 4.000000000000001
    vertex 90.44373760677449 91.30724649589922 4.000000000000001
  endloop
endfacet
facet normal -0.27175801689781537 -0.656081890078313 -0.7040625922196373
  outer loop
    vertex 90.44373760677449 91.30724649589922 4.000000000000001
    vertex 89.69373760677449 91.61790666767904 4.000000000000001
    vertex 90.44373760677449 92.91694477335571 2.5
  endloop
endfacet
facet normal 0.5555702330195937 -0.8314696123025511 2.4699557349595516e-16
  outer loop
    vertex 95.57440260830501 92.23828429368969 1.9999999999999991
    vertex 95.19373760677448 91.98393207146347 3.524958103184872e-16
    vertex 95.57440260830501 92.23828429368969 3.524958103184872e-16
  endloop
endfacet
facet normal 0.5555702330195937 -0.8314696123025511 2.4699557349595516e-16
  outer loop
    vertex 95.19373760677448 91.98393207146347 3.524958103184872e-16
    vertex 95.57440260830501 92.23828429368969 1.9999999999999991
    vertex 95.19373760677448 91.98393207146347 1.9999999999999991
  endloop
endfacet
facet normal 0.7518398074789873 -0.6593458151000576 -1.0070436953647302e-15
  outer loop
    vertex 95.94440531439774 92.56955964023678 1.762479051592436e-16
    vertex 95.91861134092741 92.54014725055609 1.9999999999999991
    vertex 95.91861134092741 92.54014725055609 3.524958103184872e-16
  endloop
endfacet
facet normal 0.7518398074789873 -0.6593458151000576 -1.0070436953647302e-15
  outer loop
    vertex 95.91861134092741 92.54014725055609 1.9999999999999991
    vertex 95.94440531439774 92.56955964023678 1.762479051592436e-16
    vertex 96.22047429779381 92.8843559831785 1.9999999999999991
  endloop
endfacet
facet normal 0.7518398074789873 -0.6593458151000576 -1.0070436953647302e-15
  outer loop
    vertex 96.22047429779381 92.8843559831785 1.9999999999999991
    vertex 95.94440531439774 92.56955964023678 1.762479051592436e-16
    vertex 96.2204742977938 92.88435598317851 0.666489483865346
  endloop
endfacet
facet normal -0.4323045753218246 0.563390291354741 -0.7040625922196387
  outer loop
    vertex 89.69373760677448 99.41213530173899 4.000000000000001
    vertex 89.82241726321485 97.63634132826866 2.5
    vertex 88.76175709143502 98.69700150004847 4.000000000000001
  endloop
endfacet
facet normal -0.4323045753218246 0.563390291354741 -0.7040625922196387
  outer loop
    vertex 89.82241726321485 97.63634132826866 2.5
    vertex 89.69373760677448 99.41213530173899 4.000000000000001
    vertex 90.44373760677449 98.11309719606233 2.5
  endloop
endfacet
facet normal 0.563390291354744 -0.43230457532182226 -0.7040625922196376
  outer loop
    vertex 94.54181381812779 94.01502098470903 2.5
    vertex 95.12571812211397 92.33304046936955 4.000000000000003
    vertex 94.06505795033412 93.39370064114938 2.5
  endloop
endfacet
facet normal 0.563390291354744 -0.43230457532182226 -0.7040625922196376
  outer loop
    vertex 95.12571812211397 92.33304046936955 4.000000000000003
    vertex 94.54181381812779 94.01502098470903 2.5
    vertex 95.84085192380446 93.26502098470903 4.000000000000003
  endloop
endfacet
facet normal -0.656081890078314 -0.2717580168978104 -0.7040625922196382
  outer loop
    vertex 89.04596012790729 94.73856384940144 2.5
    vertex 88.04662328974452 93.26502098470901 4.000000000000001
    vertex 87.59707138847368 94.35033528174768 4.000000000000001
  endloop
endfacet
facet normal -0.656081890078314 -0.2717580168978104 -0.7040625922196382
  outer loop
    vertex 88.04662328974452 93.26502098470901 4.000000000000001
    vertex 89.04596012790729 94.73856384940144 2.5
    vertex 89.34566139542117 94.01502098470903 2.5
  endloop
endfacet
facet normal -0.7518398074789792 -0.6593458151000668 -3.279347418239046e-16
  outer loop
    vertex 87.66700091575517 92.8843559831785 1.9999999999999998
    vertex 87.96886387262157 92.54014725055609 0.0
    vertex 87.96886387262157 92.54014725055609 1.9999999999999998
  endloop
endfacet
facet normal -0.7518398074789792 -0.6593458151000668 -3.279347418239046e-16
  outer loop
    vertex 87.96886387262157 92.54014725055609 0.0
    vertex 87.66700091575517 92.8843559831785 1.9999999999999998
    vertex 87.94306989915124 92.56955964023678 0.0
  endloop
endfacet
facet normal -0.7518398074789792 -0.6593458151000668 -3.279347418239046e-16
  outer loop
    vertex 87.94306989915124 92.56955964023678 0.0
    vertex 87.66700091575517 92.8843559831785 1.9999999999999998
    vertex 87.66700091575517 92.8843559831785 0.6664894838653996
  endloop
endfacet
facet normal 0.3214394653031432 -0.946930129495112 2.258635009863519e-16
  outer loop
    vertex 94.78312962005229 91.7814426209195 1.9999999999999991
    vertex 94.34960426463331 91.63428059269728 3.524958103184872e-16
    vertex 94.78312962005229 91.7814426209195 3.524958103184872e-16
  endloop
endfacet
facet normal 0.3214394653031432 -0.946930129495112 2.258635009863519e-16
  outer loop
    vertex 94.34960426463331 91.63428059269728 3.524958103184872e-16
    vertex 94.78312962005229 91.7814426209195 1.9999999999999991
    vertex 94.34960426463331 91.63428059269728 1.9999999999999991
  endloop
endfacet
facet normal -0.5555702330195937 -0.8314696123025511 4.8819076971029853e-17
  outer loop
    vertex 88.69373760677449 91.98393207146347 1.9999999999999998
    vertex 88.31307260524396 92.23828429368969 0.0
    vertex 88.69373760677449 91.98393207146347 0.0
  endloop
endfacet
facet normal -0.5555702330195937 -0.8314696123025511 4.8819076971029853e-17
  outer loop
    vertex 88.31307260524396 92.23828429368969 0.0
    vertex 88.69373760677449 91.98393207146347 1.9999999999999998
    vertex 88.31307260524396 92.23828429368969 1.9999999999999998
  endloop
endfacet
facet normal -0.3214394653031432 -0.946930129495112 3.7687433080741565e-17
  outer loop
    vertex 89.53787094891567 91.63428059269728 1.9999999999999998
    vertex 89.10434559349667 91.7814426209195 0.0
    vertex 89.53787094891567 91.63428059269728 0.0
  endloop
endfacet
facet normal -0.3214394653031432 -0.946930129495112 3.7687433080741565e-17
  outer loop
    vertex 89.10434559349667 91.7814426209195 0.0
    vertex 89.53787094891567 91.63428059269728 1.9999999999999998
    vertex 89.10434559349667 91.7814426209195 1.9999999999999998
  endloop
endfacet
facet normal -0.6593458151000657 -0.7518398074789803 5.317636034141274e-17
  outer loop
    vertex 88.31307260524396 92.23828429368969 1.9999999999999998
    vertex 87.96886387262157 92.54014725055609 0.0
    vertex 88.31307260524396 92.23828429368969 0.0
  endloop
endfacet
facet normal -0.6593458151000657 -0.7518398074789803 5.317636034141274e-17
  outer loop
    vertex 87.96886387262157 92.54014725055609 0.0
    vertex 88.31307260524396 92.23828429368969 1.9999999999999998
    vertex 87.96886387262157 92.54014725055609 1.9999999999999998
  endloop
endfacet
facet normal -0.4422886902190071 -0.8968727415326857 4.36264856584683e-17
  outer loop
    vertex 89.10434559349667 91.7814426209195 1.9999999999999998
    vertex 88.69373760677449 91.98393207146347 0.0
    vertex 89.10434559349667 91.7814426209195 0.0
  endloop
endfacet
facet normal -0.4422886902190071 -0.8968727415326857 4.36264856584683e-17
  outer loop
    vertex 88.69373760677449 91.98393207146347 0.0
    vertex 89.10434559349667 91.7814426209195 1.9999999999999998
    vertex 88.69373760677449 91.98393207146347 1.9999999999999998
  endloop
endfacet
facet normal -0.7040625922196357 0.09269159872357106 -0.7040625922196375
  outer loop
    vertex 87.59707138847368 96.67970668767036 4.000000000000001
    vertex 88.94373760677449 95.51502098470901 2.5
    vertex 87.44373760677449 95.51502098470901 4.000000000000001
  endloop
endfacet
facet normal -0.7040625922196357 0.09269159872357106 -0.7040625922196375
  outer loop
    vertex 88.94373760677449 95.51502098470901 2.5
    vertex 87.59707138847368 96.67970668767036 4.000000000000001
    vertex 89.04596012790728 96.29147812001658 2.5
  endloop
endfacet
facet normal -0.2717580168978118 0.6560818900783136 -0.704062592219638
  outer loop
    vertex 90.44373760677449 98.11309719606233 2.5
    vertex 89.69373760677448 99.41213530173899 4.000000000000001
    vertex 90.44373760677449 99.72279547351881 4.000000000000001
  endloop
endfacet
facet normal 0.4422886902190071 -0.8968727415326857 2.3846967839799307e-16
  outer loop
    vertex 95.19373760677448 91.98393207146347 1.9999999999999991
    vertex 94.78312962005229 91.7814426209195 3.524958103184872e-16
    vertex 95.19373760677448 91.98393207146347 3.524958103184872e-16
  endloop
endfacet
facet normal 0.4422886902190071 -0.8968727415326857 2.3846967839799307e-16
  outer loop
    vertex 94.78312962005229 91.7814426209195 3.524958103184872e-16
    vertex 95.19373760677448 91.98393207146347 1.9999999999999991
    vertex 94.78312962005229 91.7814426209195 1.9999999999999991
  endloop
endfacet
facet normal 0.656081890078314 -0.27175801689781415 -0.7040625922196367
  outer loop
    vertex 94.84151508564169 94.73856384940146 2.5
    vertex 95.84085192380446 93.26502098470903 4.000000000000003
    vertex 94.54181381812779 94.01502098470903 2.5
  endloop
endfacet
facet normal 0.656081890078314 -0.27175801689781415 -0.7040625922196367
  outer loop
    vertex 95.84085192380446 93.26502098470903 4.000000000000003
    vertex 94.84151508564169 94.73856384940146 2.5
    vertex 96.29040382507529 94.35033528174768 4.000000000000003
  endloop
endfacet
facet normal 0.43230457532182476 -0.5633902913547412 -0.7040625922196383
  outer loop
    vertex 94.06505795033412 93.39370064114938 2.5
    vertex 94.19373760677449 91.61790666767904 4.000000000000003
    vertex 93.44373760677449 92.91694477335571 2.5
  endloop
endfacet
facet normal 0.43230457532182476 -0.5633902913547412 -0.7040625922196383
  outer loop
    vertex 94.19373760677449 91.61790666767904 4.000000000000003
    vertex 94.06505795033412 93.39370064114938 2.5
    vertex 95.12571812211397 92.33304046936955 4.000000000000003
  endloop
endfacet
facet normal -1.0 0.0 0.0
  outer loop
    vertex 93.44373760677449 99.72279547351881 4.000000000000003
    vertex 93.44373760677449 92.91694477335571 2.5
    vertex 93.44373760677449 91.30724649589922 4.000000000000003
  endloop
endfacet
facet normal -1.0 0.0 0.0
  outer loop
    vertex 93.44373760677449 92.91694477335571 2.5
    vertex 93.44373760677449 99.72279547351881 4.000000000000003
    vertex 93.44373760677449 92.91694477335571 1.9999999999999998
  endloop
endfacet
facet normal -1.0 0.0 0.0
  outer loop
    vertex 93.44373760677449 92.91694477335571 1.9999999999999998
    vertex 93.44373760677449 99.72279547351881 4.000000000000003
    vertex 93.44373760677449 98.11309719606233 2.5
  endloop
endfacet
facet normal -1.0 0.0 0.0
  outer loop
    vertex 93.44373760677449 98.11309719606233 1.9999999999999998
    vertex 93.44373760677449 92.91694477335571 1.9999999999999998
    vertex 93.44373760677449 98.11309719606233 2.5
  endloop
endfacet
facet normal -0.06540312923016701 -0.997858923238602 4.390869821711029e-19
  outer loop
    vertex 90.44373760677449 91.51502098470901 1.9999999999999996
    vertex 89.98689593400431 91.54496396990069 0.0
    vertex 90.44373760677449 91.51502098470901 -3.524958103184872e-16
  endloop
endfacet
facet normal -0.06540312923016701 -0.997858923238602 4.390869821711029e-19
  outer loop
    vertex 89.98689593400431 91.54496396990069 0.0
    vertex 90.44373760677449 91.51502098470901 1.9999999999999996
    vertex 89.98689593400431 91.54496396990069 1.9999999999999998
  endloop
endfacet
facet normal -0.4323045753218218 -0.5633902913547437 -0.7040625922196381
  outer loop
    vertex 89.82241726321485 93.39370064114938 2.5
    vertex 89.69373760677449 91.61790666767904 4.000000000000001
    vertex 88.76175709143503 92.33304046936955 4.000000000000001
  endloop
endfacet
facet normal -0.4323045753218218 -0.5633902913547437 -0.7040625922196381
  outer loop
    vertex 89.69373760677449 91.61790666767904 4.000000000000001
    vertex 89.82241726321485 93.39370064114938 2.5
    vertex 90.44373760677449 92.91694477335571 2.5
  endloop
endfacet
facet normal -0.19509032201612272 -0.9807852804032317 3.110353807407467e-17
  outer loop
    vertex 89.98689593400431 91.54496396990069 1.9999999999999998
    vertex 89.53787094891567 91.63428059269728 0.0
    vertex 89.98689593400431 91.54496396990069 0.0
  endloop
endfacet
facet normal -0.19509032201612272 -0.9807852804032317 3.110353807407467e-17
  outer loop
    vertex 89.53787094891567 91.63428059269728 0.0
    vertex 89.98689593400431 91.54496396990069 1.9999999999999998
    vertex 89.53787094891567 91.63428059269728 1.9999999999999998
  endloop
endfacet
facet normal 0.7040625922196361 -0.0926915987235711 -0.7040625922196371
  outer loop
    vertex 94.94373760677448 95.51502098470901 2.5
    vertex 96.29040382507529 94.35033528174768 4.000000000000003
    vertex 94.84151508564169 94.73856384940146 2.5
  endloop
endfacet
facet normal 0.7040625922196361 -0.0926915987235711 -0.7040625922196371
  outer loop
    vertex 96.29040382507529 94.35033528174768 4.000000000000003
    vertex 94.94373760677448 95.51502098470901 2.5
    vertex 96.44373760677449 95.51502098470901 4.000000000000003
  endloop
endfacet
facet normal 0.43230457532182565 0.5633902913547426 -0.7040625922196367
  outer loop
    vertex 94.19373760677448 99.41213530173899 4.000000000000003
    vertex 94.06505795033412 97.63634132826866 2.5
    vertex 93.44373760677449 98.11309719606233 2.5
  endloop
endfacet
facet normal 0.43230457532182565 0.5633902913547426 -0.7040625922196367
  outer loop
    vertex 94.06505795033412 97.63634132826866 2.5
    vertex 94.19373760677448 99.41213530173899 4.000000000000003
    vertex 95.12571812211395 98.69700150004847 4.000000000000003
  endloop
endfacet
facet normal 0.5633902913547401 0.4323045753218274 -0.7040625922196375
  outer loop
    vertex 95.12571812211395 98.69700150004847 4.000000000000003
    vertex 94.54181381812779 97.01502098470901 2.5
    vertex 94.06505795033412 97.63634132826866 2.5
  endloop
endfacet
facet normal 0.5633902913547401 0.4323045753218274 -0.7040625922196375
  outer loop
    vertex 94.54181381812779 97.01502098470901 2.5
    vertex 95.12571812211395 98.69700150004847 4.000000000000003
    vertex 95.84085192380446 97.76502098470903 4.000000000000003
  endloop
endfacet
facet normal -0.6560818900783137 0.2717580168978141 -0.7040625922196371
  outer loop
    vertex 88.04662328974452 97.76502098470901 4.000000000000001
    vertex 89.04596012790728 96.29147812001658 2.5
    vertex 87.59707138847368 96.67970668767036 4.000000000000001
  endloop
endfacet
facet normal -0.6560818900783137 0.2717580168978141 -0.7040625922196371
  outer loop
    vertex 89.04596012790728 96.29147812001658 2.5
    vertex 88.04662328974452 97.76502098470901 4.000000000000001
    vertex 89.34566139542117 97.01502098470901 2.5
  endloop
endfacet
facet normal -1.0 0.0 0.0
  outer loop
    vertex 93.44373760677449 92.91694477335571 1.9999999999999998
    vertex 93.44373760677449 91.51502098470901 -2.7115062332191335e-16
    vertex 93.44373760677449 91.51502098470901 1.9999999999999991
  endloop
endfacet
facet normal -1.0 0.0 0.0
  outer loop
    vertex 93.44373760677449 91.51502098470901 -2.7115062332191335e-16
    vertex 93.44373760677449 92.91694477335571 1.9999999999999998
    vertex 93.44373760677449 115.51502098470901 -2.7115062332191325e-16
  endloop
endfacet
facet normal -1.0 0.0 0.0
  outer loop
    vertex 93.44373760677449 115.51502098470901 -2.7115062332191325e-16
    vertex 93.44373760677449 92.91694477335571 1.9999999999999998
    vertex 93.44373760677449 98.11309719606233 1.9999999999999998
  endloop
endfacet
facet normal -1.0 0.0 0.0
  outer loop
    vertex 93.44373760677449 115.51502098470901 -2.7115062332191325e-16
    vertex 93.44373760677449 98.11309719606233 1.9999999999999998
    vertex 93.44373760677449 115.51502098470901 1.9999999999999991
  endloop
endfacet
facet normal 0.6560818900783142 0.27175801689780926 -0.7040625922196386
  outer loop
    vertex 95.84085192380446 97.76502098470903 4.000000000000003
    vertex 94.84151508564167 96.29147812001658 2.5
    vertex 94.54181381812779 97.01502098470901 2.5
  endloop
endfacet
facet normal 0.6560818900783142 0.27175801689780926 -0.7040625922196386
  outer loop
    vertex 94.84151508564167 96.29147812001658 2.5
    vertex 95.84085192380446 97.76502098470903 4.000000000000003
    vertex 96.29040382507529 96.67970668767036 4.000000000000003
  endloop
endfacet
facet normal -0.5633902913547436 0.432304575321822 -0.7040625922196382
  outer loop
    vertex 88.76175709143502 98.69700150004847 4.000000000000001
    vertex 89.34566139542117 97.01502098470901 2.5
    vertex 88.04662328974452 97.76502098470901 4.000000000000001
  endloop
endfacet
facet normal -0.5633902913547436 0.432304575321822 -0.7040625922196382
  outer loop
    vertex 89.34566139542117 97.01502098470901 2.5
    vertex 88.76175709143502 98.69700150004847 4.000000000000001
    vertex 89.82241726321485 97.63634132826866 2.5
  endloop
endfacet
facet normal 0.0 -1.0 0.0
  outer loop
    vertex 93.44373760677449 115.51502098470901 -2.7115062332191325e-16
    vertex 90.44373760677449 115.51502098470901 1.9999999999999991
    vertex 90.44373760677449 115.51502098470901 -3.524958103184872e-16
  endloop
endfacet
facet normal 0.0 -1.0 0.0
  outer loop
    vertex 90.44373760677449 115.51502098470901 1.9999999999999991
    vertex 93.44373760677449 115.51502098470901 -2.7115062332191325e-16
    vertex 93.44373760677449 115.51502098470901 1.9999999999999991
  endloop
endfacet
facet normal 1.0 -0.0 -0.0
  outer loop
    vertex 90.44373760677449 115.51502098470901 -3.524958103184872e-16
    vertex 90.44373760677449 91.51502098470901 1.9999999999999996
    vertex 90.44373760677449 91.51502098470901 -3.524958103184872e-16
  endloop
endfacet
facet normal 1.0 -0.0 -0.0
  outer loop
    vertex 90.44373760677449 91.51502098470901 1.9999999999999996
    vertex 90.44373760677449 115.51502098470901 -3.524958103184872e-16
    vertex 90.44373760677449 92.91694477335571 1.9999999999999998
  endloop
endfacet
facet normal 1.0 -0.0 -0.0
  outer loop
    vertex 90.44373760677449 92.91694477335571 1.9999999999999998
    vertex 90.44373760677449 115.51502098470901 -3.524958103184872e-16
    vertex 90.44373760677449 98.11309719606233 1.9999999999999998
  endloop
endfacet
facet normal 1.0 -0.0 -0.0
  outer loop
    vertex 90.44373760677449 98.11309719606233 1.9999999999999998
    vertex 90.44373760677449 115.51502098470901 -3.524958103184872e-16
    vertex 90.44373760677449 115.51502098470901 1.9999999999999991
  endloop
endfacet
facet normal 6.662515014798976e-17 7.079473466512651e-18 1.0
  outer loop
    vertex 89.10434559349667 91.7814426209195 1.9999999999999998
    vertex 88.94373760677449 95.51502098470901 1.9999999999999998
    vertex 88.69373760677449 91.98393207146347 1.9999999999999998
  endloop
endfacet
facet normal 6.662515014798976e-17 7.079473466512651e-18 1.0
  outer loop
    vertex 88.94373760677449 95.51502098470901 1.9999999999999998
    vertex 89.10434559349667 91.7814426209195 1.9999999999999998
    vertex 89.04596012790729 94.73856384940144 1.9999999999999998
  endloop
endfacet
facet normal 6.662515014798976e-17 7.079473466512651e-18 1.0
  outer loop
    vertex 89.04596012790729 94.73856384940144 1.9999999999999998
    vertex 89.10434559349667 91.7814426209195 1.9999999999999998
    vertex 89.34566139542117 94.01502098470903 1.9999999999999998
  endloop
endfacet
facet normal 6.662515014798976e-17 7.079473466512651e-18 1.0
  outer loop
    vertex 89.34566139542117 94.01502098470903 1.9999999999999998
    vertex 89.10434559349667 91.7814426209195 1.9999999999999998
    vertex 89.53787094891567 91.63428059269728 1.9999999999999998
  endloop
endfacet
facet normal 6.662515014798976e-17 7.079473466512651e-18 1.0
  outer loop
    vertex 89.34566139542117 94.01502098470903 1.9999999999999998
    vertex 89.53787094891567 91.63428059269728 1.9999999999999998
    vertex 89.82241726321485 93.39370064114938 1.9999999999999998
  endloop
endfacet
facet normal 6.662515014798976e-17 7.079473466512651e-18 1.0
  outer loop
    vertex 89.82241726321485 93.39370064114938 1.9999999999999998
    vertex 89.53787094891567 91.63428059269728 1.9999999999999998
    vertex 89.98689593400431 91.54496396990069 1.9999999999999998
  endloop
endfacet
facet normal 6.662515014798976e-17 7.079473466512651e-18 1.0
  outer loop
    vertex 89.82241726321485 93.39370064114938 1.9999999999999998
    vertex 89.98689593400431 91.54496396990069 1.9999999999999998
    vertex 90.44373760677449 92.91694477335571 1.9999999999999998
  endloop
endfacet
facet normal 6.662515014798976e-17 7.079473466512651e-18 1.0
  outer loop
    vertex 90.44373760677449 92.91694477335571 1.9999999999999998
    vertex 89.98689593400431 91.54496396990069 1.9999999999999998
    vertex 90.44373760677449 91.51502098470901 1.9999999999999996
  endloop
endfacet
facet normal 6.662515014798976e-17 7.079473466512651e-18 1.0
  outer loop
    vertex 94.06505795033412 97.63634132826866 1.9999999999999998
    vertex 93.44373760677449 115.51502098470901 1.9999999999999991
    vertex 93.44373760677449 98.11309719606233 1.9999999999999998
  endloop
endfacet
facet normal 6.662515014798976e-17 7.079473466512651e-18 1.0
  outer loop
    vertex 93.90057927954467 91.54496396990069 1.9999999999999991
    vertex 93.44373760677449 92.91694477335571 1.9999999999999998
    vertex 93.44373760677449 91.51502098470901 1.9999999999999991
  endloop
endfacet
facet normal 6.662515014798976e-17 7.079473466512651e-18 1.0
  outer loop
    vertex 93.44373760677449 92.91694477335571 1.9999999999999998
    vertex 93.90057927954467 91.54496396990069 1.9999999999999991
    vertex 94.06505795033412 93.39370064114938 1.9999999999999998
  endloop
endfacet
facet normal 6.662515014798976e-17 7.079473466512651e-18 1.0
  outer loop
    vertex 94.06505795033412 93.39370064114938 1.9999999999999998
    vertex 93.90057927954467 91.54496396990069 1.9999999999999991
    vertex 94.34960426463331 91.63428059269728 1.9999999999999991
  endloop
endfacet
facet normal 6.662515014798976e-17 7.079473466512651e-18 1.0
  outer loop
    vertex 94.06505795033412 93.39370064114938 1.9999999999999998
    vertex 94.34960426463331 91.63428059269728 1.9999999999999991
    vertex 94.54181381812779 94.01502098470903 1.9999999999999998
  endloop
endfacet
facet normal 6.662515014798976e-17 7.079473466512651e-18 1.0
  outer loop
    vertex 94.54181381812779 94.01502098470903 1.9999999999999998
    vertex 94.34960426463331 91.63428059269728 1.9999999999999991
    vertex 94.78312962005229 91.7814426209195 1.9999999999999991
  endloop
endfacet
facet normal 6.662515014798976e-17 7.079473466512651e-18 1.0
  outer loop
    vertex 94.54181381812779 94.01502098470903 1.9999999999999998
    vertex 94.78312962005229 91.7814426209195 1.9999999999999991
    vertex 94.84151508564169 94.73856384940146 1.9999999999999998
  endloop
endfacet
facet normal 6.662515014798976e-17 7.079473466512651e-18 1.0
  outer loop
    vertex 94.84151508564169 94.73856384940146 1.9999999999999998
    vertex 94.78312962005229 91.7814426209195 1.9999999999999991
    vertex 95.19373760677448 91.98393207146347 1.9999999999999991
  endloop
endfacet
facet normal 6.662515014798976e-17 7.079473466512651e-18 1.0
  outer loop
    vertex 94.84151508564169 94.73856384940146 1.9999999999999998
    vertex 95.19373760677448 91.98393207146347 1.9999999999999991
    vertex 94.94373760677448 95.51502098470901 1.9999999999999998
  endloop
endfacet
facet normal 6.662515014798976e-17 7.079473466512651e-18 1.0
  outer loop
    vertex 87.66700091575517 92.8843559831785 1.9999999999999998
    vertex 87.44373760677449 120.51502098470903 1.9999999999999998
    vertex 87.44373760677449 93.21849313799073 1.9999999999999998
  endloop
endfacet
facet normal 6.662515014798976e-17 7.079473466512651e-18 1.0
  outer loop
    vertex 87.44373760677449 120.51502098470903 1.9999999999999998
    vertex 87.66700091575517 92.8843559831785 1.9999999999999998
    vertex 90.44373760677449 115.51502098470901 1.9999999999999991
  endloop
endfacet
facet normal 6.662515014798976e-17 7.079473466512651e-18 1.0
  outer loop
    vertex 87.44373760677449 120.51502098470903 1.9999999999999998
    vertex 90.44373760677449 115.51502098470901 1.9999999999999991
    vertex 96.44373760677449 120.51502098470903 1.9999999999999991
  endloop
endfacet
facet normal 6.662515014798976e-17 7.079473466512651e-18 1.0
  outer loop
    vertex 90.44373760677449 115.51502098470901 1.9999999999999991
    vertex 87.66700091575517 92.8843559831785 1.9999999999999998
    vertex 87.96886387262157 92.54014725055609 1.9999999999999998
  endloop
endfacet
facet normal 6.662515014798976e-17 7.079473466512651e-18 1.0
  outer loop
    vertex 90.44373760677449 115.51502098470901 1.9999999999999991
    vertex 87.96886387262157 92.54014725055609 1.9999999999999998
    vertex 88.31307260524396 92.23828429368969 1.9999999999999998
  endloop
endfacet
facet normal 6.662515014798976e-17 7.079473466512651e-18 1.0
  outer loop
    vertex 90.44373760677449 115.51502098470901 1.9999999999999991
    vertex 88.31307260524396 92.23828429368969 1.9999999999999998
    vertex 88.94373760677449 95.51502098470901 1.9999999999999998
  endloop
endfacet
facet normal 6.662515014798976e-17 7.079473466512651e-18 1.0
  outer loop
    vertex 88.94373760677449 95.51502098470901 1.9999999999999998
    vertex 88.31307260524396 92.23828429368969 1.9999999999999998
    vertex 88.69373760677449 91.98393207146347 1.9999999999999998
  endloop
endfacet
facet normal 6.662515014798976e-17 7.079473466512651e-18 1.0
  outer loop
    vertex 90.44373760677449 115.51502098470901 1.9999999999999991
    vertex 88.94373760677449 95.51502098470901 1.9999999999999998
    vertex 89.04596012790728 96.29147812001658 1.9999999999999998
  endloop
endfacet
facet normal 6.662515014798976e-17 7.079473466512651e-18 1.0
  outer loop
    vertex 90.44373760677449 115.51502098470901 1.9999999999999991
    vertex 89.04596012790728 96.29147812001658 1.9999999999999998
    vertex 89.34566139542117 97.01502098470901 1.9999999999999998
  endloop
endfacet
facet normal 6.662515014798976e-17 7.079473466512651e-18 1.0
  outer loop
    vertex 90.44373760677449 115.51502098470901 1.9999999999999991
    vertex 89.34566139542117 97.01502098470901 1.9999999999999998
    vertex 89.82241726321485 97.63634132826866 1.9999999999999998
  endloop
endfacet
facet normal 6.662515014798976e-17 7.079473466512651e-18 1.0
  outer loop
    vertex 90.44373760677449 115.51502098470901 1.9999999999999991
    vertex 89.82241726321485 97.63634132826866 1.9999999999999998
    vertex 90.44373760677449 98.11309719606233 1.9999999999999998
  endloop
endfacet
facet normal 6.662515014798976e-17 7.079473466512651e-18 1.0
  outer loop
    vertex 96.44373760677449 120.51502098470903 1.9999999999999991
    vertex 90.44373760677449 115.51502098470901 1.9999999999999991
    vertex 93.44373760677449 115.51502098470901 1.9999999999999991
  endloop
endfacet
facet normal 6.662515014798976e-17 7.079473466512651e-18 1.0
  outer loop
    vertex 96.44373760677449 120.51502098470903 1.9999999999999991
    vertex 93.44373760677449 115.51502098470901 1.9999999999999991
    vertex 94.06505795033412 97.63634132826866 1.9999999999999998
  endloop
endfacet
facet normal 6.662515014798976e-17 7.079473466512651e-18 1.0
  outer loop
    vertex 96.44373760677449 120.51502098470903 1.9999999999999991
    vertex 94.06505795033412 97.63634132826866 1.9999999999999998
    vertex 94.54181381812779 97.01502098470901 1.9999999999999998
  endloop
endfacet
facet normal 6.662515014798976e-17 7.079473466512651e-18 1.0
  outer loop
    vertex 96.44373760677449 120.51502098470903 1.9999999999999991
    vertex 94.54181381812779 97.01502098470901 1.9999999999999998
    vertex 94.84151508564167 96.29147812001658 1.9999999999999998
  endloop
endfacet
facet normal 6.662515014798976e-17 7.079473466512651e-18 1.0
  outer loop
    vertex 96.44373760677449 120.51502098470903 1.9999999999999991
    vertex 94.84151508564167 96.29147812001658 1.9999999999999998
    vertex 94.94373760677448 95.51502098470901 1.9999999999999998
  endloop
endfacet
facet normal 6.662515014798976e-17 7.079473466512651e-18 1.0
  outer loop
    vertex 96.44373760677449 120.51502098470903 1.9999999999999991
    vertex 94.94373760677448 95.51502098470901 1.9999999999999998
    vertex 95.19373760677448 91.98393207146347 1.9999999999999991
  endloop
endfacet
facet normal 6.662515014798976e-17 7.079473466512651e-18 1.0
  outer loop
    vertex 96.44373760677449 120.51502098470903 1.9999999999999991
    vertex 95.19373760677448 91.98393207146347 1.9999999999999991
    vertex 95.57440260830501 92.23828429368969 1.9999999999999991
  endloop
endfacet
facet normal 6.662515014798976e-17 7.079473466512651e-18 1.0
  outer loop
    vertex 96.44373760677449 120.51502098470903 1.9999999999999991
    vertex 95.57440260830501 92.23828429368969 1.9999999999999991
    vertex 95.91861134092741 92.54014725055609 1.9999999999999991
  endloop
endfacet
facet normal 6.662515014798976e-17 7.079473466512651e-18 1.0
  outer loop
    vertex 96.44373760677449 120.51502098470903 1.9999999999999991
    vertex 95.91861134092741 92.54014725055609 1.9999999999999991
    vertex 96.22047429779381 92.8843559831785 1.9999999999999991
  endloop
endfacet
facet normal 6.662515014798976e-17 7.079473466512651e-18 1.0
  outer loop
    vertex 96.44373760677449 120.51502098470903 1.9999999999999991
    vertex 96.22047429779381 92.8843559831785 1.9999999999999991
    vertex 96.44373760677449 93.21849313799073 1.9999999999999991
  endloop
endfacet
facet normal 0.6593458151000657 -0.7518398074789803 2.512953058512925e-16
  outer loop
    vertex 95.91861134092741 92.54014725055609 1.9999999999999991
    vertex 95.57440260830501 92.23828429368969 3.524958103184872e-16
    vertex 95.91861134092741 92.54014725055609 3.524958103184872e-16
  endloop
endfacet
facet normal 0.6593458151000657 -0.7518398074789803 2.512953058512925e-16
  outer loop
    vertex 95.57440260830501 92.23828429368969 3.524958103184872e-16
    vertex 95.91861134092741 92.54014725055609 1.9999999999999991
    vertex 95.57440260830501 92.23828429368969 1.9999999999999991
  endloop
endfacet
facet normal -0.563390291354741 -0.4323045753218246 -0.7040625922196387
  outer loop
    vertex 89.34566139542117 94.01502098470903 2.5
    vertex 88.76175709143503 92.33304046936955 4.000000000000001
    vertex 88.04662328974452 93.26502098470901 4.000000000000001
  endloop
endfacet
facet normal -0.563390291354741 -0.4323045753218246 -0.7040625922196387
  outer loop
    vertex 88.76175709143503 92.33304046936955 4.000000000000001
    vertex 89.34566139542117 94.01502098470903 2.5
    vertex 89.82241726321485 93.39370064114938 2.5
  endloop
endfacet
facet normal -0.7040625922196343 -0.0926915987235736 -0.7040625922196386
  outer loop
    vertex 88.94373760677449 95.51502098470901 2.5
    vertex 87.59707138847368 94.35033528174768 4.000000000000001
    vertex 87.44373760677449 95.51502098470901 4.000000000000001
  endloop
endfacet
facet normal -0.7040625922196343 -0.0926915987235736 -0.7040625922196386
  outer loop
    vertex 87.59707138847368 94.35033528174768 4.000000000000001
    vertex 88.94373760677449 95.51502098470901 2.5
    vertex 89.04596012790729 94.73856384940144 2.5
  endloop
endfacet
facet normal 1.0 -0.0 -0.0
  outer loop
    vertex 90.44373760677449 98.11309719606233 1.9999999999999998
    vertex 90.44373760677449 92.91694477335571 2.5
    vertex 90.44373760677449 92.91694477335571 1.9999999999999998
  endloop
endfacet
facet normal 1.0 -0.0 -0.0
  outer loop
    vertex 90.44373760677449 92.91694477335571 2.5
    vertex 90.44373760677449 99.72279547351881 4.000000000000001
    vertex 90.44373760677449 91.30724649589922 4.000000000000001
  endloop
endfacet
facet normal 1.0 -0.0 -0.0
  outer loop
    vertex 90.44373760677449 99.72279547351881 4.000000000000001
    vertex 90.44373760677449 92.91694477335571 2.5
    vertex 90.44373760677449 98.11309719606233 2.5
  endloop
endfacet
facet normal 1.0 -0.0 -0.0
  outer loop
    vertex 90.44373760677449 98.11309719606233 2.5
    vertex 90.44373760677449 92.91694477335571 2.5
    vertex 90.44373760677449 98.11309719606233 1.9999999999999998
  endloop
endfacet
facet normal 0.7040625922196343 0.09269159872357394 -0.7040625922196384
  outer loop
    vertex 96.29040382507529 96.67970668767036 4.000000000000003
    vertex 94.94373760677448 95.51502098470901 2.5
    vertex 94.84151508564167 96.29147812001658 2.5
  endloop
endfacet
facet normal 0.7040625922196343 0.09269159872357394 -0.7040625922196384
  outer loop
    vertex 94.94373760677448 95.51502098470901 2.5
    vertex 96.29040382507529 96.67970668767036 4.000000000000003
    vertex 96.44373760677449 95.51502098470901 4.000000000000003
  endloop
endfacet
facet normal 0.27175801689781565 0.6560818900783133 -0.7040625922196369
  outer loop
    vertex 94.19373760677448 99.41213530173899 4.000000000000003
    vertex 93.44373760677449 98.11309719606233 2.5
    vertex 93.44373760677449 99.72279547351881 4.000000000000003
  endloop
endfacet
facet normal 0.2717580168978117 -0.656081890078314 -0.7040625922196377
  outer loop
    vertex 94.19373760677449 91.61790666767904 4.000000000000003
    vertex 93.44373760677449 91.30724649589922 4.000000000000003
    vertex 93.44373760677449 92.91694477335571 2.5
  endloop
endfacet
facet normal 0.19509032201612272 -0.9807852804032317 2.0939273645164523e-16
  outer loop
    vertex 94.34960426463331 91.63428059269728 1.9999999999999991
    vertex 93.90057927954467 91.54496396990069 3.524958103184872e-16
    vertex 94.34960426463331 91.63428059269728 3.524958103184872e-16
  endloop
endfacet
facet normal 0.19509032201612272 -0.9807852804032317 2.0939273645164523e-16
  outer loop
    vertex 93.90057927954467 91.54496396990069 3.524958103184872e-16
    vertex 94.34960426463331 91.63428059269728 1.9999999999999991
    vertex 93.90057927954467 91.54496396990069 1.9999999999999991
  endloop
endfacet
facet normal 0.06540312923016701 -0.997858923238602 -6.780701833016941e-19
  outer loop
    vertex 93.90057927954467 91.54496396990069 3.524958103184872e-16
    vertex 93.44373760677449 91.51502098470901 1.9999999999999991
    vertex 93.44373760677449 91.51502098470901 -2.7115062332191335e-16
  endloop
endfacet
facet normal 0.06540312923016701 -0.997858923238602 -6.780701833016941e-19
  outer loop
    vertex 93.44373760677449 91.51502098470901 1.9999999999999991
    vertex 93.90057927954467 91.54496396990069 3.524958103184872e-16
    vertex 93.90057927954467 91.54496396990069 1.9999999999999991
  endloop
endfacet
facet normal -0.0 1.0 -0.0
  outer loop
    vertex 87.59707138847368 120.51502098470903 0.8353142970386557
    vertex 95.94440531439774 120.51502098470903 0.0
    vertex 87.94306989915124 120.51502098470903 0.0
  endloop
endfacet
facet normal -0.0 1.0 -0.0
  outer loop
    vertex 95.94440531439774 120.51502098470903 0.0
    vertex 87.59707138847368 120.51502098470903 0.8353142970386557
    vertex 96.29040382507529 120.51502098470903 0.8353142970386545
  endloop
endfacet
facet normal -0.0 1.0 -0.0
  outer loop
    vertex 96.29040382507529 120.51502098470903 0.8353142970386545
    vertex 87.59707138847368 120.51502098470903 0.8353142970386557
    vertex 96.44373760677449 120.51502098470903 1.9999999999999991
  endloop
endfacet
facet normal -0.0 1.0 -0.0
  outer loop
    vertex 96.44373760677449 120.51502098470903 1.9999999999999991
    vertex 87.59707138847368 120.51502098470903 0.8353142970386557
    vertex 87.44373760677449 120.51502098470903 1.9999999999999998
  endloop
endfacet
facet normal 0.9914448613738098 -1.2187144379093987e-16 -0.13052619222005726
  outer loop
    vertex 96.29040382507529 120.51502098470903 0.8353142970386545
    vertex 96.44373760677449 93.21849313799073 1.9999999999999991
    vertex 96.29040382507529 92.98901291668842 0.8353142970386574
  endloop
endfacet
facet normal 0.9914448613738098 -1.2187144379093987e-16 -0.13052619222005726
  outer loop
    vertex 96.44373760677449 93.21849313799073 1.9999999999999991
    vertex 96.29040382507529 120.51502098470903 0.8353142970386545
    vertex 96.44373760677449 120.51502098470903 1.9999999999999991
  endloop
endfacet
facet normal 0.8314696123025394 -0.5555702330196112 -1.0575408648836338e-14
  outer loop
    vertex 96.2204742977938 92.88435598317851 0.666489483865346
    vertex 96.44373760677449 93.21849313799073 1.9999999999999991
    vertex 96.22047429779381 92.8843559831785 1.9999999999999991
  endloop
endfacet
facet normal 0.8314696123025394 -0.5555702330196112 -1.0575408648836338e-14
  outer loop
    vertex 96.44373760677449 93.21849313799073 1.9999999999999991
    vertex 96.2204742977938 92.88435598317851 0.666489483865346
    vertex 96.29040382507529 92.98901291668842 0.8353142970386574
  endloop
endfacet
facet normal -0.9238795325112878 -1.0983697824112192e-16 -0.38268343236508723
  outer loop
    vertex 87.66700091575517 92.8843559831785 0.6664894838653996
    vertex 87.94306989915124 120.51502098470903 0.0
    vertex 87.94306989915124 92.56955964023678 0.0
  endloop
endfacet
facet normal -0.9238795325112878 -1.0983697824112192e-16 -0.38268343236508723
  outer loop
    vertex 87.94306989915124 120.51502098470903 0.0
    vertex 87.66700091575517 92.8843559831785 0.6664894838653996
    vertex 87.59707138847368 92.98901291668842 0.8353142970386559
  endloop
endfacet
facet normal -0.9238795325112878 -1.0983697824112192e-16 -0.38268343236508723
  outer loop
    vertex 87.94306989915124 120.51502098470903 0.0
    vertex 87.59707138847368 92.98901291668842 0.8353142970386559
    vertex 87.59707138847368 120.51502098470903 0.8353142970386557
  endloop
endfacet
facet normal -0.9914448613738103 -4.15435017741878e-19 -0.13052619222005402
  outer loop
    vertex 87.44373760677449 93.21849313799073 1.9999999999999998
    vertex 87.59707138847368 120.51502098470903 0.8353142970386557
    vertex 87.59707138847368 92.98901291668842 0.8353142970386559
  endloop
endfacet
facet normal -0.9914448613738103 -4.15435017741878e-19 -0.13052619222005402
  outer loop
    vertex 87.59707138847368 120.51502098470903 0.8353142970386557
    vertex 87.44373760677449 93.21849313799073 1.9999999999999998
    vertex 87.44373760677449 120.51502098470903 1.9999999999999998
  endloop
endfacet
facet normal 0.9238795325112884 -1.194692786889715e-16 -0.38268343236508595
  outer loop
    vertex 95.94440531439774 120.51502098470903 0.0
    vertex 96.2204742977938 92.88435598317851 0.666489483865346
    vertex 95.94440531439774 92.56955964023678 1.762479051592436e-16
  endloop
endfacet
facet normal 0.9238795325112884 -1.194692786889715e-16 -0.38268343236508595
  outer loop
    vertex 96.2204742977938 92.88435598317851 0.666489483865346
    vertex 95.94440531439774 120.51502098470903 0.0
    vertex 96.29040382507529 92.98901291668842 0.8353142970386574
  endloop
endfacet
facet normal 0.9238795325112884 -1.194692786889715e-16 -0.38268343236508595
  outer loop
    vertex 96.29040382507529 92.98901291668842 0.8353142970386574
    vertex 95.94440531439774 120.51502098470903 0.0
    vertex 96.29040382507529 120.51502098470903 0.8353142970386545
  endloop
endfacet
facet normal 3.332615213055083e-17 -8.869861165828028e-18 -1.0
  outer loop
    vertex 87.94306989915124 120.51502098470903 0.0
    vertex 90.44373760677449 115.51502098470901 -3.524958103184872e-16
    vertex 87.94306989915124 92.56955964023678 0.0
  endloop
endfacet
facet normal 3.332615213055083e-17 -8.869861165828028e-18 -1.0
  outer loop
    vertex 90.44373760677449 115.51502098470901 -3.524958103184872e-16
    vertex 87.94306989915124 120.51502098470903 0.0
    vertex 95.94440531439774 120.51502098470903 0.0
  endloop
endfacet
facet normal 3.332615213055083e-17 -8.869861165828028e-18 -1.0
  outer loop
    vertex 87.94306989915124 92.56955964023678 0.0
    vertex 90.44373760677449 115.51502098470901 -3.524958103184872e-16
    vertex 87.96886387262157 92.54014725055609 0.0
  endloop
endfacet
facet normal 3.332615213055083e-17 -8.869861165828028e-18 -1.0
  outer loop
    vertex 87.96886387262157 92.54014725055609 0.0
    vertex 90.44373760677449 115.51502098470901 -3.524958103184872e-16
    vertex 88.31307260524396 92.23828429368969 0.0
  endloop
endfacet
facet normal 3.332615213055083e-17 -8.869861165828028e-18 -1.0
  outer loop
    vertex 88.31307260524396 92.23828429368969 0.0
    vertex 90.44373760677449 115.51502098470901 -3.524958103184872e-16
    vertex 88.69373760677449 91.98393207146347 0.0
  endloop
endfacet
facet normal 3.332615213055083e-17 -8.869861165828028e-18 -1.0
  outer loop
    vertex 88.69373760677449 91.98393207146347 0.0
    vertex 90.44373760677449 115.51502098470901 -3.524958103184872e-16
    vertex 89.10434559349667 91.7814426209195 0.0
  endloop
endfacet
facet normal 3.332615213055083e-17 -8.869861165828028e-18 -1.0
  outer loop
    vertex 89.10434559349667 91.7814426209195 0.0
    vertex 90.44373760677449 115.51502098470901 -3.524958103184872e-16
    vertex 89.53787094891567 91.63428059269728 0.0
  endloop
endfacet
facet normal 3.332615213055083e-17 -8.869861165828028e-18 -1.0
  outer loop
    vertex 89.53787094891567 91.63428059269728 0.0
    vertex 90.44373760677449 115.51502098470901 -3.524958103184872e-16
    vertex 89.98689593400431 91.54496396990069 0.0
  endloop
endfacet
facet normal 3.332615213055083e-17 -8.869861165828028e-18 -1.0
  outer loop
    vertex 90.44373760677449 115.51502098470901 -3.524958103184872e-16
    vertex 95.94440531439774 120.51502098470903 0.0
    vertex 93.44373760677449 115.51502098470901 -2.7115062332191325e-16
  endloop
endfacet
facet normal 3.332615213055083e-17 -8.869861165828028e-18 -1.0
  outer loop
    vertex 93.44373760677449 115.51502098470901 -2.7115062332191325e-16
    vertex 95.94440531439774 120.51502098470903 0.0
    vertex 93.44373760677449 91.51502098470901 -2.7115062332191335e-16
  endloop
endfacet
facet normal 3.332615213055083e-17 -8.869861165828028e-18 -1.0
  outer loop
    vertex 93.44373760677449 91.51502098470901 -2.7115062332191335e-16
    vertex 95.94440531439774 120.51502098470903 0.0
    vertex 93.90057927954467 91.54496396990069 3.524958103184872e-16
  endloop
endfacet
facet normal 3.332615213055083e-17 -8.869861165828028e-18 -1.0
  outer loop
    vertex 93.90057927954467 91.54496396990069 3.524958103184872e-16
    vertex 95.94440531439774 120.51502098470903 0.0
    vertex 94.34960426463331 91.63428059269728 3.524958103184872e-16
  endloop
endfacet
facet normal 3.332615213055083e-17 -8.869861165828028e-18 -1.0
  outer loop
    vertex 94.34960426463331 91.63428059269728 3.524958103184872e-16
    vertex 95.94440531439774 120.51502098470903 0.0
    vertex 94.78312962005229 91.7814426209195 3.524958103184872e-16
  endloop
endfacet
facet normal 3.332615213055083e-17 -8.869861165828028e-18 -1.0
  outer loop
    vertex 94.78312962005229 91.7814426209195 3.524958103184872e-16
    vertex 95.94440531439774 120.51502098470903 0.0
    vertex 95.19373760677448 91.98393207146347 3.524958103184872e-16
  endloop
endfacet
facet normal 3.332615213055083e-17 -8.869861165828028e-18 -1.0
  outer loop
    vertex 95.19373760677448 91.98393207146347 3.524958103184872e-16
    vertex 95.94440531439774 120.51502098470903 0.0
    vertex 95.57440260830501 92.23828429368969 3.524958103184872e-16
  endloop
endfacet
facet normal 3.332615213055083e-17 -8.869861165828028e-18 -1.0
  outer loop
    vertex 95.57440260830501 92.23828429368969 3.524958103184872e-16
    vertex 95.94440531439774 120.51502098470903 0.0
    vertex 95.91861134092741 92.54014725055609 3.524958103184872e-16
  endloop
endfacet
facet normal 3.332615213055083e-17 -8.869861165828028e-18 -1.0
  outer loop
    vertex 95.91861134092741 92.54014725055609 3.524958103184872e-16
    vertex 95.94440531439774 120.51502098470903 0.0
    vertex 95.94440531439774 92.56955964023678 1.762479051592436e-16
  endloop
endfacet
facet normal 3.332615213055083e-17 -8.869861165828028e-18 -1.0
  outer loop
    vertex 90.44373760677449 91.51502098470901 -3.524958103184872e-16
    vertex 89.98689593400431 91.54496396990069 0.0
    vertex 90.44373760677449 115.51502098470901 -3.524958103184872e-16
  endloop
endfacet
endsolid AutoSave_Spring_Connector
