solid Spring_Connector
facet normal 0.7933533402912331 0.0 -0.6087614290087233
  outer loop
    vertex 46.552329774382635 19.238044999080227 10.000000000000004
    vertex 47.346922887372095 15.23804499908023 11.035533905932741
    vertex 46.552329774382635 15.23804499908023 10.000000000000004
  endloop
endfacet
facet normal 0.7933533402912331 0.0 -0.6087614290087233
  outer loop
    vertex 47.346922887372095 15.23804499908023 11.035533905932741
    vertex 46.552329774382635 19.238044999080227 10.000000000000004
    vertex 47.346922887372095 19.238044999080227 11.035533905932741
  endloop
endfacet
facet normal -0.3826834323650907 0.0 0.9238795325112865
  outer loop
    vertex 53.382456793304826 15.23804499908023 3.169872981077805
    vertex 52.17655201881743 19.238044999080227 2.670370868554657
    vertex 52.17655201881743 15.23804499908023 2.670370868554657
  endloop
endfacet
facet normal -0.3826834323650907 0.0 0.9238795325112865
  outer loop
    vertex 52.17655201881743 19.238044999080227 2.670370868554657
    vertex 53.382456793304826 15.23804499908023 3.169872981077805
    vertex 53.382456793304826 19.238044999080227 3.169872981077805
  endloop
endfacet
facet normal -0.923879532511284 -0.0 -0.38268343236509644
  outer loop
    vertex 55.21258381222702 19.238044999080227 10.0
    vertex 55.71208592475018 15.23804499908023 8.794095225512603
    vertex 55.21258381222702 15.23804499908023 10.0
  endloop
endfacet
facet normal -0.923879532511284 -0.0 -0.38268343236509644
  outer loop
    vertex 55.71208592475018 15.23804499908023 8.794095225512603
    vertex 55.21258381222702 19.238044999080227 10.0
    vertex 55.71208592475018 19.238044999080227 8.794095225512603
  endloop
endfacet
facet normal -0.9914448613738118 0.0 0.1305261922200408
  outer loop
    vertex 55.81663054451113 19.238044999080227 7.0
    vertex 55.71208592475018 15.23804499908023 6.205904774487395
    vertex 55.81663054451113 15.23804499908023 7.0
  endloop
endfacet
facet normal -0.9914448613738118 0.0 0.1305261922200408
  outer loop
    vertex 55.71208592475018 15.23804499908023 6.205904774487395
    vertex 55.81663054451113 19.238044999080227 7.0
    vertex 55.71208592475018 19.238044999080227 6.205904774487395
  endloop
endfacet
facet normal -0.3826834323650891 -0.0 -0.9238795325112872
  outer loop
    vertex 53.38245679330483 19.238044999080227 11.830127018922193
    vertex 52.17655201881743 15.23804499908023 12.329629131445344
    vertex 52.17655201881743 19.238044999080227 12.329629131445344
  endloop
endfacet
facet normal -0.3826834323650891 -0.0 -0.9238795325112872
  outer loop
    vertex 52.17655201881743 15.23804499908023 12.329629131445344
    vertex 53.38245679330483 19.238044999080227 11.830127018922193
    vertex 53.38245679330483 15.23804499908023 11.830127018922193
  endloop
endfacet
facet normal -0.9914448613738096 0.0 0.1305261922200577
  outer loop
    vertex 55.88245679330483 19.238044999080227 7.5
    vertex 55.81663054451113 15.23804499908023 7.0
    vertex 55.88245679330483 15.23804499908023 7.5
  endloop
endfacet
facet normal -0.9914448613738096 0.0 0.1305261922200577
  outer loop
    vertex 55.81663054451113 15.23804499908023 7.0
    vertex 55.88245679330483 19.238044999080227 7.5
    vertex 55.81663054451113 19.238044999080227 7.0
  endloop
endfacet
facet normal -0.923879532511284 0.0 0.38268343236509644
  outer loop
    vertex 55.71208592475018 19.238044999080227 6.205904774487395
    vertex 55.21258381222702 15.23804499908023 4.999999999999998
    vertex 55.71208592475018 15.23804499908023 6.205904774487395
  endloop
endfacet
facet normal -0.923879532511284 0.0 0.38268343236509644
  outer loop
    vertex 55.21258381222702 15.23804499908023 4.999999999999998
    vertex 55.71208592475018 19.238044999080227 6.205904774487395
    vertex 55.21258381222702 19.238044999080227 4.999999999999998
  endloop
endfacet
facet normal 0.9914448613738096 0.0 0.1305261922200577
  outer loop
    vertex 45.948283042098524 19.238044999080227 7.0
    vertex 45.882456793304826 15.23804499908023 7.5
    vertex 45.948283042098524 15.23804499908023 7.0
  endloop
endfacet
facet normal 0.9914448613738096 0.0 0.1305261922200577
  outer loop
    vertex 45.882456793304826 15.23804499908023 7.5
    vertex 45.948283042098524 19.238044999080227 7.0
    vertex 45.882456793304826 19.238044999080227 7.5
  endloop
endfacet
facet normal -0.13052619222005188 -0.0 -0.9914448613738104
  outer loop
    vertex 52.17655201881743 19.238044999080227 12.329629131445344
    vertex 50.882456793304826 15.23804499908023 12.500000000000002
    vertex 50.882456793304826 19.238044999080227 12.500000000000002
  endloop
endfacet
facet normal -0.13052619222005188 -0.0 -0.9914448613738104
  outer loop
    vertex 50.882456793304826 15.23804499908023 12.500000000000002
    vertex 52.17655201881743 19.238044999080227 12.329629131445344
    vertex 52.17655201881743 15.23804499908023 12.329629131445344
  endloop
endfacet
facet normal -0.13052619222005188 0.0 0.9914448613738104
  outer loop
    vertex 52.17655201881743 15.23804499908023 2.670370868554657
    vertex 50.882456793304826 19.238044999080227 2.4999999999999982
    vertex 50.882456793304826 15.23804499908023 2.4999999999999982
  endloop
endfacet
facet normal -0.13052619222005188 0.0 0.9914448613738104
  outer loop
    vertex 50.882456793304826 19.238044999080227 2.4999999999999982
    vertex 52.17655201881743 15.23804499908023 2.670370868554657
    vertex 52.17655201881743 19.238044999080227 2.670370868554657
  endloop
endfacet
facet normal 0.9914448613738106 0.0 -0.13052619222005132
  outer loop
    vertex 45.882456793304826 19.238044999080227 7.5
    vertex 46.05282766185948 15.23804499908023 8.794095225512608
    vertex 45.882456793304826 15.23804499908023 7.5
  endloop
endfacet
facet normal 0.9914448613738106 0.0 -0.13052619222005132
  outer loop
    vertex 46.05282766185948 15.23804499908023 8.794095225512608
    vertex 45.882456793304826 19.238044999080227 7.5
    vertex 46.05282766185948 19.238044999080227 8.794095225512608
  endloop
endfacet
facet normal -0.6087614290087199 0.0 0.7933533402912357
  outer loop
    vertex 54.41799069923756 15.23804499908023 3.964466094067261
    vertex 53.382456793304826 19.238044999080227 3.169872981077805
    vertex 53.382456793304826 15.23804499908023 3.169872981077805
  endloop
endfacet
facet normal -0.6087614290087199 0.0 0.7933533402912357
  outer loop
    vertex 53.382456793304826 19.238044999080227 3.169872981077805
    vertex 54.41799069923756 15.23804499908023 3.964466094067261
    vertex 54.41799069923756 19.238044999080227 3.964466094067261
  endloop
endfacet
facet normal -0.7933533402912398 -0.0 -0.6087614290087148
  outer loop
    vertex 54.41799069923757 19.238044999080227 11.035533905932738
    vertex 55.21258381222702 15.23804499908023 10.0
    vertex 54.41799069923757 15.23804499908023 11.035533905932738
  endloop
endfacet
facet normal -0.7933533402912398 -0.0 -0.6087614290087148
  outer loop
    vertex 55.21258381222702 15.23804499908023 10.0
    vertex 54.41799069923757 19.238044999080227 11.035533905932738
    vertex 55.21258381222702 19.238044999080227 10.0
  endloop
endfacet
facet normal 0.6087614290087203 0.0 0.7933533402912355
  outer loop
    vertex 48.382456793304826 15.23804499908023 3.169872981077805
    vertex 47.34692288737209 19.238044999080227 3.964466094067262
    vertex 47.34692288737209 15.23804499908023 3.964466094067262
  endloop
endfacet
facet normal 0.6087614290087203 0.0 0.7933533402912355
  outer loop
    vertex 47.34692288737209 19.238044999080227 3.964466094067262
    vertex 48.382456793304826 15.23804499908023 3.169872981077805
    vertex 48.382456793304826 19.238044999080227 3.169872981077805
  endloop
endfacet
facet normal -0.7933533402912354 0.0 0.6087614290087207
  outer loop
    vertex 55.21258381222702 19.238044999080227 4.999999999999998
    vertex 54.41799069923756 15.23804499908023 3.964466094067261
    vertex 55.21258381222702 15.23804499908023 4.999999999999998
  endloop
endfacet
facet normal -0.7933533402912354 0.0 0.6087614290087207
  outer loop
    vertex 54.41799069923756 15.23804499908023 3.964466094067261
    vertex 55.21258381222702 19.238044999080227 4.999999999999998
    vertex 54.41799069923756 19.238044999080227 3.964466094067261
  endloop
endfacet
facet normal -0.9914448613738109 -0.0 -0.13052619222004763
  outer loop
    vertex 55.71208592475018 19.238044999080227 8.794095225512603
    vertex 55.88245679330483 15.23804499908023 7.5
    vertex 55.71208592475018 15.23804499908023 8.794095225512603
  endloop
endfacet
facet normal -0.9914448613738109 -0.0 -0.13052619222004763
  outer loop
    vertex 55.88245679330483 15.23804499908023 7.5
    vertex 55.71208592475018 19.238044999080227 8.794095225512603
    vertex 55.88245679330483 19.238044999080227 7.5
  endloop
endfacet
facet normal 0.7933533402912354 0.0 0.6087614290087203
  outer loop
    vertex 47.34692288737209 19.238044999080227 3.964466094067262
    vertex 46.552329774382635 15.23804499908023 4.999999999999999
    vertex 47.34692288737209 15.23804499908023 3.964466094067262
  endloop
endfacet
facet normal 0.7933533402912354 0.0 0.6087614290087203
  outer loop
    vertex 46.552329774382635 15.23804499908023 4.999999999999999
    vertex 47.34692288737209 19.238044999080227 3.964466094067262
    vertex 46.552329774382635 19.238044999080227 4.999999999999999
  endloop
endfacet
facet normal 0.0 1.0 0.0
  outer loop
    vertex 43.382456793304826 19.238044999080227 0.0
    vertex 49.58836156779223 19.238044999080227 2.670370868554657
    vertex 58.382456793304826 19.238044999080227 0.0
  endloop
endfacet
facet normal 0.0 1.0 0.0
  outer loop
    vertex 49.58836156779223 19.238044999080227 2.670370868554657
    vertex 43.382456793304826 19.238044999080227 0.0
    vertex 48.382456793304826 19.238044999080227 3.169872981077805
  endloop
endfacet
facet normal 0.0 1.0 0.0
  outer loop
    vertex 48.382456793304826 19.238044999080227 3.169872981077805
    vertex 43.382456793304826 19.238044999080227 0.0
    vertex 47.34692288737209 19.238044999080227 3.964466094067262
  endloop
endfacet
facet normal 0.0 1.0 0.0
  outer loop
    vertex 47.34692288737209 19.238044999080227 3.964466094067262
    vertex 43.382456793304826 19.238044999080227 0.0
    vertex 46.552329774382635 19.238044999080227 4.999999999999999
  endloop
endfacet
facet normal 0.0 1.0 0.0
  outer loop
    vertex 46.552329774382635 19.238044999080227 4.999999999999999
    vertex 43.382456793304826 19.238044999080227 0.0
    vertex 46.05282766185948 19.238044999080227 6.205904774487396
  endloop
endfacet
facet normal 0.0 1.0 0.0
  outer loop
    vertex 46.05282766185948 19.238044999080227 6.205904774487396
    vertex 43.382456793304826 19.238044999080227 0.0
    vertex 43.382456793304826 19.238044999080227 15.0
  endloop
endfacet
facet normal 0.0 1.0 0.0
  outer loop
    vertex 58.382456793304826 19.238044999080227 0.0
    vertex 49.58836156779223 19.238044999080227 2.670370868554657
    vertex 50.882456793304826 19.238044999080227 2.4999999999999982
  endloop
endfacet
facet normal 0.0 1.0 0.0
  outer loop
    vertex 46.05282766185948 19.238044999080227 6.205904774487396
    vertex 43.382456793304826 19.238044999080227 15.0
    vertex 45.948283042098524 19.238044999080227 7.0
  endloop
endfacet
facet normal 0.0 1.0 0.0
  outer loop
    vertex 45.948283042098524 19.238044999080227 7.0
    vertex 43.382456793304826 19.238044999080227 15.0
    vertex 45.882456793304826 19.238044999080227 7.5
  endloop
endfacet
facet normal 0.0 1.0 0.0
  outer loop
    vertex 45.882456793304826 19.238044999080227 7.5
    vertex 43.382456793304826 19.238044999080227 15.0
    vertex 46.05282766185948 19.238044999080227 8.794095225512608
  endloop
endfacet
facet normal 0.0 1.0 0.0
  outer loop
    vertex 46.05282766185948 19.238044999080227 8.794095225512608
    vertex 43.382456793304826 19.238044999080227 15.0
    vertex 46.552329774382635 19.238044999080227 10.000000000000004
  endloop
endfacet
facet normal 0.0 1.0 0.0
  outer loop
    vertex 46.552329774382635 19.238044999080227 10.000000000000004
    vertex 43.382456793304826 19.238044999080227 15.0
    vertex 47.346922887372095 19.238044999080227 11.035533905932741
  endloop
endfacet
facet normal 0.0 1.0 0.0
  outer loop
    vertex 47.346922887372095 19.238044999080227 11.035533905932741
    vertex 43.382456793304826 19.238044999080227 15.0
    vertex 48.38245679330483 19.238044999080227 11.830127018922198
  endloop
endfacet
facet normal 0.0 1.0 0.0
  outer loop
    vertex 48.38245679330483 19.238044999080227 11.830127018922198
    vertex 43.382456793304826 19.238044999080227 15.0
    vertex 49.58836156779223 19.238044999080227 12.329629131445344
  endloop
endfacet
facet normal 0.0 1.0 0.0
  outer loop
    vertex 49.58836156779223 19.238044999080227 12.329629131445344
    vertex 43.382456793304826 19.238044999080227 15.0
    vertex 50.882456793304826 19.238044999080227 12.500000000000002
  endloop
endfacet
facet normal 0.0 1.0 0.0
  outer loop
    vertex 58.382456793304826 19.238044999080227 0.0
    vertex 55.71208592475018 19.238044999080227 6.205904774487395
    vertex 58.382456793304826 19.238044999080227 15.0
  endloop
endfacet
facet normal 0.0 1.0 0.0
  outer loop
    vertex 55.71208592475018 19.238044999080227 6.205904774487395
    vertex 58.382456793304826 19.238044999080227 0.0
    vertex 55.21258381222702 19.238044999080227 4.999999999999998
  endloop
endfacet
facet normal 0.0 1.0 0.0
  outer loop
    vertex 55.21258381222702 19.238044999080227 4.999999999999998
    vertex 58.382456793304826 19.238044999080227 0.0
    vertex 54.41799069923756 19.238044999080227 3.964466094067261
  endloop
endfacet
facet normal 0.0 1.0 0.0
  outer loop
    vertex 54.41799069923756 19.238044999080227 3.964466094067261
    vertex 58.382456793304826 19.238044999080227 0.0
    vertex 53.382456793304826 19.238044999080227 3.169872981077805
  endloop
endfacet
facet normal 0.0 1.0 0.0
  outer loop
    vertex 53.382456793304826 19.238044999080227 3.169872981077805
    vertex 58.382456793304826 19.238044999080227 0.0
    vertex 52.17655201881743 19.238044999080227 2.670370868554657
  endloop
endfacet
facet normal 0.0 1.0 0.0
  outer loop
    vertex 52.17655201881743 19.238044999080227 2.670370868554657
    vertex 58.382456793304826 19.238044999080227 0.0
    vertex 50.882456793304826 19.238044999080227 2.4999999999999982
  endloop
endfacet
facet normal 0.0 1.0 0.0
  outer loop
    vertex 58.382456793304826 19.238044999080227 15.0
    vertex 55.71208592475018 19.238044999080227 6.205904774487395
    vertex 55.81663054451113 19.238044999080227 7.0
  endloop
endfacet
facet normal 0.0 1.0 0.0
  outer loop
    vertex 58.382456793304826 19.238044999080227 15.0
    vertex 55.81663054451113 19.238044999080227 7.0
    vertex 55.88245679330483 19.238044999080227 7.5
  endloop
endfacet
facet normal 0.0 1.0 0.0
  outer loop
    vertex 58.382456793304826 19.238044999080227 15.0
    vertex 55.88245679330483 19.238044999080227 7.5
    vertex 55.71208592475018 19.238044999080227 8.794095225512603
  endloop
endfacet
facet normal 0.0 1.0 0.0
  outer loop
    vertex 58.382456793304826 19.238044999080227 15.0
    vertex 55.71208592475018 19.238044999080227 8.794095225512603
    vertex 55.21258381222702 19.238044999080227 10.0
  endloop
endfacet
facet normal 0.0 1.0 0.0
  outer loop
    vertex 58.382456793304826 19.238044999080227 15.0
    vertex 55.21258381222702 19.238044999080227 10.0
    vertex 54.41799069923757 19.238044999080227 11.035533905932738
  endloop
endfacet
facet normal 0.0 1.0 0.0
  outer loop
    vertex 58.382456793304826 19.238044999080227 15.0
    vertex 54.41799069923757 19.238044999080227 11.035533905932738
    vertex 53.38245679330483 19.238044999080227 11.830127018922193
  endloop
endfacet
facet normal 0.0 1.0 0.0
  outer loop
    vertex 58.382456793304826 19.238044999080227 15.0
    vertex 53.38245679330483 19.238044999080227 11.830127018922193
    vertex 52.17655201881743 19.238044999080227 12.329629131445344
  endloop
endfacet
facet normal 0.0 1.0 0.0
  outer loop
    vertex 58.382456793304826 19.238044999080227 15.0
    vertex 52.17655201881743 19.238044999080227 12.329629131445344
    vertex 50.882456793304826 19.238044999080227 12.500000000000002
  endloop
endfacet
facet normal 0.0 1.0 0.0
  outer loop
    vertex 58.382456793304826 19.238044999080227 15.0
    vertex 50.882456793304826 19.238044999080227 12.500000000000002
    vertex 43.382456793304826 19.238044999080227 15.0
  endloop
endfacet
facet normal 0.3826834323650893 0.0 -0.923879532511287
  outer loop
    vertex 49.58836156779223 19.238044999080227 12.329629131445344
    vertex 48.38245679330483 15.23804499908023 11.830127018922198
    vertex 48.38245679330483 19.238044999080227 11.830127018922198
  endloop
endfacet
facet normal 0.3826834323650893 0.0 -0.923879532511287
  outer loop
    vertex 48.38245679330483 15.23804499908023 11.830127018922198
    vertex 49.58836156779223 19.238044999080227 12.329629131445344
    vertex 49.58836156779223 15.23804499908023 12.329629131445344
  endloop
endfacet
facet normal -0.6087614290087197 -0.0 -0.7933533402912362
  outer loop
    vertex 54.41799069923757 19.238044999080227 11.035533905932738
    vertex 53.38245679330483 15.23804499908023 11.830127018922193
    vertex 53.38245679330483 19.238044999080227 11.830127018922193
  endloop
endfacet
facet normal -0.6087614290087197 -0.0 -0.7933533402912362
  outer loop
    vertex 53.38245679330483 15.23804499908023 11.830127018922193
    vertex 54.41799069923757 19.238044999080227 11.035533905932738
    vertex 54.41799069923757 15.23804499908023 11.035533905932738
  endloop
endfacet
facet normal 0.13052619222005188 0.0 0.9914448613738104
  outer loop
    vertex 50.882456793304826 15.23804499908023 2.4999999999999982
    vertex 49.58836156779223 19.238044999080227 2.670370868554657
    vertex 49.58836156779223 15.23804499908023 2.670370868554657
  endloop
endfacet
facet normal 0.13052619222005188 0.0 0.9914448613738104
  outer loop
    vertex 49.58836156779223 19.238044999080227 2.670370868554657
    vertex 50.882456793304826 15.23804499908023 2.4999999999999982
    vertex 50.882456793304826 19.238044999080227 2.4999999999999982
  endloop
endfacet
facet normal 0.923879532511287 0.0 -0.3826834323650895
  outer loop
    vertex 46.05282766185948 19.238044999080227 8.794095225512608
    vertex 46.552329774382635 15.23804499908023 10.000000000000004
    vertex 46.05282766185948 15.23804499908023 8.794095225512608
  endloop
endfacet
facet normal 0.923879532511287 0.0 -0.3826834323650895
  outer loop
    vertex 46.552329774382635 15.23804499908023 10.000000000000004
    vertex 46.05282766185948 19.238044999080227 8.794095225512608
    vertex 46.552329774382635 19.238044999080227 10.000000000000004
  endloop
endfacet
facet normal 0.38268343236508917 0.0 0.9238795325112871
  outer loop
    vertex 49.58836156779223 15.23804499908023 2.670370868554657
    vertex 48.382456793304826 19.238044999080227 3.169872981077805
    vertex 48.382456793304826 15.23804499908023 3.169872981077805
  endloop
endfacet
facet normal 0.38268343236508917 0.0 0.9238795325112871
  outer loop
    vertex 48.382456793304826 19.238044999080227 3.169872981077805
    vertex 49.58836156779223 15.23804499908023 2.670370868554657
    vertex 49.58836156779223 19.238044999080227 2.670370868554657
  endloop
endfacet
facet normal 0.6087614290087203 0.0 -0.7933533402912355
  outer loop
    vertex 48.38245679330483 19.238044999080227 11.830127018922198
    vertex 47.346922887372095 15.23804499908023 11.035533905932741
    vertex 47.346922887372095 19.238044999080227 11.035533905932741
  endloop
endfacet
facet normal 0.6087614290087203 0.0 -0.7933533402912355
  outer loop
    vertex 47.346922887372095 15.23804499908023 11.035533905932741
    vertex 48.38245679330483 19.238044999080227 11.830127018922198
    vertex 48.38245679330483 15.23804499908023 11.830127018922198
  endloop
endfacet
facet normal 0.13052619222005188 0.0 -0.9914448613738104
  outer loop
    vertex 50.882456793304826 19.238044999080227 12.500000000000002
    vertex 49.58836156779223 15.23804499908023 12.329629131445344
    vertex 49.58836156779223 19.238044999080227 12.329629131445344
  endloop
endfacet
facet normal 0.13052619222005188 0.0 -0.9914448613738104
  outer loop
    vertex 49.58836156779223 15.23804499908023 12.329629131445344
    vertex 50.882456793304826 19.238044999080227 12.500000000000002
    vertex 50.882456793304826 15.23804499908023 12.500000000000002
  endloop
endfacet
facet normal 0.9238795325112872 0.0 0.38268343236508917
  outer loop
    vertex 46.552329774382635 19.238044999080227 4.999999999999999
    vertex 46.05282766185948 15.23804499908023 6.205904774487396
    vertex 46.552329774382635 15.23804499908023 4.999999999999999
  endloop
endfacet
facet normal 0.9238795325112872 0.0 0.38268343236508917
  outer loop
    vertex 46.05282766185948 15.23804499908023 6.205904774487396
    vertex 46.552329774382635 19.238044999080227 4.999999999999999
    vertex 46.05282766185948 19.238044999080227 6.205904774487396
  endloop
endfacet
facet normal 0.9914448613738109 0.0 0.13052619222004797
  outer loop
    vertex 46.05282766185948 19.238044999080227 6.205904774487396
    vertex 45.948283042098524 15.23804499908023 7.0
    vertex 46.05282766185948 15.23804499908023 6.205904774487396
  endloop
endfacet
facet normal 0.9914448613738109 0.0 0.13052619222004797
  outer loop
    vertex 45.948283042098524 15.23804499908023 7.0
    vertex 46.05282766185948 19.238044999080227 6.205904774487396
    vertex 45.948283042098524 19.238044999080227 7.0
  endloop
endfacet
facet normal -0.0 1.0 -0.0
  outer loop
    vertex 52.882456793304826 5.238044999080229 11.500000000000002
    vertex 55.88245679330483 5.238044999080229 6.999999999999998
    vertex 52.882456793304826 5.238044999080229 6.999999999999998
  endloop
endfacet
facet normal -0.0 1.0 -0.0
  outer loop
    vertex 55.88245679330483 5.238044999080229 6.999999999999998
    vertex 52.882456793304826 5.238044999080229 11.500000000000002
    vertex 55.88245679330483 5.238044999080229 11.500000000000002
  endloop
endfacet
facet normal -1.0 0.0 0.0
  outer loop
    vertex 55.88245679330483 15.23804499908023 11.500000000000002
    vertex 55.88245679330483 5.238044999080229 6.999999999999998
    vertex 55.88245679330483 5.238044999080229 11.500000000000002
  endloop
endfacet
facet normal -1.0 0.0 0.0
  outer loop
    vertex 55.88245679330483 5.238044999080229 6.999999999999998
    vertex 55.88245679330483 15.23804499908023 11.500000000000002
    vertex 55.88245679330483 15.23804499908023 6.999999999999998
  endloop
endfacet
facet normal -1.0 0.0 0.0
  outer loop
    vertex 55.88245679330483 15.23804499908023 6.999999999999998
    vertex 55.88245679330483 15.23804499908023 11.500000000000002
    vertex 55.88245679330483 15.23804499908023 7.5
  endloop
endfacet
facet normal 1.0 -0.0 -0.0
  outer loop
    vertex 53.71088391805101 14.238044999080232 6.999999999999998
    vertex 53.71088391805101 9.40961787433404 10.0
    vertex 53.71088391805101 9.40961787433404 7.0
  endloop
endfacet
facet normal -1.0 0.0 0.0
  outer loop
    vertex 52.882456793304826 5.238044999080229 11.500000000000002
    vertex 52.882456793304826 3.2380449990802305 6.999999999999998
    vertex 52.882456793304826 3.2380449990802305 11.500000000000002
  endloop
endfacet
facet normal -1.0 0.0 0.0
  outer loop
    vertex 52.882456793304826 3.2380449990802305 6.999999999999998
    vertex 52.882456793304826 5.238044999080229 11.500000000000002
    vertex 52.882456793304826 5.238044999080229 6.999999999999998
  endloop
endfacet
facet normal 0.3826834323650951 -0.9238795325112846 0.0
  outer loop
    vertex 52.882456793304826 8.773943383942479 10.0
    vertex 51.91773297371492 8.374341693923958 7.0
    vertex 52.882456793304826 8.773943383942479 7.0
  endloop
endfacet
facet normal 0.3826834323650951 -0.9238795325112846 0.0
  outer loop
    vertex 51.91773297371492 8.374341693923958 7.0
    vertex 52.882456793304826 8.773943383942479 10.0
    vertex 51.91773297371492 8.374341693923958 10.0
  endloop
endfacet
facet normal -0.6087614290087213 -0.7933533402912347 0.0
  outer loop
    vertex 48.88245679330483 8.773943383942475 10.0
    vertex 48.05402966855864 9.40961787433404 7.0
    vertex 48.88245679330483 8.773943383942475 7.0
  endloop
endfacet
facet normal -0.6087614290087213 -0.7933533402912347 0.0
  outer loop
    vertex 48.05402966855864 9.40961787433404 7.0
    vertex 48.88245679330483 8.773943383942475 10.0
    vertex 48.05402966855864 9.40961787433404 10.0
  endloop
endfacet
facet normal 0.6087614290087197 -0.7933533402912362 0.0
  outer loop
    vertex 53.71088391805101 9.40961787433404 10.0
    vertex 52.882456793304826 8.773943383942479 7.0
    vertex 53.71088391805101 9.40961787433404 7.0
  endloop
endfacet
facet normal 0.6087614290087197 -0.7933533402912362 0.0
  outer loop
    vertex 52.882456793304826 8.773943383942479 7.0
    vertex 53.71088391805101 9.40961787433404 10.0
    vertex 52.882456793304826 8.773943383942479 10.0
  endloop
endfacet
facet normal -0.13052619222005216 -0.9914448613738105 0.0
  outer loop
    vertex 50.882456793304826 8.23804499908023 10.0
    vertex 49.847180612894746 8.374341693923958 7.0
    vertex 50.882456793304826 8.23804499908023 7.0
  endloop
endfacet
facet normal -0.13052619222005216 -0.9914448613738105 0.0
  outer loop
    vertex 49.847180612894746 8.374341693923958 7.0
    vertex 50.882456793304826 8.23804499908023 10.0
    vertex 49.847180612894746 8.374341693923958 10.0
  endloop
endfacet
facet normal 0.13052619222005077 -0.9914448613738105 0.0
  outer loop
    vertex 51.91773297371492 8.374341693923958 10.0
    vertex 50.882456793304826 8.23804499908023 7.0
    vertex 51.91773297371492 8.374341693923958 7.0
  endloop
endfacet
facet normal 0.13052619222005077 -0.9914448613738105 0.0
  outer loop
    vertex 50.882456793304826 8.23804499908023 7.0
    vertex 51.91773297371492 8.374341693923958 10.0
    vertex 50.882456793304826 8.23804499908023 10.0
  endloop
endfacet
facet normal -0.382683432365089 -0.9238795325112871 0.0
  outer loop
    vertex 49.847180612894746 8.374341693923958 10.0
    vertex 48.88245679330483 8.773943383942475 7.0
    vertex 49.847180612894746 8.374341693923958 7.0
  endloop
endfacet
facet normal -0.382683432365089 -0.9238795325112871 0.0
  outer loop
    vertex 48.88245679330483 8.773943383942475 7.0
    vertex 49.847180612894746 8.374341693923958 10.0
    vertex 48.88245679330483 8.773943383942475 10.0
  endloop
endfacet
facet normal -0.0 1.0 -0.0
  outer loop
    vertex 45.882456793304826 5.238044999080229 11.500000000000002
    vertex 48.882456793304826 5.238044999080229 7.0
    vertex 45.882456793304826 5.238044999080229 7.0
  endloop
endfacet
facet normal -0.0 1.0 -0.0
  outer loop
    vertex 48.882456793304826 5.238044999080229 7.0
    vertex 45.882456793304826 5.238044999080229 11.500000000000002
    vertex 48.882456793304826 5.238044999080229 11.500000000000002
  endloop
endfacet
facet normal 1.0 -0.0 -0.0
  outer loop
    vertex 48.882456793304826 5.238044999080229 7.0
    vertex 48.882456793304826 3.238044999080229 11.500000000000002
    vertex 48.882456793304826 3.238044999080229 7.0
  endloop
endfacet
facet normal 1.0 -0.0 -0.0
  outer loop
    vertex 48.882456793304826 3.238044999080229 11.500000000000002
    vertex 48.882456793304826 5.238044999080229 7.0
    vertex 48.882456793304826 5.238044999080229 11.500000000000002
  endloop
endfacet
facet normal 1.1985857511053418e-16 -3.241340784537815e-17 1.0
  outer loop
    vertex 52.882456793304826 3.2380449990802305 6.999999999999998
    vertex 48.882456793304826 5.238044999080229 7.0
    vertex 48.882456793304826 3.238044999080229 7.0
  endloop
endfacet
facet normal 1.1985857511053418e-16 -3.241340784537815e-17 1.0
  outer loop
    vertex 48.882456793304826 5.238044999080229 7.0
    vertex 52.882456793304826 3.2380449990802305 6.999999999999998
    vertex 48.88245679330483 8.773943383942475 7.0
  endloop
endfacet
facet normal 1.1985857511053418e-16 -3.241340784537815e-17 1.0
  outer loop
    vertex 48.88245679330483 8.773943383942475 7.0
    vertex 52.882456793304826 3.2380449990802305 6.999999999999998
    vertex 49.847180612894746 8.374341693923958 7.0
  endloop
endfacet
facet normal 1.1985857511053418e-16 -3.241340784537815e-17 1.0
  outer loop
    vertex 49.847180612894746 8.374341693923958 7.0
    vertex 52.882456793304826 3.2380449990802305 6.999999999999998
    vertex 50.882456793304826 8.23804499908023 7.0
  endloop
endfacet
facet normal 1.1985857511053418e-16 -3.241340784537815e-17 1.0
  outer loop
    vertex 50.882456793304826 8.23804499908023 7.0
    vertex 52.882456793304826 3.2380449990802305 6.999999999999998
    vertex 51.91773297371492 8.374341693923958 7.0
  endloop
endfacet
facet normal 1.1985857511053418e-16 -3.241340784537815e-17 1.0
  outer loop
    vertex 51.91773297371492 8.374341693923958 7.0
    vertex 52.882456793304826 3.2380449990802305 6.999999999999998
    vertex 52.882456793304826 8.773943383942479 7.0
  endloop
endfacet
facet normal 1.1985857511053418e-16 -3.241340784537815e-17 1.0
  outer loop
    vertex 52.882456793304826 8.773943383942479 7.0
    vertex 52.882456793304826 3.2380449990802305 6.999999999999998
    vertex 52.882456793304826 5.238044999080229 6.999999999999998
  endloop
endfacet
facet normal 1.1985857511053418e-16 -3.241340784537815e-17 1.0
  outer loop
    vertex 52.882456793304826 8.773943383942479 7.0
    vertex 52.882456793304826 5.238044999080229 6.999999999999998
    vertex 55.88245679330483 5.238044999080229 6.999999999999998
  endloop
endfacet
facet normal 1.1985857511053418e-16 -3.241340784537815e-17 1.0
  outer loop
    vertex 52.882456793304826 8.773943383942479 7.0
    vertex 55.88245679330483 5.238044999080229 6.999999999999998
    vertex 53.71088391805101 9.40961787433404 7.0
  endloop
endfacet
facet normal 1.1985857511053418e-16 -3.241340784537815e-17 1.0
  outer loop
    vertex 53.71088391805101 9.40961787433404 7.0
    vertex 55.88245679330483 5.238044999080229 6.999999999999998
    vertex 53.71088391805101 14.238044999080232 6.999999999999998
  endloop
endfacet
facet normal 1.1985857511053418e-16 -3.241340784537815e-17 1.0
  outer loop
    vertex 53.71088391805101 14.238044999080232 6.999999999999998
    vertex 55.88245679330483 5.238044999080229 6.999999999999998
    vertex 55.81663054451113 15.23804499908023 7.0
  endloop
endfacet
facet normal 1.1985857511053418e-16 -3.241340784537815e-17 1.0
  outer loop
    vertex 55.81663054451113 15.23804499908023 7.0
    vertex 55.88245679330483 5.238044999080229 6.999999999999998
    vertex 55.88245679330483 15.23804499908023 6.999999999999998
  endloop
endfacet
facet normal 1.1985857511053418e-16 -3.241340784537815e-17 1.0
  outer loop
    vertex 48.054029668558634 14.238044999080225 7.0
    vertex 55.81663054451113 15.23804499908023 7.0
    vertex 45.948283042098524 15.23804499908023 7.0
  endloop
endfacet
facet normal 1.1985857511053418e-16 -3.241340784537815e-17 1.0
  outer loop
    vertex 55.81663054451113 15.23804499908023 7.0
    vertex 48.054029668558634 14.238044999080225 7.0
    vertex 53.71088391805101 14.238044999080232 6.999999999999998
  endloop
endfacet
facet normal 1.1985857511053418e-16 -3.241340784537815e-17 1.0
  outer loop
    vertex 48.882456793304826 5.238044999080229 7.0
    vertex 45.882456793304826 15.23804499908023 7.0
    vertex 45.882456793304826 5.238044999080229 7.0
  endloop
endfacet
facet normal 1.1985857511053418e-16 -3.241340784537815e-17 1.0
  outer loop
    vertex 45.882456793304826 15.23804499908023 7.0
    vertex 48.882456793304826 5.238044999080229 7.0
    vertex 45.948283042098524 15.23804499908023 7.0
  endloop
endfacet
facet normal 1.1985857511053418e-16 -3.241340784537815e-17 1.0
  outer loop
    vertex 45.948283042098524 15.23804499908023 7.0
    vertex 48.882456793304826 5.238044999080229 7.0
    vertex 48.05402966855864 9.40961787433404 7.0
  endloop
endfacet
facet normal 1.1985857511053418e-16 -3.241340784537815e-17 1.0
  outer loop
    vertex 45.948283042098524 15.23804499908023 7.0
    vertex 48.05402966855864 9.40961787433404 7.0
    vertex 48.054029668558634 14.238044999080225 7.0
  endloop
endfacet
facet normal 1.1985857511053418e-16 -3.241340784537815e-17 1.0
  outer loop
    vertex 48.05402966855864 9.40961787433404 7.0
    vertex 48.882456793304826 5.238044999080229 7.0
    vertex 48.88245679330483 8.773943383942475 7.0
  endloop
endfacet
facet normal -0.0 -0.0 1.0
  outer loop
    vertex 48.88245679330483 8.773943383942475 10.0
    vertex 53.71088391805101 9.40961787433404 10.0
    vertex 48.05402966855864 9.40961787433404 10.0
  endloop
endfacet
facet normal -0.0 -0.0 1.0
  outer loop
    vertex 53.71088391805101 9.40961787433404 10.0
    vertex 48.88245679330483 8.773943383942475 10.0
    vertex 49.847180612894746 8.374341693923958 10.0
  endloop
endfacet
facet normal -0.0 -0.0 1.0
  outer loop
    vertex 53.71088391805101 9.40961787433404 10.0
    vertex 49.847180612894746 8.374341693923958 10.0
    vertex 50.882456793304826 8.23804499908023 10.0
  endloop
endfacet
facet normal -0.0 -0.0 1.0
  outer loop
    vertex 53.71088391805101 9.40961787433404 10.0
    vertex 50.882456793304826 8.23804499908023 10.0
    vertex 51.91773297371492 8.374341693923958 10.0
  endloop
endfacet
facet normal -0.0 -0.0 1.0
  outer loop
    vertex 53.71088391805101 9.40961787433404 10.0
    vertex 51.91773297371492 8.374341693923958 10.0
    vertex 52.882456793304826 8.773943383942479 10.0
  endloop
endfacet
facet normal 1.0 -0.0 -0.0
  outer loop
    vertex 45.882456793304826 15.23804499908023 7.0
    vertex 45.882456793304826 5.238044999080229 11.500000000000002
    vertex 45.882456793304826 5.238044999080229 7.0
  endloop
endfacet
facet normal 1.0 -0.0 -0.0
  outer loop
    vertex 45.882456793304826 5.238044999080229 11.500000000000002
    vertex 45.882456793304826 15.23804499908023 7.0
    vertex 45.882456793304826 15.23804499908023 11.500000000000002
  endloop
endfacet
facet normal 1.0 -0.0 -0.0
  outer loop
    vertex 45.882456793304826 15.23804499908023 11.500000000000002
    vertex 45.882456793304826 15.23804499908023 7.0
    vertex 45.882456793304826 15.23804499908023 7.5
  endloop
endfacet
facet normal -1.5574355510057618e-16 0.5277495276425703 0.8494000447804579
  outer loop
    vertex 48.05402966855864 9.40961787433404 10.0
    vertex 53.71088391805101 14.238044999080232 6.999999999999998
    vertex 48.054029668558634 14.238044999080225 7.0
  endloop
endfacet
facet normal -1.5574355510057618e-16 0.5277495276425703 0.8494000447804579
  outer loop
    vertex 53.71088391805101 14.238044999080232 6.999999999999998
    vertex 48.05402966855864 9.40961787433404 10.0
    vertex 53.71088391805101 9.40961787433404 10.0
  endloop
endfacet
facet normal 8.484101271746313e-17 -1.0 6.239092129252009e-16
  outer loop
    vertex 58.382456793304826 3.238044999080229 0.0
    vertex 52.882456793304826 3.2380449990802305 6.999999999999998
    vertex 43.382456793304826 3.238044999080229 0.0
  endloop
endfacet
facet normal 8.484101271746313e-17 -1.0 6.239092129252009e-16
  outer loop
    vertex 52.882456793304826 3.2380449990802305 6.999999999999998
    vertex 58.382456793304826 3.238044999080229 0.0
    vertex 58.382456793304826 3.238044999080242 15.0
  endloop
endfacet
facet normal 8.484101271746313e-17 -1.0 6.239092129252009e-16
  outer loop
    vertex 52.882456793304826 3.2380449990802305 6.999999999999998
    vertex 58.382456793304826 3.238044999080242 15.0
    vertex 52.882456793304826 3.2380449990802305 11.500000000000002
  endloop
endfacet
facet normal 8.484101271746313e-17 -1.0 6.239092129252009e-16
  outer loop
    vertex 52.882456793304826 3.2380449990802305 11.500000000000002
    vertex 58.382456793304826 3.238044999080242 15.0
    vertex 48.882456793304826 3.238044999080229 11.500000000000002
  endloop
endfacet
facet normal 8.484101271746313e-17 -1.0 6.239092129252009e-16
  outer loop
    vertex 43.382456793304826 3.238044999080229 0.0
    vertex 48.882456793304826 3.238044999080229 7.0
    vertex 43.382456793304826 3.238044999080242 15.0
  endloop
endfacet
facet normal 8.484101271746313e-17 -1.0 6.239092129252009e-16
  outer loop
    vertex 48.882456793304826 3.238044999080229 7.0
    vertex 43.382456793304826 3.238044999080229 0.0
    vertex 52.882456793304826 3.2380449990802305 6.999999999999998
  endloop
endfacet
facet normal 8.484101271746313e-17 -1.0 6.239092129252009e-16
  outer loop
    vertex 43.382456793304826 3.238044999080242 15.0
    vertex 48.882456793304826 3.238044999080229 7.0
    vertex 48.882456793304826 3.238044999080229 11.500000000000002
  endloop
endfacet
facet normal 8.484101271746313e-17 -1.0 6.239092129252009e-16
  outer loop
    vertex 43.382456793304826 3.238044999080242 15.0
    vertex 48.882456793304826 3.238044999080229 11.500000000000002
    vertex 58.382456793304826 3.238044999080242 15.0
  endloop
endfacet
facet normal -0.0 1.0 -0.0
  outer loop
    vertex 49.58836156779223 15.23804499908023 2.670370868554657
    vertex 52.17655201881743 15.23804499908023 2.670370868554657
    vertex 50.882456793304826 15.23804499908023 2.4999999999999982
  endloop
endfacet
facet normal -0.0 1.0 -0.0
  outer loop
    vertex 52.17655201881743 15.23804499908023 2.670370868554657
    vertex 49.58836156779223 15.23804499908023 2.670370868554657
    vertex 48.382456793304826 15.23804499908023 3.169872981077805
  endloop
endfacet
facet normal -0.0 1.0 -0.0
  outer loop
    vertex 52.17655201881743 15.23804499908023 2.670370868554657
    vertex 48.382456793304826 15.23804499908023 3.169872981077805
    vertex 53.382456793304826 15.23804499908023 3.169872981077805
  endloop
endfacet
facet normal -0.0 1.0 -0.0
  outer loop
    vertex 53.382456793304826 15.23804499908023 3.169872981077805
    vertex 48.382456793304826 15.23804499908023 3.169872981077805
    vertex 47.34692288737209 15.23804499908023 3.964466094067262
  endloop
endfacet
facet normal -0.0 1.0 -0.0
  outer loop
    vertex 53.382456793304826 15.23804499908023 3.169872981077805
    vertex 47.34692288737209 15.23804499908023 3.964466094067262
    vertex 54.41799069923756 15.23804499908023 3.964466094067261
  endloop
endfacet
facet normal -0.0 1.0 -0.0
  outer loop
    vertex 54.41799069923756 15.23804499908023 3.964466094067261
    vertex 47.34692288737209 15.23804499908023 3.964466094067262
    vertex 55.21258381222702 15.23804499908023 4.999999999999998
  endloop
endfacet
facet normal -0.0 1.0 -0.0
  outer loop
    vertex 55.21258381222702 15.23804499908023 4.999999999999998
    vertex 47.34692288737209 15.23804499908023 3.964466094067262
    vertex 46.552329774382635 15.23804499908023 4.999999999999999
  endloop
endfacet
facet normal -0.0 1.0 -0.0
  outer loop
    vertex 55.21258381222702 15.23804499908023 4.999999999999998
    vertex 46.552329774382635 15.23804499908023 4.999999999999999
    vertex 55.71208592475018 15.23804499908023 6.205904774487395
  endloop
endfacet
facet normal -0.0 1.0 -0.0
  outer loop
    vertex 55.71208592475018 15.23804499908023 6.205904774487395
    vertex 46.552329774382635 15.23804499908023 4.999999999999999
    vertex 46.05282766185948 15.23804499908023 6.205904774487396
  endloop
endfacet
facet normal -0.0 1.0 -0.0
  outer loop
    vertex 55.71208592475018 15.23804499908023 6.205904774487395
    vertex 46.05282766185948 15.23804499908023 6.205904774487396
    vertex 55.81663054451113 15.23804499908023 7.0
  endloop
endfacet
facet normal -0.0 1.0 -0.0
  outer loop
    vertex 55.81663054451113 15.23804499908023 7.0
    vertex 46.05282766185948 15.23804499908023 6.205904774487396
    vertex 45.948283042098524 15.23804499908023 7.0
  endloop
endfacet
facet normal 1.0 -0.0 -0.0
  outer loop
    vertex 58.382456793304826 19.238044999080227 0.0
    vertex 58.382456793304826 3.238044999080242 15.0
    vertex 58.382456793304826 3.238044999080229 0.0
  endloop
endfacet
facet normal 1.0 -0.0 -0.0
  outer loop
    vertex 58.382456793304826 3.238044999080242 15.0
    vertex 58.382456793304826 19.238044999080227 0.0
    vertex 58.382456793304826 19.238044999080227 15.0
  endloop
endfacet
facet normal 0.0 0.0 -1.0
  outer loop
    vertex 58.382456793304826 19.238044999080227 0.0
    vertex 43.382456793304826 3.238044999080229 0.0
    vertex 43.382456793304826 19.238044999080227 0.0
  endloop
endfacet
facet normal 0.0 0.0 -1.0
  outer loop
    vertex 43.382456793304826 3.238044999080229 0.0
    vertex 58.382456793304826 19.238044999080227 0.0
    vertex 58.382456793304826 3.238044999080229 0.0
  endloop
endfacet
facet normal 3.9696673935142847e-32 1.0 -2.721484297086701e-15
  outer loop
    vertex 46.68228912246118 5.238044999080231 11.802787957889866
    vertex 48.882456793304826 5.238044999080229 11.500000000000002
    vertex 45.882456793304826 5.238044999080229 11.500000000000002
  endloop
endfacet
facet normal 3.9696673935142847e-32 1.0 -2.721484297086701e-15
  outer loop
    vertex 48.882456793304826 5.238044999080229 11.500000000000002
    vertex 46.68228912246118 5.238044999080231 11.802787957889866
    vertex 52.882456793304826 5.238044999080229 11.500000000000002
  endloop
endfacet
facet normal 3.9696673935142847e-32 1.0 -2.721484297086701e-15
  outer loop
    vertex 52.882456793304826 5.238044999080229 11.500000000000002
    vertex 46.68228912246118 5.238044999080231 11.802787957889866
    vertex 55.88245679330483 5.238044999080229 11.500000000000002
  endloop
endfacet
facet normal 3.9696673935142847e-32 1.0 -2.721484297086701e-15
  outer loop
    vertex 55.88245679330483 5.238044999080229 11.500000000000002
    vertex 46.68228912246118 5.238044999080231 11.802787957889866
    vertex 55.08262446414848 5.238044999080231 11.802787957889866
  endloop
endfacet
facet normal 3.9696673935142847e-32 1.0 -2.721484297086701e-15
  outer loop
    vertex 55.08262446414848 5.238044999080231 11.802787957889866
    vertex 46.68228912246118 5.238044999080231 11.802787957889866
    vertex 47.500299287746444 5.238044999080231 12.052330883449303
  endloop
endfacet
facet normal 3.9696673935142847e-32 1.0 -2.721484297086701e-15
  outer loop
    vertex 55.08262446414848 5.238044999080231 11.802787957889866
    vertex 47.500299287746444 5.238044999080231 12.052330883449303
    vertex 54.26461429886321 5.238044999080231 12.052330883449304
  endloop
endfacet
facet normal 3.9696673935142847e-32 1.0 -2.721484297086701e-15
  outer loop
    vertex 54.26461429886321 5.238044999080231 12.052330883449304
    vertex 47.500299287746444 5.238044999080231 12.052330883449303
    vertex 48.332947036508436 5.238044999080231 12.247548783981964
  endloop
endfacet
facet normal 3.9696673935142847e-32 1.0 -2.721484297086701e-15
  outer loop
    vertex 54.26461429886321 5.238044999080231 12.052330883449304
    vertex 48.332947036508436 5.238044999080231 12.247548783981964
    vertex 53.43196655010123 5.238044999080231 12.247548783981967
  endloop
endfacet
facet normal 3.9696673935142847e-32 1.0 -2.721484297086701e-15
  outer loop
    vertex 53.43196655010123 5.238044999080231 12.247548783981967
    vertex 48.332947036508436 5.238044999080231 12.247548783981964
    vertex 49.17662876633975 5.238044999080231 12.387596779167968
  endloop
endfacet
facet normal 3.9696673935142847e-32 1.0 -2.721484297086701e-15
  outer loop
    vertex 53.43196655010123 5.238044999080231 12.247548783981967
    vertex 49.17662876633975 5.238044999080231 12.387596779167968
    vertex 52.5882848202699 5.238044999080231 12.387596779167964
  endloop
endfacet
facet normal 3.9696673935142847e-32 1.0 -2.721484297086701e-15
  outer loop
    vertex 52.5882848202699 5.238044999080231 12.387596779167964
    vertex 49.17662876633975 5.238044999080231 12.387596779167968
    vertex 51.73722046556064 5.238044999080231 12.471868757607433
  endloop
endfacet
facet normal 3.9696673935142847e-32 1.0 -2.721484297086701e-15
  outer loop
    vertex 51.73722046556064 5.238044999080231 12.471868757607433
    vertex 49.17662876633975 5.238044999080231 12.387596779167968
    vertex 50.02769312104901 5.238044999080231 12.471868757607433
  endloop
endfacet
facet normal 3.9696673935142847e-32 1.0 -2.721484297086701e-15
  outer loop
    vertex 51.73722046556064 5.238044999080231 12.471868757607433
    vertex 50.02769312104901 5.238044999080231 12.471868757607433
    vertex 50.882456793304826 5.238044999080231 12.500000000000002
  endloop
endfacet
facet normal -1.0 0.0 0.0
  outer loop
    vertex 43.382456793304826 3.238044999080242 15.0
    vertex 43.382456793304826 19.238044999080227 0.0
    vertex 43.382456793304826 3.238044999080229 0.0
  endloop
endfacet
facet normal -1.0 0.0 0.0
  outer loop
    vertex 43.382456793304826 19.238044999080227 0.0
    vertex 43.382456793304826 3.238044999080242 15.0
    vertex 43.382456793304826 19.238044999080227 15.0
  endloop
endfacet
facet normal 0.0 0.0 -1.0
  outer loop
    vertex 52.882456793304826 5.238044999080229 11.500000000000002
    vertex 48.882456793304826 3.238044999080229 11.500000000000002
    vertex 48.882456793304826 5.238044999080229 11.500000000000002
  endloop
endfacet
facet normal 0.0 0.0 -1.0
  outer loop
    vertex 48.882456793304826 3.238044999080229 11.500000000000002
    vertex 52.882456793304826 5.238044999080229 11.500000000000002
    vertex 52.882456793304826 3.2380449990802305 11.500000000000002
  endloop
endfacet
facet normal -0.0 -0.0 1.0
  outer loop
    vertex 58.382456793304826 3.238044999080242 15.0
    vertex 43.382456793304826 19.238044999080227 15.0
    vertex 43.382456793304826 3.238044999080242 15.0
  endloop
endfacet
facet normal -0.0 -0.0 1.0
  outer loop
    vertex 43.382456793304826 19.238044999080227 15.0
    vertex 58.382456793304826 3.238044999080242 15.0
    vertex 58.382456793304826 19.238044999080227 15.0
  endloop
endfacet
facet normal 0.1637554511259637 0.0 -0.9865009641285366
  outer loop
    vertex 49.17662876633975 15.23804499908023 12.387596779167968
    vertex 48.332947036508436 5.238044999080231 12.247548783981964
    vertex 48.332947036508436 15.23804499908023 12.247548783981964
  endloop
endfacet
facet normal 0.1637554511259637 0.0 -0.9865009641285366
  outer loop
    vertex 48.332947036508436 5.238044999080231 12.247548783981964
    vertex 49.17662876633975 15.23804499908023 12.387596779167968
    vertex 49.17662876633975 5.238044999080231 12.387596779167968
  endloop
endfacet
facet normal -0.2917857859800495 -0.0 -0.9564836930653889
  outer loop
    vertex 55.08262446414848 15.23804499908023 11.802787957889866
    vertex 54.26461429886321 5.238044999080231 12.052330883449304
    vertex 54.26461429886321 15.23804499908023 12.052330883449304
  endloop
endfacet
facet normal -0.2917857859800495 -0.0 -0.9564836930653889
  outer loop
    vertex 54.26461429886321 5.238044999080231 12.052330883449304
    vertex 55.08262446414848 15.23804499908023 11.802787957889866
    vertex 55.08262446414848 5.238044999080231 11.802787957889866
  endloop
endfacet
facet normal 0.29178578598004984 0.0 -0.9564836930653888
  outer loop
    vertex 47.500299287746444 15.23804499908023 12.052330883449303
    vertex 46.68228912246118 5.238044999080231 11.802787957889866
    vertex 46.68228912246118 15.23804499908023 11.802787957889866
  endloop
endfacet
facet normal 0.29178578598004984 0.0 -0.9564836930653888
  outer loop
    vertex 46.68228912246118 5.238044999080231 11.802787957889866
    vertex 47.500299287746444 15.23804499908023 12.052330883449303
    vertex 47.500299287746444 5.238044999080231 12.052330883449303
  endloop
endfacet
facet normal 0.032893325481815776 0.0 -0.9994588681575383
  outer loop
    vertex 50.882456793304826 15.23804499908023 12.500000000000002
    vertex 50.02769312104901 5.238044999080231 12.471868757607433
    vertex 50.02769312104901 15.23804499908023 12.471868757607433
  endloop
endfacet
facet normal 0.032893325481815776 0.0 -0.9994588681575383
  outer loop
    vertex 50.02769312104901 5.238044999080231 12.471868757607433
    vertex 50.882456793304826 15.23804499908023 12.500000000000002
    vertex 50.882456793304826 5.238044999080231 12.500000000000002
  endloop
endfacet
facet normal 0.0 -1.0 0.0
  outer loop
    vertex 55.88245679330483 15.23804499908023 11.500000000000002
    vertex 55.71208592475018 15.23804499908023 8.794095225512603
    vertex 55.88245679330483 15.23804499908023 7.5
  endloop
endfacet
facet normal 0.0 -1.0 0.0
  outer loop
    vertex 55.71208592475018 15.23804499908023 8.794095225512603
    vertex 55.88245679330483 15.23804499908023 11.500000000000002
    vertex 55.21258381222702 15.23804499908023 10.0
  endloop
endfacet
facet normal 0.0 -1.0 0.0
  outer loop
    vertex 55.21258381222702 15.23804499908023 10.0
    vertex 55.88245679330483 15.23804499908023 11.500000000000002
    vertex 54.41799069923757 15.23804499908023 11.035533905932738
  endloop
endfacet
facet normal 0.0 -1.0 0.0
  outer loop
    vertex 54.41799069923757 15.23804499908023 11.035533905932738
    vertex 55.88245679330483 15.23804499908023 11.500000000000002
    vertex 53.38245679330483 15.23804499908023 11.830127018922193
  endloop
endfacet
facet normal 0.0 -1.0 0.0
  outer loop
    vertex 53.38245679330483 15.23804499908023 11.830127018922193
    vertex 55.88245679330483 15.23804499908023 11.500000000000002
    vertex 55.08262446414848 15.23804499908023 11.802787957889866
  endloop
endfacet
facet normal 0.0 -1.0 0.0
  outer loop
    vertex 53.38245679330483 15.23804499908023 11.830127018922193
    vertex 55.08262446414848 15.23804499908023 11.802787957889866
    vertex 54.26461429886321 15.23804499908023 12.052330883449304
  endloop
endfacet
facet normal 0.0 -1.0 0.0
  outer loop
    vertex 53.38245679330483 15.23804499908023 11.830127018922193
    vertex 54.26461429886321 15.23804499908023 12.052330883449304
    vertex 52.17655201881743 15.23804499908023 12.329629131445344
  endloop
endfacet
facet normal 0.0 -1.0 0.0
  outer loop
    vertex 52.17655201881743 15.23804499908023 12.329629131445344
    vertex 54.26461429886321 15.23804499908023 12.052330883449304
    vertex 53.43196655010123 15.23804499908023 12.247548783981967
  endloop
endfacet
facet normal 0.0 -1.0 0.0
  outer loop
    vertex 52.17655201881743 15.23804499908023 12.329629131445344
    vertex 53.43196655010123 15.23804499908023 12.247548783981967
    vertex 52.5882848202699 15.23804499908023 12.387596779167964
  endloop
endfacet
facet normal 0.0 -1.0 0.0
  outer loop
    vertex 52.17655201881743 15.23804499908023 12.329629131445344
    vertex 52.5882848202699 15.23804499908023 12.387596779167964
    vertex 50.882456793304826 15.23804499908023 12.500000000000002
  endloop
endfacet
facet normal 0.0 -1.0 0.0
  outer loop
    vertex 50.882456793304826 15.23804499908023 12.500000000000002
    vertex 52.5882848202699 15.23804499908023 12.387596779167964
    vertex 51.73722046556064 15.23804499908023 12.471868757607433
  endloop
endfacet
facet normal 0.0 -1.0 0.0
  outer loop
    vertex 55.88245679330483 15.23804499908023 7.5
    vertex 55.81663054451113 15.23804499908023 7.0
    vertex 55.88245679330483 15.23804499908023 6.999999999999998
  endloop
endfacet
facet normal 0.22826456977932078 0.0 -0.973599140397865
  outer loop
    vertex 48.332947036508436 15.23804499908023 12.247548783981964
    vertex 47.500299287746444 5.238044999080231 12.052330883449303
    vertex 47.500299287746444 15.23804499908023 12.052330883449303
  endloop
endfacet
facet normal 0.22826456977932078 0.0 -0.973599140397865
  outer loop
    vertex 47.500299287746444 5.238044999080231 12.052330883449303
    vertex 48.332947036508436 15.23804499908023 12.247548783981964
    vertex 48.332947036508436 5.238044999080231 12.247548783981964
  endloop
endfacet
facet normal 0.0 -1.0 0.0
  outer loop
    vertex 46.05282766185948 15.23804499908023 8.794095225512608
    vertex 45.882456793304826 15.23804499908023 11.500000000000002
    vertex 45.882456793304826 15.23804499908023 7.5
  endloop
endfacet
facet normal 0.0 -1.0 0.0
  outer loop
    vertex 45.882456793304826 15.23804499908023 11.500000000000002
    vertex 46.05282766185948 15.23804499908023 8.794095225512608
    vertex 46.552329774382635 15.23804499908023 10.000000000000004
  endloop
endfacet
facet normal 0.0 -1.0 0.0
  outer loop
    vertex 45.882456793304826 15.23804499908023 11.500000000000002
    vertex 46.552329774382635 15.23804499908023 10.000000000000004
    vertex 47.346922887372095 15.23804499908023 11.035533905932741
  endloop
endfacet
facet normal 0.0 -1.0 0.0
  outer loop
    vertex 45.882456793304826 15.23804499908023 11.500000000000002
    vertex 47.346922887372095 15.23804499908023 11.035533905932741
    vertex 48.38245679330483 15.23804499908023 11.830127018922198
  endloop
endfacet
facet normal 0.0 -1.0 0.0
  outer loop
    vertex 45.882456793304826 15.23804499908023 11.500000000000002
    vertex 48.38245679330483 15.23804499908023 11.830127018922198
    vertex 46.68228912246118 15.23804499908023 11.802787957889866
  endloop
endfacet
facet normal 0.0 -1.0 0.0
  outer loop
    vertex 46.68228912246118 15.23804499908023 11.802787957889866
    vertex 48.38245679330483 15.23804499908023 11.830127018922198
    vertex 47.500299287746444 15.23804499908023 12.052330883449303
  endloop
endfacet
facet normal 0.0 -1.0 0.0
  outer loop
    vertex 47.500299287746444 15.23804499908023 12.052330883449303
    vertex 48.38245679330483 15.23804499908023 11.830127018922198
    vertex 49.58836156779223 15.23804499908023 12.329629131445344
  endloop
endfacet
facet normal 0.0 -1.0 0.0
  outer loop
    vertex 47.500299287746444 15.23804499908023 12.052330883449303
    vertex 49.58836156779223 15.23804499908023 12.329629131445344
    vertex 48.332947036508436 15.23804499908023 12.247548783981964
  endloop
endfacet
facet normal 0.0 -1.0 0.0
  outer loop
    vertex 48.332947036508436 15.23804499908023 12.247548783981964
    vertex 49.58836156779223 15.23804499908023 12.329629131445344
    vertex 49.17662876633975 15.23804499908023 12.387596779167968
  endloop
endfacet
facet normal 0.0 -1.0 0.0
  outer loop
    vertex 49.17662876633975 15.23804499908023 12.387596779167968
    vertex 49.58836156779223 15.23804499908023 12.329629131445344
    vertex 50.882456793304826 15.23804499908023 12.500000000000002
  endloop
endfacet
facet normal 0.0 -1.0 0.0
  outer loop
    vertex 49.17662876633975 15.23804499908023 12.387596779167968
    vertex 50.882456793304826 15.23804499908023 12.500000000000002
    vertex 50.02769312104901 15.23804499908023 12.471868757607433
  endloop
endfacet
facet normal 0.0 -1.0 0.0
  outer loop
    vertex 45.882456793304826 15.23804499908023 7.5
    vertex 45.882456793304826 15.23804499908023 7.0
    vertex 45.948283042098524 15.23804499908023 7.0
  endloop
endfacet
facet normal -1.0 -1.1680683625088916e-15 4.298075134598049e-31
  outer loop
    vertex 48.054029668558634 14.238044999080225 7.0
    vertex 48.05402966855864 9.40961787433404 7.0
    vertex 48.05402966855864 9.40961787433404 10.0
  endloop
endfacet
facet normal -0.09853761796664301 -0.0 -0.9951333266680702
  outer loop
    vertex 52.5882848202699 15.23804499908023 12.387596779167964
    vertex 51.73722046556064 5.238044999080231 12.471868757607433
    vertex 51.73722046556064 15.23804499908023 12.471868757607433
  endloop
endfacet
facet normal -0.09853761796664301 -0.0 -0.9951333266680702
  outer loop
    vertex 51.73722046556064 5.238044999080231 12.471868757607433
    vertex 52.5882848202699 15.23804499908023 12.387596779167964
    vertex 52.5882848202699 5.238044999080231 12.387596779167964
  endloop
endfacet
facet normal -0.22826456977932377 -0.0 -0.9735991403978643
  outer loop
    vertex 54.26461429886321 15.23804499908023 12.052330883449304
    vertex 53.43196655010123 5.238044999080231 12.247548783981967
    vertex 53.43196655010123 15.23804499908023 12.247548783981967
  endloop
endfacet
facet normal -0.22826456977932377 -0.0 -0.9735991403978643
  outer loop
    vertex 53.43196655010123 5.238044999080231 12.247548783981967
    vertex 54.26461429886321 15.23804499908023 12.052330883449304
    vertex 54.26461429886321 5.238044999080231 12.052330883449304
  endloop
endfacet
facet normal -0.032893325481815776 0.0 -0.9994588681575383
  outer loop
    vertex 51.73722046556064 15.23804499908023 12.471868757607433
    vertex 50.882456793304826 5.238044999080231 12.500000000000002
    vertex 50.882456793304826 15.23804499908023 12.500000000000002
  endloop
endfacet
facet normal -0.032893325481815776 0.0 -0.9994588681575383
  outer loop
    vertex 50.882456793304826 5.238044999080231 12.500000000000002
    vertex 51.73722046556064 15.23804499908023 12.471868757607433
    vertex 51.73722046556064 5.238044999080231 12.471868757607433
  endloop
endfacet
facet normal 0.09853761796663908 0.0 -0.9951333266680705
  outer loop
    vertex 50.02769312104901 15.23804499908023 12.471868757607433
    vertex 49.17662876633975 5.238044999080231 12.387596779167968
    vertex 49.17662876633975 15.23804499908023 12.387596779167968
  endloop
endfacet
facet normal 0.09853761796663908 0.0 -0.9951333266680705
  outer loop
    vertex 49.17662876633975 5.238044999080231 12.387596779167968
    vertex 50.02769312104901 15.23804499908023 12.471868757607433
    vertex 50.02769312104901 5.238044999080231 12.471868757607433
  endloop
endfacet
facet normal -0.3540441873081482 -3.7306848013957376e-20 -0.9352286957922714
  outer loop
    vertex 55.88245679330483 15.23804499908023 11.500000000000002
    vertex 55.08262446414848 5.238044999080231 11.802787957889866
    vertex 55.08262446414848 15.23804499908023 11.802787957889866
  endloop
endfacet
facet normal -0.3540441873081482 -3.7306848013957376e-20 -0.9352286957922714
  outer loop
    vertex 55.08262446414848 5.238044999080231 11.802787957889866
    vertex 55.88245679330483 15.23804499908023 11.500000000000002
    vertex 55.88245679330483 5.238044999080229 11.500000000000002
  endloop
endfacet
facet normal -0.16375545112595516 -0.0 -0.9865009641285379
  outer loop
    vertex 53.43196655010123 15.23804499908023 12.247548783981967
    vertex 52.5882848202699 5.238044999080231 12.387596779167964
    vertex 52.5882848202699 15.23804499908023 12.387596779167964
  endloop
endfacet
facet normal -0.16375545112595516 -0.0 -0.9865009641285379
  outer loop
    vertex 52.5882848202699 5.238044999080231 12.387596779167964
    vertex 53.43196655010123 15.23804499908023 12.247548783981967
    vertex 53.43196655010123 5.238044999080231 12.247548783981967
  endloop
endfacet
facet normal 0.354044187308146 -3.730684801392083e-20 -0.9352286957922722
  outer loop
    vertex 46.68228912246118 15.23804499908023 11.802787957889866
    vertex 45.882456793304826 5.238044999080229 11.500000000000002
    vertex 45.882456793304826 15.23804499908023 11.500000000000002
  endloop
endfacet
facet normal 0.354044187308146 -3.730684801392083e-20 -0.9352286957922722
  outer loop
    vertex 45.882456793304826 5.238044999080229 11.500000000000002
    vertex 46.68228912246118 15.23804499908023 11.802787957889866
    vertex 46.68228912246118 5.238044999080231 11.802787957889866
  endloop
endfacet
endsolid Spring_Connector
