solid AutoSave_Spring_Connector
facet normal -4.864442182395148e-15 4.934941344458852e-16 -1.0
  outer loop
    vertex 152.99630072792783 55.43268898494964 0.0
    vertex 152.49630072792783 57.43268898494962 3.1724622928663847e-15
    vertex 152.99630072792783 59.432688984949635 2.46747067222941e-15
  endloop
endfacet
facet normal -0.9701425001453319 0.24253562503633297 0.0
  outer loop
    vertex 152.99630072792783 67.43268898494962 6.99999999999999
    vertex 152.49630072792783 65.43268898494962 1.762479051592436e-15
    vertex 152.49630072792783 65.43268898494962 6.99999999999999
  endloop
endfacet
facet normal -0.9701425001453319 0.24253562503633297 0.0
  outer loop
    vertex 152.49630072792783 65.43268898494962 1.762479051592436e-15
    vertex 152.99630072792783 67.43268898494962 6.99999999999999
    vertex 152.99630072792783 67.43268898494962 1.762479051592436e-15
  endloop
endfacet
facet normal 1.0574874309554634e-15 -4.406197628981098e-16 -1.0
  outer loop
    vertex 152.99630072792783 67.43268898494962 1.762479051592436e-15
    vertex 152.49630072792783 69.43268898494962 3.524958103184872e-16
    vertex 152.99630072792783 71.43268898494962 0.0
  endloop
endfacet
facet normal -0.9701425001453319 -0.24253562503633297 0.0
  outer loop
    vertex 152.49630072792783 61.432688984949635 6.999999999999991
    vertex 152.99630072792783 59.432688984949635 2.46747067222941e-15
    vertex 152.99630072792783 59.432688984949635 6.999999999999991
  endloop
endfacet
facet normal -0.9701425001453319 -0.24253562503633297 0.0
  outer loop
    vertex 152.99630072792783 59.432688984949635 2.46747067222941e-15
    vertex 152.49630072792783 61.432688984949635 6.999999999999991
    vertex 152.49630072792783 61.432688984949635 2.46747067222941e-15
  endloop
endfacet
facet normal 1.0 -0.0 -0.0
  outer loop
    vertex 158.49630072792783 66.4326889849496 3.499999999999992
    vertex 158.49630072792783 65.14046347375941 5.499999999999993
    vertex 158.49630072792783 65.14046347375941 3.499999999999993
  endloop
endfacet
facet normal 1.0 -0.0 -0.0
  outer loop
    vertex 158.49630072792783 65.14046347375941 5.499999999999993
    vertex 158.49630072792783 66.4326889849496 3.499999999999992
    vertex 158.49630072792783 66.4326889849496 5.49999999999999
  endloop
endfacet
facet normal -0.6087614290087159 -0.793353340291239 -0.0
  outer loop
    vertex 157.74630072792783 55.535574667919654 6.499999999999996
    vertex 156.81432021258837 56.25070846961015 5.499999999999991
    vertex 157.74630072792783 55.535574667919654 5.499999999999991
  endloop
endfacet
facet normal -0.6087614290087159 -0.793353340291239 -0.0
  outer loop
    vertex 156.81432021258837 56.25070846961015 5.499999999999991
    vertex 157.74630072792783 55.535574667919654 6.499999999999996
    vertex 156.81432021258837 56.25070846961015 6.499999999999996
  endloop
endfacet
facet normal -0.563390291354741 -0.4323045753218246 -0.7040625922196387
  outer loop
    vertex 157.39822451657452 57.93268898494963 3.99999999999999
    vertex 156.81432021258837 56.25070846961015 5.499999999999991
    vertex 156.0991864108979 57.18268898494962 5.499999999999991
  endloop
endfacet
facet normal -0.563390291354741 -0.4323045753218246 -0.7040625922196387
  outer loop
    vertex 156.81432021258837 56.25070846961015 5.499999999999991
    vertex 157.39822451657452 57.93268898494963 3.99999999999999
    vertex 157.8749803843682 57.31136864138999 3.99999999999999
  endloop
endfacet
facet normal 0.27175801689781565 0.6560818900783133 -0.7040625922196369
  outer loop
    vertex 162.24630072792783 63.3298033019796 5.499999999999993
    vertex 161.49630072792783 62.03076519630294 3.99999999999999
    vertex 161.49630072792783 63.640463473759425 5.499999999999993
  endloop
endfacet
facet normal 0.9914448613738094 0.1305261922200597 -1.5768357391046e-29
  outer loop
    vertex 162.89407820679503 60.20914612025718 3.4999999999999893
    vertex 162.99630072792783 59.43268898494963 3.99999999999999
    vertex 162.99630072792783 59.43268898494963 3.4999999999999893
  endloop
endfacet
facet normal 0.9914448613738094 0.1305261922200597 -1.5768357391046e-29
  outer loop
    vertex 162.99630072792783 59.43268898494963 3.99999999999999
    vertex 162.89407820679503 60.20914612025718 3.4999999999999893
    vertex 162.89407820679503 60.20914612025718 3.99999999999999
  endloop
endfacet
facet normal 0.6087614290087219 0.7933533402912343 0.0
  outer loop
    vertex 162.24630072792783 63.3298033019796 6.499999999999992
    vertex 163.1782812432673 62.61466950028909 5.499999999999993
    vertex 162.24630072792783 63.3298033019796 5.499999999999993
  endloop
endfacet
facet normal 0.6087614290087219 0.7933533402912343 0.0
  outer loop
    vertex 163.1782812432673 62.61466950028909 5.499999999999993
    vertex 162.24630072792783 63.3298033019796 6.499999999999992
    vertex 163.1782812432673 62.61466950028909 6.499999999999992
  endloop
endfacet
facet normal -1.0 0.0 0.0
  outer loop
    vertex 161.49630072792783 66.4326889849496 5.49999999999999
    vertex 161.49630072792783 65.14046347375941 3.4999999999999893
    vertex 161.49630072792783 65.14046347375941 5.499999999999991
  endloop
endfacet
facet normal -1.0 0.0 0.0
  outer loop
    vertex 161.49630072792783 65.14046347375941 3.4999999999999893
    vertex 161.49630072792783 66.4326889849496 5.49999999999999
    vertex 161.49630072792783 66.4326889849496 3.4999999999999893
  endloop
endfacet
facet normal -0.6560818900783136 0.27175801689781476 -0.704062592219637
  outer loop
    vertex 155.99563302030458 61.43268898494962 5.499999999999993
    vertex 157.09852324906063 60.20914612025718 3.99999999999999
    vertex 155.89179041073857 60.53248920976568 5.249301763633475
  endloop
endfacet
facet normal -0.6560818900783136 0.27175801689781476 -0.704062592219637
  outer loop
    vertex 157.09852324906063 60.20914612025718 3.99999999999999
    vertex 155.99563302030458 61.43268898494962 5.499999999999993
    vertex 156.0991864108979 61.68268898494962 5.499999999999991
  endloop
endfacet
facet normal -0.6560818900783136 0.27175801689781476 -0.704062592219637
  outer loop
    vertex 157.09852324906063 60.20914612025718 3.99999999999999
    vertex 156.0991864108979 61.68268898494962 5.499999999999991
    vertex 157.39822451657452 60.93268898494962 3.99999999999999
  endloop
endfacet
facet normal -0.27175801689781537 -0.656081890078313 -0.7040625922196373
  outer loop
    vertex 158.49630072792783 55.22491449613983 5.499999999999991
    vertex 157.74630072792783 55.535574667919654 5.499999999999991
    vertex 158.49630072792783 56.83461277359631 3.99999999999999
  endloop
endfacet
facet normal 0.7933533402912325 0.6087614290087242 2.1290940123097128e-17
  outer loop
    vertex 162.11762107148746 61.55400932850927 3.4999999999999893
    vertex 162.59437693928115 60.93268898494962 3.99999999999999
    vertex 162.59437693928115 60.93268898494962 3.4999999999999893
  endloop
endfacet
facet normal 0.7933533402912325 0.6087614290087242 2.1290940123097128e-17
  outer loop
    vertex 162.59437693928115 60.93268898494962 3.99999999999999
    vertex 162.11762107148746 61.55400932850927 3.4999999999999893
    vertex 162.11762107148746 61.55400932850927 3.99999999999999
  endloop
endfacet
facet normal -0.7933533402912325 0.6087614290087242 -2.1290940123097128e-17
  outer loop
    vertex 157.8749803843682 61.55400932850927 3.99999999999999
    vertex 157.39822451657452 60.93268898494962 3.4999999999999893
    vertex 157.39822451657452 60.93268898494962 3.99999999999999
  endloop
endfacet
facet normal -0.7933533402912325 0.6087614290087242 -2.1290940123097128e-17
  outer loop
    vertex 157.39822451657452 60.93268898494962 3.4999999999999893
    vertex 157.8749803843682 61.55400932850927 3.99999999999999
    vertex 157.8749803843682 61.55400932850927 3.4999999999999893
  endloop
endfacet
facet normal 0.6087614290087172 -0.7933533402912379 0.0
  outer loop
    vertex 162.11762107148746 57.31136864138999 3.99999999999999
    vertex 161.49630072792783 56.83461277359631 3.4999999999999893
    vertex 162.11762107148746 57.31136864138999 3.4999999999999893
  endloop
endfacet
facet normal 0.6087614290087172 -0.7933533402912379 0.0
  outer loop
    vertex 161.49630072792783 56.83461277359631 3.4999999999999893
    vertex 162.11762107148746 57.31136864138999 3.99999999999999
    vertex 161.49630072792783 56.83461277359631 3.99999999999999
  endloop
endfacet
facet normal 0.6087614290087172 0.7933533402912377 -0.0
  outer loop
    vertex 161.49630072792783 62.03076519630294 3.99999999999999
    vertex 162.11762107148746 61.55400932850927 3.4999999999999893
    vertex 161.49630072792783 62.03076519630294 3.4999999999999893
  endloop
endfacet
facet normal 0.6087614290087172 0.7933533402912377 -0.0
  outer loop
    vertex 162.11762107148746 61.55400932850927 3.4999999999999893
    vertex 161.49630072792783 62.03076519630294 3.99999999999999
    vertex 162.11762107148746 61.55400932850927 3.99999999999999
  endloop
endfacet
facet normal -0.4323045753218246 0.563390291354741 -0.7040625922196387
  outer loop
    vertex 157.74630072792783 63.3298033019796 5.499999999999991
    vertex 157.8749803843682 61.55400932850927 3.99999999999999
    vertex 156.81432021258837 62.61466950028909 5.499999999999991
  endloop
endfacet
facet normal -0.4323045753218246 0.563390291354741 -0.7040625922196387
  outer loop
    vertex 157.8749803843682 61.55400932850927 3.99999999999999
    vertex 157.74630072792783 63.3298033019796 5.499999999999991
    vertex 158.49630072792783 62.03076519630294 3.99999999999999
  endloop
endfacet
facet normal 0.7933533402912325 -0.6087614290087242 -2.1290940123097128e-17
  outer loop
    vertex 162.59437693928115 57.93268898494963 3.4999999999999893
    vertex 162.11762107148746 57.31136864138999 3.99999999999999
    vertex 162.11762107148746 57.31136864138999 3.4999999999999893
  endloop
endfacet
facet normal 0.7933533402912325 -0.6087614290087242 -2.1290940123097128e-17
  outer loop
    vertex 162.11762107148746 57.31136864138999 3.99999999999999
    vertex 162.59437693928115 57.93268898494963 3.4999999999999893
    vertex 162.59437693928115 57.93268898494963 3.99999999999999
  endloop
endfacet
facet normal 0.7933533402912307 0.6087614290087264 -1.6987096706829556e-16
  outer loop
    vertex 163.1782812432673 62.61466950028909 5.499999999999993
    vertex 163.89341504495783 61.682688984949635 5.749999999999992
    vertex 163.89341504495783 61.682688984949635 5.499999999999993
  endloop
endfacet
facet normal 0.7933533402912307 0.6087614290087264 -1.6987096706829556e-16
  outer loop
    vertex 163.89341504495783 61.682688984949635 5.749999999999992
    vertex 163.1782812432673 62.61466950028909 5.499999999999993
    vertex 163.3179198039736 62.43268898494961 6.499999999999991
  endloop
endfacet
facet normal 0.7933533402912307 0.6087614290087264 -1.6987096706829556e-16
  outer loop
    vertex 163.3179198039736 62.43268898494961 6.499999999999991
    vertex 163.1782812432673 62.61466950028909 5.499999999999993
    vertex 163.1782812432673 62.61466950028909 6.499999999999992
  endloop
endfacet
facet normal -0.9238795325112827 -9.97975680219446e-16 0.3826834323650996
  outer loop
    vertex 156.0991864108979 61.68268898494962 5.749999999999991
    vertex 155.9956330203046 57.432688984949586 5.500000000000005
    vertex 156.0991864108979 57.18268898494962 5.749999999999991
  endloop
endfacet
facet normal -0.9238795325112827 -9.97975680219446e-16 0.3826834323650996
  outer loop
    vertex 155.9956330203046 57.432688984949586 5.500000000000005
    vertex 156.0991864108979 61.68268898494962 5.749999999999991
    vertex 155.89179041073857 58.332888760133535 5.249301763633482
  endloop
endfacet
facet normal -0.9238795325112827 -9.97975680219446e-16 0.3826834323650996
  outer loop
    vertex 155.89179041073857 58.332888760133535 5.249301763633482
    vertex 156.0991864108979 61.68268898494962 5.749999999999991
    vertex 155.84938197793284 59.432688984949614 5.146918749994962
  endloop
endfacet
facet normal -0.9238795325112827 -9.97975680219446e-16 0.3826834323650996
  outer loop
    vertex 155.84938197793284 59.432688984949614 5.146918749994962
    vertex 156.0991864108979 61.68268898494962 5.749999999999991
    vertex 155.89179041073857 60.53248920976568 5.249301763633475
  endloop
endfacet
facet normal -0.9238795325112827 -9.97975680219446e-16 0.3826834323650996
  outer loop
    vertex 155.89179041073857 60.53248920976568 5.249301763633475
    vertex 156.0991864108979 61.68268898494962 5.749999999999991
    vertex 155.99563302030458 61.43268898494962 5.499999999999993
  endloop
endfacet
facet normal -0.9238795325112854 0.3826834323650931 1.4693769893288883e-29
  outer loop
    vertex 157.39822451657452 60.93268898494962 3.99999999999999
    vertex 157.09852324906063 60.20914612025718 3.4999999999999893
    vertex 157.09852324906063 60.20914612025718 3.99999999999999
  endloop
endfacet
facet normal -0.9238795325112854 0.3826834323650931 1.4693769893288883e-29
  outer loop
    vertex 157.09852324906063 60.20914612025718 3.4999999999999893
    vertex 157.39822451657452 60.93268898494962 3.99999999999999
    vertex 157.39822451657452 60.93268898494962 3.4999999999999893
  endloop
endfacet
facet normal 1.2223171942024263e-16 2.032931200854981e-17 1.0
  outer loop
    vertex 156.81432021258837 56.25070846961015 6.499999999999996
    vertex 156.67468165188208 62.4326889849496 6.499999999999996
    vertex 156.67468165188208 56.43268898494962 6.499999999999996
  endloop
endfacet
facet normal 1.2223171942024263e-16 2.032931200854981e-17 1.0
  outer loop
    vertex 156.67468165188208 62.4326889849496 6.499999999999996
    vertex 156.81432021258837 56.25070846961015 6.499999999999996
    vertex 156.81432021258837 62.61466950028909 6.499999999999996
  endloop
endfacet
facet normal 1.2223171942024263e-16 2.032931200854981e-17 1.0
  outer loop
    vertex 156.81432021258837 62.61466950028909 6.499999999999996
    vertex 156.81432021258837 56.25070846961015 6.499999999999996
    vertex 157.74630072792783 63.3298033019796 6.499999999999996
  endloop
endfacet
facet normal 1.2223171942024263e-16 2.032931200854981e-17 1.0
  outer loop
    vertex 157.74630072792783 63.3298033019796 6.499999999999996
    vertex 156.81432021258837 56.25070846961015 6.499999999999996
    vertex 157.74630072792783 55.535574667919654 6.499999999999996
  endloop
endfacet
facet normal 1.2223171942024263e-16 2.032931200854981e-17 1.0
  outer loop
    vertex 157.74630072792783 63.3298033019796 6.499999999999996
    vertex 157.74630072792783 55.535574667919654 6.499999999999996
    vertex 158.49630072792783 63.640463473759425 6.499999999999996
  endloop
endfacet
facet normal 1.2223171942024263e-16 2.032931200854981e-17 1.0
  outer loop
    vertex 158.49630072792783 63.640463473759425 6.499999999999996
    vertex 157.74630072792783 55.535574667919654 6.499999999999996
    vertex 158.49630072792783 55.22491449613983 6.499999999999996
  endloop
endfacet
facet normal -0.6087614290087312 -0.7933533402912272 0.0
  outer loop
    vertex 158.49630072792783 56.83461277359631 3.99999999999999
    vertex 157.8749803843682 57.31136864138999 3.4999999999999893
    vertex 158.49630072792783 56.83461277359631 3.4999999999999893
  endloop
endfacet
facet normal -0.6087614290087312 -0.7933533402912272 0.0
  outer loop
    vertex 157.8749803843682 57.31136864138999 3.4999999999999893
    vertex 158.49630072792783 56.83461277359631 3.99999999999999
    vertex 157.8749803843682 57.31136864138999 3.99999999999999
  endloop
endfacet
facet normal 0.43230457532182565 0.5633902913547426 -0.7040625922196367
  outer loop
    vertex 162.24630072792783 63.3298033019796 5.499999999999993
    vertex 162.11762107148746 61.55400932850927 3.99999999999999
    vertex 161.49630072792783 62.03076519630294 3.99999999999999
  endloop
endfacet
facet normal 0.43230457532182565 0.5633902913547426 -0.7040625922196367
  outer loop
    vertex 162.11762107148746 61.55400932850927 3.99999999999999
    vertex 162.24630072792783 63.3298033019796 5.499999999999993
    vertex 163.1782812432673 62.61466950028909 5.499999999999993
  endloop
endfacet
facet normal -1.9231354234389613e-16 -1.5114684793768328e-16 1.0
  outer loop
    vertex 156.49630072792783 55.43268898494962 3.4999999999999902
    vertex 156.99630072792786 59.43268898494963 3.4999999999999893
    vertex 156.49630072792783 65.14046347375941 3.4999999999999902
  endloop
endfacet
facet normal -1.9231354234389613e-16 -1.5114684793768328e-16 1.0
  outer loop
    vertex 156.99630072792786 59.43268898494963 3.4999999999999893
    vertex 156.49630072792783 55.43268898494962 3.4999999999999902
    vertex 157.09852324906063 58.65623184964206 3.4999999999999893
  endloop
endfacet
facet normal -1.9231354234389613e-16 -1.5114684793768328e-16 1.0
  outer loop
    vertex 157.09852324906063 58.65623184964206 3.4999999999999893
    vertex 156.49630072792783 55.43268898494962 3.4999999999999902
    vertex 157.39822451657452 57.93268898494963 3.4999999999999893
  endloop
endfacet
facet normal -1.9231354234389613e-16 -1.5114684793768328e-16 1.0
  outer loop
    vertex 157.39822451657452 57.93268898494963 3.4999999999999893
    vertex 156.49630072792783 55.43268898494962 3.4999999999999902
    vertex 158.49630072792783 55.43268898494962 3.4999999999999893
  endloop
endfacet
facet normal -1.9231354234389613e-16 -1.5114684793768328e-16 1.0
  outer loop
    vertex 157.39822451657452 57.93268898494963 3.4999999999999893
    vertex 158.49630072792783 55.43268898494962 3.4999999999999893
    vertex 157.8749803843682 57.31136864138999 3.4999999999999893
  endloop
endfacet
facet normal -1.9231354234389613e-16 -1.5114684793768328e-16 1.0
  outer loop
    vertex 157.8749803843682 57.31136864138999 3.4999999999999893
    vertex 158.49630072792783 55.43268898494962 3.4999999999999893
    vertex 158.49630072792783 56.83461277359631 3.4999999999999893
  endloop
endfacet
facet normal -1.9231354234389613e-16 -1.5114684793768328e-16 1.0
  outer loop
    vertex 156.49630072792783 65.14046347375941 3.4999999999999902
    vertex 157.09852324906063 60.20914612025718 3.4999999999999893
    vertex 158.49630072792783 65.14046347375941 3.499999999999993
  endloop
endfacet
facet normal -1.9231354234389613e-16 -1.5114684793768328e-16 1.0
  outer loop
    vertex 157.09852324906063 60.20914612025718 3.4999999999999893
    vertex 156.49630072792783 65.14046347375941 3.4999999999999902
    vertex 156.99630072792786 59.43268898494963 3.4999999999999893
  endloop
endfacet
facet normal -1.9231354234389613e-16 -1.5114684793768328e-16 1.0
  outer loop
    vertex 158.49630072792783 65.14046347375941 3.499999999999993
    vertex 157.09852324906063 60.20914612025718 3.4999999999999893
    vertex 157.39822451657452 60.93268898494962 3.4999999999999893
  endloop
endfacet
facet normal -1.9231354234389613e-16 -1.5114684793768328e-16 1.0
  outer loop
    vertex 158.49630072792783 65.14046347375941 3.499999999999993
    vertex 157.39822451657452 60.93268898494962 3.4999999999999893
    vertex 157.8749803843682 61.55400932850927 3.4999999999999893
  endloop
endfacet
facet normal -1.9231354234389613e-16 -1.5114684793768328e-16 1.0
  outer loop
    vertex 158.49630072792783 65.14046347375941 3.499999999999993
    vertex 157.8749803843682 61.55400932850927 3.4999999999999893
    vertex 158.49630072792783 62.03076519630294 3.4999999999999893
  endloop
endfacet
facet normal -0.7933533402912325 -0.6087614290087242 -2.1290940123097128e-17
  outer loop
    vertex 157.39822451657452 57.93268898494963 3.99999999999999
    vertex 157.8749803843682 57.31136864138999 3.4999999999999893
    vertex 157.8749803843682 57.31136864138999 3.99999999999999
  endloop
endfacet
facet normal -0.7933533402912325 -0.6087614290087242 -2.1290940123097128e-17
  outer loop
    vertex 157.8749803843682 57.31136864138999 3.4999999999999893
    vertex 157.39822451657452 57.93268898494963 3.99999999999999
    vertex 157.39822451657452 57.93268898494963 3.4999999999999893
  endloop
endfacet
facet normal 0.9914448613738114 -0.13052619222004555 0.0
  outer loop
    vertex 162.99630072792783 59.43268898494963 3.4999999999999893
    vertex 162.89407820679506 58.65623184964207 3.99999999999999
    vertex 162.89407820679506 58.65623184964207 3.4999999999999893
  endloop
endfacet
facet normal 0.9914448613738114 -0.13052619222004555 0.0
  outer loop
    vertex 162.89407820679506 58.65623184964207 3.99999999999999
    vertex 162.99630072792783 59.43268898494963 3.4999999999999893
    vertex 162.99630072792783 59.43268898494963 3.99999999999999
  endloop
endfacet
facet normal 0.563390291354744 -0.43230457532182226 -0.7040625922196376
  outer loop
    vertex 162.59437693928115 57.93268898494963 3.99999999999999
    vertex 163.1782812432673 56.25070846961017 5.499999999999993
    vertex 162.11762107148746 57.31136864138999 3.99999999999999
  endloop
endfacet
facet normal 0.563390291354744 -0.43230457532182226 -0.7040625922196376
  outer loop
    vertex 163.1782812432673 56.25070846961017 5.499999999999993
    vertex 162.59437693928115 57.93268898494963 3.99999999999999
    vertex 163.89341504495783 57.18268898494963 5.499999999999993
  endloop
endfacet
facet normal -0.6087614290087219 0.7933533402912343 0.0
  outer loop
    vertex 156.81432021258837 62.61466950028909 6.499999999999996
    vertex 157.74630072792783 63.3298033019796 5.499999999999991
    vertex 156.81432021258837 62.61466950028909 5.499999999999991
  endloop
endfacet
facet normal -0.6087614290087219 0.7933533402912343 0.0
  outer loop
    vertex 157.74630072792783 63.3298033019796 5.499999999999991
    vertex 156.81432021258837 62.61466950028909 6.499999999999996
    vertex 157.74630072792783 63.3298033019796 6.499999999999996
  endloop
endfacet
facet normal 2.1080959481684303e-15 -1.0 -2.3703141021140996e-15
  outer loop
    vertex 166.99630072792783 55.43268898494962 6.99999999999999
    vertex 165.49630072792783 55.43268898494962 1.4999999999999898
    vertex 166.99630072792783 55.43268898494964 7.049916206369744e-16
  endloop
endfacet
facet normal 2.1080959481684303e-15 -1.0 -2.3703141021140996e-15
  outer loop
    vertex 165.49630072792783 55.43268898494962 1.4999999999999898
    vertex 166.99630072792783 55.43268898494962 6.99999999999999
    vertex 163.49630072792783 55.43268898494962 3.4999999999999902
  endloop
endfacet
facet normal 2.1080959481684303e-15 -1.0 -2.3703141021140996e-15
  outer loop
    vertex 165.49630072792783 55.43268898494962 1.4999999999999898
    vertex 163.49630072792783 55.43268898494962 3.4999999999999902
    vertex 161.49630072792783 55.43268898494962 3.4999999999999893
  endloop
endfacet
facet normal 2.1080959481684303e-15 -1.0 -2.3703141021140996e-15
  outer loop
    vertex 161.49630072792783 55.43268898494962 3.4999999999999893
    vertex 161.49630072792783 55.43268898494962 1.4999999999999896
    vertex 165.49630072792783 55.43268898494962 1.4999999999999898
  endloop
endfacet
facet normal 0.9701425001453319 -0.24253562503633302 2.7697919752914764e-18
  outer loop
    vertex 167.49630072792786 69.43268898494962 1.0574874309554614e-15
    vertex 166.99630072792783 67.43268898494962 6.99999999999999
    vertex 166.99630072792783 67.43268898494962 3.524958103184872e-16
  endloop
endfacet
facet normal 0.9701425001453319 -0.24253562503633302 2.7697919752914764e-18
  outer loop
    vertex 166.99630072792783 67.43268898494962 6.99999999999999
    vertex 167.49630072792786 69.43268898494962 1.0574874309554614e-15
    vertex 167.49630072792786 69.43268898494962 6.99999999999999
  endloop
endfacet
facet normal 7.049916206369677e-16 1.7624790515924389e-16 1.0
  outer loop
    vertex 152.99630072792783 59.432688984949635 6.999999999999991
    vertex 152.49630072792783 57.43268898494962 6.999999999999991
    vertex 152.99630072792783 55.43268898494964 6.999999999999991
  endloop
endfacet
facet normal 0.9701425001453319 0.24253562503633297 0.0
  outer loop
    vertex 166.99630072792783 63.43268898494963 1.0574874309554614e-15
    vertex 167.49630072792786 61.432688984949635 6.99999999999999
    vertex 167.49630072792786 61.432688984949635 1.0574874309554614e-15
  endloop
endfacet
facet normal 0.9701425001453319 0.24253562503633297 0.0
  outer loop
    vertex 167.49630072792786 61.432688984949635 6.99999999999999
    vertex 166.99630072792783 63.43268898494963 1.0574874309554614e-15
    vertex 166.99630072792783 63.43268898494963 6.99999999999999
  endloop
endfacet
facet normal 0.7071067811865474 3.5721818192213455e-17 -0.7071067811865477
  outer loop
    vertex 154.49630072792783 71.43268898494962 1.4999999999999991
    vertex 152.99630072792783 67.43268898494962 1.762479051592436e-15
    vertex 152.99630072792783 71.43268898494962 0.0
  endloop
endfacet
facet normal 0.7071067811865474 3.5721818192213455e-17 -0.7071067811865477
  outer loop
    vertex 152.99630072792783 67.43268898494962 1.762479051592436e-15
    vertex 154.49630072792783 71.43268898494962 1.4999999999999991
    vertex 152.99630072792783 63.43268898494963 1.762479051592436e-15
  endloop
endfacet
facet normal 0.7071067811865474 3.5721818192213455e-17 -0.7071067811865477
  outer loop
    vertex 152.99630072792783 63.43268898494963 1.762479051592436e-15
    vertex 154.49630072792783 71.43268898494962 1.4999999999999991
    vertex 152.99630072792783 59.432688984949635 2.46747067222941e-15
  endloop
endfacet
facet normal 0.7071067811865474 3.5721818192213455e-17 -0.7071067811865477
  outer loop
    vertex 152.99630072792783 59.432688984949635 2.46747067222941e-15
    vertex 154.49630072792783 71.43268898494962 1.4999999999999991
    vertex 152.99630072792783 55.43268898494964 0.0
  endloop
endfacet
facet normal 0.7071067811865474 3.5721818192213455e-17 -0.7071067811865477
  outer loop
    vertex 152.99630072792783 55.43268898494964 0.0
    vertex 154.49630072792783 71.43268898494962 1.4999999999999991
    vertex 154.49630072792783 55.43268898494964 1.4999999999999971
  endloop
endfacet
facet normal -0.9701425001453319 -0.24253562503633297 0.0
  outer loop
    vertex 152.49630072792783 69.43268898494962 6.99999999999999
    vertex 152.99630072792783 67.43268898494962 1.762479051592436e-15
    vertex 152.99630072792783 67.43268898494962 6.99999999999999
  endloop
endfacet
facet normal -0.9701425001453319 -0.24253562503633297 0.0
  outer loop
    vertex 152.99630072792783 67.43268898494962 1.762479051592436e-15
    vertex 152.49630072792783 69.43268898494962 6.99999999999999
    vertex 152.49630072792783 69.43268898494962 3.524958103184872e-16
  endloop
endfacet
facet normal -0.9701425001453319 0.24253562503633297 0.0
  outer loop
    vertex 152.99630072792783 71.43268898494962 6.999999999999991
    vertex 152.49630072792783 69.43268898494962 3.524958103184872e-16
    vertex 152.49630072792783 69.43268898494962 6.99999999999999
  endloop
endfacet
facet normal -0.9701425001453319 0.24253562503633297 0.0
  outer loop
    vertex 152.49630072792783 69.43268898494962 3.524958103184872e-16
    vertex 152.99630072792783 71.43268898494962 6.999999999999991
    vertex 152.99630072792783 71.43268898494962 0.0
  endloop
endfacet
facet normal 0.9701425001453319 -0.24253562503633302 -2.769791975291163e-18
  outer loop
    vertex 167.49630072792786 65.43268898494962 3.524958103184872e-16
    vertex 166.99630072792783 63.43268898494963 6.99999999999999
    vertex 166.99630072792783 63.43268898494963 1.0574874309554614e-15
  endloop
endfacet
facet normal 0.9701425001453319 -0.24253562503633302 -2.769791975291163e-18
  outer loop
    vertex 166.99630072792783 63.43268898494963 6.99999999999999
    vertex 167.49630072792786 65.43268898494962 3.524958103184872e-16
    vertex 167.49630072792786 65.43268898494962 6.99999999999999
  endloop
endfacet
facet normal 1.436057445871856e-16 5.00080561351487e-17 1.0
  outer loop
    vertex 165.49630072792783 65.14046347375941 5.49999999999999
    vertex 161.49630072792783 66.4326889849496 5.49999999999999
    vertex 161.49630072792783 65.14046347375941 5.499999999999991
  endloop
endfacet
facet normal 1.436057445871856e-16 5.00080561351487e-17 1.0
  outer loop
    vertex 158.49630072792783 65.14046347375941 5.499999999999993
    vertex 154.49630072792783 71.43268898494962 5.499999999999991
    vertex 154.49630072792783 65.14046347375941 5.499999999999991
  endloop
endfacet
facet normal 1.436057445871856e-16 5.00080561351487e-17 1.0
  outer loop
    vertex 154.49630072792783 71.43268898494962 5.499999999999991
    vertex 158.49630072792783 65.14046347375941 5.499999999999993
    vertex 158.49630072792783 66.4326889849496 5.49999999999999
  endloop
endfacet
facet normal 1.436057445871856e-16 5.00080561351487e-17 1.0
  outer loop
    vertex 154.49630072792783 71.43268898494962 5.499999999999991
    vertex 158.49630072792783 66.4326889849496 5.49999999999999
    vertex 165.49630072792783 71.43268898494962 5.49999999999999
  endloop
endfacet
facet normal 1.436057445871856e-16 5.00080561351487e-17 1.0
  outer loop
    vertex 165.49630072792783 71.43268898494962 5.49999999999999
    vertex 158.49630072792783 66.4326889849496 5.49999999999999
    vertex 161.49630072792783 66.4326889849496 5.49999999999999
  endloop
endfacet
facet normal 1.436057445871856e-16 5.00080561351487e-17 1.0
  outer loop
    vertex 165.49630072792783 71.43268898494962 5.49999999999999
    vertex 161.49630072792783 66.4326889849496 5.49999999999999
    vertex 165.49630072792783 65.14046347375941 5.49999999999999
  endloop
endfacet
facet normal 0.0 0.0 1.0
  outer loop
    vertex 167.49630072792786 57.43268898494964 6.99999999999999
    vertex 166.99630072792783 59.432688984949635 6.99999999999999
    vertex 166.99630072792783 55.43268898494962 6.99999999999999
  endloop
endfacet
facet normal -0.9701425001453325 0.24253562503633042 -2.107918204100164e-31
  outer loop
    vertex 152.99630072792783 59.432688984949635 6.999999999999991
    vertex 152.49630072792783 57.43268898494962 3.1724622928663847e-15
    vertex 152.49630072792783 57.43268898494962 6.999999999999991
  endloop
endfacet
facet normal -0.9701425001453325 0.24253562503633042 -2.107918204100164e-31
  outer loop
    vertex 152.49630072792783 57.43268898494962 3.1724622928663847e-15
    vertex 152.99630072792783 59.432688984949635 6.999999999999991
    vertex 152.99630072792783 59.432688984949635 2.46747067222941e-15
  endloop
endfacet
facet normal -0.9701425001453319 -0.24253562503633297 0.0
  outer loop
    vertex 152.49630072792783 65.43268898494962 6.99999999999999
    vertex 152.99630072792783 63.43268898494963 1.762479051592436e-15
    vertex 152.99630072792783 63.43268898494963 6.99999999999999
  endloop
endfacet
facet normal -0.9701425001453319 -0.24253562503633297 0.0
  outer loop
    vertex 152.99630072792783 63.43268898494963 1.762479051592436e-15
    vertex 152.49630072792783 65.43268898494962 6.99999999999999
    vertex 152.49630072792783 65.43268898494962 1.762479051592436e-15
  endloop
endfacet
facet normal 0.0 0.0 1.0
  outer loop
    vertex 152.99630072792783 67.43268898494962 6.99999999999999
    vertex 152.49630072792783 65.43268898494962 6.99999999999999
    vertex 152.99630072792783 63.43268898494963 6.99999999999999
  endloop
endfacet
facet normal 0.9701425001453312 0.24253562503633555 -7.810813370321514e-16
  outer loop
    vertex 166.99630072792783 71.43268898494962 7.049916206369744e-16
    vertex 167.49630072792786 69.43268898494962 6.99999999999999
    vertex 167.49630072792786 69.43268898494962 1.0574874309554614e-15
  endloop
endfacet
facet normal 0.9701425001453312 0.24253562503633555 -7.810813370321514e-16
  outer loop
    vertex 167.49630072792786 69.43268898494962 6.99999999999999
    vertex 166.99630072792783 71.43268898494962 7.049916206369744e-16
    vertex 166.99630072792783 71.43268898494962 6.99999999999999
  endloop
endfacet
facet normal -0.7071067811865447 1.0166979023937641e-16 -0.7071067811865505
  outer loop
    vertex 166.99630072792783 71.43268898494962 7.049916206369744e-16
    vertex 165.49630072792783 55.43268898494962 1.4999999999999898
    vertex 165.49630072792783 71.43268898494962 1.4999999999999953
  endloop
endfacet
facet normal -0.7071067811865447 1.0166979023937641e-16 -0.7071067811865505
  outer loop
    vertex 165.49630072792783 55.43268898494962 1.4999999999999898
    vertex 166.99630072792783 71.43268898494962 7.049916206369744e-16
    vertex 166.99630072792783 55.43268898494964 7.049916206369744e-16
  endloop
endfacet
facet normal -0.7071067811865447 1.0166979023937641e-16 -0.7071067811865505
  outer loop
    vertex 166.99630072792783 55.43268898494964 7.049916206369744e-16
    vertex 166.99630072792783 71.43268898494962 7.049916206369744e-16
    vertex 166.99630072792783 67.43268898494962 3.524958103184872e-16
  endloop
endfacet
facet normal -0.7071067811865447 1.0166979023937641e-16 -0.7071067811865505
  outer loop
    vertex 166.99630072792783 55.43268898494964 7.049916206369744e-16
    vertex 166.99630072792783 67.43268898494962 3.524958103184872e-16
    vertex 166.99630072792783 63.43268898494963 1.0574874309554614e-15
  endloop
endfacet
facet normal -0.7071067811865447 1.0166979023937641e-16 -0.7071067811865505
  outer loop
    vertex 166.99630072792783 55.43268898494964 7.049916206369744e-16
    vertex 166.99630072792783 63.43268898494963 1.0574874309554614e-15
    vertex 166.99630072792783 59.432688984949635 1.0574874309554614e-15
  endloop
endfacet
facet normal 0.9701425001453319 0.24253562503633297 0.0
  outer loop
    vertex 166.99630072792783 67.43268898494962 3.524958103184872e-16
    vertex 167.49630072792786 65.43268898494962 6.99999999999999
    vertex 167.49630072792786 65.43268898494962 3.524958103184872e-16
  endloop
endfacet
facet normal 0.9701425001453319 0.24253562503633297 0.0
  outer loop
    vertex 167.49630072792786 65.43268898494962 6.99999999999999
    vertex 166.99630072792783 67.43268898494962 3.524958103184872e-16
    vertex 166.99630072792783 67.43268898494962 6.99999999999999
  endloop
endfacet
facet normal 4.934941344458778e-16 7.049916206369621e-17 -1.0
  outer loop
    vertex 167.49630072792786 57.43268898494964 1.0574874309554614e-15
    vertex 166.99630072792783 55.43268898494964 7.049916206369744e-16
    vertex 166.99630072792783 59.432688984949635 1.0574874309554614e-15
  endloop
endfacet
facet normal 0.0 0.0 1.0
  outer loop
    vertex 167.49630072792786 69.43268898494962 6.99999999999999
    vertex 166.99630072792783 71.43268898494962 6.99999999999999
    vertex 166.99630072792783 67.43268898494962 6.99999999999999
  endloop
endfacet
facet normal 7.049916206369756e-16 1.762479051592439e-16 1.0
  outer loop
    vertex 152.99630072792783 63.43268898494963 6.99999999999999
    vertex 152.49630072792783 61.432688984949635 6.999999999999991
    vertex 152.99630072792783 59.432688984949635 6.999999999999991
  endloop
endfacet
facet normal -0.9701425001453312 -0.24253562503633555 4.701484229733413e-31
  outer loop
    vertex 152.49630072792783 57.43268898494962 6.999999999999991
    vertex 152.99630072792783 55.43268898494964 0.0
    vertex 152.99630072792783 55.43268898494964 6.999999999999991
  endloop
endfacet
facet normal -0.9701425001453312 -0.24253562503633555 4.701484229733413e-31
  outer loop
    vertex 152.99630072792783 55.43268898494964 0.0
    vertex 152.49630072792783 57.43268898494962 6.999999999999991
    vertex 152.49630072792783 57.43268898494962 3.1724622928663847e-15
  endloop
endfacet
facet normal -7.049916206369756e-16 -1.762479051592439e-16 -1.0
  outer loop
    vertex 152.99630072792783 59.432688984949635 2.46747067222941e-15
    vertex 152.49630072792783 61.432688984949635 2.46747067222941e-15
    vertex 152.99630072792783 63.43268898494963 1.762479051592436e-15
  endloop
endfacet
facet normal 0.0 1.0 0.0
  outer loop
    vertex 165.49630072792783 71.43268898494962 1.4999999999999953
    vertex 166.99630072792783 71.43268898494962 6.99999999999999
    vertex 166.99630072792783 71.43268898494962 7.049916206369744e-16
  endloop
endfacet
facet normal 0.0 1.0 0.0
  outer loop
    vertex 166.99630072792783 71.43268898494962 6.99999999999999
    vertex 165.49630072792783 71.43268898494962 1.4999999999999953
    vertex 165.49630072792783 71.43268898494962 5.49999999999999
  endloop
endfacet
facet normal 0.0 1.0 0.0
  outer loop
    vertex 165.49630072792783 71.43268898494962 5.49999999999999
    vertex 165.49630072792783 71.43268898494962 1.4999999999999953
    vertex 154.49630072792783 71.43268898494962 1.4999999999999991
  endloop
endfacet
facet normal 0.0 1.0 0.0
  outer loop
    vertex 152.99630072792783 71.43268898494962 6.999999999999991
    vertex 154.49630072792783 71.43268898494962 1.4999999999999991
    vertex 152.99630072792783 71.43268898494962 0.0
  endloop
endfacet
facet normal 0.0 1.0 0.0
  outer loop
    vertex 154.49630072792783 71.43268898494962 1.4999999999999991
    vertex 152.99630072792783 71.43268898494962 6.999999999999991
    vertex 154.49630072792783 71.43268898494962 5.499999999999991
  endloop
endfacet
facet normal 0.0 1.0 0.0
  outer loop
    vertex 154.49630072792783 71.43268898494962 1.4999999999999991
    vertex 154.49630072792783 71.43268898494962 5.499999999999991
    vertex 165.49630072792783 71.43268898494962 5.49999999999999
  endloop
endfacet
facet normal -8.459899447643709e-16 -4.2299497238218544e-16 1.0
  outer loop
    vertex 152.99630072792783 71.43268898494962 6.999999999999991
    vertex 152.49630072792783 69.43268898494962 6.99999999999999
    vertex 152.99630072792783 67.43268898494962 6.99999999999999
  endloop
endfacet
facet normal 0.9701425001453319 -0.24253562503633302 0.0
  outer loop
    vertex 167.49630072792786 61.432688984949635 1.0574874309554614e-15
    vertex 166.99630072792783 59.432688984949635 6.99999999999999
    vertex 166.99630072792783 59.432688984949635 1.0574874309554614e-15
  endloop
endfacet
facet normal 0.9701425001453319 -0.24253562503633302 0.0
  outer loop
    vertex 166.99630072792783 59.432688984949635 6.99999999999999
    vertex 167.49630072792786 61.432688984949635 1.0574874309554614e-15
    vertex 167.49630072792786 61.432688984949635 6.99999999999999
  endloop
endfacet
facet normal -0.9701425001453319 0.24253562503633297 0.0
  outer loop
    vertex 152.99630072792783 63.43268898494963 6.99999999999999
    vertex 152.49630072792783 61.432688984949635 2.46747067222941e-15
    vertex 152.49630072792783 61.432688984949635 6.999999999999991
  endloop
endfacet
facet normal -0.9701425001453319 0.24253562503633297 0.0
  outer loop
    vertex 152.49630072792783 61.432688984949635 2.46747067222941e-15
    vertex 152.99630072792783 63.43268898494963 6.99999999999999
    vertex 152.99630072792783 63.43268898494963 1.762479051592436e-15
  endloop
endfacet
facet normal -7.049916206369756e-16 -1.762479051592439e-16 -1.0
  outer loop
    vertex 167.49630072792786 65.43268898494962 3.524958103184872e-16
    vertex 166.99630072792783 63.43268898494963 1.0574874309554614e-15
    vertex 166.99630072792783 67.43268898494962 3.524958103184872e-16
  endloop
endfacet
facet normal 0.0 0.0 1.0
  outer loop
    vertex 167.49630072792786 61.432688984949635 6.99999999999999
    vertex 166.99630072792783 63.43268898494963 6.99999999999999
    vertex 166.99630072792783 59.432688984949635 6.99999999999999
  endloop
endfacet
facet normal 0.0 0.0 -1.0
  outer loop
    vertex 152.99630072792783 63.43268898494963 1.762479051592436e-15
    vertex 152.49630072792783 65.43268898494962 1.762479051592436e-15
    vertex 152.99630072792783 67.43268898494962 1.762479051592436e-15
  endloop
endfacet
facet normal 0.0 0.0 -1.0
  outer loop
    vertex 167.49630072792786 61.432688984949635 1.0574874309554614e-15
    vertex 166.99630072792783 59.432688984949635 1.0574874309554614e-15
    vertex 166.99630072792783 63.43268898494963 1.0574874309554614e-15
  endloop
endfacet
facet normal 0.9701425001453319 -0.24253562503633297 -1.1743917975235193e-15
  outer loop
    vertex 166.99630072792783 55.43268898494964 7.049916206369744e-16
    vertex 167.49630072792786 57.43268898494964 6.99999999999999
    vertex 166.99630072792783 55.43268898494962 6.99999999999999
  endloop
endfacet
facet normal 0.9701425001453319 -0.24253562503633297 -1.1743917975235193e-15
  outer loop
    vertex 167.49630072792786 57.43268898494964 6.99999999999999
    vertex 166.99630072792783 55.43268898494964 7.049916206369744e-16
    vertex 167.49630072792786 57.43268898494964 1.0574874309554614e-15
  endloop
endfacet
facet normal 0.9701425001453319 0.24253562503633297 0.0
  outer loop
    vertex 166.99630072792783 59.432688984949635 1.0574874309554614e-15
    vertex 167.49630072792786 57.43268898494964 6.99999999999999
    vertex 167.49630072792786 57.43268898494964 1.0574874309554614e-15
  endloop
endfacet
facet normal 0.9701425001453319 0.24253562503633297 0.0
  outer loop
    vertex 167.49630072792786 57.43268898494964 6.99999999999999
    vertex 166.99630072792783 59.432688984949635 1.0574874309554614e-15
    vertex 166.99630072792783 59.432688984949635 6.99999999999999
  endloop
endfacet
facet normal 0.0 0.0 1.0
  outer loop
    vertex 167.49630072792786 65.43268898494962 6.99999999999999
    vertex 166.99630072792783 67.43268898494962 6.99999999999999
    vertex 166.99630072792783 63.43268898494963 6.99999999999999
  endloop
endfacet
facet normal 0.0 -1.0 0.0
  outer loop
    vertex 161.49630072792783 66.4326889849496 3.4999999999999893
    vertex 158.49630072792783 66.4326889849496 1.4999999999999896
    vertex 161.49630072792783 66.4326889849496 1.4999999999999896
  endloop
endfacet
facet normal 0.0 -1.0 0.0
  outer loop
    vertex 158.49630072792783 66.4326889849496 1.4999999999999896
    vertex 161.49630072792783 66.4326889849496 3.4999999999999893
    vertex 158.49630072792783 66.4326889849496 3.499999999999992
  endloop
endfacet
facet normal 0.0 -1.0 0.0
  outer loop
    vertex 158.49630072792783 66.4326889849496 3.499999999999992
    vertex 161.49630072792783 66.4326889849496 3.4999999999999893
    vertex 161.49630072792783 66.4326889849496 5.49999999999999
  endloop
endfacet
facet normal 0.0 -1.0 0.0
  outer loop
    vertex 158.49630072792783 66.4326889849496 3.499999999999992
    vertex 161.49630072792783 66.4326889849496 5.49999999999999
    vertex 158.49630072792783 66.4326889849496 5.49999999999999
  endloop
endfacet
facet normal 1.0574874309554516e-15 8.812395257962495e-17 -1.0
  outer loop
    vertex 167.49630072792786 69.43268898494962 1.0574874309554614e-15
    vertex 166.99630072792783 67.43268898494962 3.524958103184872e-16
    vertex 166.99630072792783 71.43268898494962 7.049916206369744e-16
  endloop
endfacet
facet normal 0.0 -1.0 0.0
  outer loop
    vertex 158.49630072792783 65.14046347375941 3.499999999999993
    vertex 154.49630072792783 65.14046347375941 5.499999999999991
    vertex 156.49630072792783 65.14046347375941 3.4999999999999902
  endloop
endfacet
facet normal 0.0 -1.0 0.0
  outer loop
    vertex 154.49630072792783 65.14046347375941 5.499999999999991
    vertex 158.49630072792783 65.14046347375941 3.499999999999993
    vertex 158.49630072792783 65.14046347375941 5.499999999999993
  endloop
endfacet
facet normal 0.7071067811865482 -0.0 0.7071067811865468
  outer loop
    vertex 156.49630072792783 65.14046347375941 3.4999999999999902
    vertex 152.99630072792783 55.43268898494964 6.999999999999991
    vertex 156.49630072792783 55.43268898494962 3.4999999999999902
  endloop
endfacet
facet normal 0.7071067811865482 -0.0 0.7071067811865468
  outer loop
    vertex 152.99630072792783 55.43268898494964 6.999999999999991
    vertex 156.49630072792783 65.14046347375941 3.4999999999999902
    vertex 152.99630072792783 59.432688984949635 6.999999999999991
  endloop
endfacet
facet normal 0.7071067811865482 -0.0 0.7071067811865468
  outer loop
    vertex 152.99630072792783 59.432688984949635 6.999999999999991
    vertex 156.49630072792783 65.14046347375941 3.4999999999999902
    vertex 152.99630072792783 63.43268898494963 6.99999999999999
  endloop
endfacet
facet normal 0.7071067811865482 -0.0 0.7071067811865468
  outer loop
    vertex 152.99630072792783 63.43268898494963 6.99999999999999
    vertex 156.49630072792783 65.14046347375941 3.4999999999999902
    vertex 154.49630072792783 65.14046347375941 5.499999999999991
  endloop
endfacet
facet normal 0.7071067811865482 -0.0 0.7071067811865468
  outer loop
    vertex 152.99630072792783 63.43268898494963 6.99999999999999
    vertex 154.49630072792783 65.14046347375941 5.499999999999991
    vertex 152.99630072792783 67.43268898494962 6.99999999999999
  endloop
endfacet
facet normal 0.7071067811865482 -0.0 0.7071067811865468
  outer loop
    vertex 152.99630072792783 67.43268898494962 6.99999999999999
    vertex 154.49630072792783 65.14046347375941 5.499999999999991
    vertex 154.49630072792783 71.43268898494962 5.499999999999991
  endloop
endfacet
facet normal 0.7071067811865482 -0.0 0.7071067811865468
  outer loop
    vertex 152.99630072792783 67.43268898494962 6.99999999999999
    vertex 154.49630072792783 71.43268898494962 5.499999999999991
    vertex 152.99630072792783 71.43268898494962 6.999999999999991
  endloop
endfacet
facet normal 0.0 -1.0 0.0
  outer loop
    vertex 163.49630072792783 65.14046347375941 3.4999999999999902
    vertex 161.49630072792783 65.14046347375941 5.499999999999991
    vertex 161.49630072792783 65.14046347375941 3.4999999999999893
  endloop
endfacet
facet normal 0.0 -1.0 0.0
  outer loop
    vertex 161.49630072792783 65.14046347375941 5.499999999999991
    vertex 163.49630072792783 65.14046347375941 3.4999999999999902
    vertex 165.49630072792783 65.14046347375941 5.49999999999999
  endloop
endfacet
facet normal -0.7071067811865481 -1.526911012737882e-17 0.707106781186547
  outer loop
    vertex 166.99630072792783 67.43268898494962 6.99999999999999
    vertex 165.49630072792783 65.14046347375941 5.49999999999999
    vertex 166.99630072792783 63.43268898494963 6.99999999999999
  endloop
endfacet
facet normal -0.7071067811865481 -1.526911012737882e-17 0.707106781186547
  outer loop
    vertex 165.49630072792783 65.14046347375941 5.49999999999999
    vertex 166.99630072792783 67.43268898494962 6.99999999999999
    vertex 165.49630072792783 71.43268898494962 5.49999999999999
  endloop
endfacet
facet normal -0.7071067811865481 -1.526911012737882e-17 0.707106781186547
  outer loop
    vertex 165.49630072792783 71.43268898494962 5.49999999999999
    vertex 166.99630072792783 67.43268898494962 6.99999999999999
    vertex 166.99630072792783 71.43268898494962 6.99999999999999
  endloop
endfacet
facet normal -0.7071067811865481 -1.526911012737882e-17 0.707106781186547
  outer loop
    vertex 166.99630072792783 59.432688984949635 6.99999999999999
    vertex 163.49630072792783 55.43268898494962 3.4999999999999902
    vertex 166.99630072792783 55.43268898494962 6.99999999999999
  endloop
endfacet
facet normal -0.7071067811865481 -1.526911012737882e-17 0.707106781186547
  outer loop
    vertex 163.49630072792783 55.43268898494962 3.4999999999999902
    vertex 166.99630072792783 59.432688984949635 6.99999999999999
    vertex 163.49630072792783 65.14046347375941 3.4999999999999902
  endloop
endfacet
facet normal -0.7071067811865481 -1.526911012737882e-17 0.707106781186547
  outer loop
    vertex 163.49630072792783 65.14046347375941 3.4999999999999902
    vertex 166.99630072792783 59.432688984949635 6.99999999999999
    vertex 166.99630072792783 63.43268898494963 6.99999999999999
  endloop
endfacet
facet normal -0.7071067811865481 -1.526911012737882e-17 0.707106781186547
  outer loop
    vertex 163.49630072792783 65.14046347375941 3.4999999999999902
    vertex 166.99630072792783 63.43268898494963 6.99999999999999
    vertex 165.49630072792783 65.14046347375941 5.49999999999999
  endloop
endfacet
facet normal -0.9914448613738096 -0.13052619222005782 -1.7844301024427984e-29
  outer loop
    vertex 156.99630072792786 59.43268898494963 3.99999999999999
    vertex 157.09852324906063 58.65623184964206 3.4999999999999893
    vertex 157.09852324906063 58.65623184964206 3.99999999999999
  endloop
endfacet
facet normal -0.9914448613738096 -0.13052619222005782 -1.7844301024427984e-29
  outer loop
    vertex 157.09852324906063 58.65623184964206 3.4999999999999893
    vertex 156.99630072792786 59.43268898494963 3.99999999999999
    vertex 156.99630072792786 59.43268898494963 3.4999999999999893
  endloop
endfacet
facet normal -0.2717580168978118 0.6560818900783136 -0.704062592219638
  outer loop
    vertex 158.49630072792783 62.03076519630294 3.99999999999999
    vertex 157.74630072792783 63.3298033019796 5.499999999999991
    vertex 158.49630072792783 63.640463473759425 5.499999999999991
  endloop
endfacet
facet normal 0.6560818900783137 -0.2717580168978158 -0.7040625922196364
  outer loop
    vertex 162.89407820679506 58.65623184964207 3.99999999999999
    vertex 163.89341504495783 57.18268898494963 5.499999999999993
    vertex 162.59437693928115 57.93268898494963 3.99999999999999
  endloop
endfacet
facet normal 0.6560818900783137 -0.2717580168978158 -0.7040625922196364
  outer loop
    vertex 163.89341504495783 57.18268898494963 5.499999999999993
    vertex 162.89407820679506 58.65623184964207 3.99999999999999
    vertex 164.10081104511713 58.33288876013357 5.2493017636334764
  endloop
endfacet
facet normal 0.6560818900783137 -0.2717580168978158 -0.7040625922196364
  outer loop
    vertex 163.89341504495783 57.18268898494963 5.499999999999993
    vertex 164.10081104511713 58.33288876013357 5.2493017636334764
    vertex 163.99696843555108 57.43268898494962 5.499999999999993
  endloop
endfacet
facet normal -0.7040625922196345 0.0926915987235726 -0.7040625922196385
  outer loop
    vertex 155.89179041073857 60.53248920976568 5.249301763633475
    vertex 156.99630072792786 59.43268898494963 3.99999999999999
    vertex 155.84938197793284 59.432688984949614 5.146918749994962
  endloop
endfacet
facet normal -0.7040625922196345 0.0926915987235726 -0.7040625922196385
  outer loop
    vertex 156.99630072792786 59.43268898494963 3.99999999999999
    vertex 155.89179041073857 60.53248920976568 5.249301763633475
    vertex 157.09852324906063 60.20914612025718 3.99999999999999
  endloop
endfacet
facet normal -1.0 0.0 0.0
  outer loop
    vertex 161.49630072792783 63.640463473759425 6.499999999999992
    vertex 161.49630072792783 55.22491449613983 5.499999999999993
    vertex 161.49630072792783 55.22491449613983 6.499999999999992
  endloop
endfacet
facet normal -1.0 0.0 0.0
  outer loop
    vertex 161.49630072792783 55.22491449613983 5.499999999999993
    vertex 161.49630072792783 63.640463473759425 6.499999999999992
    vertex 161.49630072792783 56.83461277359631 3.99999999999999
  endloop
endfacet
facet normal -1.0 0.0 0.0
  outer loop
    vertex 161.49630072792783 56.83461277359631 3.99999999999999
    vertex 161.49630072792783 63.640463473759425 6.499999999999992
    vertex 161.49630072792783 56.83461277359631 3.4999999999999893
  endloop
endfacet
facet normal -1.0 0.0 0.0
  outer loop
    vertex 161.49630072792783 56.83461277359631 3.4999999999999893
    vertex 161.49630072792783 63.640463473759425 6.499999999999992
    vertex 161.49630072792783 62.03076519630294 3.99999999999999
  endloop
endfacet
facet normal -1.0 0.0 0.0
  outer loop
    vertex 161.49630072792783 62.03076519630294 3.99999999999999
    vertex 161.49630072792783 63.640463473759425 6.499999999999992
    vertex 161.49630072792783 63.640463473759425 5.499999999999993
  endloop
endfacet
facet normal -1.0 0.0 0.0
  outer loop
    vertex 161.49630072792783 56.83461277359631 3.4999999999999893
    vertex 161.49630072792783 55.43268898494962 1.4999999999999896
    vertex 161.49630072792783 55.43268898494962 3.4999999999999893
  endloop
endfacet
facet normal -1.0 0.0 0.0
  outer loop
    vertex 161.49630072792783 55.43268898494962 1.4999999999999896
    vertex 161.49630072792783 56.83461277359631 3.4999999999999893
    vertex 161.49630072792783 66.4326889849496 1.4999999999999896
  endloop
endfacet
facet normal -1.0 0.0 0.0
  outer loop
    vertex 161.49630072792783 66.4326889849496 1.4999999999999896
    vertex 161.49630072792783 56.83461277359631 3.4999999999999893
    vertex 161.49630072792783 62.03076519630294 3.4999999999999893
  endloop
endfacet
facet normal -1.0 0.0 0.0
  outer loop
    vertex 161.49630072792783 62.03076519630294 3.4999999999999893
    vertex 161.49630072792783 56.83461277359631 3.4999999999999893
    vertex 161.49630072792783 62.03076519630294 3.99999999999999
  endloop
endfacet
facet normal -1.0 0.0 0.0
  outer loop
    vertex 161.49630072792783 66.4326889849496 1.4999999999999896
    vertex 161.49630072792783 62.03076519630294 3.4999999999999893
    vertex 161.49630072792783 65.14046347375941 3.4999999999999893
  endloop
endfacet
facet normal -1.0 0.0 0.0
  outer loop
    vertex 161.49630072792783 66.4326889849496 1.4999999999999896
    vertex 161.49630072792783 65.14046347375941 3.4999999999999893
    vertex 161.49630072792783 66.4326889849496 3.4999999999999893
  endloop
endfacet
facet normal 0.7933533402912387 -3.549251048508828e-16 0.608761429008716
  outer loop
    vertex 163.89341504495783 57.18268898494963 5.749999999999992
    vertex 163.3179198039736 62.43268898494961 6.499999999999991
    vertex 163.31791980397358 56.432688984949586 6.500000000000015
  endloop
endfacet
facet normal 0.7933533402912387 -3.549251048508828e-16 0.608761429008716
  outer loop
    vertex 163.3179198039736 62.43268898494961 6.499999999999991
    vertex 163.89341504495783 57.18268898494963 5.749999999999992
    vertex 163.89341504495783 61.682688984949635 5.749999999999992
  endloop
endfacet
facet normal -0.7933533402912393 -9.06381346716434e-16 0.6087614290087152
  outer loop
    vertex 156.67468165188208 62.4326889849496 6.499999999999996
    vertex 156.0991864108979 57.18268898494962 5.749999999999991
    vertex 156.67468165188208 56.43268898494962 6.499999999999996
  endloop
endfacet
facet normal -0.7933533402912393 -9.06381346716434e-16 0.6087614290087152
  outer loop
    vertex 156.0991864108979 57.18268898494962 5.749999999999991
    vertex 156.67468165188208 62.4326889849496 6.499999999999996
    vertex 156.0991864108979 61.68268898494962 5.749999999999991
  endloop
endfacet
facet normal -3.66695158260722e-15 6.911966082906939e-16 1.0
  outer loop
    vertex 162.24630072792783 55.535574667919654 6.499999999999992
    vertex 161.49630072792783 63.640463473759425 6.499999999999992
    vertex 161.49630072792783 55.22491449613983 6.499999999999992
  endloop
endfacet
facet normal -3.66695158260722e-15 6.911966082906939e-16 1.0
  outer loop
    vertex 161.49630072792783 63.640463473759425 6.499999999999992
    vertex 162.24630072792783 55.535574667919654 6.499999999999992
    vertex 162.24630072792783 63.3298033019796 6.499999999999992
  endloop
endfacet
facet normal -3.66695158260722e-15 6.911966082906939e-16 1.0
  outer loop
    vertex 162.24630072792783 63.3298033019796 6.499999999999992
    vertex 162.24630072792783 55.535574667919654 6.499999999999992
    vertex 163.1782812432673 56.25070846961017 6.499999999999992
  endloop
endfacet
facet normal -3.66695158260722e-15 6.911966082906939e-16 1.0
  outer loop
    vertex 162.24630072792783 63.3298033019796 6.499999999999992
    vertex 163.1782812432673 56.25070846961017 6.499999999999992
    vertex 163.1782812432673 62.61466950028909 6.499999999999992
  endloop
endfacet
facet normal -3.66695158260722e-15 6.911966082906939e-16 1.0
  outer loop
    vertex 163.1782812432673 62.61466950028909 6.499999999999992
    vertex 163.1782812432673 56.25070846961017 6.499999999999992
    vertex 163.31791980397358 56.432688984949586 6.500000000000015
  endloop
endfacet
facet normal -3.66695158260722e-15 6.911966082906939e-16 1.0
  outer loop
    vertex 163.1782812432673 62.61466950028909 6.499999999999992
    vertex 163.31791980397358 56.432688984949586 6.500000000000015
    vertex 163.3179198039736 62.43268898494961 6.499999999999991
  endloop
endfacet
facet normal 1.0 -0.0 -0.0
  outer loop
    vertex 158.49630072792783 66.4326889849496 1.4999999999999896
    vertex 158.49630072792783 55.43268898494962 3.4999999999999893
    vertex 158.49630072792783 55.43268898494962 1.4999999999999896
  endloop
endfacet
facet normal 1.0 -0.0 -0.0
  outer loop
    vertex 158.49630072792783 55.43268898494962 3.4999999999999893
    vertex 158.49630072792783 66.4326889849496 1.4999999999999896
    vertex 158.49630072792783 56.83461277359631 3.4999999999999893
  endloop
endfacet
facet normal 1.0 -0.0 -0.0
  outer loop
    vertex 158.49630072792783 56.83461277359631 3.4999999999999893
    vertex 158.49630072792783 66.4326889849496 1.4999999999999896
    vertex 158.49630072792783 56.83461277359631 3.99999999999999
  endloop
endfacet
facet normal 1.0 -0.0 -0.0
  outer loop
    vertex 158.49630072792783 56.83461277359631 3.99999999999999
    vertex 158.49630072792783 66.4326889849496 1.4999999999999896
    vertex 158.49630072792783 62.03076519630294 3.4999999999999893
  endloop
endfacet
facet normal 1.0 -0.0 -0.0
  outer loop
    vertex 158.49630072792783 62.03076519630294 3.4999999999999893
    vertex 158.49630072792783 66.4326889849496 1.4999999999999896
    vertex 158.49630072792783 65.14046347375941 3.499999999999993
  endloop
endfacet
facet normal 1.0 -0.0 -0.0
  outer loop
    vertex 158.49630072792783 65.14046347375941 3.499999999999993
    vertex 158.49630072792783 66.4326889849496 1.4999999999999896
    vertex 158.49630072792783 66.4326889849496 3.499999999999992
  endloop
endfacet
facet normal 1.0 -0.0 -0.0
  outer loop
    vertex 158.49630072792783 56.83461277359631 3.99999999999999
    vertex 158.49630072792783 55.22491449613983 6.499999999999996
    vertex 158.49630072792783 55.22491449613983 5.499999999999991
  endloop
endfacet
facet normal 1.0 -0.0 -0.0
  outer loop
    vertex 158.49630072792783 55.22491449613983 6.499999999999996
    vertex 158.49630072792783 56.83461277359631 3.99999999999999
    vertex 158.49630072792783 63.640463473759425 6.499999999999996
  endloop
endfacet
facet normal 1.0 -0.0 -0.0
  outer loop
    vertex 158.49630072792783 63.640463473759425 6.499999999999996
    vertex 158.49630072792783 56.83461277359631 3.99999999999999
    vertex 158.49630072792783 62.03076519630294 3.99999999999999
  endloop
endfacet
facet normal 1.0 -0.0 -0.0
  outer loop
    vertex 158.49630072792783 62.03076519630294 3.99999999999999
    vertex 158.49630072792783 56.83461277359631 3.99999999999999
    vertex 158.49630072792783 62.03076519630294 3.4999999999999893
  endloop
endfacet
facet normal 1.0 -0.0 -0.0
  outer loop
    vertex 158.49630072792783 63.640463473759425 6.499999999999996
    vertex 158.49630072792783 62.03076519630294 3.99999999999999
    vertex 158.49630072792783 63.640463473759425 5.499999999999991
  endloop
endfacet
facet normal -0.5633902913547436 0.432304575321822 -0.7040625922196382
  outer loop
    vertex 156.81432021258837 62.61466950028909 5.499999999999991
    vertex 157.39822451657452 60.93268898494962 3.99999999999999
    vertex 156.0991864108979 61.68268898494962 5.499999999999991
  endloop
endfacet
facet normal -0.5633902913547436 0.432304575321822 -0.7040625922196382
  outer loop
    vertex 157.39822451657452 60.93268898494962 3.99999999999999
    vertex 156.81432021258837 62.61466950028909 5.499999999999991
    vertex 157.8749803843682 61.55400932850927 3.99999999999999
  endloop
endfacet
facet normal 0.7040625922196355 -0.09269159872357023 -0.7040625922196376
  outer loop
    vertex 162.99630072792783 59.43268898494963 3.99999999999999
    vertex 164.10081104511713 58.33288876013357 5.2493017636334764
    vertex 162.89407820679506 58.65623184964207 3.99999999999999
  endloop
endfacet
facet normal 0.7040625922196355 -0.09269159872357023 -0.7040625922196376
  outer loop
    vertex 164.10081104511713 58.33288876013357 5.2493017636334764
    vertex 162.99630072792783 59.43268898494963 3.99999999999999
    vertex 164.14321947792283 59.432688984949635 5.14691874999495
  endloop
endfacet
facet normal 0.9238795325112854 -0.3826834323650931 -1.4693769893288883e-29
  outer loop
    vertex 162.89407820679506 58.65623184964207 3.4999999999999893
    vertex 162.59437693928115 57.93268898494963 3.99999999999999
    vertex 162.59437693928115 57.93268898494963 3.4999999999999893
  endloop
endfacet
facet normal 0.9238795325112854 -0.3826834323650931 -1.4693769893288883e-29
  outer loop
    vertex 162.59437693928115 57.93268898494963 3.99999999999999
    vertex 162.89407820679506 58.65623184964207 3.4999999999999893
    vertex 162.89407820679506 58.65623184964207 3.99999999999999
  endloop
endfacet
facet normal -0.4323045753218218 -0.5633902913547437 -0.7040625922196381
  outer loop
    vertex 157.8749803843682 57.31136864138999 3.99999999999999
    vertex 157.74630072792783 55.535574667919654 5.499999999999991
    vertex 156.81432021258837 56.25070846961015 5.499999999999991
  endloop
endfacet
facet normal -0.4323045753218218 -0.5633902913547437 -0.7040625922196381
  outer loop
    vertex 157.74630072792783 55.535574667919654 5.499999999999991
    vertex 157.8749803843682 57.31136864138999 3.99999999999999
    vertex 158.49630072792783 56.83461277359631 3.99999999999999
  endloop
endfacet
facet normal -0.6087614290087311 0.7933533402912272 -0.0
  outer loop
    vertex 157.8749803843682 61.55400932850927 3.99999999999999
    vertex 158.49630072792783 62.03076519630294 3.4999999999999893
    vertex 157.8749803843682 61.55400932850927 3.4999999999999893
  endloop
endfacet
facet normal -0.6087614290087311 0.7933533402912272 -0.0
  outer loop
    vertex 158.49630072792783 62.03076519630294 3.4999999999999893
    vertex 157.8749803843682 61.55400932850927 3.99999999999999
    vertex 158.49630072792783 62.03076519630294 3.99999999999999
  endloop
endfacet
facet normal -0.7933533402912377 0.6087614290087173 3.80996311853169e-15
  outer loop
    vertex 156.67468165188208 62.4326889849496 6.499999999999996
    vertex 156.0991864108979 61.68268898494962 5.499999999999991
    vertex 156.0991864108979 61.68268898494962 5.749999999999991
  endloop
endfacet
facet normal -0.7933533402912377 0.6087614290087173 3.80996311853169e-15
  outer loop
    vertex 156.0991864108979 61.68268898494962 5.499999999999991
    vertex 156.67468165188208 62.4326889849496 6.499999999999996
    vertex 156.81432021258837 62.61466950028909 5.499999999999991
  endloop
endfacet
facet normal -0.7933533402912377 0.6087614290087173 3.80996311853169e-15
  outer loop
    vertex 156.81432021258837 62.61466950028909 5.499999999999991
    vertex 156.67468165188208 62.4326889849496 6.499999999999996
    vertex 156.81432021258837 62.61466950028909 6.499999999999996
  endloop
endfacet
facet normal 0.5633902913547401 0.4323045753218274 -0.7040625922196375
  outer loop
    vertex 163.1782812432673 62.61466950028909 5.499999999999993
    vertex 162.59437693928115 60.93268898494962 3.99999999999999
    vertex 162.11762107148746 61.55400932850927 3.99999999999999
  endloop
endfacet
facet normal 0.5633902913547401 0.4323045753218274 -0.7040625922196375
  outer loop
    vertex 162.59437693928115 60.93268898494962 3.99999999999999
    vertex 163.1782812432673 62.61466950028909 5.499999999999993
    vertex 163.89341504495783 61.682688984949635 5.499999999999993
  endloop
endfacet
facet normal -1.8834827339961556e-16 -1.3405111524988894e-17 1.0
  outer loop
    vertex 163.49630072792783 55.43268898494962 3.4999999999999902
    vertex 161.49630072792783 56.83461277359631 3.4999999999999893
    vertex 161.49630072792783 55.43268898494962 3.4999999999999893
  endloop
endfacet
facet normal -1.8834827339961556e-16 -1.3405111524988894e-17 1.0
  outer loop
    vertex 161.49630072792783 56.83461277359631 3.4999999999999893
    vertex 163.49630072792783 55.43268898494962 3.4999999999999902
    vertex 162.11762107148746 57.31136864138999 3.4999999999999893
  endloop
endfacet
facet normal -1.8834827339961556e-16 -1.3405111524988894e-17 1.0
  outer loop
    vertex 162.11762107148746 57.31136864138999 3.4999999999999893
    vertex 163.49630072792783 55.43268898494962 3.4999999999999902
    vertex 162.59437693928115 57.93268898494963 3.4999999999999893
  endloop
endfacet
facet normal -1.8834827339961556e-16 -1.3405111524988894e-17 1.0
  outer loop
    vertex 162.59437693928115 57.93268898494963 3.4999999999999893
    vertex 163.49630072792783 55.43268898494962 3.4999999999999902
    vertex 162.89407820679506 58.65623184964207 3.4999999999999893
  endloop
endfacet
facet normal -1.8834827339961556e-16 -1.3405111524988894e-17 1.0
  outer loop
    vertex 162.89407820679506 58.65623184964207 3.4999999999999893
    vertex 163.49630072792783 55.43268898494962 3.4999999999999902
    vertex 162.99630072792783 59.43268898494963 3.4999999999999893
  endloop
endfacet
facet normal -1.8834827339961556e-16 -1.3405111524988894e-17 1.0
  outer loop
    vertex 162.11762107148746 61.55400932850927 3.4999999999999893
    vertex 161.49630072792783 65.14046347375941 3.4999999999999893
    vertex 161.49630072792783 62.03076519630294 3.4999999999999893
  endloop
endfacet
facet normal -1.8834827339961556e-16 -1.3405111524988894e-17 1.0
  outer loop
    vertex 161.49630072792783 65.14046347375941 3.4999999999999893
    vertex 162.11762107148746 61.55400932850927 3.4999999999999893
    vertex 163.49630072792783 65.14046347375941 3.4999999999999902
  endloop
endfacet
facet normal -1.8834827339961556e-16 -1.3405111524988894e-17 1.0
  outer loop
    vertex 163.49630072792783 65.14046347375941 3.4999999999999902
    vertex 162.11762107148746 61.55400932850927 3.4999999999999893
    vertex 162.59437693928115 60.93268898494962 3.4999999999999893
  endloop
endfacet
facet normal -1.8834827339961556e-16 -1.3405111524988894e-17 1.0
  outer loop
    vertex 163.49630072792783 65.14046347375941 3.4999999999999902
    vertex 162.59437693928115 60.93268898494962 3.4999999999999893
    vertex 162.89407820679503 60.20914612025718 3.4999999999999893
  endloop
endfacet
facet normal -1.8834827339961556e-16 -1.3405111524988894e-17 1.0
  outer loop
    vertex 163.49630072792783 65.14046347375941 3.4999999999999902
    vertex 162.89407820679503 60.20914612025718 3.4999999999999893
    vertex 162.99630072792783 59.43268898494963 3.4999999999999893
  endloop
endfacet
facet normal -1.8834827339961556e-16 -1.3405111524988894e-17 1.0
  outer loop
    vertex 163.49630072792783 65.14046347375941 3.4999999999999902
    vertex 162.99630072792783 59.43268898494963 3.4999999999999893
    vertex 163.49630072792783 55.43268898494962 3.4999999999999902
  endloop
endfacet
facet normal 0.2717580168978117 -0.656081890078314 -0.7040625922196377
  outer loop
    vertex 162.24630072792783 55.535574667919654 5.499999999999993
    vertex 161.49630072792783 55.22491449613983 5.499999999999993
    vertex 161.49630072792783 56.83461277359631 3.99999999999999
  endloop
endfacet
facet normal -0.9238795325112849 0.38268343236509456 6.107335638203548e-17
  outer loop
    vertex 156.0991864108979 61.68268898494962 5.499999999999991
    vertex 155.99563302030458 61.43268898494962 5.499999999999993
    vertex 156.0991864108979 61.68268898494962 5.749999999999991
  endloop
endfacet
facet normal 0.6560818900783139 0.271758016897808 -0.7040625922196394
  outer loop
    vertex 163.89341504495783 61.682688984949635 5.499999999999993
    vertex 162.89407820679503 60.20914612025718 3.99999999999999
    vertex 162.59437693928115 60.93268898494962 3.99999999999999
  endloop
endfacet
facet normal 0.6560818900783139 0.271758016897808 -0.7040625922196394
  outer loop
    vertex 162.89407820679503 60.20914612025718 3.99999999999999
    vertex 163.89341504495783 61.682688984949635 5.499999999999993
    vertex 164.1008110451171 60.53248920976573 5.249301763633484
  endloop
endfacet
facet normal 0.6560818900783139 0.271758016897808 -0.7040625922196394
  outer loop
    vertex 164.1008110451171 60.53248920976573 5.249301763633484
    vertex 163.89341504495783 61.682688984949635 5.499999999999993
    vertex 163.99696843555108 61.43268898494958 5.499999999999972
  endloop
endfacet
facet normal -0.9238795325112812 -0.38268343236510327 3.053667819102588e-17
  outer loop
    vertex 155.9956330203046 57.432688984949586 5.500000000000005
    vertex 156.0991864108979 57.18268898494962 5.499999999999991
    vertex 156.0991864108979 57.18268898494962 5.749999999999991
  endloop
endfacet
facet normal 0.9238795325112935 -0.3826834323650739 -3.053667819102078e-17
  outer loop
    vertex 163.99696843555108 57.43268898494962 5.499999999999993
    vertex 163.89341504495783 57.18268898494963 5.749999999999992
    vertex 163.89341504495783 57.18268898494963 5.499999999999993
  endloop
endfacet
facet normal -0.7040625922196332 -0.09269159872357802 -0.7040625922196391
  outer loop
    vertex 156.99630072792786 59.43268898494963 3.99999999999999
    vertex 155.89179041073857 58.332888760133535 5.249301763633482
    vertex 155.84938197793284 59.432688984949614 5.146918749994962
  endloop
endfacet
facet normal -0.7040625922196332 -0.09269159872357802 -0.7040625922196391
  outer loop
    vertex 155.89179041073857 58.332888760133535 5.249301763633482
    vertex 156.99630072792786 59.43268898494963 3.99999999999999
    vertex 157.09852324906063 58.65623184964206 3.99999999999999
  endloop
endfacet
facet normal -0.9914448613738114 0.13052619222004555 0.0
  outer loop
    vertex 157.09852324906063 60.20914612025718 3.99999999999999
    vertex 156.99630072792786 59.43268898494963 3.4999999999999893
    vertex 156.99630072792786 59.43268898494963 3.99999999999999
  endloop
endfacet
facet normal -0.9914448613738114 0.13052619222004555 0.0
  outer loop
    vertex 156.99630072792786 59.43268898494963 3.4999999999999893
    vertex 157.09852324906063 60.20914612025718 3.99999999999999
    vertex 157.09852324906063 60.20914612025718 3.4999999999999893
  endloop
endfacet
facet normal -0.3826834323650897 0.9238795325112868 0.0
  outer loop
    vertex 157.74630072792783 63.3298033019796 6.499999999999996
    vertex 158.49630072792783 63.640463473759425 5.499999999999991
    vertex 157.74630072792783 63.3298033019796 5.499999999999991
  endloop
endfacet
facet normal -0.3826834323650897 0.9238795325112868 0.0
  outer loop
    vertex 158.49630072792783 63.640463473759425 5.499999999999991
    vertex 157.74630072792783 63.3298033019796 6.499999999999996
    vertex 158.49630072792783 63.640463473759425 6.499999999999996
  endloop
endfacet
facet normal -0.656081890078314 -0.27175801689781226 -0.7040625922196375
  outer loop
    vertex 157.09852324906063 58.65623184964206 3.99999999999999
    vertex 155.9956330203046 57.432688984949586 5.500000000000005
    vertex 155.89179041073857 58.332888760133535 5.249301763633482
  endloop
endfacet
facet normal -0.656081890078314 -0.27175801689781226 -0.7040625922196375
  outer loop
    vertex 155.9956330203046 57.432688984949586 5.500000000000005
    vertex 157.09852324906063 58.65623184964206 3.99999999999999
    vertex 156.0991864108979 57.18268898494962 5.499999999999991
  endloop
endfacet
facet normal -0.656081890078314 -0.27175801689781226 -0.7040625922196375
  outer loop
    vertex 156.0991864108979 57.18268898494962 5.499999999999991
    vertex 157.09852324906063 58.65623184964206 3.99999999999999
    vertex 157.39822451657452 57.93268898494963 3.99999999999999
  endloop
endfacet
facet normal -4.6976845490521365e-16 2.308870182477648e-16 -1.0
  outer loop
    vertex 154.49630072792783 71.43268898494962 1.4999999999999991
    vertex 158.49630072792783 66.4326889849496 1.4999999999999896
    vertex 154.49630072792783 55.43268898494964 1.4999999999999971
  endloop
endfacet
facet normal -4.6976845490521365e-16 2.308870182477648e-16 -1.0
  outer loop
    vertex 158.49630072792783 66.4326889849496 1.4999999999999896
    vertex 154.49630072792783 71.43268898494962 1.4999999999999991
    vertex 165.49630072792783 71.43268898494962 1.4999999999999953
  endloop
endfacet
facet normal -4.6976845490521365e-16 2.308870182477648e-16 -1.0
  outer loop
    vertex 158.49630072792783 66.4326889849496 1.4999999999999896
    vertex 165.49630072792783 71.43268898494962 1.4999999999999953
    vertex 161.49630072792783 66.4326889849496 1.4999999999999896
  endloop
endfacet
facet normal -4.6976845490521365e-16 2.308870182477648e-16 -1.0
  outer loop
    vertex 161.49630072792783 66.4326889849496 1.4999999999999896
    vertex 165.49630072792783 71.43268898494962 1.4999999999999953
    vertex 161.49630072792783 55.43268898494962 1.4999999999999896
  endloop
endfacet
facet normal -4.6976845490521365e-16 2.308870182477648e-16 -1.0
  outer loop
    vertex 161.49630072792783 55.43268898494962 1.4999999999999896
    vertex 165.49630072792783 71.43268898494962 1.4999999999999953
    vertex 165.49630072792783 55.43268898494962 1.4999999999999898
  endloop
endfacet
facet normal -4.6976845490521365e-16 2.308870182477648e-16 -1.0
  outer loop
    vertex 158.49630072792783 55.43268898494962 1.4999999999999896
    vertex 154.49630072792783 55.43268898494964 1.4999999999999971
    vertex 158.49630072792783 66.4326889849496 1.4999999999999896
  endloop
endfacet
facet normal 0.79335334029124 -0.6087614290087144 -3.445953903385249e-15
  outer loop
    vertex 163.89341504495783 57.18268898494963 5.499999999999993
    vertex 163.1782812432673 56.25070846961017 6.499999999999992
    vertex 163.1782812432673 56.25070846961017 5.499999999999993
  endloop
endfacet
facet normal 0.79335334029124 -0.6087614290087144 -3.445953903385249e-15
  outer loop
    vertex 163.1782812432673 56.25070846961017 6.499999999999992
    vertex 163.89341504495783 57.18268898494963 5.499999999999993
    vertex 163.31791980397358 56.432688984949586 6.500000000000015
  endloop
endfacet
facet normal 0.79335334029124 -0.6087614290087144 -3.445953903385249e-15
  outer loop
    vertex 163.31791980397358 56.432688984949586 6.500000000000015
    vertex 163.89341504495783 57.18268898494963 5.499999999999993
    vertex 163.89341504495783 57.18268898494963 5.749999999999992
  endloop
endfacet
facet normal 0.9238795325112903 -8.296486571239239e-16 0.38268343236508157
  outer loop
    vertex 163.99696843555108 57.43268898494962 5.499999999999993
    vertex 163.89341504495783 61.682688984949635 5.749999999999992
    vertex 163.89341504495783 57.18268898494963 5.749999999999992
  endloop
endfacet
facet normal 0.9238795325112903 -8.296486571239239e-16 0.38268343236508157
  outer loop
    vertex 163.89341504495783 61.682688984949635 5.749999999999992
    vertex 163.99696843555108 57.43268898494962 5.499999999999993
    vertex 164.10081104511713 58.33288876013357 5.2493017636334764
  endloop
endfacet
facet normal 0.9238795325112903 -8.296486571239239e-16 0.38268343236508157
  outer loop
    vertex 163.89341504495783 61.682688984949635 5.749999999999992
    vertex 164.10081104511713 58.33288876013357 5.2493017636334764
    vertex 164.14321947792283 59.432688984949635 5.14691874999495
  endloop
endfacet
facet normal 0.9238795325112903 -8.296486571239239e-16 0.38268343236508157
  outer loop
    vertex 163.89341504495783 61.682688984949635 5.749999999999992
    vertex 164.14321947792283 59.432688984949635 5.14691874999495
    vertex 164.1008110451171 60.53248920976573 5.249301763633484
  endloop
endfacet
facet normal 0.9238795325112903 -8.296486571239239e-16 0.38268343236508157
  outer loop
    vertex 163.89341504495783 61.682688984949635 5.749999999999992
    vertex 164.1008110451171 60.53248920976573 5.249301763633484
    vertex 163.99696843555108 61.43268898494958 5.499999999999972
  endloop
endfacet
facet normal 0.7040625922196339 0.09269159872357616 -0.7040625922196386
  outer loop
    vertex 164.1008110451171 60.53248920976573 5.249301763633484
    vertex 162.99630072792783 59.43268898494963 3.99999999999999
    vertex 162.89407820679503 60.20914612025718 3.99999999999999
  endloop
endfacet
facet normal 0.7040625922196339 0.09269159872357616 -0.7040625922196386
  outer loop
    vertex 162.99630072792783 59.43268898494963 3.99999999999999
    vertex 164.1008110451171 60.53248920976573 5.249301763633484
    vertex 164.14321947792283 59.432688984949635 5.14691874999495
  endloop
endfacet
facet normal 0.3826834323650897 -0.9238795325112868 0.0
  outer loop
    vertex 162.24630072792783 55.535574667919654 6.499999999999992
    vertex 161.49630072792783 55.22491449613983 5.499999999999993
    vertex 162.24630072792783 55.535574667919654 5.499999999999993
  endloop
endfacet
facet normal 0.3826834323650897 -0.9238795325112868 0.0
  outer loop
    vertex 161.49630072792783 55.22491449613983 5.499999999999993
    vertex 162.24630072792783 55.535574667919654 6.499999999999992
    vertex 161.49630072792783 55.22491449613983 6.499999999999992
  endloop
endfacet
facet normal 0.3826834323650946 0.9238795325112847 0.0
  outer loop
    vertex 161.49630072792783 63.640463473759425 6.499999999999992
    vertex 162.24630072792783 63.3298033019796 5.499999999999993
    vertex 161.49630072792783 63.640463473759425 5.499999999999993
  endloop
endfacet
facet normal 0.3826834323650946 0.9238795325112847 0.0
  outer loop
    vertex 162.24630072792783 63.3298033019796 5.499999999999993
    vertex 161.49630072792783 63.640463473759425 6.499999999999992
    vertex 162.24630072792783 63.3298033019796 6.499999999999992
  endloop
endfacet
facet normal 0.9238795325112905 0.38268343236508084 0.0
  outer loop
    vertex 162.59437693928115 60.93268898494962 3.4999999999999893
    vertex 162.89407820679503 60.20914612025718 3.99999999999999
    vertex 162.89407820679503 60.20914612025718 3.4999999999999893
  endloop
endfacet
facet normal 0.9238795325112905 0.38268343236508084 0.0
  outer loop
    vertex 162.89407820679503 60.20914612025718 3.99999999999999
    vertex 162.59437693928115 60.93268898494962 3.4999999999999893
    vertex 162.59437693928115 60.93268898494962 3.99999999999999
  endloop
endfacet
facet normal 0.43230457532182476 -0.5633902913547412 -0.7040625922196383
  outer loop
    vertex 162.11762107148746 57.31136864138999 3.99999999999999
    vertex 162.24630072792783 55.535574667919654 5.499999999999993
    vertex 161.49630072792783 56.83461277359631 3.99999999999999
  endloop
endfacet
facet normal 0.43230457532182476 -0.5633902913547412 -0.7040625922196383
  outer loop
    vertex 162.24630072792783 55.535574667919654 5.499999999999993
    vertex 162.11762107148746 57.31136864138999 3.99999999999999
    vertex 163.1782812432673 56.25070846961017 5.499999999999993
  endloop
endfacet
facet normal -0.3826834323650946 -0.9238795325112847 -0.0
  outer loop
    vertex 158.49630072792783 55.22491449613983 6.499999999999996
    vertex 157.74630072792783 55.535574667919654 5.499999999999991
    vertex 158.49630072792783 55.22491449613983 5.499999999999991
  endloop
endfacet
facet normal -0.3826834323650946 -0.9238795325112847 -0.0
  outer loop
    vertex 157.74630072792783 55.535574667919654 5.499999999999991
    vertex 158.49630072792783 55.22491449613983 6.499999999999996
    vertex 157.74630072792783 55.535574667919654 6.499999999999996
  endloop
endfacet
facet normal 0.9238795325113007 0.3826834323650565 3.0536678191004485e-17
  outer loop
    vertex 163.89341504495783 61.682688984949635 5.749999999999992
    vertex 163.99696843555108 61.43268898494958 5.499999999999972
    vertex 163.89341504495783 61.682688984949635 5.499999999999993
  endloop
endfacet
facet normal -0.7933533402912344 -0.6087614290087219 7.280184302926697e-17
  outer loop
    vertex 156.67468165188208 56.43268898494962 6.499999999999996
    vertex 156.81432021258837 56.25070846961015 5.499999999999991
    vertex 156.81432021258837 56.25070846961015 6.499999999999996
  endloop
endfacet
facet normal -0.7933533402912344 -0.6087614290087219 7.280184302926697e-17
  outer loop
    vertex 156.81432021258837 56.25070846961015 5.499999999999991
    vertex 156.67468165188208 56.43268898494962 6.499999999999996
    vertex 156.0991864108979 57.18268898494962 5.499999999999991
  endloop
endfacet
facet normal -0.7933533402912344 -0.6087614290087219 7.280184302926697e-17
  outer loop
    vertex 156.0991864108979 57.18268898494962 5.499999999999991
    vertex 156.67468165188208 56.43268898494962 6.499999999999996
    vertex 156.0991864108979 57.18268898494962 5.749999999999991
  endloop
endfacet
facet normal -0.9238795325112884 -0.38268343236508595 -2.676808896334991e-17
  outer loop
    vertex 157.09852324906063 58.65623184964206 3.99999999999999
    vertex 157.39822451657452 57.93268898494963 3.4999999999999893
    vertex 157.39822451657452 57.93268898494963 3.99999999999999
  endloop
endfacet
facet normal -0.9238795325112884 -0.38268343236508595 -2.676808896334991e-17
  outer loop
    vertex 157.39822451657452 57.93268898494963 3.4999999999999893
    vertex 157.09852324906063 58.65623184964206 3.99999999999999
    vertex 157.09852324906063 58.65623184964206 3.4999999999999893
  endloop
endfacet
facet normal 0.6087614290087219 -0.7933533402912343 0.0
  outer loop
    vertex 163.1782812432673 56.25070846961017 6.499999999999992
    vertex 162.24630072792783 55.535574667919654 5.499999999999993
    vertex 163.1782812432673 56.25070846961017 5.499999999999993
  endloop
endfacet
facet normal 0.6087614290087219 -0.7933533402912343 0.0
  outer loop
    vertex 162.24630072792783 55.535574667919654 5.499999999999993
    vertex 163.1782812432673 56.25070846961017 6.499999999999992
    vertex 162.24630072792783 55.535574667919654 6.499999999999992
  endloop
endfacet
facet normal -4.297617533614742e-15 -1.0 -1.4352993689657436e-15
  outer loop
    vertex 158.49630072792783 55.43268898494962 3.4999999999999893
    vertex 154.49630072792783 55.43268898494964 1.4999999999999971
    vertex 158.49630072792783 55.43268898494962 1.4999999999999896
  endloop
endfacet
facet normal -4.297617533614742e-15 -1.0 -1.4352993689657436e-15
  outer loop
    vertex 154.49630072792783 55.43268898494964 1.4999999999999971
    vertex 152.99630072792783 55.43268898494964 6.999999999999991
    vertex 152.99630072792783 55.43268898494964 0.0
  endloop
endfacet
facet normal -4.297617533614742e-15 -1.0 -1.4352993689657436e-15
  outer loop
    vertex 152.99630072792783 55.43268898494964 6.999999999999991
    vertex 154.49630072792783 55.43268898494964 1.4999999999999971
    vertex 156.49630072792783 55.43268898494962 3.4999999999999902
  endloop
endfacet
facet normal -4.297617533614742e-15 -1.0 -1.4352993689657436e-15
  outer loop
    vertex 156.49630072792783 55.43268898494962 3.4999999999999902
    vertex 154.49630072792783 55.43268898494964 1.4999999999999971
    vertex 158.49630072792783 55.43268898494962 3.4999999999999893
  endloop
endfacet
endsolid AutoSave_Spring_Connector
