solid AutoSave_Spring_Connector
facet normal -4.864442182395148e-15 4.934941344458852e-16 -1.0
  outer loop
    vertex 152.99630072792783 55.43268898494964 0.0
    vertex 152.49630072792783 57.43268898494962 3.1724622928663847e-15
    vertex 152.99630072792783 59.432688984949635 2.46747067222941e-15
  endloop
endfacet
facet normal -0.9701425001453319 0.24253562503633297 0.0
  outer loop
    vertex 152.99630072792783 67.43268898494962 6.99999999999999
    vertex 152.49630072792783 65.43268898494962 1.762479051592436e-15
    vertex 152.49630072792783 65.43268898494962 6.99999999999999
  endloop
endfacet
facet normal -0.9701425001453319 0.24253562503633297 0.0
  outer loop
    vertex 152.49630072792783 65.43268898494962 1.762479051592436e-15
    vertex 152.99630072792783 67.43268898494962 6.99999999999999
    vertex 152.99630072792783 67.43268898494962 1.762479051592436e-15
  endloop
endfacet
facet normal 1.0574874309554634e-15 -4.406197628981098e-16 -1.0
  outer loop
    vertex 152.99630072792783 67.43268898494962 1.762479051592436e-15
    vertex 152.49630072792783 69.43268898494962 3.524958103184872e-16
    vertex 152.99630072792783 71.43268898494962 0.0
  endloop
endfacet
facet normal -0.9701425001453319 -0.24253562503633297 0.0
  outer loop
    vertex 152.49630072792783 61.432688984949635 6.999999999999991
    vertex 152.99630072792783 59.432688984949635 2.46747067222941e-15
    vertex 152.99630072792783 59.432688984949635 6.999999999999991
  endloop
endfacet
facet normal -0.9701425001453319 -0.24253562503633297 0.0
  outer loop
    vertex 152.99630072792783 59.432688984949635 2.46747067222941e-15
    vertex 152.49630072792783 61.432688984949635 6.999999999999991
    vertex 152.49630072792783 61.432688984949635 2.46747067222941e-15
  endloop
endfacet
facet normal 0.27175801689781165 0.6560818900783141 -0.7040625922196376
  outer loop
    vertex 162.24630072792783 63.3298033019796 5.499999999999993
    vertex 161.49630072792783 62.03076519630294 3.99999999999999
    vertex 161.49630072792783 63.640463473759425 5.499999999999993
  endloop
endfacet
facet normal 0.6087614290087172 -0.7933533402912379 0.0
  outer loop
    vertex 162.11762107148746 57.31136864138999 3.99999999999999
    vertex 161.49630072792783 56.83461277359631 3.4999999999999893
    vertex 162.11762107148746 57.31136864138999 3.4999999999999893
  endloop
endfacet
facet normal 0.6087614290087172 -0.7933533402912379 0.0
  outer loop
    vertex 161.49630072792783 56.83461277359631 3.4999999999999893
    vertex 162.11762107148746 57.31136864138999 3.99999999999999
    vertex 161.49630072792783 56.83461277359631 3.99999999999999
  endloop
endfacet
facet normal 0.6087614290087172 0.7933533402912377 -0.0
  outer loop
    vertex 161.49630072792783 62.03076519630294 3.99999999999999
    vertex 162.11762107148746 61.55400932850927 3.4999999999999893
    vertex 161.49630072792783 62.03076519630294 3.4999999999999893
  endloop
endfacet
facet normal 0.6087614290087172 0.7933533402912377 -0.0
  outer loop
    vertex 162.11762107148746 61.55400932850927 3.4999999999999893
    vertex 161.49630072792783 62.03076519630294 3.99999999999999
    vertex 162.11762107148746 61.55400932850927 3.99999999999999
  endloop
endfacet
facet normal 7.230683288584351e-16 5.881459925649027e-31 1.0
  outer loop
    vertex 157.74630072792783 57.31136864138999 6.499999999999996
    vertex 158.49630072792783 63.640463473759425 6.499999999999996
    vertex 157.74630072792783 63.3298033019796 6.499999999999996
  endloop
endfacet
facet normal 7.230683288584351e-16 5.881459925649027e-31 1.0
  outer loop
    vertex 158.49630072792783 63.640463473759425 6.499999999999996
    vertex 157.74630072792783 57.31136864138999 6.499999999999996
    vertex 158.49630072792783 56.83461277359631 6.499999999999996
  endloop
endfacet
facet normal 7.230683288584351e-16 5.881459925649027e-31 1.0
  outer loop
    vertex 158.49630072792783 63.640463473759425 6.499999999999996
    vertex 158.49630072792783 56.83461277359631 6.499999999999996
    vertex 161.49630072792783 56.83461277359631 6.499999999999992
  endloop
endfacet
facet normal 7.230683288584351e-16 5.881459925649027e-31 1.0
  outer loop
    vertex 158.49630072792783 63.640463473759425 6.499999999999996
    vertex 161.49630072792783 56.83461277359631 6.499999999999992
    vertex 161.49630072792783 63.640463473759425 6.499999999999992
  endloop
endfacet
facet normal 7.230683288584351e-16 5.881459925649027e-31 1.0
  outer loop
    vertex 161.49630072792783 63.640463473759425 6.499999999999992
    vertex 161.49630072792783 56.83461277359631 6.499999999999992
    vertex 162.24630072792783 57.31136864138999 6.499999999999992
  endloop
endfacet
facet normal 7.230683288584351e-16 5.881459925649027e-31 1.0
  outer loop
    vertex 161.49630072792783 63.640463473759425 6.499999999999992
    vertex 162.24630072792783 57.31136864138999 6.499999999999992
    vertex 162.24630072792783 63.3298033019796 6.499999999999992
  endloop
endfacet
facet normal -0.6087614290087312 -0.7933533402912272 0.0
  outer loop
    vertex 158.49630072792783 56.83461277359631 3.99999999999999
    vertex 157.8749803843682 57.31136864138999 3.4999999999999893
    vertex 158.49630072792783 56.83461277359631 3.4999999999999893
  endloop
endfacet
facet normal -0.6087614290087312 -0.7933533402912272 0.0
  outer loop
    vertex 157.8749803843682 57.31136864138999 3.4999999999999893
    vertex 158.49630072792783 56.83461277359631 3.99999999999999
    vertex 157.8749803843682 57.31136864138999 3.99999999999999
  endloop
endfacet
facet normal 0.43230457532182087 0.5633902913547442 -0.7040625922196383
  outer loop
    vertex 162.24630072792783 63.3298033019796 5.499999999999993
    vertex 162.11762107148746 61.55400932850927 3.99999999999999
    vertex 161.49630072792783 62.03076519630294 3.99999999999999
  endloop
endfacet
facet normal 0.9701425001453319 -0.24253562503633302 2.7697919752914764e-18
  outer loop
    vertex 167.49630072792786 69.43268898494962 1.0574874309554614e-15
    vertex 166.99630072792783 67.43268898494962 6.99999999999999
    vertex 166.99630072792783 67.43268898494962 3.524958103184872e-16
  endloop
endfacet
facet normal 0.9701425001453319 -0.24253562503633302 2.7697919752914764e-18
  outer loop
    vertex 166.99630072792783 67.43268898494962 6.99999999999999
    vertex 167.49630072792786 69.43268898494962 1.0574874309554614e-15
    vertex 167.49630072792786 69.43268898494962 6.99999999999999
  endloop
endfacet
facet normal 7.049916206369677e-16 1.7624790515924389e-16 1.0
  outer loop
    vertex 152.99630072792783 59.432688984949635 6.999999999999991
    vertex 152.49630072792783 57.43268898494962 6.999999999999991
    vertex 152.99630072792783 55.43268898494964 6.999999999999991
  endloop
endfacet
facet normal 0.9701425001453319 0.24253562503633297 0.0
  outer loop
    vertex 166.99630072792783 63.43268898494963 1.0574874309554614e-15
    vertex 167.49630072792786 61.432688984949635 6.99999999999999
    vertex 167.49630072792786 61.432688984949635 1.0574874309554614e-15
  endloop
endfacet
facet normal 0.9701425001453319 0.24253562503633297 0.0
  outer loop
    vertex 167.49630072792786 61.432688984949635 6.99999999999999
    vertex 166.99630072792783 63.43268898494963 1.0574874309554614e-15
    vertex 166.99630072792783 63.43268898494963 6.99999999999999
  endloop
endfacet
facet normal 0.7071067811865474 3.5721818192213455e-17 -0.7071067811865477
  outer loop
    vertex 154.49630072792783 71.43268898494962 1.4999999999999991
    vertex 152.99630072792783 67.43268898494962 1.762479051592436e-15
    vertex 152.99630072792783 71.43268898494962 0.0
  endloop
endfacet
facet normal 0.7071067811865474 3.5721818192213455e-17 -0.7071067811865477
  outer loop
    vertex 152.99630072792783 67.43268898494962 1.762479051592436e-15
    vertex 154.49630072792783 71.43268898494962 1.4999999999999991
    vertex 152.99630072792783 63.43268898494963 1.762479051592436e-15
  endloop
endfacet
facet normal 0.7071067811865474 3.5721818192213455e-17 -0.7071067811865477
  outer loop
    vertex 152.99630072792783 63.43268898494963 1.762479051592436e-15
    vertex 154.49630072792783 71.43268898494962 1.4999999999999991
    vertex 152.99630072792783 59.432688984949635 2.46747067222941e-15
  endloop
endfacet
facet normal 0.7071067811865474 3.5721818192213455e-17 -0.7071067811865477
  outer loop
    vertex 152.99630072792783 59.432688984949635 2.46747067222941e-15
    vertex 154.49630072792783 71.43268898494962 1.4999999999999991
    vertex 152.99630072792783 55.43268898494964 0.0
  endloop
endfacet
facet normal 0.7071067811865474 3.5721818192213455e-17 -0.7071067811865477
  outer loop
    vertex 152.99630072792783 55.43268898494964 0.0
    vertex 154.49630072792783 71.43268898494962 1.4999999999999991
    vertex 154.49630072792783 55.43268898494964 1.4999999999999971
  endloop
endfacet
facet normal -0.9701425001453319 -0.24253562503633297 0.0
  outer loop
    vertex 152.49630072792783 69.43268898494962 6.99999999999999
    vertex 152.99630072792783 67.43268898494962 1.762479051592436e-15
    vertex 152.99630072792783 67.43268898494962 6.99999999999999
  endloop
endfacet
facet normal -0.9701425001453319 -0.24253562503633297 0.0
  outer loop
    vertex 152.99630072792783 67.43268898494962 1.762479051592436e-15
    vertex 152.49630072792783 69.43268898494962 6.99999999999999
    vertex 152.49630072792783 69.43268898494962 3.524958103184872e-16
  endloop
endfacet
facet normal -0.9701425001453319 0.24253562503633297 0.0
  outer loop
    vertex 152.99630072792783 71.43268898494962 6.999999999999991
    vertex 152.49630072792783 69.43268898494962 3.524958103184872e-16
    vertex 152.49630072792783 69.43268898494962 6.99999999999999
  endloop
endfacet
facet normal -0.9701425001453319 0.24253562503633297 0.0
  outer loop
    vertex 152.49630072792783 69.43268898494962 3.524958103184872e-16
    vertex 152.99630072792783 71.43268898494962 6.999999999999991
    vertex 152.99630072792783 71.43268898494962 0.0
  endloop
endfacet
facet normal 0.9701425001453319 -0.24253562503633302 -2.769791975291163e-18
  outer loop
    vertex 167.49630072792786 65.43268898494962 3.524958103184872e-16
    vertex 166.99630072792783 63.43268898494963 6.99999999999999
    vertex 166.99630072792783 63.43268898494963 1.0574874309554614e-15
  endloop
endfacet
facet normal 0.9701425001453319 -0.24253562503633302 -2.769791975291163e-18
  outer loop
    vertex 166.99630072792783 63.43268898494963 6.99999999999999
    vertex 167.49630072792786 65.43268898494962 3.524958103184872e-16
    vertex 167.49630072792786 65.43268898494962 6.99999999999999
  endloop
endfacet
facet normal 1.2358418847819464e-16 -7.049916206369739e-17 1.0
  outer loop
    vertex 165.49630072792783 66.4326889849496 5.49999999999999
    vertex 154.49630072792783 71.43268898494962 5.499999999999991
    vertex 154.49630072792783 66.4326889849496 5.499999999999991
  endloop
endfacet
facet normal 1.2358418847819464e-16 -7.049916206369739e-17 1.0
  outer loop
    vertex 154.49630072792783 71.43268898494962 5.499999999999991
    vertex 165.49630072792783 66.4326889849496 5.49999999999999
    vertex 165.49630072792783 71.43268898494962 5.49999999999999
  endloop
endfacet
facet normal 0.0 0.0 1.0
  outer loop
    vertex 167.49630072792786 57.43268898494964 6.99999999999999
    vertex 166.99630072792783 59.432688984949635 6.99999999999999
    vertex 166.99630072792783 55.43268898494962 6.99999999999999
  endloop
endfacet
facet normal -0.9701425001453325 0.24253562503633042 -2.107918204100164e-31
  outer loop
    vertex 152.99630072792783 59.432688984949635 6.999999999999991
    vertex 152.49630072792783 57.43268898494962 3.1724622928663847e-15
    vertex 152.49630072792783 57.43268898494962 6.999999999999991
  endloop
endfacet
facet normal -0.9701425001453325 0.24253562503633042 -2.107918204100164e-31
  outer loop
    vertex 152.49630072792783 57.43268898494962 3.1724622928663847e-15
    vertex 152.99630072792783 59.432688984949635 6.999999999999991
    vertex 152.99630072792783 59.432688984949635 2.46747067222941e-15
  endloop
endfacet
facet normal -0.9701425001453319 -0.24253562503633297 0.0
  outer loop
    vertex 152.49630072792783 65.43268898494962 6.99999999999999
    vertex 152.99630072792783 63.43268898494963 1.762479051592436e-15
    vertex 152.99630072792783 63.43268898494963 6.99999999999999
  endloop
endfacet
facet normal -0.9701425001453319 -0.24253562503633297 0.0
  outer loop
    vertex 152.99630072792783 63.43268898494963 1.762479051592436e-15
    vertex 152.49630072792783 65.43268898494962 6.99999999999999
    vertex 152.49630072792783 65.43268898494962 1.762479051592436e-15
  endloop
endfacet
facet normal 0.0 0.0 1.0
  outer loop
    vertex 152.99630072792783 67.43268898494962 6.99999999999999
    vertex 152.49630072792783 65.43268898494962 6.99999999999999
    vertex 152.99630072792783 63.43268898494963 6.99999999999999
  endloop
endfacet
facet normal 0.9701425001453312 0.24253562503633555 -7.810813370321514e-16
  outer loop
    vertex 166.99630072792783 71.43268898494962 7.049916206369744e-16
    vertex 167.49630072792786 69.43268898494962 6.99999999999999
    vertex 167.49630072792786 69.43268898494962 1.0574874309554614e-15
  endloop
endfacet
facet normal 0.9701425001453312 0.24253562503633555 -7.810813370321514e-16
  outer loop
    vertex 167.49630072792786 69.43268898494962 6.99999999999999
    vertex 166.99630072792783 71.43268898494962 7.049916206369744e-16
    vertex 166.99630072792783 71.43268898494962 6.99999999999999
  endloop
endfacet
facet normal -0.7071067811865447 1.0166979023937641e-16 -0.7071067811865505
  outer loop
    vertex 166.99630072792783 71.43268898494962 7.049916206369744e-16
    vertex 165.49630072792783 55.43268898494962 1.4999999999999898
    vertex 165.49630072792783 71.43268898494962 1.4999999999999953
  endloop
endfacet
facet normal -0.7071067811865447 1.0166979023937641e-16 -0.7071067811865505
  outer loop
    vertex 165.49630072792783 55.43268898494962 1.4999999999999898
    vertex 166.99630072792783 71.43268898494962 7.049916206369744e-16
    vertex 166.99630072792783 55.43268898494964 7.049916206369744e-16
  endloop
endfacet
facet normal -0.7071067811865447 1.0166979023937641e-16 -0.7071067811865505
  outer loop
    vertex 166.99630072792783 55.43268898494964 7.049916206369744e-16
    vertex 166.99630072792783 71.43268898494962 7.049916206369744e-16
    vertex 166.99630072792783 67.43268898494962 3.524958103184872e-16
  endloop
endfacet
facet normal -0.7071067811865447 1.0166979023937641e-16 -0.7071067811865505
  outer loop
    vertex 166.99630072792783 55.43268898494964 7.049916206369744e-16
    vertex 166.99630072792783 67.43268898494962 3.524958103184872e-16
    vertex 166.99630072792783 63.43268898494963 1.0574874309554614e-15
  endloop
endfacet
facet normal -0.7071067811865447 1.0166979023937641e-16 -0.7071067811865505
  outer loop
    vertex 166.99630072792783 55.43268898494964 7.049916206369744e-16
    vertex 166.99630072792783 63.43268898494963 1.0574874309554614e-15
    vertex 166.99630072792783 59.432688984949635 1.0574874309554614e-15
  endloop
endfacet
facet normal 0.9701425001453319 0.24253562503633297 0.0
  outer loop
    vertex 166.99630072792783 67.43268898494962 3.524958103184872e-16
    vertex 167.49630072792786 65.43268898494962 6.99999999999999
    vertex 167.49630072792786 65.43268898494962 3.524958103184872e-16
  endloop
endfacet
facet normal 0.9701425001453319 0.24253562503633297 0.0
  outer loop
    vertex 167.49630072792786 65.43268898494962 6.99999999999999
    vertex 166.99630072792783 67.43268898494962 3.524958103184872e-16
    vertex 166.99630072792783 67.43268898494962 6.99999999999999
  endloop
endfacet
facet normal 4.934941344458778e-16 7.049916206369621e-17 -1.0
  outer loop
    vertex 167.49630072792786 57.43268898494964 1.0574874309554614e-15
    vertex 166.99630072792783 55.43268898494964 7.049916206369744e-16
    vertex 166.99630072792783 59.432688984949635 1.0574874309554614e-15
  endloop
endfacet
facet normal 0.0 0.0 1.0
  outer loop
    vertex 167.49630072792786 69.43268898494962 6.99999999999999
    vertex 166.99630072792783 71.43268898494962 6.99999999999999
    vertex 166.99630072792783 67.43268898494962 6.99999999999999
  endloop
endfacet
facet normal 7.049916206369756e-16 1.762479051592439e-16 1.0
  outer loop
    vertex 152.99630072792783 63.43268898494963 6.99999999999999
    vertex 152.49630072792783 61.432688984949635 6.999999999999991
    vertex 152.99630072792783 59.432688984949635 6.999999999999991
  endloop
endfacet
facet normal -0.9701425001453312 -0.24253562503633555 4.701484229733413e-31
  outer loop
    vertex 152.49630072792783 57.43268898494962 6.999999999999991
    vertex 152.99630072792783 55.43268898494964 0.0
    vertex 152.99630072792783 55.43268898494964 6.999999999999991
  endloop
endfacet
facet normal -0.9701425001453312 -0.24253562503633555 4.701484229733413e-31
  outer loop
    vertex 152.99630072792783 55.43268898494964 0.0
    vertex 152.49630072792783 57.43268898494962 6.999999999999991
    vertex 152.49630072792783 57.43268898494962 3.1724622928663847e-15
  endloop
endfacet
facet normal -7.049916206369756e-16 -1.762479051592439e-16 -1.0
  outer loop
    vertex 152.99630072792783 59.432688984949635 2.46747067222941e-15
    vertex 152.49630072792783 61.432688984949635 2.46747067222941e-15
    vertex 152.99630072792783 63.43268898494963 1.762479051592436e-15
  endloop
endfacet
facet normal 0.0 1.0 0.0
  outer loop
    vertex 165.49630072792783 71.43268898494962 1.4999999999999953
    vertex 166.99630072792783 71.43268898494962 6.99999999999999
    vertex 166.99630072792783 71.43268898494962 7.049916206369744e-16
  endloop
endfacet
facet normal 0.0 1.0 0.0
  outer loop
    vertex 166.99630072792783 71.43268898494962 6.99999999999999
    vertex 165.49630072792783 71.43268898494962 1.4999999999999953
    vertex 165.49630072792783 71.43268898494962 5.49999999999999
  endloop
endfacet
facet normal 0.0 1.0 0.0
  outer loop
    vertex 165.49630072792783 71.43268898494962 5.49999999999999
    vertex 165.49630072792783 71.43268898494962 1.4999999999999953
    vertex 154.49630072792783 71.43268898494962 1.4999999999999991
  endloop
endfacet
facet normal 0.0 1.0 0.0
  outer loop
    vertex 152.99630072792783 71.43268898494962 6.999999999999991
    vertex 154.49630072792783 71.43268898494962 1.4999999999999991
    vertex 152.99630072792783 71.43268898494962 0.0
  endloop
endfacet
facet normal 0.0 1.0 0.0
  outer loop
    vertex 154.49630072792783 71.43268898494962 1.4999999999999991
    vertex 152.99630072792783 71.43268898494962 6.999999999999991
    vertex 154.49630072792783 71.43268898494962 5.499999999999991
  endloop
endfacet
facet normal 0.0 1.0 0.0
  outer loop
    vertex 154.49630072792783 71.43268898494962 1.4999999999999991
    vertex 154.49630072792783 71.43268898494962 5.499999999999991
    vertex 165.49630072792783 71.43268898494962 5.49999999999999
  endloop
endfacet
facet normal -8.459899447643709e-16 -4.2299497238218544e-16 1.0
  outer loop
    vertex 152.99630072792783 71.43268898494962 6.999999999999991
    vertex 152.49630072792783 69.43268898494962 6.99999999999999
    vertex 152.99630072792783 67.43268898494962 6.99999999999999
  endloop
endfacet
facet normal 0.9701425001453319 -0.24253562503633302 0.0
  outer loop
    vertex 167.49630072792786 61.432688984949635 1.0574874309554614e-15
    vertex 166.99630072792783 59.432688984949635 6.99999999999999
    vertex 166.99630072792783 59.432688984949635 1.0574874309554614e-15
  endloop
endfacet
facet normal 0.9701425001453319 -0.24253562503633302 0.0
  outer loop
    vertex 166.99630072792783 59.432688984949635 6.99999999999999
    vertex 167.49630072792786 61.432688984949635 1.0574874309554614e-15
    vertex 167.49630072792786 61.432688984949635 6.99999999999999
  endloop
endfacet
facet normal -0.9701425001453319 0.24253562503633297 0.0
  outer loop
    vertex 152.99630072792783 63.43268898494963 6.99999999999999
    vertex 152.49630072792783 61.432688984949635 2.46747067222941e-15
    vertex 152.49630072792783 61.432688984949635 6.999999999999991
  endloop
endfacet
facet normal -0.9701425001453319 0.24253562503633297 0.0
  outer loop
    vertex 152.49630072792783 61.432688984949635 2.46747067222941e-15
    vertex 152.99630072792783 63.43268898494963 6.99999999999999
    vertex 152.99630072792783 63.43268898494963 1.762479051592436e-15
  endloop
endfacet
facet normal -7.049916206369756e-16 -1.762479051592439e-16 -1.0
  outer loop
    vertex 167.49630072792786 65.43268898494962 3.524958103184872e-16
    vertex 166.99630072792783 63.43268898494963 1.0574874309554614e-15
    vertex 166.99630072792783 67.43268898494962 3.524958103184872e-16
  endloop
endfacet
facet normal 0.0 0.0 1.0
  outer loop
    vertex 167.49630072792786 61.432688984949635 6.99999999999999
    vertex 166.99630072792783 63.43268898494963 6.99999999999999
    vertex 166.99630072792783 59.432688984949635 6.99999999999999
  endloop
endfacet
facet normal 0.0 0.0 -1.0
  outer loop
    vertex 152.99630072792783 63.43268898494963 1.762479051592436e-15
    vertex 152.49630072792783 65.43268898494962 1.762479051592436e-15
    vertex 152.99630072792783 67.43268898494962 1.762479051592436e-15
  endloop
endfacet
facet normal 0.0 0.0 -1.0
  outer loop
    vertex 167.49630072792786 61.432688984949635 1.0574874309554614e-15
    vertex 166.99630072792783 59.432688984949635 1.0574874309554614e-15
    vertex 166.99630072792783 63.43268898494963 1.0574874309554614e-15
  endloop
endfacet
facet normal 0.9701425001453319 -0.24253562503633297 -1.1743917975235193e-15
  outer loop
    vertex 166.99630072792783 55.43268898494964 7.049916206369744e-16
    vertex 167.49630072792786 57.43268898494964 6.99999999999999
    vertex 166.99630072792783 55.43268898494962 6.99999999999999
  endloop
endfacet
facet normal 0.9701425001453319 -0.24253562503633297 -1.1743917975235193e-15
  outer loop
    vertex 167.49630072792786 57.43268898494964 6.99999999999999
    vertex 166.99630072792783 55.43268898494964 7.049916206369744e-16
    vertex 167.49630072792786 57.43268898494964 1.0574874309554614e-15
  endloop
endfacet
facet normal 0.9701425001453319 0.24253562503633297 0.0
  outer loop
    vertex 166.99630072792783 59.432688984949635 1.0574874309554614e-15
    vertex 167.49630072792786 57.43268898494964 6.99999999999999
    vertex 167.49630072792786 57.43268898494964 1.0574874309554614e-15
  endloop
endfacet
facet normal 0.9701425001453319 0.24253562503633297 0.0
  outer loop
    vertex 167.49630072792786 57.43268898494964 6.99999999999999
    vertex 166.99630072792783 59.432688984949635 1.0574874309554614e-15
    vertex 166.99630072792783 59.432688984949635 6.99999999999999
  endloop
endfacet
facet normal 0.0 0.0 1.0
  outer loop
    vertex 167.49630072792786 65.43268898494962 6.99999999999999
    vertex 166.99630072792783 67.43268898494962 6.99999999999999
    vertex 166.99630072792783 63.43268898494963 6.99999999999999
  endloop
endfacet
facet normal 0.6079329883067474 -0.7922736953485364 -0.05215240538271536
  outer loop
    vertex 162.24630072792783 57.31136864138999 5.499999999999993
    vertex 161.49630072792783 56.83461277359631 3.99999999999999
    vertex 162.11762107148746 57.31136864138999 3.99999999999999
  endloop
endfacet
facet normal 1.0574874309554516e-15 8.812395257962495e-17 -1.0
  outer loop
    vertex 167.49630072792786 69.43268898494962 1.0574874309554614e-15
    vertex 166.99630072792783 67.43268898494962 3.524958103184872e-16
    vertex 166.99630072792783 71.43268898494962 7.049916206369744e-16
  endloop
endfacet
facet normal 0.7071067811865482 -0.0 0.7071067811865468
  outer loop
    vertex 156.49630072792783 66.4326889849496 3.4999999999999902
    vertex 152.99630072792783 55.43268898494964 6.999999999999991
    vertex 156.49630072792783 55.43268898494962 3.4999999999999902
  endloop
endfacet
facet normal 0.7071067811865482 -0.0 0.7071067811865468
  outer loop
    vertex 152.99630072792783 55.43268898494964 6.999999999999991
    vertex 156.49630072792783 66.4326889849496 3.4999999999999902
    vertex 152.99630072792783 59.432688984949635 6.999999999999991
  endloop
endfacet
facet normal 0.7071067811865482 -0.0 0.7071067811865468
  outer loop
    vertex 152.99630072792783 59.432688984949635 6.999999999999991
    vertex 156.49630072792783 66.4326889849496 3.4999999999999902
    vertex 152.99630072792783 63.43268898494963 6.99999999999999
  endloop
endfacet
facet normal 0.7071067811865482 -0.0 0.7071067811865468
  outer loop
    vertex 152.99630072792783 63.43268898494963 6.99999999999999
    vertex 156.49630072792783 66.4326889849496 3.4999999999999902
    vertex 154.49630072792783 66.4326889849496 5.499999999999991
  endloop
endfacet
facet normal 0.7071067811865482 -0.0 0.7071067811865468
  outer loop
    vertex 152.99630072792783 63.43268898494963 6.99999999999999
    vertex 154.49630072792783 66.4326889849496 5.499999999999991
    vertex 152.99630072792783 67.43268898494962 6.99999999999999
  endloop
endfacet
facet normal 0.7071067811865482 -0.0 0.7071067811865468
  outer loop
    vertex 152.99630072792783 67.43268898494962 6.99999999999999
    vertex 154.49630072792783 66.4326889849496 5.499999999999991
    vertex 154.49630072792783 71.43268898494962 5.499999999999991
  endloop
endfacet
facet normal 0.7071067811865482 -0.0 0.7071067811865468
  outer loop
    vertex 152.99630072792783 67.43268898494962 6.99999999999999
    vertex 154.49630072792783 71.43268898494962 5.499999999999991
    vertex 152.99630072792783 71.43268898494962 6.999999999999991
  endloop
endfacet
facet normal -0.7071067811865481 -1.526911012737882e-17 0.707106781186547
  outer loop
    vertex 166.99630072792783 67.43268898494962 6.99999999999999
    vertex 165.49630072792783 66.4326889849496 5.49999999999999
    vertex 166.99630072792783 63.43268898494963 6.99999999999999
  endloop
endfacet
facet normal -0.7071067811865481 -1.526911012737882e-17 0.707106781186547
  outer loop
    vertex 165.49630072792783 66.4326889849496 5.49999999999999
    vertex 166.99630072792783 67.43268898494962 6.99999999999999
    vertex 165.49630072792783 71.43268898494962 5.49999999999999
  endloop
endfacet
facet normal -0.7071067811865481 -1.526911012737882e-17 0.707106781186547
  outer loop
    vertex 165.49630072792783 71.43268898494962 5.49999999999999
    vertex 166.99630072792783 67.43268898494962 6.99999999999999
    vertex 166.99630072792783 71.43268898494962 6.99999999999999
  endloop
endfacet
facet normal -0.7071067811865481 -1.526911012737882e-17 0.707106781186547
  outer loop
    vertex 166.99630072792783 59.432688984949635 6.99999999999999
    vertex 163.49630072792783 55.43268898494962 3.4999999999999902
    vertex 166.99630072792783 55.43268898494962 6.99999999999999
  endloop
endfacet
facet normal -0.7071067811865481 -1.526911012737882e-17 0.707106781186547
  outer loop
    vertex 163.49630072792783 55.43268898494962 3.4999999999999902
    vertex 166.99630072792783 59.432688984949635 6.99999999999999
    vertex 163.49630072792783 66.4326889849496 3.4999999999999902
  endloop
endfacet
facet normal -0.7071067811865481 -1.526911012737882e-17 0.707106781186547
  outer loop
    vertex 163.49630072792783 66.4326889849496 3.4999999999999902
    vertex 166.99630072792783 59.432688984949635 6.99999999999999
    vertex 166.99630072792783 63.43268898494963 6.99999999999999
  endloop
endfacet
facet normal -0.7071067811865481 -1.526911012737882e-17 0.707106781186547
  outer loop
    vertex 163.49630072792783 66.4326889849496 3.4999999999999902
    vertex 166.99630072792783 63.43268898494963 6.99999999999999
    vertex 165.49630072792783 66.4326889849496 5.49999999999999
  endloop
endfacet
facet normal 1.0 -0.0 -0.0
  outer loop
    vertex 162.24630072792783 63.3298033019796 5.499999999999993
    vertex 162.24630072792783 57.31136864138999 6.499999999999992
    vertex 162.24630072792783 57.31136864138999 5.499999999999993
  endloop
endfacet
facet normal 1.0 -0.0 -0.0
  outer loop
    vertex 162.24630072792783 57.31136864138999 6.499999999999992
    vertex 162.24630072792783 63.3298033019796 5.499999999999993
    vertex 162.24630072792783 63.3298033019796 6.499999999999992
  endloop
endfacet
facet normal -0.5364614741932524 -0.8439248110503699 0.0
  outer loop
    vertex 158.49630072792783 56.83461277359631 6.499999999999996
    vertex 157.74630072792783 57.31136864138999 5.499999999999991
    vertex 158.49630072792783 56.83461277359631 3.99999999999999
  endloop
endfacet
facet normal -0.5364614741932524 -0.8439248110503699 0.0
  outer loop
    vertex 157.74630072792783 57.31136864138999 5.499999999999991
    vertex 158.49630072792783 56.83461277359631 6.499999999999996
    vertex 157.74630072792783 57.31136864138999 6.499999999999996
  endloop
endfacet
facet normal -0.6079329883067611 -0.7922736953485255 -0.05215240538271667
  outer loop
    vertex 157.74630072792783 57.31136864138999 5.499999999999991
    vertex 157.8749803843682 57.31136864138999 3.99999999999999
    vertex 158.49630072792783 56.83461277359631 3.99999999999999
  endloop
endfacet
facet normal -0.43230457532183136 0.563390291354737 -0.7040625922196377
  outer loop
    vertex 158.49630072792783 62.03076519630294 3.99999999999999
    vertex 157.8749803843682 61.55400932850927 3.99999999999999
    vertex 157.74630072792783 63.3298033019796 5.499999999999991
  endloop
endfacet
facet normal 1.705798089988044e-16 0.6817387058278037 -0.7315957469642859
  outer loop
    vertex 161.49630072792783 63.640463473759425 5.499999999999993
    vertex 158.49630072792783 62.03076519630294 3.99999999999999
    vertex 158.49630072792783 63.640463473759425 5.499999999999991
  endloop
endfacet
facet normal 1.705798089988044e-16 0.6817387058278037 -0.7315957469642859
  outer loop
    vertex 158.49630072792783 62.03076519630294 3.99999999999999
    vertex 161.49630072792783 63.640463473759425 5.499999999999993
    vertex 161.49630072792783 62.03076519630294 3.99999999999999
  endloop
endfacet
facet normal 0.0 -1.0 0.0
  outer loop
    vertex 165.49630072792783 66.4326889849496 5.49999999999999
    vertex 156.49630072792783 66.4326889849496 3.4999999999999902
    vertex 163.49630072792783 66.4326889849496 3.4999999999999902
  endloop
endfacet
facet normal 0.0 -1.0 0.0
  outer loop
    vertex 156.49630072792783 66.4326889849496 3.4999999999999902
    vertex 165.49630072792783 66.4326889849496 5.49999999999999
    vertex 154.49630072792783 66.4326889849496 5.499999999999991
  endloop
endfacet
facet normal 1.0 -0.0 -0.0
  outer loop
    vertex 162.11762107148746 61.55400932850927 3.4999999999999893
    vertex 162.11762107148746 57.31136864138999 3.99999999999999
    vertex 162.11762107148746 57.31136864138999 3.4999999999999893
  endloop
endfacet
facet normal 1.0 -0.0 -0.0
  outer loop
    vertex 162.11762107148746 57.31136864138999 3.99999999999999
    vertex 162.11762107148746 61.55400932850927 3.4999999999999893
    vertex 162.11762107148746 61.55400932850927 3.99999999999999
  endloop
endfacet
facet normal -0.0 1.0 -0.0
  outer loop
    vertex 158.49630072792783 62.03076519630294 3.99999999999999
    vertex 161.49630072792783 62.03076519630294 3.4999999999999893
    vertex 158.49630072792783 62.03076519630294 3.4999999999999893
  endloop
endfacet
facet normal -0.0 1.0 -0.0
  outer loop
    vertex 161.49630072792783 62.03076519630294 3.4999999999999893
    vertex 158.49630072792783 62.03076519630294 3.99999999999999
    vertex 161.49630072792783 62.03076519630294 3.99999999999999
  endloop
endfacet
facet normal 0.0 -1.0 0.0
  outer loop
    vertex 161.49630072792783 56.83461277359631 3.99999999999999
    vertex 158.49630072792783 56.83461277359631 3.4999999999999893
    vertex 161.49630072792783 56.83461277359631 3.4999999999999893
  endloop
endfacet
facet normal 0.0 -1.0 0.0
  outer loop
    vertex 158.49630072792783 56.83461277359631 3.4999999999999893
    vertex 161.49630072792783 56.83461277359631 3.99999999999999
    vertex 158.49630072792783 56.83461277359631 3.99999999999999
  endloop
endfacet
facet normal 0.5364614741932411 -0.8439248110503772 -3.0054100238152125e-17
  outer loop
    vertex 162.24630072792783 57.31136864138999 5.499999999999993
    vertex 161.49630072792783 56.83461277359631 6.499999999999992
    vertex 161.49630072792783 56.83461277359631 3.99999999999999
  endloop
endfacet
facet normal 0.5364614741932411 -0.8439248110503772 -3.0054100238152125e-17
  outer loop
    vertex 161.49630072792783 56.83461277359631 6.499999999999992
    vertex 162.24630072792783 57.31136864138999 5.499999999999993
    vertex 162.24630072792783 57.31136864138999 6.499999999999992
  endloop
endfacet
facet normal 0.0 -1.0 0.0
  outer loop
    vertex 161.49630072792783 56.83461277359631 6.499999999999992
    vertex 158.49630072792783 56.83461277359631 3.99999999999999
    vertex 161.49630072792783 56.83461277359631 3.99999999999999
  endloop
endfacet
facet normal 0.0 -1.0 0.0
  outer loop
    vertex 158.49630072792783 56.83461277359631 3.99999999999999
    vertex 161.49630072792783 56.83461277359631 6.499999999999992
    vertex 158.49630072792783 56.83461277359631 6.499999999999996
  endloop
endfacet
facet normal -0.0 1.0 -0.0
  outer loop
    vertex 158.49630072792783 63.640463473759425 6.499999999999996
    vertex 161.49630072792783 63.640463473759425 5.499999999999993
    vertex 158.49630072792783 63.640463473759425 5.499999999999991
  endloop
endfacet
facet normal -0.0 1.0 -0.0
  outer loop
    vertex 161.49630072792783 63.640463473759425 5.499999999999993
    vertex 158.49630072792783 63.640463473759425 6.499999999999996
    vertex 161.49630072792783 63.640463473759425 6.499999999999992
  endloop
endfacet
facet normal 0.9963405296085164 -7.198275810777226e-19 -0.08547250469841951
  outer loop
    vertex 162.11762107148746 61.55400932850927 3.99999999999999
    vertex 162.24630072792783 57.31136864138999 5.499999999999993
    vertex 162.11762107148746 57.31136864138999 3.99999999999999
  endloop
endfacet
facet normal 0.9963405296085164 -7.198275810777226e-19 -0.08547250469841951
  outer loop
    vertex 162.24630072792783 57.31136864138999 5.499999999999993
    vertex 162.11762107148746 61.55400932850927 3.99999999999999
    vertex 162.24630072792783 63.3298033019796 5.499999999999993
  endloop
endfacet
facet normal -1.0 0.0 0.0
  outer loop
    vertex 157.8749803843682 61.55400932850927 3.99999999999999
    vertex 157.8749803843682 57.31136864138999 3.4999999999999893
    vertex 157.8749803843682 57.31136864138999 3.99999999999999
  endloop
endfacet
facet normal -1.0 0.0 0.0
  outer loop
    vertex 157.8749803843682 57.31136864138999 3.4999999999999893
    vertex 157.8749803843682 61.55400932850927 3.99999999999999
    vertex 157.8749803843682 61.55400932850927 3.4999999999999893
  endloop
endfacet
facet normal -0.2717580168978118 0.6560818900783136 -0.704062592219638
  outer loop
    vertex 158.49630072792783 62.03076519630294 3.99999999999999
    vertex 157.74630072792783 63.3298033019796 5.499999999999991
    vertex 158.49630072792783 63.640463473759425 5.499999999999991
  endloop
endfacet
facet normal -1.0 -3.748438444984807e-15 0.0
  outer loop
    vertex 157.74630072792783 63.3298033019796 6.499999999999996
    vertex 157.74630072792783 57.31136864138999 5.499999999999991
    vertex 157.74630072792783 57.31136864138999 6.499999999999996
  endloop
endfacet
facet normal -1.0 -3.748438444984807e-15 0.0
  outer loop
    vertex 157.74630072792783 57.31136864138999 5.499999999999991
    vertex 157.74630072792783 63.3298033019796 6.499999999999996
    vertex 157.74630072792783 63.3298033019796 5.499999999999991
  endloop
endfacet
facet normal -0.6087614290087311 0.7933533402912272 -0.0
  outer loop
    vertex 157.8749803843682 61.55400932850927 3.99999999999999
    vertex 158.49630072792783 62.03076519630294 3.4999999999999893
    vertex 157.8749803843682 61.55400932850927 3.4999999999999893
  endloop
endfacet
facet normal -0.6087614290087311 0.7933533402912272 -0.0
  outer loop
    vertex 158.49630072792783 62.03076519630294 3.4999999999999893
    vertex 157.8749803843682 61.55400932850927 3.99999999999999
    vertex 158.49630072792783 62.03076519630294 3.99999999999999
  endloop
endfacet
facet normal 7.77448647753484e-17 -4.09436218786832e-17 1.0
  outer loop
    vertex 156.49630072792783 55.43268898494962 3.4999999999999902
    vertex 157.8749803843682 57.31136864138999 3.4999999999999893
    vertex 156.49630072792783 66.4326889849496 3.4999999999999902
  endloop
endfacet
facet normal 7.77448647753484e-17 -4.09436218786832e-17 1.0
  outer loop
    vertex 157.8749803843682 57.31136864138999 3.4999999999999893
    vertex 156.49630072792783 55.43268898494962 3.4999999999999902
    vertex 158.49630072792783 56.83461277359631 3.4999999999999893
  endloop
endfacet
facet normal 7.77448647753484e-17 -4.09436218786832e-17 1.0
  outer loop
    vertex 158.49630072792783 56.83461277359631 3.4999999999999893
    vertex 156.49630072792783 55.43268898494962 3.4999999999999902
    vertex 163.49630072792783 55.43268898494962 3.4999999999999902
  endloop
endfacet
facet normal 7.77448647753484e-17 -4.09436218786832e-17 1.0
  outer loop
    vertex 158.49630072792783 56.83461277359631 3.4999999999999893
    vertex 163.49630072792783 55.43268898494962 3.4999999999999902
    vertex 161.49630072792783 56.83461277359631 3.4999999999999893
  endloop
endfacet
facet normal 7.77448647753484e-17 -4.09436218786832e-17 1.0
  outer loop
    vertex 161.49630072792783 56.83461277359631 3.4999999999999893
    vertex 163.49630072792783 55.43268898494962 3.4999999999999902
    vertex 162.11762107148746 57.31136864138999 3.4999999999999893
  endloop
endfacet
facet normal 7.77448647753484e-17 -4.09436218786832e-17 1.0
  outer loop
    vertex 162.11762107148746 57.31136864138999 3.4999999999999893
    vertex 163.49630072792783 55.43268898494962 3.4999999999999902
    vertex 162.11762107148746 61.55400932850927 3.4999999999999893
  endloop
endfacet
facet normal 7.77448647753484e-17 -4.09436218786832e-17 1.0
  outer loop
    vertex 156.49630072792783 66.4326889849496 3.4999999999999902
    vertex 157.8749803843682 61.55400932850927 3.4999999999999893
    vertex 163.49630072792783 66.4326889849496 3.4999999999999902
  endloop
endfacet
facet normal 7.77448647753484e-17 -4.09436218786832e-17 1.0
  outer loop
    vertex 157.8749803843682 61.55400932850927 3.4999999999999893
    vertex 156.49630072792783 66.4326889849496 3.4999999999999902
    vertex 157.8749803843682 57.31136864138999 3.4999999999999893
  endloop
endfacet
facet normal 7.77448647753484e-17 -4.09436218786832e-17 1.0
  outer loop
    vertex 163.49630072792783 66.4326889849496 3.4999999999999902
    vertex 157.8749803843682 61.55400932850927 3.4999999999999893
    vertex 158.49630072792783 62.03076519630294 3.4999999999999893
  endloop
endfacet
facet normal 7.77448647753484e-17 -4.09436218786832e-17 1.0
  outer loop
    vertex 163.49630072792783 66.4326889849496 3.4999999999999902
    vertex 158.49630072792783 62.03076519630294 3.4999999999999893
    vertex 161.49630072792783 62.03076519630294 3.4999999999999893
  endloop
endfacet
facet normal 7.77448647753484e-17 -4.09436218786832e-17 1.0
  outer loop
    vertex 163.49630072792783 66.4326889849496 3.4999999999999902
    vertex 161.49630072792783 62.03076519630294 3.4999999999999893
    vertex 162.11762107148746 61.55400932850927 3.4999999999999893
  endloop
endfacet
facet normal 7.77448647753484e-17 -4.09436218786832e-17 1.0
  outer loop
    vertex 163.49630072792783 66.4326889849496 3.4999999999999902
    vertex 162.11762107148746 61.55400932850927 3.4999999999999893
    vertex 163.49630072792783 55.43268898494962 3.4999999999999902
  endloop
endfacet
facet normal -0.3826834323650897 0.9238795325112868 0.0
  outer loop
    vertex 157.74630072792783 63.3298033019796 6.499999999999996
    vertex 158.49630072792783 63.640463473759425 5.499999999999991
    vertex 157.74630072792783 63.3298033019796 5.499999999999991
  endloop
endfacet
facet normal -0.3826834323650897 0.9238795325112868 0.0
  outer loop
    vertex 158.49630072792783 63.640463473759425 5.499999999999991
    vertex 157.74630072792783 63.3298033019796 6.499999999999996
    vertex 158.49630072792783 63.640463473759425 6.499999999999996
  endloop
endfacet
facet normal -5.30901853091925e-16 3.028586451920069e-16 -1.0
  outer loop
    vertex 165.49630072792783 71.43268898494962 1.4999999999999953
    vertex 154.49630072792783 55.43268898494964 1.4999999999999971
    vertex 154.49630072792783 71.43268898494962 1.4999999999999991
  endloop
endfacet
facet normal -5.30901853091925e-16 3.028586451920069e-16 -1.0
  outer loop
    vertex 154.49630072792783 55.43268898494964 1.4999999999999971
    vertex 165.49630072792783 71.43268898494962 1.4999999999999953
    vertex 165.49630072792783 55.43268898494962 1.4999999999999898
  endloop
endfacet
facet normal -0.9963405296085157 -2.4949223960153893e-15 -0.08547250469842556
  outer loop
    vertex 157.74630072792783 63.3298033019796 5.499999999999991
    vertex 157.8749803843682 57.31136864138999 3.99999999999999
    vertex 157.74630072792783 57.31136864138999 5.499999999999991
  endloop
endfacet
facet normal -0.9963405296085157 -2.4949223960153893e-15 -0.08547250469842556
  outer loop
    vertex 157.8749803843682 57.31136864138999 3.99999999999999
    vertex 157.74630072792783 63.3298033019796 5.499999999999991
    vertex 157.8749803843682 61.55400932850927 3.99999999999999
  endloop
endfacet
facet normal 0.3826834323650897 0.9238795325112868 -1.4693769893288927e-29
  outer loop
    vertex 161.49630072792783 63.640463473759425 6.499999999999992
    vertex 162.24630072792783 63.3298033019796 5.499999999999993
    vertex 161.49630072792783 63.640463473759425 5.499999999999993
  endloop
endfacet
facet normal 0.3826834323650897 0.9238795325112868 -1.4693769893288927e-29
  outer loop
    vertex 162.24630072792783 63.3298033019796 5.499999999999993
    vertex 161.49630072792783 63.640463473759425 6.499999999999992
    vertex 162.24630072792783 63.3298033019796 6.499999999999992
  endloop
endfacet
facet normal -1.0912078742600826e-15 -1.0 -1.241195439308358e-15
  outer loop
    vertex 166.99630072792783 55.43268898494962 6.99999999999999
    vertex 165.49630072792783 55.43268898494962 1.4999999999999898
    vertex 166.99630072792783 55.43268898494964 7.049916206369744e-16
  endloop
endfacet
facet normal -1.0912078742600826e-15 -1.0 -1.241195439308358e-15
  outer loop
    vertex 165.49630072792783 55.43268898494962 1.4999999999999898
    vertex 166.99630072792783 55.43268898494962 6.99999999999999
    vertex 163.49630072792783 55.43268898494962 3.4999999999999902
  endloop
endfacet
facet normal -1.0912078742600826e-15 -1.0 -1.241195439308358e-15
  outer loop
    vertex 165.49630072792783 55.43268898494962 1.4999999999999898
    vertex 163.49630072792783 55.43268898494962 3.4999999999999902
    vertex 154.49630072792783 55.43268898494964 1.4999999999999971
  endloop
endfacet
facet normal -1.0912078742600826e-15 -1.0 -1.241195439308358e-15
  outer loop
    vertex 154.49630072792783 55.43268898494964 1.4999999999999971
    vertex 152.99630072792783 55.43268898494964 6.999999999999991
    vertex 152.99630072792783 55.43268898494964 0.0
  endloop
endfacet
facet normal -1.0912078742600826e-15 -1.0 -1.241195439308358e-15
  outer loop
    vertex 152.99630072792783 55.43268898494964 6.999999999999991
    vertex 154.49630072792783 55.43268898494964 1.4999999999999971
    vertex 156.49630072792783 55.43268898494962 3.4999999999999902
  endloop
endfacet
facet normal -1.0912078742600826e-15 -1.0 -1.241195439308358e-15
  outer loop
    vertex 156.49630072792783 55.43268898494962 3.4999999999999902
    vertex 154.49630072792783 55.43268898494964 1.4999999999999971
    vertex 163.49630072792783 55.43268898494962 3.4999999999999902
  endloop
endfacet
endsolid AutoSave_Spring_Connector
