solid AutoSave_Spring_Connector
facet normal 0.0 0.0 -1.0
  outer loop
    vertex 173.83284792346396 -8.885201404865297 0.0
    vertex 163.83284792346396 -14.885201404865292 0.0
    vertex 163.83284792346396 -8.885201404865297 0.0
  endloop
endfacet
facet normal 0.0 0.0 -1.0
  outer loop
    vertex 163.83284792346396 -14.885201404865292 0.0
    vertex 173.83284792346396 -8.885201404865297 0.0
    vertex 166.42103837448917 -15.225943141974609 0.0
  endloop
endfacet
facet normal 0.0 0.0 -1.0
  outer loop
    vertex 166.42103837448917 -15.225943141974609 0.0
    vertex 173.83284792346396 -8.885201404865297 0.0
    vertex 168.83284792346396 -16.2249473670209 0.0
  endloop
endfacet
facet normal 0.0 0.0 -1.0
  outer loop
    vertex 168.83284792346396 -16.2249473670209 0.0
    vertex 173.83284792346396 -8.885201404865297 0.0
    vertex 170.9039157353294 -17.81413359299981 0.0
  endloop
endfacet
facet normal 0.0 0.0 -1.0
  outer loop
    vertex 170.9039157353294 -17.81413359299981 0.0
    vertex 173.83284792346396 -8.885201404865297 0.0
    vertex 172.49310196130833 -19.885201404865278 0.0
  endloop
endfacet
facet normal 0.0 0.0 -1.0
  outer loop
    vertex 172.49310196130833 -19.885201404865278 0.0
    vertex 173.83284792346396 -8.885201404865297 0.0
    vertex 173.49210618635462 -22.297010953840065 0.0
  endloop
endfacet
facet normal 0.0 0.0 -1.0
  outer loop
    vertex 173.49210618635462 -22.297010953840065 0.0
    vertex 173.83284792346396 -8.885201404865297 0.0
    vertex 173.83284792346396 -24.885201404865267 0.0
  endloop
endfacet
facet normal -0.0 -0.0 1.0
  outer loop
    vertex 166.42103837448917 -15.225943141974609 6.999999999999991
    vertex 163.83284792346396 -8.885201404865297 6.999999999999991
    vertex 163.83284792346396 -14.885201404865292 6.999999999999991
  endloop
endfacet
facet normal -0.0 -0.0 1.0
  outer loop
    vertex 163.83284792346396 -8.885201404865297 6.999999999999991
    vertex 166.42103837448917 -15.225943141974609 6.999999999999991
    vertex 173.83284792346396 -8.885201404865297 6.999999999999991
  endloop
endfacet
facet normal -0.0 -0.0 1.0
  outer loop
    vertex 173.83284792346396 -8.885201404865297 6.999999999999991
    vertex 166.42103837448917 -15.225943141974609 6.999999999999991
    vertex 168.83284792346396 -16.2249473670209 6.999999999999991
  endloop
endfacet
facet normal -0.0 -0.0 1.0
  outer loop
    vertex 173.83284792346396 -8.885201404865297 6.999999999999991
    vertex 168.83284792346396 -16.2249473670209 6.999999999999991
    vertex 170.9039157353294 -17.81413359299981 6.999999999999991
  endloop
endfacet
facet normal -0.0 -0.0 1.0
  outer loop
    vertex 173.83284792346396 -8.885201404865297 6.999999999999991
    vertex 170.9039157353294 -17.81413359299981 6.999999999999991
    vertex 172.49310196130833 -19.885201404865278 6.999999999999991
  endloop
endfacet
facet normal -0.0 -0.0 1.0
  outer loop
    vertex 173.83284792346396 -8.885201404865297 6.999999999999991
    vertex 172.49310196130833 -19.885201404865278 6.999999999999991
    vertex 173.49210618635462 -22.297010953840065 6.999999999999991
  endloop
endfacet
facet normal -0.0 -0.0 1.0
  outer loop
    vertex 173.83284792346396 -8.885201404865297 6.999999999999991
    vertex 173.49210618635462 -22.297010953840065 6.999999999999991
    vertex 173.83284792346396 -24.885201404865267 6.999999999999991
  endloop
endfacet
facet normal -1.0 0.0 0.0
  outer loop
    vertex 163.83284792346396 -8.885201404865297 6.999999999999991
    vertex 163.83284792346396 -14.885201404865292 0.0
    vertex 163.83284792346396 -14.885201404865292 6.999999999999991
  endloop
endfacet
facet normal -1.0 0.0 0.0
  outer loop
    vertex 163.83284792346396 -14.885201404865292 0.0
    vertex 163.83284792346396 -8.885201404865297 6.999999999999991
    vertex 163.83284792346396 -8.885201404865297 0.0
  endloop
endfacet
facet normal -0.13052619222005185 -0.9914448613738105 0.0
  outer loop
    vertex 166.42103837448917 -15.225943141974609 6.999999999999991
    vertex 163.83284792346396 -14.885201404865292 0.0
    vertex 166.42103837448917 -15.225943141974609 0.0
  endloop
endfacet
facet normal -0.13052619222005185 -0.9914448613738105 0.0
  outer loop
    vertex 163.83284792346396 -14.885201404865292 0.0
    vertex 166.42103837448917 -15.225943141974609 6.999999999999991
    vertex 163.83284792346396 -14.885201404865292 6.999999999999991
  endloop
endfacet
facet normal -0.2717580168978118 0.6560818900783136 -0.704062592219638
  outer loop
    vertex 179.33284792346396 -18.287125193511972 3.99999999999999
    vertex 178.58284792346396 -16.98808708783531 5.499999999999991
    vertex 179.33284792346396 -16.677426916055488 5.499999999999991
  endloop
endfacet
facet normal 0.5364614741932411 -0.8439248110503772 -3.0054100238152125e-17
  outer loop
    vertex 183.08284792346396 -23.006521748424923 5.499999999999993
    vertex 182.33284792346396 -23.483277616218597 6.499999999999992
    vertex 182.33284792346396 -23.483277616218597 3.99999999999999
  endloop
endfacet
facet normal 0.5364614741932411 -0.8439248110503772 -3.0054100238152125e-17
  outer loop
    vertex 182.33284792346396 -23.483277616218597 6.499999999999992
    vertex 183.08284792346396 -23.006521748424923 5.499999999999993
    vertex 183.08284792346396 -23.006521748424923 6.499999999999992
  endloop
endfacet
facet normal 0.0 1.0 0.0
  outer loop
    vertex 179.33284792346396 -16.677426916055488 6.499999999999996
    vertex 182.33284792346396 -16.677426916055488 5.499999999999993
    vertex 179.33284792346396 -16.677426916055488 5.499999999999991
  endloop
endfacet
facet normal 0.0 1.0 0.0
  outer loop
    vertex 182.33284792346396 -16.677426916055488 5.499999999999993
    vertex 179.33284792346396 -16.677426916055488 6.499999999999996
    vertex 182.33284792346396 -16.677426916055488 6.499999999999992
  endloop
endfacet
facet normal 0.6073485119501435 -0.7944355134508694 -1.6428121264298477e-16
  outer loop
    vertex 192.8304635366249 -16.216048714192606 6.999999999999991
    vertex 190.75656740145854 -17.801548997483188 1.762479051592436e-15
    vertex 192.8304635366249 -16.216048714192606 1.762479051592436e-15
  endloop
endfacet
facet normal 0.6073485119501435 -0.7944355134508694 -1.6428121264298477e-16
  outer loop
    vertex 190.75656740145854 -17.801548997483188 1.762479051592436e-15
    vertex 192.8304635366249 -16.216048714192606 6.999999999999991
    vertex 190.75656740145854 -17.801548997483188 6.999999999999991
  endloop
endfacet
facet normal 0.12876148357406567 -0.9916755922920588 0.0
  outer loop
    vertex 197.83284792346396 -14.885201404865292 6.999999999999991
    vertex 195.24405104395424 -15.22133686031917 1.762479051592436e-15
    vertex 197.83284792346396 -14.885201404865292 1.762479051592436e-15
  endloop
endfacet
facet normal 0.12876148357406567 -0.9916755922920588 0.0
  outer loop
    vertex 195.24405104395424 -15.22133686031917 1.762479051592436e-15
    vertex 197.83284792346396 -14.885201404865292 6.999999999999991
    vertex 195.24405104395424 -15.22133686031917 6.999999999999991
  endloop
endfacet
facet normal -0.3826834323650897 0.9238795325112868 0.0
  outer loop
    vertex 178.58284792346396 -16.98808708783531 6.499999999999996
    vertex 179.33284792346396 -16.677426916055488 5.499999999999991
    vertex 178.58284792346396 -16.98808708783531 5.499999999999991
  endloop
endfacet
facet normal -0.3826834323650897 0.9238795325112868 0.0
  outer loop
    vertex 179.33284792346396 -16.677426916055488 5.499999999999991
    vertex 178.58284792346396 -16.98808708783531 6.499999999999996
    vertex 179.33284792346396 -16.677426916055488 6.499999999999996
  endloop
endfacet
facet normal -1.0 -3.748438444984807e-15 0.0
  outer loop
    vertex 178.58284792346396 -16.98808708783531 6.499999999999996
    vertex 178.58284792346396 -23.006521748424923 5.499999999999991
    vertex 178.58284792346396 -23.006521748424923 6.499999999999996
  endloop
endfacet
facet normal -1.0 -3.748438444984807e-15 0.0
  outer loop
    vertex 178.58284792346396 -23.006521748424923 5.499999999999991
    vertex 178.58284792346396 -16.98808708783531 6.499999999999996
    vertex 178.58284792346396 -16.98808708783531 5.499999999999991
  endloop
endfacet
facet normal 0.0 -1.0 0.0
  outer loop
    vertex 182.33284792346396 -23.483277616218597 3.99999999999999
    vertex 179.33284792346396 -23.483277616218597 3.4999999999999893
    vertex 182.33284792346396 -23.483277616218597 3.4999999999999893
  endloop
endfacet
facet normal 0.0 -1.0 0.0
  outer loop
    vertex 179.33284792346396 -23.483277616218597 3.4999999999999893
    vertex 182.33284792346396 -23.483277616218597 3.99999999999999
    vertex 179.33284792346396 -23.483277616218597 3.99999999999999
  endloop
endfacet
facet normal -0.9914448613738088 -0.13052619222006473 0.0
  outer loop
    vertex 173.49210618635462 -22.297010953840065 6.999999999999991
    vertex 173.83284792346396 -24.885201404865267 0.0
    vertex 173.83284792346396 -24.885201404865267 6.999999999999991
  endloop
endfacet
facet normal -0.9914448613738088 -0.13052619222006473 0.0
  outer loop
    vertex 173.83284792346396 -24.885201404865267 0.0
    vertex 173.49210618635462 -22.297010953840065 6.999999999999991
    vertex 173.49210618635462 -22.297010953840065 0.0
  endloop
endfacet
facet normal -0.7933533402912344 -0.6087614290087217 -0.0
  outer loop
    vertex 170.9039157353294 -17.81413359299981 6.999999999999991
    vertex 172.49310196130833 -19.885201404865278 0.0
    vertex 172.49310196130833 -19.885201404865278 6.999999999999991
  endloop
endfacet
facet normal -0.7933533402912344 -0.6087614290087217 -0.0
  outer loop
    vertex 172.49310196130833 -19.885201404865278 0.0
    vertex 170.9039157353294 -17.81413359299981 6.999999999999991
    vertex 170.9039157353294 -17.81413359299981 0.0
  endloop
endfacet
facet normal -0.9238795325112867 -0.38268343236508984 -0.0
  outer loop
    vertex 172.49310196130833 -19.885201404865278 6.999999999999991
    vertex 173.49210618635462 -22.297010953840065 0.0
    vertex 173.49210618635462 -22.297010953840065 6.999999999999991
  endloop
endfacet
facet normal -0.9238795325112867 -0.38268343236508984 -0.0
  outer loop
    vertex 173.49210618635462 -22.297010953840065 0.0
    vertex 172.49310196130833 -19.885201404865278 6.999999999999991
    vertex 172.49310196130833 -19.885201404865278 0.0
  endloop
endfacet
facet normal 0.0 -1.0 0.0
  outer loop
    vertex 186.33284792346396 -13.88520140486531 5.49999999999999
    vertex 177.33284792346396 -13.88520140486531 3.4999999999999902
    vertex 184.33284792346396 -13.88520140486531 3.4999999999999902
  endloop
endfacet
facet normal 0.0 -1.0 0.0
  outer loop
    vertex 177.33284792346396 -13.88520140486531 3.4999999999999902
    vertex 186.33284792346396 -13.88520140486531 5.49999999999999
    vertex 175.33284792346396 -13.88520140486531 5.499999999999991
  endloop
endfacet
facet normal 0.3810385722639955 -0.9245591416707835 -1.73396004678306e-16
  outer loop
    vertex 195.24405104395424 -15.22133686031917 6.999999999999991
    vertex 192.8304635366249 -16.216048714192606 1.762479051592436e-15
    vertex 195.24405104395424 -15.22133686031917 1.762479051592436e-15
  endloop
endfacet
facet normal 0.3810385722639955 -0.9245591416707835 -1.73396004678306e-16
  outer loop
    vertex 192.8304635366249 -16.216048714192606 1.762479051592436e-15
    vertex 195.24405104395424 -15.22133686031917 6.999999999999991
    vertex 192.8304635366249 -16.216048714192606 6.999999999999991
  endloop
endfacet
facet normal 1.0 0.0 0.0
  outer loop
    vertex 182.9541682670236 -18.76388106130565 3.4999999999999893
    vertex 182.9541682670236 -23.006521748424923 3.99999999999999
    vertex 182.9541682670236 -23.006521748424923 3.4999999999999893
  endloop
endfacet
facet normal 1.0 0.0 0.0
  outer loop
    vertex 182.9541682670236 -23.006521748424923 3.99999999999999
    vertex 182.9541682670236 -18.76388106130565 3.4999999999999893
    vertex 182.9541682670236 -18.76388106130565 3.99999999999999
  endloop
endfacet
facet normal 0.0 -1.0 0.0
  outer loop
    vertex 182.33284792346396 -23.483277616218597 6.499999999999992
    vertex 179.33284792346396 -23.483277616218597 3.99999999999999
    vertex 182.33284792346396 -23.483277616218597 3.99999999999999
  endloop
endfacet
facet normal 0.0 -1.0 0.0
  outer loop
    vertex 179.33284792346396 -23.483277616218597 3.99999999999999
    vertex 182.33284792346396 -23.483277616218597 6.499999999999992
    vertex 179.33284792346396 -23.483277616218597 6.499999999999996
  endloop
endfacet
facet normal 1.705798089988044e-16 0.6817387058278037 -0.7315957469642859
  outer loop
    vertex 182.33284792346396 -16.677426916055488 5.499999999999993
    vertex 179.33284792346396 -18.287125193511972 3.99999999999999
    vertex 179.33284792346396 -16.677426916055488 5.499999999999991
  endloop
endfacet
facet normal 1.705798089988044e-16 0.6817387058278037 -0.7315957469642859
  outer loop
    vertex 179.33284792346396 -18.287125193511972 3.99999999999999
    vertex 182.33284792346396 -16.677426916055488 5.499999999999993
    vertex 182.33284792346396 -18.287125193511972 3.99999999999999
  endloop
endfacet
facet normal -1.0035467909423124e-15 -1.0 -1.4356193002062005e-15
  outer loop
    vertex 187.83284792346396 -24.88520140486529 6.99999999999999
    vertex 186.33284792346396 -24.88520140486529 1.4999999999999898
    vertex 187.83284792346396 -24.885201404865267 7.049916206369744e-16
  endloop
endfacet
facet normal -1.0035467909423124e-15 -1.0 -1.4356193002062005e-15
  outer loop
    vertex 186.33284792346396 -24.88520140486529 1.4999999999999898
    vertex 187.83284792346396 -24.88520140486529 6.99999999999999
    vertex 184.33284792346396 -24.88520140486529 3.4999999999999902
  endloop
endfacet
facet normal -1.0035467909423124e-15 -1.0 -1.4356193002062005e-15
  outer loop
    vertex 186.33284792346396 -24.88520140486529 1.4999999999999898
    vertex 184.33284792346396 -24.88520140486529 3.4999999999999902
    vertex 175.33284792346396 -24.885201404865267 1.4999999999999971
  endloop
endfacet
facet normal -1.0035467909423124e-15 -1.0 -1.4356193002062005e-15
  outer loop
    vertex 175.33284792346396 -24.885201404865267 1.4999999999999971
    vertex 173.83284792346396 -24.885201404865267 6.999999999999991
    vertex 173.83284792346396 -24.885201404865267 0.0
  endloop
endfacet
facet normal -1.0035467909423124e-15 -1.0 -1.4356193002062005e-15
  outer loop
    vertex 173.83284792346396 -24.885201404865267 6.999999999999991
    vertex 175.33284792346396 -24.885201404865267 1.4999999999999971
    vertex 177.33284792346396 -24.88520140486529 3.4999999999999902
  endloop
endfacet
facet normal -1.0035467909423124e-15 -1.0 -1.4356193002062005e-15
  outer loop
    vertex 177.33284792346396 -24.88520140486529 3.4999999999999902
    vertex 175.33284792346396 -24.885201404865267 1.4999999999999971
    vertex 184.33284792346396 -24.88520140486529 3.4999999999999902
  endloop
endfacet
facet normal 0.0 1.0 0.0
  outer loop
    vertex 179.33284792346396 -18.287125193511972 3.99999999999999
    vertex 182.33284792346396 -18.287125193511972 3.4999999999999893
    vertex 179.33284792346396 -18.287125193511972 3.4999999999999893
  endloop
endfacet
facet normal 0.0 1.0 0.0
  outer loop
    vertex 182.33284792346396 -18.287125193511972 3.4999999999999893
    vertex 179.33284792346396 -18.287125193511972 3.99999999999999
    vertex 182.33284792346396 -18.287125193511972 3.99999999999999
  endloop
endfacet
facet normal 1.0 -0.0 -0.0
  outer loop
    vertex 187.83284792346396 -24.885201404865267 7.049916206369744e-16
    vertex 187.83284792346396 -24.73405448878988 6.99999999999999
    vertex 187.83284792346396 -24.88520140486529 6.99999999999999
  endloop
endfacet
facet normal 1.0 -0.0 -0.0
  outer loop
    vertex 187.83284792346396 -24.73405448878988 6.99999999999999
    vertex 187.83284792346396 -24.885201404865267 7.049916206369744e-16
    vertex 187.83284792346396 -24.73405448878988 3.524958103184872e-16
  endloop
endfacet
facet normal -7.261671555737552e-17 7.17630746352643e-17 1.0
  outer loop
    vertex 188.16039863657215 -22.27982007666801 6.999999999999991
    vertex 187.83284792346396 -8.885201404865297 6.99999999999999
    vertex 187.83284792346396 -24.73405448878988 6.99999999999999
  endloop
endfacet
facet normal -7.261671555737552e-17 7.17630746352643e-17 1.0
  outer loop
    vertex 187.83284792346396 -8.885201404865297 6.99999999999999
    vertex 188.16039863657215 -22.27982007666801 6.999999999999991
    vertex 189.16369523279133 -19.86978848604776 6.999999999999991
  endloop
endfacet
facet normal -7.261671555737552e-17 7.17630746352643e-17 1.0
  outer loop
    vertex 187.83284792346396 -8.885201404865297 6.99999999999999
    vertex 189.16369523279133 -19.86978848604776 6.999999999999991
    vertex 190.75656740145854 -17.801548997483188 6.999999999999991
  endloop
endfacet
facet normal -7.261671555737552e-17 7.17630746352643e-17 1.0
  outer loop
    vertex 187.83284792346396 -8.885201404865297 6.99999999999999
    vertex 190.75656740145854 -17.801548997483188 6.999999999999991
    vertex 197.83284792346396 -8.885201404865297 6.99999999999999
  endloop
endfacet
facet normal -7.261671555737552e-17 7.17630746352643e-17 1.0
  outer loop
    vertex 197.83284792346396 -8.885201404865297 6.99999999999999
    vertex 190.75656740145854 -17.801548997483188 6.999999999999991
    vertex 192.8304635366249 -16.216048714192606 6.999999999999991
  endloop
endfacet
facet normal -7.261671555737552e-17 7.17630746352643e-17 1.0
  outer loop
    vertex 197.83284792346396 -8.885201404865297 6.99999999999999
    vertex 192.8304635366249 -16.216048714192606 6.999999999999991
    vertex 195.24405104395424 -15.22133686031917 6.999999999999991
  endloop
endfacet
facet normal -7.261671555737552e-17 7.17630746352643e-17 1.0
  outer loop
    vertex 197.83284792346396 -8.885201404865297 6.99999999999999
    vertex 195.24405104395424 -15.22133686031917 6.999999999999991
    vertex 197.83284792346396 -14.885201404865292 6.999999999999991
  endloop
endfacet
facet normal 0.9963405296085164 -7.198275810777226e-19 -0.08547250469841951
  outer loop
    vertex 182.9541682670236 -18.76388106130565 3.99999999999999
    vertex 183.08284792346396 -23.006521748424923 5.499999999999993
    vertex 182.9541682670236 -23.006521748424923 3.99999999999999
  endloop
endfacet
facet normal 0.9963405296085164 -7.198275810777226e-19 -0.08547250469841951
  outer loop
    vertex 183.08284792346396 -23.006521748424923 5.499999999999993
    vertex 182.9541682670236 -18.76388106130565 3.99999999999999
    vertex 183.08284792346396 -16.98808708783531 5.499999999999993
  endloop
endfacet
facet normal 0.9231969970249353 -0.38432708034191654 -1.1384926148142936e-16
  outer loop
    vertex 189.16369523279133 -19.86978848604776 1.762479051592436e-15
    vertex 188.16039863657215 -22.27982007666801 6.999999999999991
    vertex 188.16039863657215 -22.27982007666801 1.762479051592436e-15
  endloop
endfacet
facet normal 0.9231969970249353 -0.38432708034191654 -1.1384926148142936e-16
  outer loop
    vertex 188.16039863657215 -22.27982007666801 6.999999999999991
    vertex 189.16369523279133 -19.86978848604776 1.762479051592436e-15
    vertex 189.16369523279133 -19.86978848604776 6.999999999999991
  endloop
endfacet
facet normal 0.7922686542377674 -0.6101724178560327 -1.439709274535837e-16
  outer loop
    vertex 190.75656740145854 -17.801548997483188 1.762479051592436e-15
    vertex 189.16369523279133 -19.86978848604776 6.999999999999991
    vertex 189.16369523279133 -19.86978848604776 1.762479051592436e-15
  endloop
endfacet
facet normal 0.7922686542377674 -0.6101724178560327 -1.439709274535837e-16
  outer loop
    vertex 189.16369523279133 -19.86978848604776 6.999999999999991
    vertex 190.75656740145854 -17.801548997483188 1.762479051592436e-15
    vertex 190.75656740145854 -17.801548997483188 6.999999999999991
  endloop
endfacet
facet normal -0.43230457532183136 0.563390291354737 -0.7040625922196377
  outer loop
    vertex 179.33284792346396 -18.287125193511972 3.99999999999999
    vertex 178.71152757990433 -18.76388106130565 3.99999999999999
    vertex 178.58284792346396 -16.98808708783531 5.499999999999991
  endloop
endfacet
facet normal -0.6087614290087311 0.7933533402912272 0.0
  outer loop
    vertex 178.71152757990433 -18.76388106130565 3.99999999999999
    vertex 179.33284792346396 -18.287125193511972 3.4999999999999893
    vertex 178.71152757990433 -18.76388106130565 3.4999999999999893
  endloop
endfacet
facet normal -0.6087614290087311 0.7933533402912272 0.0
  outer loop
    vertex 179.33284792346396 -18.287125193511972 3.4999999999999893
    vertex 178.71152757990433 -18.76388106130565 3.99999999999999
    vertex 179.33284792346396 -18.287125193511972 3.99999999999999
  endloop
endfacet
facet normal 0.3826834323650897 0.9238795325112868 -1.4693769893288927e-29
  outer loop
    vertex 182.33284792346396 -16.677426916055488 6.499999999999992
    vertex 183.08284792346396 -16.98808708783531 5.499999999999993
    vertex 182.33284792346396 -16.677426916055488 5.499999999999993
  endloop
endfacet
facet normal 0.3826834323650897 0.9238795325112868 -1.4693769893288927e-29
  outer loop
    vertex 183.08284792346396 -16.98808708783531 5.499999999999993
    vertex 182.33284792346396 -16.677426916055488 6.499999999999992
    vertex 183.08284792346396 -16.98808708783531 6.499999999999992
  endloop
endfacet
facet normal 0.9912109901200317 -0.13229048743302207 6.706342542382944e-19
  outer loop
    vertex 188.16039863657215 -22.27982007666801 1.762479051592436e-15
    vertex 187.83284792346396 -24.73405448878988 6.99999999999999
    vertex 187.83284792346396 -24.73405448878988 3.524958103184872e-16
  endloop
endfacet
facet normal 0.9912109901200317 -0.13229048743302207 6.706342542382944e-19
  outer loop
    vertex 187.83284792346396 -24.73405448878988 6.99999999999999
    vertex 188.16039863657215 -22.27982007666801 1.762479051592436e-15
    vertex 188.16039863657215 -22.27982007666801 6.999999999999991
  endloop
endfacet
facet normal -5.30901853091925e-16 3.028586451920069e-16 -1.0
  outer loop
    vertex 186.33284792346396 -8.885201404865297 1.4999999999999953
    vertex 175.33284792346396 -24.885201404865267 1.4999999999999971
    vertex 175.33284792346396 -8.885201404865297 1.4999999999999991
  endloop
endfacet
facet normal -5.30901853091925e-16 3.028586451920069e-16 -1.0
  outer loop
    vertex 175.33284792346396 -24.885201404865267 1.4999999999999971
    vertex 186.33284792346396 -8.885201404865297 1.4999999999999953
    vertex 186.33284792346396 -24.88520140486529 1.4999999999999898
  endloop
endfacet
facet normal -1.0 0.0 0.0
  outer loop
    vertex 178.71152757990433 -18.76388106130565 3.99999999999999
    vertex 178.71152757990433 -23.006521748424923 3.4999999999999893
    vertex 178.71152757990433 -23.006521748424923 3.99999999999999
  endloop
endfacet
facet normal -1.0 0.0 0.0
  outer loop
    vertex 178.71152757990433 -23.006521748424923 3.4999999999999893
    vertex 178.71152757990433 -18.76388106130565 3.99999999999999
    vertex 178.71152757990433 -18.76388106130565 3.4999999999999893
  endloop
endfacet
facet normal 7.77448647753484e-17 -4.09436218786832e-17 1.0
  outer loop
    vertex 177.33284792346396 -24.88520140486529 3.4999999999999902
    vertex 178.71152757990433 -23.006521748424923 3.4999999999999893
    vertex 177.33284792346396 -13.88520140486531 3.4999999999999902
  endloop
endfacet
facet normal 7.77448647753484e-17 -4.09436218786832e-17 1.0
  outer loop
    vertex 178.71152757990433 -23.006521748424923 3.4999999999999893
    vertex 177.33284792346396 -24.88520140486529 3.4999999999999902
    vertex 179.33284792346396 -23.483277616218597 3.4999999999999893
  endloop
endfacet
facet normal 7.77448647753484e-17 -4.09436218786832e-17 1.0
  outer loop
    vertex 179.33284792346396 -23.483277616218597 3.4999999999999893
    vertex 177.33284792346396 -24.88520140486529 3.4999999999999902
    vertex 184.33284792346396 -24.88520140486529 3.4999999999999902
  endloop
endfacet
facet normal 7.77448647753484e-17 -4.09436218786832e-17 1.0
  outer loop
    vertex 179.33284792346396 -23.483277616218597 3.4999999999999893
    vertex 184.33284792346396 -24.88520140486529 3.4999999999999902
    vertex 182.33284792346396 -23.483277616218597 3.4999999999999893
  endloop
endfacet
facet normal 7.77448647753484e-17 -4.09436218786832e-17 1.0
  outer loop
    vertex 182.33284792346396 -23.483277616218597 3.4999999999999893
    vertex 184.33284792346396 -24.88520140486529 3.4999999999999902
    vertex 182.9541682670236 -23.006521748424923 3.4999999999999893
  endloop
endfacet
facet normal 7.77448647753484e-17 -4.09436218786832e-17 1.0
  outer loop
    vertex 182.9541682670236 -23.006521748424923 3.4999999999999893
    vertex 184.33284792346396 -24.88520140486529 3.4999999999999902
    vertex 182.9541682670236 -18.76388106130565 3.4999999999999893
  endloop
endfacet
facet normal 7.77448647753484e-17 -4.09436218786832e-17 1.0
  outer loop
    vertex 177.33284792346396 -13.88520140486531 3.4999999999999902
    vertex 178.71152757990433 -18.76388106130565 3.4999999999999893
    vertex 184.33284792346396 -13.88520140486531 3.4999999999999902
  endloop
endfacet
facet normal 7.77448647753484e-17 -4.09436218786832e-17 1.0
  outer loop
    vertex 178.71152757990433 -18.76388106130565 3.4999999999999893
    vertex 177.33284792346396 -13.88520140486531 3.4999999999999902
    vertex 178.71152757990433 -23.006521748424923 3.4999999999999893
  endloop
endfacet
facet normal 7.77448647753484e-17 -4.09436218786832e-17 1.0
  outer loop
    vertex 184.33284792346396 -13.88520140486531 3.4999999999999902
    vertex 178.71152757990433 -18.76388106130565 3.4999999999999893
    vertex 179.33284792346396 -18.287125193511972 3.4999999999999893
  endloop
endfacet
facet normal 7.77448647753484e-17 -4.09436218786832e-17 1.0
  outer loop
    vertex 184.33284792346396 -13.88520140486531 3.4999999999999902
    vertex 179.33284792346396 -18.287125193511972 3.4999999999999893
    vertex 182.33284792346396 -18.287125193511972 3.4999999999999893
  endloop
endfacet
facet normal 7.77448647753484e-17 -4.09436218786832e-17 1.0
  outer loop
    vertex 184.33284792346396 -13.88520140486531 3.4999999999999902
    vertex 182.33284792346396 -18.287125193511972 3.4999999999999893
    vertex 182.9541682670236 -18.76388106130565 3.4999999999999893
  endloop
endfacet
facet normal 7.77448647753484e-17 -4.09436218786832e-17 1.0
  outer loop
    vertex 184.33284792346396 -13.88520140486531 3.4999999999999902
    vertex 182.9541682670236 -18.76388106130565 3.4999999999999893
    vertex 184.33284792346396 -24.88520140486529 3.4999999999999902
  endloop
endfacet
facet normal -0.9963405296085157 -2.4949223960153893e-15 -0.08547250469842556
  outer loop
    vertex 178.58284792346396 -16.98808708783531 5.499999999999991
    vertex 178.71152757990433 -23.006521748424923 3.99999999999999
    vertex 178.58284792346396 -23.006521748424923 5.499999999999991
  endloop
endfacet
facet normal -0.9963405296085157 -2.4949223960153893e-15 -0.08547250469842556
  outer loop
    vertex 178.71152757990433 -23.006521748424923 3.99999999999999
    vertex 178.58284792346396 -16.98808708783531 5.499999999999991
    vertex 178.71152757990433 -18.76388106130565 3.99999999999999
  endloop
endfacet
facet normal -0.3826834323650893 -0.923879532511287 -0.0
  outer loop
    vertex 168.83284792346396 -16.2249473670209 6.999999999999991
    vertex 166.42103837448917 -15.225943141974609 0.0
    vertex 168.83284792346396 -16.2249473670209 0.0
  endloop
endfacet
facet normal -0.3826834323650893 -0.923879532511287 -0.0
  outer loop
    vertex 166.42103837448917 -15.225943141974609 0.0
    vertex 168.83284792346396 -16.2249473670209 6.999999999999991
    vertex 166.42103837448917 -15.225943141974609 6.999999999999991
  endloop
endfacet
facet normal -0.6087614290087231 -0.7933533402912333 -0.0
  outer loop
    vertex 170.9039157353294 -17.81413359299981 6.999999999999991
    vertex 168.83284792346396 -16.2249473670209 0.0
    vertex 170.9039157353294 -17.81413359299981 0.0
  endloop
endfacet
facet normal -0.6087614290087231 -0.7933533402912333 -0.0
  outer loop
    vertex 168.83284792346396 -16.2249473670209 0.0
    vertex 170.9039157353294 -17.81413359299981 6.999999999999991
    vertex 168.83284792346396 -16.2249473670209 6.999999999999991
  endloop
endfacet
facet normal 2.833901759517796e-17 2.10498523364622e-17 -1.0
  outer loop
    vertex 187.83284792346396 -8.885201404865297 7.049916206369744e-16
    vertex 188.16039863657215 -22.27982007666801 1.762479051592436e-15
    vertex 187.83284792346396 -24.73405448878988 3.524958103184872e-16
  endloop
endfacet
facet normal 2.833901759517796e-17 2.10498523364622e-17 -1.0
  outer loop
    vertex 188.16039863657215 -22.27982007666801 1.762479051592436e-15
    vertex 187.83284792346396 -8.885201404865297 7.049916206369744e-16
    vertex 189.16369523279133 -19.86978848604776 1.762479051592436e-15
  endloop
endfacet
facet normal 2.833901759517796e-17 2.10498523364622e-17 -1.0
  outer loop
    vertex 189.16369523279133 -19.86978848604776 1.762479051592436e-15
    vertex 187.83284792346396 -8.885201404865297 7.049916206369744e-16
    vertex 190.75656740145854 -17.801548997483188 1.762479051592436e-15
  endloop
endfacet
facet normal 2.833901759517796e-17 2.10498523364622e-17 -1.0
  outer loop
    vertex 190.75656740145854 -17.801548997483188 1.762479051592436e-15
    vertex 187.83284792346396 -8.885201404865297 7.049916206369744e-16
    vertex 197.83284792346396 -8.885201404865297 7.049916206369744e-16
  endloop
endfacet
facet normal 2.833901759517796e-17 2.10498523364622e-17 -1.0
  outer loop
    vertex 190.75656740145854 -17.801548997483188 1.762479051592436e-15
    vertex 197.83284792346396 -8.885201404865297 7.049916206369744e-16
    vertex 192.8304635366249 -16.216048714192606 1.762479051592436e-15
  endloop
endfacet
facet normal 2.833901759517796e-17 2.10498523364622e-17 -1.0
  outer loop
    vertex 192.8304635366249 -16.216048714192606 1.762479051592436e-15
    vertex 197.83284792346396 -8.885201404865297 7.049916206369744e-16
    vertex 195.24405104395424 -15.22133686031917 1.762479051592436e-15
  endloop
endfacet
facet normal 2.833901759517796e-17 2.10498523364622e-17 -1.0
  outer loop
    vertex 195.24405104395424 -15.22133686031917 1.762479051592436e-15
    vertex 197.83284792346396 -8.885201404865297 7.049916206369744e-16
    vertex 197.83284792346396 -14.885201404865292 1.762479051592436e-15
  endloop
endfacet
facet normal 1.0 -0.0 -0.0
  outer loop
    vertex 197.83284792346396 -8.885201404865297 7.049916206369744e-16
    vertex 197.83284792346396 -14.885201404865292 6.999999999999991
    vertex 197.83284792346396 -14.885201404865292 1.762479051592436e-15
  endloop
endfacet
facet normal 1.0 -0.0 -0.0
  outer loop
    vertex 197.83284792346396 -14.885201404865292 6.999999999999991
    vertex 197.83284792346396 -8.885201404865297 7.049916206369744e-16
    vertex 197.83284792346396 -8.885201404865297 6.99999999999999
  endloop
endfacet
facet normal 0.27175801689781165 0.6560818900783141 -0.7040625922196376
  outer loop
    vertex 183.08284792346396 -16.98808708783531 5.499999999999993
    vertex 182.33284792346396 -18.287125193511972 3.99999999999999
    vertex 182.33284792346396 -16.677426916055488 5.499999999999993
  endloop
endfacet
facet normal 0.7071067811865483 -0.0 0.7071067811865468
  outer loop
    vertex 177.33284792346396 -13.88520140486531 3.4999999999999902
    vertex 173.83284792346396 -24.885201404865267 6.999999999999991
    vertex 177.33284792346396 -24.88520140486529 3.4999999999999902
  endloop
endfacet
facet normal 0.7071067811865483 -0.0 0.7071067811865468
  outer loop
    vertex 173.83284792346396 -24.885201404865267 6.999999999999991
    vertex 177.33284792346396 -13.88520140486531 3.4999999999999902
    vertex 175.33284792346396 -13.88520140486531 5.499999999999991
  endloop
endfacet
facet normal 0.7071067811865483 -0.0 0.7071067811865468
  outer loop
    vertex 173.83284792346396 -24.885201404865267 6.999999999999991
    vertex 175.33284792346396 -13.88520140486531 5.499999999999991
    vertex 173.83284792346396 -8.885201404865297 6.999999999999991
  endloop
endfacet
facet normal 0.7071067811865483 -0.0 0.7071067811865468
  outer loop
    vertex 173.83284792346396 -8.885201404865297 6.999999999999991
    vertex 175.33284792346396 -13.88520140486531 5.499999999999991
    vertex 175.33284792346396 -8.885201404865297 5.499999999999991
  endloop
endfacet
facet normal -0.7071067811865462 1.1437890193539748e-16 -0.7071067811865489
  outer loop
    vertex 187.83284792346396 -8.885201404865297 7.049916206369744e-16
    vertex 186.33284792346396 -24.88520140486529 1.4999999999999898
    vertex 186.33284792346396 -8.885201404865297 1.4999999999999953
  endloop
endfacet
facet normal -0.7071067811865462 1.1437890193539748e-16 -0.7071067811865489
  outer loop
    vertex 186.33284792346396 -24.88520140486529 1.4999999999999898
    vertex 187.83284792346396 -8.885201404865297 7.049916206369744e-16
    vertex 187.83284792346396 -24.885201404865267 7.049916206369744e-16
  endloop
endfacet
facet normal -0.7071067811865462 1.1437890193539748e-16 -0.7071067811865489
  outer loop
    vertex 187.83284792346396 -24.885201404865267 7.049916206369744e-16
    vertex 187.83284792346396 -8.885201404865297 7.049916206369744e-16
    vertex 187.83284792346396 -24.73405448878988 3.524958103184872e-16
  endloop
endfacet
facet normal -0.0 1.0 -0.0
  outer loop
    vertex 163.83284792346396 -8.885201404865297 6.999999999999991
    vertex 173.83284792346396 -8.885201404865297 0.0
    vertex 163.83284792346396 -8.885201404865297 0.0
  endloop
endfacet
facet normal -0.0 1.0 -0.0
  outer loop
    vertex 173.83284792346396 -8.885201404865297 0.0
    vertex 163.83284792346396 -8.885201404865297 6.999999999999991
    vertex 175.33284792346396 -8.885201404865297 1.4999999999999991
  endloop
endfacet
facet normal -0.0 1.0 -0.0
  outer loop
    vertex 175.33284792346396 -8.885201404865297 1.4999999999999991
    vertex 163.83284792346396 -8.885201404865297 6.999999999999991
    vertex 175.33284792346396 -8.885201404865297 5.499999999999991
  endloop
endfacet
facet normal -0.0 1.0 -0.0
  outer loop
    vertex 175.33284792346396 -8.885201404865297 1.4999999999999991
    vertex 175.33284792346396 -8.885201404865297 5.499999999999991
    vertex 186.33284792346396 -8.885201404865297 5.49999999999999
  endloop
endfacet
facet normal -0.0 1.0 -0.0
  outer loop
    vertex 175.33284792346396 -8.885201404865297 5.499999999999991
    vertex 163.83284792346396 -8.885201404865297 6.999999999999991
    vertex 173.83284792346396 -8.885201404865297 6.999999999999991
  endloop
endfacet
facet normal -0.0 1.0 -0.0
  outer loop
    vertex 186.33284792346396 -8.885201404865297 1.4999999999999953
    vertex 197.83284792346396 -8.885201404865297 7.049916206369744e-16
    vertex 187.83284792346396 -8.885201404865297 7.049916206369744e-16
  endloop
endfacet
facet normal -0.0 1.0 -0.0
  outer loop
    vertex 197.83284792346396 -8.885201404865297 7.049916206369744e-16
    vertex 186.33284792346396 -8.885201404865297 1.4999999999999953
    vertex 197.83284792346396 -8.885201404865297 6.99999999999999
  endloop
endfacet
facet normal -0.0 1.0 -0.0
  outer loop
    vertex 197.83284792346396 -8.885201404865297 6.99999999999999
    vertex 186.33284792346396 -8.885201404865297 1.4999999999999953
    vertex 175.33284792346396 -8.885201404865297 1.4999999999999991
  endloop
endfacet
facet normal -0.0 1.0 -0.0
  outer loop
    vertex 197.83284792346396 -8.885201404865297 6.99999999999999
    vertex 175.33284792346396 -8.885201404865297 1.4999999999999991
    vertex 186.33284792346396 -8.885201404865297 5.49999999999999
  endloop
endfacet
facet normal -0.0 1.0 -0.0
  outer loop
    vertex 197.83284792346396 -8.885201404865297 6.99999999999999
    vertex 186.33284792346396 -8.885201404865297 5.49999999999999
    vertex 187.83284792346396 -8.885201404865297 6.99999999999999
  endloop
endfacet
facet normal 0.6079329883067472 -0.7922736953485362 -0.052152405382715344
  outer loop
    vertex 183.08284792346396 -23.006521748424923 5.499999999999993
    vertex 182.33284792346396 -23.483277616218597 3.99999999999999
    vertex 182.9541682670236 -23.006521748424923 3.99999999999999
  endloop
endfacet
facet normal 0.6087614290087172 0.7933533402912377 0.0
  outer loop
    vertex 182.33284792346396 -18.287125193511972 3.99999999999999
    vertex 182.9541682670236 -18.76388106130565 3.4999999999999893
    vertex 182.33284792346396 -18.287125193511972 3.4999999999999893
  endloop
endfacet
facet normal 0.6087614290087172 0.7933533402912377 0.0
  outer loop
    vertex 182.9541682670236 -18.76388106130565 3.4999999999999893
    vertex 182.33284792346396 -18.287125193511972 3.99999999999999
    vertex 182.9541682670236 -18.76388106130565 3.99999999999999
  endloop
endfacet
facet normal 0.43230457532182087 0.5633902913547442 -0.7040625922196383
  outer loop
    vertex 183.08284792346396 -16.98808708783531 5.499999999999993
    vertex 182.9541682670236 -18.76388106130565 3.99999999999999
    vertex 182.33284792346396 -18.287125193511972 3.99999999999999
  endloop
endfacet
facet normal 0.6087614290087172 -0.7933533402912379 0.0
  outer loop
    vertex 182.9541682670236 -23.006521748424923 3.99999999999999
    vertex 182.33284792346396 -23.483277616218597 3.4999999999999893
    vertex 182.9541682670236 -23.006521748424923 3.4999999999999893
  endloop
endfacet
facet normal 0.6087614290087172 -0.7933533402912379 0.0
  outer loop
    vertex 182.33284792346396 -23.483277616218597 3.4999999999999893
    vertex 182.9541682670236 -23.006521748424923 3.99999999999999
    vertex 182.33284792346396 -23.483277616218597 3.99999999999999
  endloop
endfacet
facet normal 7.230683288584351e-16 5.881459925649027e-31 1.0
  outer loop
    vertex 178.58284792346396 -23.006521748424923 6.499999999999996
    vertex 179.33284792346396 -16.677426916055488 6.499999999999996
    vertex 178.58284792346396 -16.98808708783531 6.499999999999996
  endloop
endfacet
facet normal 7.230683288584351e-16 5.881459925649027e-31 1.0
  outer loop
    vertex 179.33284792346396 -16.677426916055488 6.499999999999996
    vertex 178.58284792346396 -23.006521748424923 6.499999999999996
    vertex 179.33284792346396 -23.483277616218597 6.499999999999996
  endloop
endfacet
facet normal 7.230683288584351e-16 5.881459925649027e-31 1.0
  outer loop
    vertex 179.33284792346396 -16.677426916055488 6.499999999999996
    vertex 179.33284792346396 -23.483277616218597 6.499999999999996
    vertex 182.33284792346396 -23.483277616218597 6.499999999999992
  endloop
endfacet
facet normal 7.230683288584351e-16 5.881459925649027e-31 1.0
  outer loop
    vertex 179.33284792346396 -16.677426916055488 6.499999999999996
    vertex 182.33284792346396 -23.483277616218597 6.499999999999992
    vertex 182.33284792346396 -16.677426916055488 6.499999999999992
  endloop
endfacet
facet normal 7.230683288584351e-16 5.881459925649027e-31 1.0
  outer loop
    vertex 182.33284792346396 -16.677426916055488 6.499999999999992
    vertex 182.33284792346396 -23.483277616218597 6.499999999999992
    vertex 183.08284792346396 -23.006521748424923 6.499999999999992
  endloop
endfacet
facet normal 7.230683288584351e-16 5.881459925649027e-31 1.0
  outer loop
    vertex 182.33284792346396 -16.677426916055488 6.499999999999992
    vertex 183.08284792346396 -23.006521748424923 6.499999999999992
    vertex 183.08284792346396 -16.98808708783531 6.499999999999992
  endloop
endfacet
facet normal -0.7071067811865481 2.832767490344069e-18 0.707106781186547
  outer loop
    vertex 187.83284792346396 -8.885201404865297 6.99999999999999
    vertex 186.33284792346396 -13.88520140486531 5.49999999999999
    vertex 187.83284792346396 -24.73405448878988 6.99999999999999
  endloop
endfacet
facet normal -0.7071067811865481 2.832767490344069e-18 0.707106781186547
  outer loop
    vertex 186.33284792346396 -13.88520140486531 5.49999999999999
    vertex 187.83284792346396 -8.885201404865297 6.99999999999999
    vertex 186.33284792346396 -8.885201404865297 5.49999999999999
  endloop
endfacet
facet normal -0.7071067811865481 2.832767490344069e-18 0.707106781186547
  outer loop
    vertex 187.83284792346396 -24.73405448878988 6.99999999999999
    vertex 184.33284792346396 -24.88520140486529 3.4999999999999902
    vertex 187.83284792346396 -24.88520140486529 6.99999999999999
  endloop
endfacet
facet normal -0.7071067811865481 2.832767490344069e-18 0.707106781186547
  outer loop
    vertex 184.33284792346396 -24.88520140486529 3.4999999999999902
    vertex 187.83284792346396 -24.73405448878988 6.99999999999999
    vertex 184.33284792346396 -13.88520140486531 3.4999999999999902
  endloop
endfacet
facet normal -0.7071067811865481 2.832767490344069e-18 0.707106781186547
  outer loop
    vertex 184.33284792346396 -13.88520140486531 3.4999999999999902
    vertex 187.83284792346396 -24.73405448878988 6.99999999999999
    vertex 186.33284792346396 -13.88520140486531 5.49999999999999
  endloop
endfacet
facet normal 1.0 0.0 0.0
  outer loop
    vertex 183.08284792346396 -16.98808708783531 5.499999999999993
    vertex 183.08284792346396 -23.006521748424923 6.499999999999992
    vertex 183.08284792346396 -23.006521748424923 5.499999999999993
  endloop
endfacet
facet normal 1.0 0.0 0.0
  outer loop
    vertex 183.08284792346396 -23.006521748424923 6.499999999999992
    vertex 183.08284792346396 -16.98808708783531 5.499999999999993
    vertex 183.08284792346396 -16.98808708783531 6.499999999999992
  endloop
endfacet
facet normal -0.6087614290087312 -0.7933533402912272 0.0
  outer loop
    vertex 179.33284792346396 -23.483277616218597 3.99999999999999
    vertex 178.71152757990433 -23.006521748424923 3.4999999999999893
    vertex 179.33284792346396 -23.483277616218597 3.4999999999999893
  endloop
endfacet
facet normal -0.6087614290087312 -0.7933533402912272 0.0
  outer loop
    vertex 178.71152757990433 -23.006521748424923 3.4999999999999893
    vertex 179.33284792346396 -23.483277616218597 3.99999999999999
    vertex 178.71152757990433 -23.006521748424923 3.99999999999999
  endloop
endfacet
facet normal -0.5364614741932524 -0.8439248110503699 0.0
  outer loop
    vertex 179.33284792346396 -23.483277616218597 6.499999999999996
    vertex 178.58284792346396 -23.006521748424923 5.499999999999991
    vertex 179.33284792346396 -23.483277616218597 3.99999999999999
  endloop
endfacet
facet normal -0.5364614741932524 -0.8439248110503699 0.0
  outer loop
    vertex 178.58284792346396 -23.006521748424923 5.499999999999991
    vertex 179.33284792346396 -23.483277616218597 6.499999999999996
    vertex 178.58284792346396 -23.006521748424923 6.499999999999996
  endloop
endfacet
facet normal 0.7071067811865477 4.636966784566167e-17 -0.7071067811865474
  outer loop
    vertex 173.83284792346396 -8.885201404865297 0.0
    vertex 175.33284792346396 -24.885201404865267 1.4999999999999971
    vertex 173.83284792346396 -24.885201404865267 0.0
  endloop
endfacet
facet normal 0.7071067811865477 4.636966784566167e-17 -0.7071067811865474
  outer loop
    vertex 175.33284792346396 -24.885201404865267 1.4999999999999971
    vertex 173.83284792346396 -8.885201404865297 0.0
    vertex 175.33284792346396 -8.885201404865297 1.4999999999999991
  endloop
endfacet
facet normal 1.2358418847819464e-16 -7.049916206369739e-17 1.0
  outer loop
    vertex 186.33284792346396 -13.88520140486531 5.49999999999999
    vertex 175.33284792346396 -8.885201404865297 5.499999999999991
    vertex 175.33284792346396 -13.88520140486531 5.499999999999991
  endloop
endfacet
facet normal 1.2358418847819464e-16 -7.049916206369739e-17 1.0
  outer loop
    vertex 175.33284792346396 -8.885201404865297 5.499999999999991
    vertex 186.33284792346396 -13.88520140486531 5.49999999999999
    vertex 186.33284792346396 -8.885201404865297 5.49999999999999
  endloop
endfacet
facet normal -0.6079329883067611 -0.7922736953485255 -0.05215240538271667
  outer loop
    vertex 178.58284792346396 -23.006521748424923 5.499999999999991
    vertex 178.71152757990433 -23.006521748424923 3.99999999999999
    vertex 179.33284792346396 -23.483277616218597 3.99999999999999
  endloop
endfacet
endsolid AutoSave_Spring_Connector
